<svg width="209" height="191" viewBox="0 0 209 191" fill="none" xmlns="http://www.w3.org/2000/svg">
<path d="M0 22C0 9.84974 9.84974 0 22 0H187C199.15 0 209 9.84974 209 22V103C209 115.15 199.15 125 187 125H0V22Z" fill="white"/>
<path d="M0 191V123H68L0 191Z" fill="white"/>
<path d="M60.9069 79.3797H39.8074L35.7961 91.2112H23L44.7413 33.7888H55.8928L77.7544 91.2112H64.9583L60.9069 79.3797ZM43.0566 69.7961H57.6578L50.317 48.3021L43.0566 69.7961Z" fill="black"/>
<path d="M83.2098 91.2112V33.7888H101.181C106.315 33.7888 110.901 34.9325 114.939 37.2199C119.004 39.4811 122.173 42.715 124.446 46.9218C126.719 51.1023 127.856 55.8612 127.856 61.1985V63.8409C127.856 69.1783 126.733 73.924 124.486 78.0782C122.267 82.2324 119.124 85.4532 115.06 87.7406C110.995 90.0281 106.409 91.1849 101.301 91.2112H83.2098ZM95.2438 43.3723V81.7066H101.06C105.767 81.7066 109.364 80.1947 111.851 77.1711C114.338 74.1475 115.608 69.8224 115.661 64.1959V61.1591C115.661 55.3222 114.431 50.9051 111.971 47.9078C109.511 44.8841 105.914 43.3723 101.181 43.3723H95.2438Z" fill="black"/>
<path d="M166.926 76.1457C166.926 73.9109 166.124 72.2019 164.519 71.0187C162.915 69.8093 160.026 68.5472 155.855 67.2326C151.683 65.8917 148.38 64.5771 145.947 63.2888C139.315 59.7656 135.999 55.0198 135.999 49.0515C135.999 45.949 136.881 43.1883 138.646 40.7694C140.438 38.3242 142.992 36.418 146.308 35.0508C149.651 33.6836 153.394 33 157.539 33C161.711 33 165.428 33.7493 168.691 35.248C171.953 36.7204 174.481 38.8106 176.272 41.5187C178.091 44.2268 179 47.303 179 50.7473H166.966C166.966 48.1181 166.124 46.0804 164.439 44.6344C162.754 43.162 160.387 42.4258 157.339 42.4258C154.397 42.4258 152.111 43.0437 150.48 44.2794C148.848 45.4889 148.033 47.0927 148.033 49.0909C148.033 50.9577 148.982 52.5221 150.881 53.7841C152.806 55.0461 155.627 56.2293 159.345 57.3336C166.191 59.3581 171.178 61.869 174.307 64.8663C177.436 67.8636 179 71.5971 179 76.0668C179 81.0361 177.088 84.9405 173.264 87.7801C169.44 90.5934 164.292 92 157.82 92C153.328 92 149.236 91.1981 145.546 89.5942C141.855 87.9641 139.034 85.7424 137.082 82.9291C135.156 80.1159 134.194 76.8556 134.194 73.1484H146.268C146.268 79.4848 150.119 82.6531 157.82 82.6531C160.682 82.6531 162.915 82.0878 164.519 80.9572C166.124 79.8004 166.926 78.1965 166.926 76.1457Z" fill="black"/>
</svg>
