<svg width="361" height="234" viewBox="0 0 361 234" fill="none" xmlns="http://www.w3.org/2000/svg">
<rect x="3" y="3" width="355" height="228" rx="14" stroke="#3AB14D" stroke-width="6"/>
<path d="M228.043 163.852H329.791C330.863 163.852 331.892 163.426 332.65 162.667C333.408 161.909 333.834 160.881 333.834 159.809C333.834 158.736 333.408 157.708 332.65 156.95C331.892 156.192 330.863 155.766 329.791 155.766H228.043C226.971 155.766 225.942 156.192 225.184 156.95C224.426 157.708 224 158.736 224 159.809C224 160.881 224.426 161.909 225.184 162.667C225.942 163.426 226.971 163.852 228.043 163.852Z" fill="#C4C4C4"/>
<path d="M228.043 185.414H329.791C330.863 185.414 331.892 184.988 332.65 184.23C333.408 183.472 333.834 182.443 333.834 181.371C333.834 180.299 333.408 179.27 332.65 178.512C331.892 177.754 330.863 177.328 329.791 177.328H228.043C226.971 177.328 225.942 177.754 225.184 178.512C224.426 179.27 224 180.299 224 181.371C224 182.443 224.426 183.472 225.184 184.23C225.942 184.988 226.971 185.414 228.043 185.414Z" fill="#C4C4C4"/>
<path d="M36.2618 25H33.043C31.9707 25 30.9424 25.426 30.1842 26.1842C29.426 26.9424 29 27.9707 29 29.043C29 30.1152 29.426 31.1436 30.1842 31.9018C30.9424 32.66 31.9707 33.0859 33.043 33.0859H36.2618C37.3341 33.0859 38.3625 32.66 39.1207 31.9018C39.8789 31.1436 40.3048 30.1152 40.3048 29.043C40.3048 27.9707 39.8789 26.9424 39.1207 26.1842C38.3625 25.426 37.3341 25 36.2618 25V25Z" fill="#C4C4C4"/>
<path d="M98.9279 25H50.9668C49.8945 25 48.8662 25.426 48.108 26.1842C47.3498 26.9424 46.9238 27.9707 46.9238 29.043C46.9238 30.1152 47.3498 31.1436 48.108 31.9018C48.8662 32.66 49.8945 33.0859 50.9668 33.0859H98.9279C100 33.0859 101.028 32.66 101.787 31.9018C102.545 31.1436 102.971 30.1152 102.971 29.043C102.971 27.9707 102.545 26.9424 101.787 26.1842C101.028 25.426 100 25 98.9279 25Z" fill="#C4C4C4"/>
<rect x="3" y="110" width="355" height="7" fill="#3AB14D"/>
<path d="M35.2197 80.7451H47.7559V84H30.2891V81.3574L42.4224 63.8262H30.3696V60.5391H47.3691V63.1172L35.2197 80.7451ZM66.415 84H50.6401V81.3091L58.4551 72.7852C59.583 71.5283 60.3833 70.481 60.856 69.6431C61.3394 68.7944 61.5811 67.9458 61.5811 67.0972C61.5811 65.98 61.2642 65.0776 60.6304 64.3901C60.0073 63.7026 59.1641 63.3589 58.1006 63.3589C56.833 63.3589 55.8501 63.7456 55.1519 64.519C54.4536 65.2925 54.1045 66.3506 54.1045 67.6934H50.189C50.189 66.2646 50.5112 64.981 51.1558 63.8423C51.811 62.6929 52.7402 61.8013 53.9434 61.1675C55.1572 60.5337 56.5537 60.2168 58.1328 60.2168C60.4102 60.2168 62.2041 60.7915 63.5146 61.9409C64.8359 63.0796 65.4966 64.6587 65.4966 66.6782C65.4966 67.8491 65.1636 69.0791 64.4976 70.3682C63.8423 71.6465 62.7627 73.1021 61.2588 74.7349L55.5225 80.874H66.415V84ZM79.9985 84H76.0991V65.1636L70.3467 67.1294V63.8262L79.499 60.4585H79.9985V84ZM103.443 74.1226C103.443 77.4956 102.81 80.0415 101.542 81.7603C100.285 83.4683 98.3677 84.3223 95.7896 84.3223C93.2544 84.3223 91.3423 83.4897 90.0532 81.8247C88.7749 80.1489 88.1196 77.6729 88.0874 74.3965V70.3359C88.0874 66.9629 88.7158 64.4331 89.9727 62.7466C91.2402 61.0601 93.1685 60.2168 95.7573 60.2168C98.3247 60.2168 100.237 61.0386 101.494 62.6821C102.761 64.3257 103.411 66.7856 103.443 70.062V74.1226ZM99.5278 69.7397C99.5278 67.5376 99.2271 65.9263 98.6255 64.9058C98.0239 63.8745 97.0679 63.3589 95.7573 63.3589C94.479 63.3589 93.5391 63.8477 92.9375 64.8252C92.3359 65.792 92.019 67.3066 91.9868 69.3691V74.6865C91.9868 76.8779 92.293 78.5107 92.9053 79.585C93.5176 80.6592 94.479 81.1963 95.7896 81.1963C97.0464 81.1963 97.9756 80.7021 98.5771 79.7139C99.1787 78.7148 99.4956 77.1572 99.5278 75.041V69.7397ZM122.521 62.7144L113.144 84H109.035L118.396 63.6812H106.263V60.5391H122.521V62.7144ZM138.909 75.6372H141.825V78.7793H138.909V84H134.993V78.7793H124.858L124.745 76.3945L134.864 60.5391H138.909V75.6372ZM128.854 75.6372H134.993V65.8403L134.703 66.356L128.854 75.6372ZM159.711 74.1226C159.711 77.4956 159.077 80.0415 157.81 81.7603C156.553 83.4683 154.635 84.3223 152.057 84.3223C149.522 84.3223 147.61 83.4897 146.321 81.8247C145.042 80.1489 144.387 77.6729 144.355 74.3965V70.3359C144.355 66.9629 144.983 64.4331 146.24 62.7466C147.508 61.0601 149.436 60.2168 152.025 60.2168C154.592 60.2168 156.504 61.0386 157.761 62.6821C159.029 64.3257 159.679 66.7856 159.711 70.062V74.1226ZM155.795 69.7397C155.795 67.5376 155.495 65.9263 154.893 64.9058C154.292 63.8745 153.335 63.3589 152.025 63.3589C150.747 63.3589 149.807 63.8477 149.205 64.8252C148.604 65.792 148.287 67.3066 148.254 69.3691V74.6865C148.254 76.8779 148.561 78.5107 149.173 79.585C149.785 80.6592 150.747 81.1963 152.057 81.1963C153.314 81.1963 154.243 80.7021 154.845 79.7139C155.446 78.7148 155.763 77.1572 155.795 75.041V69.7397ZM178.789 62.7144L169.411 84H165.302L174.664 63.6812H162.531V60.5391H178.789V62.7144ZM193.033 74.187C191.723 75.5728 190.192 76.2656 188.441 76.2656C186.378 76.2656 184.735 75.5459 183.51 74.1064C182.286 72.6562 181.673 70.7549 181.673 68.4023C181.673 66.8555 181.985 65.4536 182.608 64.1968C183.231 62.9399 184.117 61.9624 185.267 61.2642C186.416 60.5659 187.748 60.2168 189.263 60.2168C191.626 60.2168 193.5 61.0977 194.886 62.8594C196.272 64.6211 196.965 66.979 196.965 69.9331V71.0288C196.965 75.2612 196.009 78.4893 194.097 80.7129C192.185 82.9365 189.333 84.0645 185.541 84.0967H185.073V80.8579H185.637C187.947 80.8257 189.719 80.2725 190.955 79.1982C192.19 78.1133 192.883 76.4429 193.033 74.187ZM189.263 73.2041C190.047 73.2041 190.783 72.9785 191.47 72.5273C192.158 72.0762 192.689 71.4531 193.065 70.6582V69.1274C193.065 67.3979 192.711 66.0068 192.002 64.9541C191.293 63.9014 190.375 63.375 189.247 63.375C188.119 63.375 187.216 63.8423 186.54 64.7769C185.874 65.7007 185.541 66.8716 185.541 68.2896C185.541 69.7612 185.879 70.9482 186.556 71.8506C187.232 72.7529 188.135 73.2041 189.263 73.2041ZM211.789 74.187C210.479 75.5728 208.948 76.2656 207.197 76.2656C205.134 76.2656 203.491 75.5459 202.266 74.1064C201.042 72.6562 200.429 70.7549 200.429 68.4023C200.429 66.8555 200.741 65.4536 201.364 64.1968C201.987 62.9399 202.873 61.9624 204.022 61.2642C205.172 60.5659 206.504 60.2168 208.019 60.2168C210.382 60.2168 212.256 61.0977 213.642 62.8594C215.028 64.6211 215.721 66.979 215.721 69.9331V71.0288C215.721 75.2612 214.765 78.4893 212.853 80.7129C210.94 82.9365 208.088 84.0645 204.296 84.0967H203.829V80.8579H204.393C206.703 80.8257 208.475 80.2725 209.71 79.1982C210.946 78.1133 211.639 76.4429 211.789 74.187ZM208.019 73.2041C208.803 73.2041 209.539 72.9785 210.226 72.5273C210.914 72.0762 211.445 71.4531 211.821 70.6582V69.1274C211.821 67.3979 211.467 66.0068 210.758 64.9541C210.049 63.9014 209.13 63.375 208.002 63.375C206.875 63.375 205.972 63.8423 205.295 64.7769C204.629 65.7007 204.296 66.8716 204.296 68.2896C204.296 69.7612 204.635 70.9482 205.312 71.8506C205.988 72.7529 206.891 73.2041 208.019 73.2041ZM232.688 75.6372H235.604V78.7793H232.688V84H228.772V78.7793H218.637L218.524 76.3945L228.644 60.5391H232.688V75.6372ZM222.633 75.6372H228.772V65.8403L228.482 66.356L222.633 75.6372ZM239.246 72.3662L240.519 60.5391H253.12V63.9229H243.774L243.129 69.5303C244.214 68.9072 245.439 68.5957 246.803 68.5957C249.038 68.5957 250.772 69.3101 252.008 70.7388C253.254 72.1675 253.877 74.0903 253.877 76.5073C253.877 78.8921 253.189 80.7935 251.814 82.2114C250.439 83.6187 248.554 84.3223 246.159 84.3223C244.01 84.3223 242.227 83.7153 240.809 82.5015C239.402 81.2769 238.639 79.6655 238.521 77.6675H242.308C242.458 78.8062 242.866 79.6816 243.532 80.2939C244.198 80.8955 245.068 81.1963 246.143 81.1963C247.346 81.1963 248.28 80.7666 248.946 79.9072C249.623 79.0479 249.961 77.877 249.961 76.3945C249.961 74.9658 249.591 73.8379 248.85 73.0107C248.108 72.1729 247.088 71.7539 245.788 71.7539C245.079 71.7539 244.478 71.8506 243.983 72.0439C243.489 72.2266 242.952 72.5918 242.372 73.1396L239.246 72.3662ZM272.246 74.1226C272.246 77.4956 271.612 80.0415 270.345 81.7603C269.088 83.4683 267.17 84.3223 264.592 84.3223C262.057 84.3223 260.145 83.4897 258.856 81.8247C257.578 80.1489 256.922 77.6729 256.89 74.3965V70.3359C256.89 66.9629 257.519 64.4331 258.775 62.7466C260.043 61.0601 261.971 60.2168 264.56 60.2168C267.127 60.2168 269.04 61.0386 270.296 62.6821C271.564 64.3257 272.214 66.7856 272.246 70.062V74.1226ZM268.331 69.7397C268.331 67.5376 268.03 65.9263 267.428 64.9058C266.827 63.8745 265.871 63.3589 264.56 63.3589C263.282 63.3589 262.342 63.8477 261.74 64.8252C261.139 65.792 260.822 67.3066 260.79 69.3691V74.6865C260.79 76.8779 261.096 78.5107 261.708 79.585C262.32 80.6592 263.282 81.1963 264.592 81.1963C265.849 81.1963 266.778 80.7021 267.38 79.7139C267.981 78.7148 268.298 77.1572 268.331 75.041V69.7397Z" fill="#3AB14D"/>
<path d="M171.82 170.89L168.416 173.965L171.489 177.366L174.892 174.291L171.82 170.89Z" fill="#C4C4C4"/>
<path d="M165.038 173.656L160.499 177.742L164.587 182.282L169.125 178.197L165.038 173.656Z" fill="#C4C4C4"/>
<path d="M177.958 169.808L175.691 171.851L177.734 174.118L180.001 172.075L177.958 169.808Z" fill="#C4C4C4"/>
<path d="M165.769 156.863L162.363 159.929L165.429 163.336L168.836 160.269L165.769 156.863Z" fill="#C4C4C4"/>
<path d="M175.055 163.033L172.793 165.077L174.839 167.342L177.101 165.298L175.055 163.033Z" fill="#C4C4C4"/>
<path d="M50.2098 163.225L47.9863 174.749H47.8322L44.8037 163.225H42.865L40.0341 174.749H39.88L37.4415 163.225H35L38.5285 178.67H40.8828L43.7573 167.797H43.9114L46.8731 178.67H49.2274L52.7588 163.225H50.2098Z" fill="#C4C4C4"/>
<path d="M161.817 165.79L157.274 169.88L161.361 174.42L165.904 170.331L161.817 165.79Z" fill="#C4C4C4"/>
<path d="M158.573 158.053L154.032 162.14L158.119 166.681L162.66 162.594L158.573 158.053Z" fill="#C4C4C4"/>
<path d="M168.898 163.713L165.5 166.78L168.573 170.185L171.971 167.118L168.898 163.713Z" fill="#C4C4C4"/>
<path d="M172.142 156.3L169.875 158.343L171.918 160.61L174.185 158.567L172.142 156.3Z" fill="#C4C4C4"/>
<path d="M134.853 167.884L132.38 175.909H132.249L129.462 167.887H127.067L131.246 178.783C130.723 180.397 129.81 181.571 128.328 181.571V183.353C130.831 183.353 132.159 181.786 133.249 178.778L137.187 167.884H134.853V167.884Z" fill="#C4C4C4"/>
<path d="M62.7339 172.84C62.7368 169.279 61.0597 167.521 58.3363 167.521C55.0694 167.521 53.3923 169.913 53.3923 173.226C53.3923 176.67 54.8979 178.935 58.5543 178.935C60.1209 178.935 61.4288 178.499 62.4083 177.926V176.278C61.2108 176.99 60.1209 177.409 58.9467 177.409C56.7058 177.409 55.6362 176.258 55.6362 173.639H62.7339V172.84V172.84ZM55.6798 172.177C55.9181 170.003 56.9441 168.977 58.2724 168.977C59.4495 168.977 60.5598 169.887 60.6673 172.177H55.6798Z" fill="#C4C4C4"/>
<path d="M174.818 177.772L171.413 180.84L174.484 184.248L177.889 181.179L174.818 177.772Z" fill="#C4C4C4"/>
<path d="M126.378 172.84C126.384 169.279 124.704 167.521 121.983 167.521C118.713 167.521 117.039 169.913 117.039 173.226C117.039 176.67 118.542 178.935 122.198 178.935C123.765 178.935 125.067 178.499 126.049 177.926V176.278C124.855 176.99 123.765 177.409 122.591 177.409C120.35 177.409 119.277 176.258 119.277 173.639H126.378V172.84V172.84ZM119.321 172.177C119.565 170.003 120.591 168.977 121.919 168.977C123.09 168.977 124.207 169.887 124.314 172.177H119.321Z" fill="#C4C4C4"/>
<path d="M168.845 181.632L164.407 185.724L156.914 177.385L158.998 175.551L153.751 169.677L155.847 167.84L150.522 161.972L158.832 154.491L161.471 157.38L165.927 153.404L168.56 156.133L170.316 154.561C169.923 154.334 169.531 154.125 169.133 153.936C166.601 152.698 163.758 152 160.765 152C150.252 152 141.675 160.574 141.675 171.09C141.675 181.603 150.252 190.177 160.765 190.177C164.18 190.177 167.397 189.273 170.173 187.689C171.089 187.172 171.923 186.611 172.684 186.021L168.845 181.632Z" fill="#C4C4C4"/>
<path d="M69.9247 167.521C68.7475 167.521 67.6372 167.977 66.9804 168.326V162.118L64.7162 162.661V177.865C66.0241 178.56 67.8087 178.932 68.9655 178.932C72.1249 178.932 74.0839 176.947 74.0839 172.872C74.0839 169.393 72.6248 167.521 69.9247 167.521ZM68.9655 177.406C68.4191 177.406 67.6605 177.365 66.9629 177.06V169.936C67.8349 169.457 68.4685 169.218 69.3346 169.218C70.7937 169.218 71.7994 170.113 71.7994 172.875C71.7994 176.403 70.5786 177.406 68.9655 177.406Z" fill="#C4C4C4"/>
<path d="M111.421 167.515C108.915 167.515 106.846 168.538 105.866 169.125V178.664H108.128V170.041C108.802 169.648 109.915 169.256 110.784 169.256C111.903 169.256 112.749 169.561 112.749 171.282V178.667H115.013V170.785C115.013 168.544 114.031 167.521 111.421 167.515Z" fill="#C4C4C4"/>
<path d="M88.7676 163.225L84.1113 175.4H84.0009L79.1208 163.225H76.4875V178.67H78.4465V167.733H78.6413L83.0853 178.67H84.4775L88.9216 167.468H89.1163V178.67H91.4677V163.225H88.7676Z" fill="#C4C4C4"/>
<path d="M98.8298 167.521C95.9552 167.521 93.8625 169.416 93.8625 173.226C93.8625 176.949 95.8477 178.935 98.8298 178.935C101.815 178.935 103.797 176.949 103.797 173.226C103.797 169.413 101.704 167.521 98.8298 167.521ZM98.8298 177.406C97.2835 177.406 96.15 176.214 96.15 173.226C96.15 170.285 97.394 169.044 98.8298 169.044C100.312 169.044 101.51 170.285 101.51 173.226C101.51 176.211 100.376 177.406 98.8298 177.406Z" fill="#C4C4C4"/>
</svg>
