<svg width="361" height="234" viewBox="0 0 361 234" fill="none" xmlns="http://www.w3.org/2000/svg">
<path d="M28.043 118.086H129.791C130.863 118.086 131.892 117.66 132.65 116.902C133.408 116.144 133.834 115.115 133.834 114.043C133.834 112.971 133.408 111.942 132.65 111.184C131.892 110.426 130.863 110 129.791 110H28.043C26.9707 110 25.9424 110.426 25.1842 111.184C24.426 111.942 24 112.971 24 114.043C24 115.115 24.426 116.144 25.1842 116.902C25.9424 117.66 26.9707 118.086 28.043 118.086Z" fill="#C4C4C4"/>
<path d="M31.2618 80H28.043C26.9707 80 25.9424 80.426 25.1842 81.1842C24.426 81.9424 24 82.9707 24 84.043C24 85.1152 24.426 86.1436 25.1842 86.9018C25.9424 87.66 26.9707 88.0859 28.043 88.0859H31.2618C32.3341 88.0859 33.3625 87.66 34.1207 86.9018C34.8789 86.1436 35.3048 85.1152 35.3048 84.043C35.3048 82.9707 34.8789 81.9424 34.1207 81.1842C33.3625 80.426 32.3341 80 31.2618 80V80Z" fill="#C4C4C4"/>
<rect x="3" y="3" width="355" height="228" rx="14" stroke="#3AB14D" stroke-width="6"/>
<path d="M28.4434 152.232C29.4118 151.109 30.6366 150.548 32.1177 150.548C34.9334 150.548 36.3617 152.155 36.4023 155.37V164H33.436V155.479C33.436 154.568 33.2367 153.925 32.8379 153.551C32.4473 153.168 31.8695 152.977 31.1045 152.977C29.9163 152.977 29.0293 153.506 28.4434 154.564V164H25.4771V145.25H28.4434V152.232ZM43.1284 147.582V150.792H45.46V152.989H43.1284V160.362C43.1284 160.867 43.2261 161.233 43.4214 161.461C43.6248 161.681 43.9829 161.791 44.4956 161.791C44.8374 161.791 45.1833 161.75 45.5332 161.668V163.963C44.8577 164.151 44.2067 164.244 43.5801 164.244C41.3014 164.244 40.1621 162.987 40.1621 160.472V152.989H37.9893V150.792H40.1621V147.582H43.1284ZM51.4536 147.582V150.792H53.7852V152.989H51.4536V160.362C51.4536 160.867 51.5513 161.233 51.7466 161.461C51.95 161.681 52.3081 161.791 52.8208 161.791C53.1626 161.791 53.5085 161.75 53.8584 161.668V163.963C53.1829 164.151 52.5319 164.244 51.9053 164.244C49.6266 164.244 48.4873 162.987 48.4873 160.472V152.989H46.3145V150.792H48.4873V147.582H51.4536ZM67.6279 157.53C67.6279 159.573 67.1641 161.205 66.2363 162.425C65.3086 163.638 64.0635 164.244 62.501 164.244C61.0524 164.244 59.8927 163.768 59.022 162.816V169.078H56.0557V150.792H58.79L58.9121 152.135C59.7829 151.077 60.967 150.548 62.4644 150.548C64.0757 150.548 65.3371 151.15 66.2485 152.354C67.1681 153.551 67.6279 155.215 67.6279 157.347V157.53ZM64.6738 157.274C64.6738 155.956 64.4093 154.91 63.8804 154.137C63.3595 153.364 62.6108 152.977 61.6343 152.977C60.4217 152.977 59.5509 153.478 59.022 154.479V160.338C59.5591 161.363 60.438 161.876 61.6587 161.876C62.6027 161.876 63.3392 161.498 63.8682 160.741C64.4053 159.976 64.6738 158.82 64.6738 157.274ZM77.5522 160.411C77.5522 159.882 77.3325 159.479 76.8931 159.203C76.4618 158.926 75.7415 158.682 74.7324 158.47C73.7233 158.259 72.881 157.99 72.2056 157.665C70.7244 156.948 69.9839 155.911 69.9839 154.552C69.9839 153.412 70.464 152.46 71.4243 151.695C72.3846 150.93 73.6053 150.548 75.0864 150.548C76.6652 150.548 77.9388 150.938 78.9072 151.72C79.8838 152.501 80.3721 153.514 80.3721 154.759H77.4058C77.4058 154.19 77.1942 153.718 76.771 153.343C76.3478 152.961 75.7863 152.77 75.0864 152.77C74.4354 152.77 73.9023 152.92 73.4873 153.221C73.0804 153.522 72.877 153.925 72.877 154.43C72.877 154.885 73.0682 155.239 73.4507 155.492C73.8332 155.744 74.6063 156 75.77 156.261C76.9338 156.513 77.8452 156.818 78.5044 157.176C79.1717 157.526 79.6641 157.949 79.9814 158.446C80.307 158.942 80.4697 159.544 80.4697 160.252C80.4697 161.441 79.9774 162.405 78.9927 163.146C78.008 163.878 76.7181 164.244 75.123 164.244C74.0407 164.244 73.0763 164.049 72.23 163.658C71.3836 163.268 70.7244 162.73 70.2524 162.047C69.7804 161.363 69.5444 160.627 69.5444 159.837H72.4253C72.466 160.537 72.7305 161.078 73.2188 161.461C73.707 161.835 74.354 162.022 75.1597 162.022C75.9409 162.022 76.535 161.876 76.9419 161.583C77.3488 161.282 77.5522 160.891 77.5522 160.411ZM84.8521 160.875C85.4054 160.875 85.8327 161.034 86.1338 161.351C86.4349 161.66 86.5854 162.051 86.5854 162.523C86.5854 162.987 86.4349 163.373 86.1338 163.683C85.8327 163.984 85.4054 164.134 84.8521 164.134C84.3231 164.134 83.904 163.984 83.5947 163.683C83.2855 163.382 83.1309 162.995 83.1309 162.523C83.1309 162.051 83.2814 161.66 83.5825 161.351C83.8836 161.034 84.3068 160.875 84.8521 160.875ZM84.8521 150.511C85.4054 150.511 85.8327 150.67 86.1338 150.987C86.4349 151.297 86.5854 151.687 86.5854 152.159C86.5854 152.623 86.4349 153.01 86.1338 153.319C85.8327 153.62 85.4054 153.771 84.8521 153.771C84.3231 153.771 83.904 153.62 83.5947 153.319C83.2855 153.018 83.1309 152.631 83.1309 152.159C83.1309 151.687 83.2814 151.297 83.5825 150.987C83.8836 150.67 84.3068 150.511 84.8521 150.511ZM90.5405 165.526H88.209L95.2036 146.227H97.5352L90.5405 165.526ZM97.4009 165.526H95.0693L102.064 146.227H104.396L97.4009 165.526ZM113.856 160.411C113.856 159.882 113.636 159.479 113.197 159.203C112.765 158.926 112.045 158.682 111.036 158.47C110.027 158.259 109.185 157.99 108.509 157.665C107.028 156.948 106.288 155.911 106.288 154.552C106.288 153.412 106.768 152.46 107.728 151.695C108.688 150.93 109.909 150.548 111.39 150.548C112.969 150.548 114.243 150.938 115.211 151.72C116.188 152.501 116.676 153.514 116.676 154.759H113.709C113.709 154.19 113.498 153.718 113.075 153.343C112.652 152.961 112.09 152.77 111.39 152.77C110.739 152.77 110.206 152.92 109.791 153.221C109.384 153.522 109.181 153.925 109.181 154.43C109.181 154.885 109.372 155.239 109.754 155.492C110.137 155.744 110.91 156 112.074 156.261C113.237 156.513 114.149 156.818 114.808 157.176C115.475 157.526 115.968 157.949 116.285 158.446C116.611 158.942 116.773 159.544 116.773 160.252C116.773 161.441 116.281 162.405 115.296 163.146C114.312 163.878 113.022 164.244 111.427 164.244C110.344 164.244 109.38 164.049 108.534 163.658C107.687 163.268 107.028 162.73 106.556 162.047C106.084 161.363 105.848 160.627 105.848 159.837H108.729C108.77 160.537 109.034 161.078 109.522 161.461C110.011 161.835 110.658 162.022 111.463 162.022C112.245 162.022 112.839 161.876 113.246 161.583C113.653 161.282 113.856 160.891 113.856 160.411ZM125.184 164.244C123.304 164.244 121.778 163.654 120.606 162.474C119.443 161.286 118.861 159.707 118.861 157.738V157.372C118.861 156.053 119.113 154.877 119.618 153.844C120.13 152.802 120.847 151.992 121.766 151.415C122.686 150.837 123.711 150.548 124.842 150.548C126.641 150.548 128.028 151.122 129.005 152.269C129.99 153.417 130.482 155.04 130.482 157.14V158.336H121.852C121.941 159.426 122.303 160.289 122.938 160.924C123.581 161.559 124.387 161.876 125.355 161.876C126.714 161.876 127.821 161.327 128.675 160.228L130.274 161.754C129.745 162.543 129.037 163.158 128.15 163.597C127.271 164.028 126.283 164.244 125.184 164.244ZM124.83 152.928C124.016 152.928 123.357 153.213 122.853 153.783C122.356 154.352 122.039 155.146 121.9 156.163H127.552V155.943C127.487 154.951 127.223 154.202 126.759 153.697C126.295 153.185 125.652 152.928 124.83 152.928ZM135.548 150.792L135.633 152.318C136.61 151.138 137.892 150.548 139.479 150.548C142.229 150.548 143.629 152.123 143.678 155.272V164H140.711V155.443C140.711 154.605 140.528 153.986 140.162 153.587C139.804 153.181 139.214 152.977 138.392 152.977C137.196 152.977 136.305 153.518 135.719 154.601V164H132.752V150.792H135.548ZM146.156 157.298C146.156 155.264 146.628 153.632 147.572 152.403C148.516 151.166 149.781 150.548 151.368 150.548C152.768 150.548 153.899 151.036 154.762 152.013V145.25H157.728V164H155.042L154.896 162.633C154.009 163.707 152.825 164.244 151.344 164.244C149.798 164.244 148.544 163.622 147.584 162.376C146.632 161.131 146.156 159.439 146.156 157.298ZM149.122 157.555C149.122 158.897 149.378 159.947 149.891 160.704C150.412 161.453 151.148 161.827 152.101 161.827C153.313 161.827 154.2 161.286 154.762 160.204V154.564C154.216 153.506 153.338 152.977 152.125 152.977C151.165 152.977 150.424 153.36 149.903 154.125C149.382 154.881 149.122 156.025 149.122 157.555ZM162.672 160.875C163.225 160.875 163.653 161.034 163.954 161.351C164.255 161.66 164.405 162.051 164.405 162.523C164.405 162.987 164.255 163.373 163.954 163.683C163.653 163.984 163.225 164.134 162.672 164.134C162.143 164.134 161.724 163.984 161.415 163.683C161.105 163.382 160.951 162.995 160.951 162.523C160.951 162.051 161.101 161.66 161.402 161.351C161.703 161.034 162.127 160.875 162.672 160.875ZM170.594 150.792L170.68 152.171C171.607 151.089 172.877 150.548 174.488 150.548C176.254 150.548 177.463 151.223 178.114 152.574C179.074 151.223 180.425 150.548 182.167 150.548C183.623 150.548 184.706 150.951 185.414 151.756C186.13 152.562 186.496 153.75 186.512 155.321V164H183.546V155.406C183.546 154.568 183.363 153.954 182.997 153.563C182.63 153.172 182.024 152.977 181.178 152.977C180.502 152.977 179.949 153.16 179.518 153.526C179.094 153.884 178.797 154.356 178.626 154.942L178.639 164H175.672V155.309C175.632 153.754 174.838 152.977 173.292 152.977C172.104 152.977 171.262 153.461 170.765 154.43V164H167.799V150.792H170.594ZM189.002 157.274C189.002 155.98 189.259 154.816 189.771 153.783C190.284 152.741 191.004 151.944 191.932 151.39C192.86 150.829 193.926 150.548 195.13 150.548C196.913 150.548 198.357 151.122 199.464 152.269C200.579 153.417 201.181 154.938 201.271 156.834L201.283 157.53C201.283 158.832 201.03 159.996 200.526 161.021C200.029 162.047 199.313 162.84 198.377 163.402C197.45 163.963 196.375 164.244 195.155 164.244C193.291 164.244 191.798 163.626 190.675 162.389C189.56 161.144 189.002 159.487 189.002 157.42V157.274ZM191.969 157.53C191.969 158.889 192.25 159.955 192.811 160.729C193.373 161.493 194.154 161.876 195.155 161.876C196.156 161.876 196.933 161.485 197.486 160.704C198.048 159.923 198.329 158.779 198.329 157.274C198.329 155.939 198.04 154.881 197.462 154.1C196.892 153.319 196.115 152.928 195.13 152.928C194.162 152.928 193.393 153.315 192.823 154.088C192.254 154.853 191.969 156 191.969 157.53ZM206.544 150.792L206.629 152.318C207.606 151.138 208.888 150.548 210.475 150.548C213.225 150.548 214.625 152.123 214.674 155.272V164H211.708V155.443C211.708 154.605 211.524 153.986 211.158 153.587C210.8 153.181 210.21 152.977 209.388 152.977C208.192 152.977 207.301 153.518 206.715 154.601V164H203.749V150.792H206.544ZM217.152 157.274C217.152 155.98 217.408 154.816 217.921 153.783C218.434 152.741 219.154 151.944 220.082 151.39C221.009 150.829 222.075 150.548 223.28 150.548C225.062 150.548 226.507 151.122 227.613 152.269C228.728 153.417 229.33 154.938 229.42 156.834L229.432 157.53C229.432 158.832 229.18 159.996 228.675 161.021C228.179 162.047 227.463 162.84 226.527 163.402C225.599 163.963 224.525 164.244 223.304 164.244C221.441 164.244 219.947 163.626 218.824 162.389C217.709 161.144 217.152 159.487 217.152 157.42V157.274ZM220.118 157.53C220.118 158.889 220.399 159.955 220.96 160.729C221.522 161.493 222.303 161.876 223.304 161.876C224.305 161.876 225.082 161.485 225.636 160.704C226.197 159.923 226.478 158.779 226.478 157.274C226.478 155.939 226.189 154.881 225.611 154.1C225.042 153.319 224.264 152.928 223.28 152.928C222.311 152.928 221.542 153.315 220.973 154.088C220.403 154.853 220.118 156 220.118 157.53ZM243.531 157.53C243.531 159.581 243.071 161.213 242.152 162.425C241.24 163.638 239.983 164.244 238.38 164.244C236.834 164.244 235.629 163.687 234.767 162.572L234.62 164H231.935V145.25H234.901V152.062C235.755 151.052 236.907 150.548 238.355 150.548C239.967 150.548 241.232 151.146 242.152 152.342C243.071 153.539 243.531 155.211 243.531 157.359V157.53ZM240.565 157.274C240.565 155.842 240.313 154.767 239.808 154.051C239.304 153.335 238.571 152.977 237.611 152.977C236.325 152.977 235.422 153.539 234.901 154.662V160.106C235.43 161.253 236.341 161.827 237.635 161.827C238.563 161.827 239.279 161.481 239.784 160.79C240.288 160.098 240.549 159.052 240.565 157.652V157.274ZM253.919 164C253.789 163.748 253.675 163.337 253.578 162.767C252.634 163.752 251.478 164.244 250.111 164.244C248.784 164.244 247.702 163.866 246.864 163.109C246.026 162.352 245.606 161.416 245.606 160.301C245.606 158.893 246.127 157.815 247.169 157.066C248.219 156.31 249.716 155.931 251.661 155.931H253.48V155.064C253.48 154.381 253.289 153.836 252.906 153.429C252.524 153.014 251.942 152.806 251.161 152.806C250.485 152.806 249.932 152.977 249.5 153.319C249.069 153.653 248.854 154.08 248.854 154.601H245.887C245.887 153.876 246.127 153.201 246.607 152.574C247.088 151.939 247.739 151.443 248.561 151.085C249.391 150.727 250.314 150.548 251.332 150.548C252.878 150.548 254.111 150.938 255.03 151.72C255.95 152.493 256.422 153.583 256.446 154.991V160.948C256.446 162.136 256.613 163.084 256.947 163.792V164H253.919ZM250.66 161.864C251.246 161.864 251.795 161.721 252.308 161.437C252.829 161.152 253.22 160.769 253.48 160.289V157.799H251.881C250.782 157.799 249.956 157.99 249.403 158.373C248.849 158.755 248.573 159.296 248.573 159.996C248.573 160.566 248.76 161.021 249.134 161.363C249.517 161.697 250.025 161.864 250.66 161.864ZM262.306 150.792L262.391 152.318C263.368 151.138 264.649 150.548 266.236 150.548C268.987 150.548 270.387 152.123 270.436 155.272V164H267.469V155.443C267.469 154.605 267.286 153.986 266.92 153.587C266.562 153.181 265.972 152.977 265.15 152.977C263.954 152.977 263.062 153.518 262.477 154.601V164H259.51V150.792H262.306ZM277.76 158.336L276.441 159.691V164H273.475V145.25H276.441V156.065L277.369 154.906L281.019 150.792H284.583L279.676 156.297L285.108 164H281.678L277.76 158.336ZM288.38 160.875C288.933 160.875 289.361 161.034 289.662 161.351C289.963 161.66 290.113 162.051 290.113 162.523C290.113 162.987 289.963 163.373 289.662 163.683C289.361 163.984 288.933 164.134 288.38 164.134C287.851 164.134 287.432 163.984 287.123 163.683C286.813 163.382 286.659 162.995 286.659 162.523C286.659 162.051 286.809 161.66 287.11 161.351C287.411 161.034 287.835 160.875 288.38 160.875ZM301.515 162.706C300.644 163.731 299.407 164.244 297.804 164.244C296.371 164.244 295.285 163.825 294.544 162.987C293.812 162.149 293.446 160.936 293.446 159.349V150.792H296.412V159.312C296.412 160.989 297.108 161.827 298.5 161.827C299.94 161.827 300.912 161.31 301.417 160.277V150.792H304.383V164H301.588L301.515 162.706ZM315.296 164C315.166 163.748 315.052 163.337 314.955 162.767C314.011 163.752 312.855 164.244 311.488 164.244C310.161 164.244 309.079 163.866 308.241 163.109C307.403 162.352 306.983 161.416 306.983 160.301C306.983 158.893 307.504 157.815 308.546 157.066C309.596 156.31 311.093 155.931 313.038 155.931H314.857V155.064C314.857 154.381 314.666 153.836 314.283 153.429C313.901 153.014 313.319 152.806 312.538 152.806C311.862 152.806 311.309 152.977 310.877 153.319C310.446 153.653 310.23 154.08 310.23 154.601H307.264C307.264 153.876 307.504 153.201 307.984 152.574C308.465 151.939 309.116 151.443 309.938 151.085C310.768 150.727 311.691 150.548 312.708 150.548C314.255 150.548 315.488 150.938 316.407 151.72C317.327 152.493 317.799 153.583 317.823 154.991V160.948C317.823 162.136 317.99 163.084 318.324 163.792V164H315.296ZM312.037 161.864C312.623 161.864 313.172 161.721 313.685 161.437C314.206 161.152 314.597 160.769 314.857 160.289V157.799H313.258C312.159 157.799 311.333 157.99 310.78 158.373C310.226 158.755 309.95 159.296 309.95 159.996C309.95 160.566 310.137 161.021 310.511 161.363C310.894 161.697 311.402 161.864 312.037 161.864ZM321.766 165.526H319.435L326.429 146.227H328.761L321.766 165.526ZM37.2812 193H25.3306V190.961L31.251 184.504C32.1055 183.552 32.7118 182.758 33.0698 182.124C33.436 181.481 33.6191 180.838 33.6191 180.195C33.6191 179.348 33.3791 178.665 32.8989 178.144C32.4269 177.623 31.7881 177.363 30.9824 177.363C30.0221 177.363 29.2775 177.656 28.7485 178.242C28.2196 178.828 27.9551 179.629 27.9551 180.646H24.9888C24.9888 179.564 25.2329 178.592 25.7212 177.729C26.2176 176.858 26.9215 176.183 27.833 175.703C28.7526 175.222 29.8105 174.982 31.0068 174.982C32.7321 174.982 34.0911 175.418 35.084 176.289C36.085 177.151 36.5854 178.347 36.5854 179.877C36.5854 180.764 36.3332 181.696 35.8286 182.673C35.3322 183.641 34.5143 184.744 33.375 185.981L29.0293 190.632H37.2812V193ZM53.9561 188.605L56.6904 175.227H59.7544L55.6528 193H52.6987L49.3174 180.024L45.8628 193H42.8965L38.7949 175.227H41.8589L44.6177 188.581L48.0112 175.227H50.5991L53.9561 188.605ZM76.124 193H73.0479V185.102H65.1011V193H62.0127V175.227H65.1011V182.624H73.0479V175.227H76.124V193ZM87.7207 185.566C86.7279 186.616 85.5682 187.141 84.2417 187.141C82.6792 187.141 81.4341 186.595 80.5063 185.505C79.5786 184.406 79.1147 182.966 79.1147 181.184C79.1147 180.012 79.3507 178.95 79.8228 177.998C80.2948 177.045 80.9661 176.305 81.8369 175.776C82.7077 175.247 83.7168 174.982 84.8643 174.982C86.6546 174.982 88.0747 175.65 89.1245 176.984C90.1743 178.319 90.6992 180.105 90.6992 182.343V183.173C90.6992 186.38 89.9749 188.825 88.5264 190.51C87.0778 192.194 84.9172 193.049 82.0444 193.073H81.6904V190.62H82.1177C83.8674 190.595 85.2101 190.176 86.146 189.362C87.0819 188.54 87.6068 187.275 87.7207 185.566ZM84.8643 184.821C85.4583 184.821 86.0158 184.65 86.5366 184.309C87.0575 183.967 87.4603 183.495 87.7451 182.893V181.733C87.7451 180.423 87.4766 179.369 86.9395 178.571C86.4023 177.774 85.7065 177.375 84.8521 177.375C83.9976 177.375 83.314 177.729 82.8013 178.437C82.2967 179.137 82.0444 180.024 82.0444 181.098C82.0444 182.213 82.3008 183.112 82.8135 183.796C83.3262 184.479 84.0098 184.821 84.8643 184.821ZM94.3125 184.187L95.2769 175.227H104.823V177.79H97.7427L97.2544 182.038C98.0763 181.566 99.0041 181.33 100.038 181.33C101.73 181.33 103.045 181.871 103.98 182.954C104.924 184.036 105.396 185.493 105.396 187.324C105.396 189.13 104.876 190.571 103.834 191.645C102.792 192.711 101.364 193.244 99.5493 193.244C97.9217 193.244 96.5708 192.784 95.4966 191.865C94.4305 190.937 93.8527 189.716 93.7632 188.203H96.6318C96.7458 189.065 97.055 189.729 97.5596 190.192C98.0641 190.648 98.7233 190.876 99.5371 190.876C100.449 190.876 101.157 190.55 101.661 189.899C102.174 189.248 102.43 188.361 102.43 187.238C102.43 186.156 102.149 185.301 101.588 184.675C101.026 184.04 100.253 183.723 99.2686 183.723C98.7314 183.723 98.2757 183.796 97.9014 183.942C97.527 184.081 97.1201 184.357 96.6807 184.772L94.3125 184.187ZM119.52 188.911L121.62 179.792H124.513L120.912 193H118.47L115.638 183.93L112.855 193H110.414L106.8 179.792H109.693L111.83 188.813L114.54 179.792H116.773L119.52 188.911ZM125.978 186.298C125.978 184.248 126.458 182.612 127.418 181.391C128.386 180.162 129.668 179.548 131.263 179.548C132.769 179.548 133.953 180.073 134.815 181.123L134.95 179.792H137.623V192.597C137.623 194.331 137.082 195.698 136 196.699C134.925 197.7 133.473 198.2 131.642 198.2C130.673 198.2 129.725 197.997 128.797 197.59C127.878 197.191 127.178 196.666 126.698 196.015L128.102 194.233C129.013 195.315 130.136 195.856 131.471 195.856C132.455 195.856 133.233 195.588 133.802 195.051C134.372 194.522 134.657 193.741 134.657 192.707V191.816C133.802 192.768 132.663 193.244 131.239 193.244C129.693 193.244 128.427 192.63 127.442 191.401C126.466 190.172 125.978 188.471 125.978 186.298ZM128.932 186.555C128.932 187.881 129.2 188.927 129.737 189.692C130.283 190.449 131.035 190.827 131.996 190.827C133.192 190.827 134.079 190.314 134.657 189.289V183.479C134.095 182.478 133.216 181.977 132.02 181.977C131.043 181.977 130.283 182.364 129.737 183.137C129.2 183.91 128.932 185.049 128.932 186.555ZM146.107 190.876C146.847 190.876 147.462 190.66 147.95 190.229C148.438 189.798 148.699 189.265 148.731 188.63H151.527C151.494 189.452 151.238 190.221 150.758 190.937C150.278 191.645 149.627 192.207 148.805 192.622C147.983 193.037 147.096 193.244 146.144 193.244C144.296 193.244 142.831 192.646 141.749 191.45C140.667 190.253 140.125 188.601 140.125 186.494V186.188C140.125 184.178 140.663 182.571 141.737 181.367C142.811 180.154 144.276 179.548 146.131 179.548C147.702 179.548 148.98 180.008 149.964 180.927C150.957 181.839 151.478 183.039 151.527 184.528H148.731C148.699 183.771 148.438 183.149 147.95 182.661C147.47 182.172 146.856 181.928 146.107 181.928C145.147 181.928 144.406 182.278 143.885 182.978C143.364 183.67 143.1 184.724 143.092 186.14V186.616C143.092 188.048 143.348 189.118 143.861 189.826C144.382 190.526 145.13 190.876 146.107 190.876ZM157.008 182.758H158.814C159.726 182.75 160.446 182.514 160.975 182.05C161.512 181.586 161.781 180.915 161.781 180.036C161.781 179.19 161.557 178.535 161.109 178.071C160.67 177.599 159.994 177.363 159.083 177.363C158.285 177.363 157.63 177.595 157.118 178.059C156.605 178.514 156.349 179.112 156.349 179.853H153.382C153.382 178.942 153.622 178.111 154.103 177.363C154.591 176.614 155.266 176.032 156.129 175.617C157 175.194 157.972 174.982 159.046 174.982C160.82 174.982 162.212 175.43 163.221 176.325C164.238 177.212 164.747 178.449 164.747 180.036C164.747 180.834 164.491 181.586 163.978 182.294C163.473 182.994 162.818 183.523 162.013 183.881C162.989 184.215 163.73 184.74 164.234 185.456C164.747 186.172 165.003 187.027 165.003 188.02C165.003 189.615 164.454 190.884 163.355 191.828C162.265 192.772 160.829 193.244 159.046 193.244C157.337 193.244 155.938 192.788 154.847 191.877C153.757 190.965 153.211 189.753 153.211 188.239H156.178C156.178 189.021 156.438 189.655 156.959 190.144C157.488 190.632 158.196 190.876 159.083 190.876C160.003 190.876 160.727 190.632 161.256 190.144C161.785 189.655 162.049 188.947 162.049 188.02C162.049 187.084 161.773 186.363 161.219 185.859C160.666 185.354 159.844 185.102 158.753 185.102H157.008V182.758ZM181.886 190.693C181.243 191.531 180.352 192.166 179.212 192.597C178.073 193.028 176.779 193.244 175.331 193.244C173.841 193.244 172.523 192.906 171.375 192.231C170.228 191.556 169.341 190.591 168.714 189.338C168.096 188.076 167.774 186.608 167.75 184.931V183.54C167.75 180.854 168.393 178.758 169.679 177.253C170.965 175.739 172.759 174.982 175.062 174.982C177.04 174.982 178.61 175.471 179.774 176.447C180.938 177.424 181.638 178.832 181.874 180.671H178.846C178.504 178.531 177.263 177.46 175.123 177.46C173.74 177.46 172.686 177.961 171.961 178.962C171.245 179.955 170.875 181.416 170.851 183.344V184.711C170.851 186.632 171.253 188.125 172.059 189.191C172.873 190.249 174 190.778 175.44 190.778C177.019 190.778 178.142 190.42 178.81 189.704V186.225H175.147V183.881H181.886V190.693Z" fill="#3AB14D"/>
<path fill-rule="evenodd" clip-rule="evenodd" d="M44.7852 51.8333V42.0613C44.7852 39.2893 43.3131 37.9733 40.8411 37.9733C38.7857 37.9733 37.0081 39.2053 36.2304 40.4373C35.7304 38.8973 34.4805 37.9733 32.5085 37.9733C30.4531 37.9733 28.6755 39.2613 28.12 40.0733V38.3093H24.5925V51.8333H28.12V42.7333C28.6477 41.9773 29.6754 41.1373 30.8975 41.1373C32.3418 41.1373 32.8973 42.0333 32.8973 43.2933V51.8333H36.4526V42.7053C36.9525 41.9773 37.9802 41.1373 39.2301 41.1373C40.6744 41.1373 41.2299 42.0333 41.2299 43.2933V51.8333H44.7852ZM54.4787 52.1693C50.0625 52.1693 47.396 48.9213 47.396 45.0573C47.396 41.2213 50.0625 37.9733 54.4787 37.9733C58.9228 37.9733 61.5892 41.2213 61.5892 45.0573C61.5892 48.9213 58.9228 52.1693 54.4787 52.1693ZM54.4787 49.0053C56.673 49.0053 57.9229 47.1853 57.9229 45.0573C57.9229 42.9573 56.673 41.1373 54.4787 41.1373C52.2845 41.1373 51.0624 42.9573 51.0624 45.0573C51.0624 47.1853 52.2845 49.0053 54.4787 49.0053ZM76.7823 51.8333V42.2853C76.7823 39.6533 75.3657 37.9733 72.4216 37.9733C70.2273 37.9733 68.5886 39.0373 67.7275 40.0733V38.3093H64.2001V51.8333H67.7275V42.7333C68.3108 41.9213 69.394 41.1373 70.7828 41.1373C72.2827 41.1373 73.2548 41.7813 73.2548 43.6573V51.8333H76.7823V51.8333ZM86.5036 52.1693C82.0874 52.1693 79.4209 48.9213 79.4209 45.0573C79.4209 41.2213 82.0874 37.9733 86.5036 37.9733C90.9477 37.9733 93.6141 41.2213 93.6141 45.0573C93.6141 48.9213 90.9477 52.1693 86.5036 52.1693ZM86.5036 49.0053C88.6979 49.0053 89.9478 47.1853 89.9478 45.0573C89.9478 42.9573 88.6979 41.1373 86.5036 41.1373C84.3094 41.1373 83.0873 42.9573 83.0873 45.0573C83.0873 47.1853 84.3094 49.0053 86.5036 49.0053ZM99.7524 47.4933C100.336 48.3613 101.641 49.0053 102.78 49.0053C104.835 49.0053 106.196 47.4373 106.196 45.0853C106.196 42.7333 104.835 41.1373 102.78 41.1373C101.641 41.1373 100.336 41.8093 99.7524 42.7053V47.4933ZM99.7524 51.8333H96.225V33.1573H99.7524V40.0453C100.808 38.6733 102.308 37.9733 103.891 37.9733C107.307 37.9733 109.835 40.6613 109.835 45.0853C109.835 49.5933 107.28 52.1693 103.891 52.1693C102.28 52.1693 100.808 51.4413 99.7524 50.0973V51.8333ZM124.084 51.8333H120.556V50.4333C119.64 51.5253 118.056 52.1693 116.306 52.1693C114.168 52.1693 111.64 50.7133 111.64 47.6893C111.64 44.5253 114.168 43.3213 116.306 43.3213C118.084 43.3213 119.667 43.9093 120.556 44.9733V43.1533C120.556 41.7813 119.39 40.8853 117.612 40.8853C116.168 40.8853 114.834 41.4173 113.696 42.4813L112.362 40.1013C114.001 38.6453 116.112 37.9733 118.223 37.9733C121.278 37.9733 124.084 39.2053 124.084 43.0973V51.8333ZM117.723 49.7613C118.862 49.7613 119.973 49.3693 120.556 48.5853V46.9053C119.973 46.1213 118.862 45.7293 117.723 45.7293C116.334 45.7293 115.195 46.4573 115.195 47.7733C115.195 49.0333 116.334 49.7613 117.723 49.7613V49.7613ZM140.165 51.8333V42.2853C140.165 39.6533 138.749 37.9733 135.805 37.9733C133.61 37.9733 131.972 39.0373 131.111 40.0733V38.3093H127.583V51.8333H131.111V42.7333C131.694 41.9213 132.777 41.1373 134.166 41.1373C135.666 41.1373 136.638 41.7813 136.638 43.6573V51.8333H140.165ZM156.775 51.8333L151.303 44.4413L156.608 38.3093H152.275L147.193 44.3293V33.1573H143.665V51.8333H147.193V48.3613L148.804 46.6253L152.359 51.8333H156.775Z" fill="#C4C4C4"/>
<path fill-rule="evenodd" clip-rule="evenodd" d="M322.315 35.7123H325.204V44.978H325.367L329.125 40.5272L331.791 40.5202L327.668 45.3852L332.634 51.4693H329.306L325.246 45.8063H325.204V51.4693H322.315V35.7123V35.7123ZM184.94 36.417V45.0573C184.94 48.0008 185.805 49.6097 188.227 49.6097C190.545 49.6097 191.472 47.659 191.472 45.2277V36.417H194.203V45.7655C194.203 49.5665 191.734 51.7202 188.141 51.7202C184.028 51.7202 181.89 49.717 181.89 45.615V36.417H184.94V36.417ZM200.587 41.9832C201.565 40.953 202.926 40.4583 204.292 40.4583C206.824 40.4583 208.164 41.8303 208.164 44.5382V51.46H205.29V44.8637C205.29 43.3575 204.62 42.3682 203.124 42.3682C201.717 42.3682 200.611 43.2933 200.611 45.0573V51.46H197.734V40.7138H200.587V41.9832ZM211.546 51.46H214.424V40.7138H211.546V51.46ZM211.263 37.4915C211.263 36.676 211.954 35.836 212.932 35.836C213.927 35.836 214.703 36.6538 214.703 37.4915C214.703 38.4143 214.036 39.2963 212.974 39.2963C211.955 39.2963 211.263 38.4143 211.263 37.4915ZM220.791 51.46L216.185 40.6683H219.235C220.167 43.1405 221.135 45.4657 222.042 48.4523H222.086C223.064 45.4657 223.984 43.1405 224.978 40.6683H227.678L222.801 51.46H220.791ZM236.242 44.7995C236.355 43.1615 235.769 42.0473 234.344 42.0473C232.693 42.0473 231.952 43.3575 231.984 44.7995H236.242V44.7995ZM231.936 46.3465C231.871 48.3683 233.299 49.8698 235.096 49.8698C236.163 49.8698 237.283 49.5047 238 49.0088L238.822 50.515C237.35 51.3737 235.811 51.7202 234.578 51.7202C231.309 51.7202 228.865 49.4183 228.865 45.8728C228.865 42.5618 231.286 40.4583 234.383 40.4583C237.76 40.4583 239.168 43.1428 238.955 46.3465H231.936V46.3465ZM244.604 42.605H244.644L245.23 41.7673C245.552 41.2925 246.202 40.4583 247.09 40.4583C247.739 40.4583 248.435 40.8025 249.041 41.4232L247.955 43.4007C247.48 43.1615 247.175 43.0355 246.594 43.0355C245.598 43.0355 244.625 43.8312 244.625 46.1505V51.46H241.737V40.7138H244.604V42.605V42.605ZM256.724 42.7333C256.076 42.2608 255.405 42.0473 254.882 42.0473C254.234 42.0473 253.583 42.4113 253.583 43.1428C253.583 44.0027 254.625 44.4985 255.836 45.3758C257.377 46.5203 257.827 47.6368 257.827 48.6203C257.827 50.13 256.158 51.7202 253.781 51.7202C252.286 51.7202 251.183 51.2022 250.168 50.494L251.077 49.0088C251.722 49.528 252.652 50.0402 253.43 50.0402C254.258 50.0402 254.991 49.6097 254.991 48.7078C254.991 47.6975 253.864 47.1398 252.828 46.4083C251.593 45.5718 250.752 44.754 250.752 43.424C250.752 41.723 252.393 40.4583 254.513 40.4583C255.708 40.4583 256.874 40.757 257.658 41.4477L256.724 42.7333V42.7333ZM264.925 45.7433C263.52 46.1948 262.806 46.9893 262.806 48.2132C262.806 49.1605 263.412 49.8057 264.11 49.8057C265.253 49.8057 266.748 48.3858 266.534 45.2277L264.925 45.7433V45.7433ZM265.839 50.4298C265.058 51.075 264.063 51.7202 263.07 51.7202C261.38 51.7202 259.968 50.4298 259.968 48.4523C259.968 46.4083 261.466 45.2708 263.978 44.5382L266.534 43.7857C266.383 42.7987 265.492 42.1768 264.566 42.1768C263.328 42.1768 262.461 42.6283 261.704 43.2735L260.77 41.919C262.116 40.8235 263.433 40.4583 264.925 40.4583C266.921 40.4583 269.369 41.0988 269.369 44.4553V48.8373C269.369 49.6983 269.474 50.711 269.824 51.46H266.772C266.55 51.0937 266.489 50.473 266.489 49.892L265.839 50.4298V50.4298ZM272.594 51.46H275.476V35.6645H272.594V51.46ZM300.975 45.7433C299.565 46.1948 298.851 46.9893 298.851 48.2132C298.851 49.1605 299.454 49.8057 300.151 49.8057C301.293 49.8057 302.79 48.3858 302.579 45.2277L300.975 45.7433ZM301.878 50.4298C301.102 51.075 300.105 51.7202 299.108 51.7202C297.422 51.7202 296.011 50.4298 296.011 48.4523C296.011 46.4083 297.507 45.2708 300.021 44.5382L302.579 43.7857C302.42 42.7987 301.537 42.1768 300.6 42.1768C299.37 42.1768 298.502 42.6283 297.745 43.2735L296.813 41.919C298.156 40.8235 299.479 40.4583 300.975 40.4583C302.962 40.4583 305.406 41.0988 305.406 44.4553V48.8373C305.406 49.6983 305.514 50.711 305.859 51.46H302.812C302.598 51.0937 302.526 50.473 302.526 49.892L301.878 50.4298V50.4298ZM311.491 41.9832C312.467 40.953 313.833 40.4583 315.195 40.4583C317.727 40.4583 319.068 41.8303 319.068 44.5382V51.46H316.19V44.8637C316.19 43.3575 315.519 42.3682 314.025 42.3682C312.616 42.3682 311.513 43.2933 311.513 45.0573V51.46H308.635V40.7138H311.491V41.9832ZM285.979 49.6505H287.536C289.226 49.6505 290.507 48.7708 290.507 47.0967C290.507 45.3327 289.186 44.5813 287.519 44.5813H285.979V49.6505V49.6505ZM285.979 42.7333H286.936C288.691 42.7333 289.883 41.6168 289.883 40.2168C289.883 38.8868 288.882 38.3082 287.563 38.3082H285.978V42.7333H285.979ZM282.929 51.5008V36.4578H288.408C290.96 36.4578 292.759 37.6175 292.759 39.6592C292.759 42.0648 290.79 43.0565 289.729 43.3342V43.3773C291.614 43.4648 293.711 44.7517 293.711 47.0512C293.711 49.6505 291.522 51.5008 287.955 51.5008H282.929Z" fill="#C4C4C4"/>
<path fill-rule="evenodd" clip-rule="evenodd" d="M168.663 32H169.82V60H168.663V32Z" fill="#C4C4C4"/>
</svg>
