<svg width="57" height="91" viewBox="0 0 57 91" fill="none" xmlns="http://www.w3.org/2000/svg">
<path d="M56.2989 34.8804C56.1336 34.5886 55.8938 34.3459 55.604 34.1771C55.3143 34.0082 54.9849 33.9192 54.6495 33.9192H29.8141L33.9778 2.10572C34.0225 1.67994 33.9226 1.25152 33.6942 0.889435C33.4658 0.527346 33.1222 0.252661 32.7187 0.109604C32.3152 -0.0334523 31.8753 -0.0365547 31.4698 0.100796C31.0643 0.238148 30.7168 0.50796 30.4833 0.86679L0.280825 53.7805C0.10421 54.0677 0.00741121 54.3969 0.000408883 54.734C-0.00659344 55.0712 0.076454 55.4041 0.24099 55.6984C0.405525 55.9928 0.645594 56.2379 0.936442 56.4086C1.22729 56.5792 1.55839 56.6692 1.8956 56.6692H26.3599L23.0602 88.5306C23.0278 88.9549 23.1382 89.3779 23.3739 89.7322C23.6096 90.0865 23.957 90.3518 24.3608 90.4859C24.7647 90.6201 25.2018 90.6153 25.6026 90.4723C26.0034 90.3293 26.3449 90.0564 26.5727 89.697L56.2762 36.789C56.4484 36.5013 56.5413 36.1731 56.5453 35.8378C56.5493 35.5025 56.4643 35.1721 56.2989 34.8804Z" fill="white"/>
</svg>
