<svg width="281" height="411" viewBox="0 0 281 411" fill="none" xmlns="http://www.w3.org/2000/svg">
<g clip-path="url(#clip0)">
<path d="M127.971 272.506L-29.2559 206.305C-31.5083 205.357 -34 207.012 -34 209.455V386.437C-34 390.91 -31.2773 394.931 -27.1243 396.591L125.374 457.591C127.621 458.491 130.063 456.836 130.063 454.419V275.656C130.063 274.281 129.238 273.039 127.971 272.506Z" fill="white" fill-opacity="0.4"/>
<path d="M142.327 253.698L294.3 189.709C297.031 188.559 297.104 184.715 294.418 183.462L145.625 114.026C142.693 112.658 139.307 112.658 136.375 114.026L-12.4182 183.462C-15.104 184.715 -15.0308 188.559 -12.2992 189.709L139.673 253.698C140.522 254.056 141.478 254.056 142.327 253.698Z" fill="white" fill-opacity="0.4"/>
<path d="M151.938 275.656V454.419C151.938 456.836 154.379 458.491 156.626 457.591L309.124 396.591C313.277 394.931 316 390.91 316 386.437V209.455C316 207.012 313.509 205.357 311.257 206.305L154.029 272.506C152.762 273.039 151.938 274.281 151.938 275.656Z" fill="white" fill-opacity="0.4"/>
</g>
<defs>
<clipPath id="clip0">
<rect width="281" height="411" fill="white"/>
</clipPath>
</defs>
</svg>