<svg width="281" height="411" viewBox="0 0 281 411" fill="none" xmlns="http://www.w3.org/2000/svg">
<rect width="281" height="411" fill="white"/>
<path d="M163.875 184.88V178.825C165.585 177.828 166.75 175.994 166.75 173.875V172.438C166.75 171.643 166.107 171 165.312 171H116.438C115.643 171 115 171.643 115 172.438V173.875C115 175.994 116.165 177.828 117.875 178.825V184.88C117.875 190.576 120.304 196.029 124.537 199.838L130.828 205.5L124.537 211.162C120.304 214.971 117.875 220.424 117.875 226.12V232.175C116.165 233.172 115 235.006 115 237.125V238.563C115 239.357 115.643 240 116.438 240H165.313C166.107 240 166.75 239.357 166.75 238.562V237.125C166.75 235.006 165.585 233.172 163.875 232.175V226.12C163.875 220.424 161.447 214.971 157.213 211.162L150.922 205.5L157.213 199.838C161.446 196.029 163.875 190.576 163.875 184.88ZM153.366 195.565L144.702 203.363C144.095 203.908 143.75 204.684 143.75 205.5C143.75 206.316 144.095 207.092 144.702 207.637L153.366 215.435C156.39 218.157 158.125 222.052 158.125 226.12V231.375H154.531L142.025 214.701C141.483 213.976 140.267 213.976 139.725 214.701L127.219 231.375H123.625V226.12C123.625 222.052 125.36 218.157 128.384 215.435L137.048 207.636C137.655 207.092 138 206.315 138 205.5C138 204.684 137.655 203.908 137.048 203.363L128.384 195.565C125.36 192.843 123.625 188.948 123.625 184.88V179.625H158.125V184.88C158.125 188.948 156.39 192.843 153.366 195.565Z" fill="#E1E1E1"/>
<path d="M150.784 191.125H130.967C130.398 191.125 129.883 191.461 129.653 191.98C129.422 192.501 129.519 193.107 129.903 193.528L139.912 202.763C140.185 203.011 140.531 203.135 140.876 203.135C141.221 203.135 141.567 203.011 141.84 202.763L151.848 193.528C152.231 193.107 152.328 192.501 152.098 191.98C151.868 191.461 151.353 191.125 150.784 191.125Z" fill="#E1E1E1"/>
</svg>