<svg width="131" height="262" viewBox="0 0 131 262" fill="none" xmlns="http://www.w3.org/2000/svg">
<path d="M131 0C58.6507 0 0 58.6507 0 131C0 203.349 58.6507 262 131 262V0Z" fill="white"/>
<path d="M50.4953 125.318C50.9443 124.878 51.4313 124.506 51.9437 124.183L86.2229 90.4663C89.5671 87.1784 94.9926 87.1769 98.3384 90.4679C101.684 93.7573 101.684 99.0926 98.3384 102.385L68.8168 131.424L98.4907 160.614C101.836 163.904 101.836 169.237 98.4907 172.531C96.817 174.179 94.623 175 92.4338 175C90.2445 175 88.0489 174.179 86.3768 172.531L51.9437 138.658C51.4313 138.335 50.9411 137.964 50.4953 137.524C48.7852 135.842 47.9602 133.626 48.0015 131.421C47.9602 129.216 48.7852 127.002 50.4953 125.318Z" fill="black"/>
</svg>
