<svg width="171" height="171" viewBox="0 0 171 171" fill="none" xmlns="http://www.w3.org/2000/svg">
<circle r="78" transform="matrix(-1 0 0 1 85.5 85.5)" stroke="white" stroke-width="15"/>
<path d="M78.0333 80.4469C74.3112 83.1837 74.3112 88.8164 78.0333 91.5531L116.294 119.686C120.757 122.967 127 119.728 127 114.133L127 57.8674C127 52.2718 120.757 49.0333 116.294 52.3143L78.0333 80.4469Z" fill="white"/>
<path d="M35.3246 80.4469C31.6026 83.1837 31.6026 88.8164 35.3246 91.5531L73.5858 119.686C78.048 122.967 84.2913 119.728 84.2913 114.133L84.2913 57.8674C84.2913 52.2718 78.048 49.0333 73.5858 52.3143L35.3246 80.4469Z" fill="white"/>
</svg>
