<svg width="125" height="125" viewBox="0 0 125 125" fill="none" xmlns="http://www.w3.org/2000/svg">
<g clip-path="url(#clip0)">
<path d="M73.5234 102.051C63.0234 102.051 53.3234 98.8508 45.2234 93.4508L15.9234 122.751C13.6224 125.051 9.82244 125.051 7.42344 122.751L1.72343 117.051C-0.576566 114.751 -0.576566 110.951 1.72343 108.551L31.1234 79.3508C25.7244 71.2508 22.5234 61.5508 22.5234 51.0508C22.5234 22.9508 45.4234 0.0507812 73.5234 0.0507812C101.623 0.0507812 124.523 22.9508 124.523 51.0508C124.523 79.1498 101.723 102.051 73.5234 102.051ZM73.5234 20.0508C56.4234 20.0508 42.5234 33.9508 42.5234 51.0508C42.5234 68.1508 56.4234 82.0508 73.5234 82.0508C90.6234 82.0508 104.523 68.1508 104.523 51.0508C104.523 33.9508 90.6234 20.0508 73.5234 20.0508Z" fill="white"/>
</g>
<defs>
<clipPath id="clip0">
<rect width="124.524" height="124.524" fill="white" transform="matrix(-1 0 0 1 124.523 0)"/>
</clipPath>
</defs>
</svg>
