<svg width="249" height="249" viewBox="0 0 249 249" fill="none" xmlns="http://www.w3.org/2000/svg">
<g clip-path="url(#clip0)">
<path d="M226.364 0H22.6366C10.1519 0 0 10.1519 0 22.6366V56.5911C0 69.0753 10.1519 79.2277 22.6366 79.2277H226.364C238.848 79.2277 249.001 69.0758 249.001 56.5911V22.6366C249 10.1519 238.848 0 226.364 0ZM45.2726 50.9319C45.2726 54.0599 42.7414 56.5911 39.6133 56.5911C36.4852 56.5911 33.9546 54.0599 33.9546 50.9319V28.2953C33.9546 25.1672 36.4858 22.636 39.6138 22.636C42.7419 22.636 45.2731 25.1672 45.2731 28.2953V50.9319H45.2726ZM67.9091 50.9319C67.9091 54.0599 65.3779 56.5911 62.2499 56.5911C59.1218 56.5911 56.5906 54.0599 56.5906 50.9319V28.2953C56.5906 25.1672 59.1218 22.636 62.2499 22.636C65.3779 22.636 67.9091 25.1672 67.9091 28.2953V50.9319ZM90.5457 50.9319C90.5457 54.0599 88.0145 56.5911 84.8864 56.5911C81.7584 56.5911 79.2272 54.0599 79.2272 50.9319V28.2953C79.2272 25.1672 81.7584 22.636 84.8864 22.636C88.0145 22.636 90.5457 25.1672 90.5457 28.2953V50.9319ZM169.773 50.9319C163.534 50.9319 158.455 45.853 158.455 39.6138C158.455 33.3747 163.534 28.2953 169.773 28.2953C176.012 28.2953 181.091 33.3742 181.091 39.6133C181.091 45.8525 176.012 50.9319 169.773 50.9319ZM203.727 50.9319C197.488 50.9319 192.409 45.853 192.409 39.6138C192.409 33.3747 197.488 28.2953 203.727 28.2953C209.967 28.2953 215.045 33.3742 215.045 39.6133C215.045 45.8525 209.967 50.9319 203.727 50.9319Z" fill="white"/>
<path d="M226.364 84.8864H22.6366C10.1519 84.8864 0 95.0383 0 107.523V141.478C0 153.962 10.1519 164.114 22.6366 164.114H226.364C238.848 164.114 249.001 153.962 249.001 141.478V107.523C249 95.0383 238.848 84.8864 226.364 84.8864ZM45.2726 135.818C45.2726 138.946 42.7414 141.478 39.6133 141.478C36.4852 141.478 33.9546 138.946 33.9546 135.818V113.182C33.9546 110.054 36.4858 107.522 39.6138 107.522C42.7419 107.522 45.2731 110.054 45.2731 113.182V135.818H45.2726ZM67.9091 135.818C67.9091 138.946 65.3779 141.478 62.2499 141.478C59.1218 141.478 56.5906 138.946 56.5906 135.818V113.182C56.5906 110.054 59.1218 107.522 62.2499 107.522C65.3779 107.522 67.9091 110.054 67.9091 113.182V135.818ZM90.5457 135.818C90.5457 138.946 88.0145 141.478 84.8864 141.478C81.7584 141.478 79.2272 138.946 79.2272 135.818V113.182C79.2272 110.054 81.7584 107.522 84.8864 107.522C88.0145 107.522 90.5457 110.054 90.5457 113.182V135.818ZM169.773 135.818C163.534 135.818 158.455 130.739 158.455 124.5C158.455 118.261 163.534 113.182 169.773 113.182C176.012 113.182 181.091 118.261 181.091 124.5C181.091 130.739 176.012 135.818 169.773 135.818ZM203.727 135.818C197.488 135.818 192.409 130.739 192.409 124.5C192.409 118.261 197.488 113.182 203.727 113.182C209.967 113.182 215.045 118.261 215.045 124.5C215.045 130.739 209.967 135.818 203.727 135.818Z" fill="white"/>
<path d="M226.364 169.773H22.6366C10.1519 169.773 0 179.925 0 192.409V226.364C0 238.848 10.1519 249.001 22.6366 249.001H226.364C238.848 249.001 249.001 238.849 249.001 226.364V192.409C249 179.925 238.848 169.773 226.364 169.773ZM45.2726 220.705C45.2726 223.833 42.7414 226.364 39.6133 226.364C36.4852 226.364 33.9546 223.833 33.9546 220.705V198.068C33.9546 194.94 36.4858 192.409 39.6138 192.409C42.7419 192.409 45.2731 194.94 45.2731 198.068V220.705H45.2726ZM67.9091 220.705C67.9091 223.833 65.3779 226.364 62.2499 226.364C59.1218 226.364 56.5906 223.833 56.5906 220.705V198.068C56.5906 194.94 59.1218 192.409 62.2499 192.409C65.3779 192.409 67.9091 194.94 67.9091 198.068V220.705ZM90.5457 220.705C90.5457 223.833 88.0145 226.364 84.8864 226.364C81.7584 226.364 79.2272 223.833 79.2272 220.705V198.068C79.2272 194.94 81.7584 192.409 84.8864 192.409C88.0145 192.409 90.5457 194.94 90.5457 198.068V220.705ZM169.773 220.705C163.534 220.705 158.455 215.626 158.455 209.387C158.455 203.148 163.534 198.069 169.773 198.069C176.012 198.069 181.091 203.148 181.091 209.387C181.091 215.626 176.012 220.705 169.773 220.705ZM203.727 220.705C197.488 220.705 192.409 215.626 192.409 209.387C192.409 203.148 197.488 198.069 203.727 198.069C209.967 198.069 215.045 203.148 215.045 209.387C215.045 215.626 209.967 220.705 203.727 220.705Z" fill="white"/>
</g>
<defs>
<clipPath id="clip0">
<rect width="249" height="249" fill="white"/>
</clipPath>
</defs>
</svg>
