<svg width="89" height="89" viewBox="0 0 89 89" fill="none" xmlns="http://www.w3.org/2000/svg">
<circle cx="44.5" cy="44.5" r="38" stroke="white" stroke-width="13"/>
<path d="M42.3613 21.5105V8.01221C34.1172 8.48542 26.386 11.689 20.2151 17.1887L29.7587 26.7323C33.3502 23.7424 37.7113 21.9354 42.3613 21.5105V21.5105Z" fill="white"/>
<path d="M26.7332 29.7558L17.1897 20.2123C11.6854 26.3816 8.47778 34.1133 8.00157 42.3594H21.5004C21.9282 37.7084 23.7389 33.3471 26.7332 29.7558Z" fill="white"/>
<path d="M67.4996 42.3594H80.9984C80.5222 34.1133 77.3148 26.3816 71.8103 20.2123L62.2668 29.7558C65.2611 33.3469 67.0718 37.7084 67.4996 42.3594V42.3594Z" fill="white"/>
<path d="M46.6387 8.01221V21.5105C51.2887 21.9354 55.6498 23.7423 59.2413 26.7323L68.7849 17.1887C62.614 11.6889 54.8828 8.48542 46.6387 8.01221V8.01221Z" fill="white"/>
<path d="M39.7482 39.7832C36.4381 43.0933 26.0512 59.3607 24.8778 61.2048C24.3396 62.0504 24.4611 63.1564 25.1698 63.8653C25.8786 64.5741 26.9846 64.6955 27.8303 64.1573C29.6743 62.9839 45.9419 52.5971 49.252 49.287C51.8721 46.6668 51.8721 42.4035 49.252 39.7833C46.6318 37.1631 42.3683 37.163 39.7482 39.7832V39.7832Z" fill="white"/>
</svg>