<?xml version="1.0" encoding="UTF-8"?>
<svg xmlns="http://www.w3.org/2000/svg" xmlns:xlink="http://www.w3.org/1999/xlink" xmlns:svgjs="http://svgjs.com/svgjs" version="1.1" width="512" height="512" x="0" y="0" viewBox="0 0 64 64" style="enable-background:new 0 0 512 512" xml:space="preserve" class=""><g><path xmlns="http://www.w3.org/2000/svg" d="m58 1h-52a5.006 5.006 0 0 0 -5 5v52a5.006 5.006 0 0 0 5 5h52a5.006 5.006 0 0 0 5-5v-52a5.006 5.006 0 0 0 -5-5zm-45 60v-5a18.991 18.991 0 0 1 15.465-18.667 1 1 0 0 0 .152-1.924 10 10 0 1 1 6.766 0 1 1 0 0 0 .152 1.924 19.007 19.007 0 0 1 15.465 18.667v5zm48-3a3 3 0 0 1 -3 3h-5v-5a21.02 21.02 0 0 0 -14.441-19.951 12 12 0 1 0 -13.12 0 21 21 0 0 0 -14.439 19.951v5h-5a3 3 0 0 1 -3-3v-52a3 3 0 0 1 3-3h52a3 3 0 0 1 3 3z" fill="#ffffff" data-original="#000000" style="" class=""/><path xmlns="http://www.w3.org/2000/svg" d="m16 5h-10a1 1 0 0 0 0 2h10a1 1 0 0 0 0-2z" fill="#ffffff" data-original="#000000" style="" class=""/><path xmlns="http://www.w3.org/2000/svg" d="m21 5h-2a1 1 0 0 0 0 2h2a1 1 0 0 0 0-2z" fill="#ffffff" data-original="#000000" style="" class=""/></g></svg>