<svg width="92" height="92" viewBox="0 0 92 92" fill="none" xmlns="http://www.w3.org/2000/svg">
<rect width="92" height="92" fill="#FFC700"/>
<path d="M37.0746 58.3625H23.1177L20.4643 66.4602H12L26.3814 27.1594H33.7579L48.2189 66.4602H39.7546L37.0746 58.3625ZM25.267 51.8033H34.9254L30.0697 37.0925L25.267 51.8033Z" fill="white"/>
<path d="M50.1294 51.6414C50.1294 47.0887 51.1288 43.4627 53.1277 40.7635C55.1443 38.0643 57.895 36.7147 61.3798 36.7147C64.1747 36.7147 66.4831 37.7763 68.3051 39.8997V25H76V66.4602H69.0746L68.7031 63.356C66.7927 65.7853 64.3339 67 61.3267 67C57.948 67 55.2327 65.6504 53.1808 62.9512C51.1465 60.2339 50.1294 56.464 50.1294 51.6414ZM57.7977 52.2082C57.7977 54.9434 58.2664 57.0398 59.204 58.4974C60.1415 59.955 61.5036 60.6838 63.2902 60.6838C65.6606 60.6838 67.3322 59.6671 68.3051 57.6337V46.108C67.3499 44.0745 65.696 43.0578 63.3433 43.0578C59.6462 43.0578 57.7977 46.108 57.7977 52.2082Z" fill="white"/>
</svg>
