<svg width="59" height="56" viewBox="0 0 59 56" fill="none" xmlns="http://www.w3.org/2000/svg">
<path d="M57.8026 42.6465L36.9376 4.23441C35.3628 1.58332 32.5815 0 29.4978 0C26.4141 0 23.6328 1.58332 22.058 4.23441C22.0462 4.25469 22.0361 4.27497 22.0243 4.29525L1.22856 42.5857C-0.379995 45.2927 -0.410417 48.5436 1.14571 51.281C2.70541 54.02 5.51529 55.6539 8.66661 55.6539H50.2138C53.3651 55.6539 56.2904 54.02 57.85 51.281C59.4061 48.5437 59.3758 45.2926 57.8026 42.6465ZM26.0373 17.5881C26.0373 15.6769 27.5866 14.1276 29.4978 14.1276C31.4091 14.1276 32.9583 15.677 32.9583 17.5881V31.4302C32.9583 33.3413 31.409 34.8907 29.4978 34.8907C27.5866 34.8907 26.0373 33.3412 26.0373 31.4302V17.5881V17.5881ZM29.4978 48.7329C26.6355 48.7329 24.3069 46.4045 24.3069 43.5421C24.3069 40.6798 26.6354 38.3513 29.4978 38.3513C32.3601 38.3513 34.6885 40.6798 34.6885 43.5421C34.6887 46.4044 32.3602 48.7329 29.4978 48.7329Z" fill="white"/>
</svg>
