<svg width="89" height="89" viewBox="0 0 89 89" fill="none" xmlns="http://www.w3.org/2000/svg">
<circle r="40" transform="matrix(1 0 0 -1 44.5 44.5)" stroke="black" stroke-width="9"/>
<rect width="82.9548" height="11.0451" rx="5.52256" transform="matrix(0.707107 -0.707107 -0.707107 -0.707107 18.171 77.829)" fill="black"/>
<path d="M37.9113 64.969C39.9882 65.6383 42.2023 65.9999 44.4999 65.9999C56.362 65.9999 65.9999 56.3619 65.9999 44.4999C65.9999 42.2023 65.6383 39.9881 64.969 37.9113L37.9113 64.969Z" fill="black"/>
<path d="M49.8317 23.6679C48.1264 23.2318 46.3399 22.9999 44.4999 22.9999C32.6379 22.9999 22.9999 32.6378 22.9999 44.4999C22.9999 46.3399 23.2318 48.1264 23.668 49.8317L29.7079 43.7918C30.0961 36.5484 36.3771 29.7208 44.0419 29.4577L49.8317 23.6679Z" fill="black"/>
</svg>
