<?xml version="1.0" encoding="UTF-8"?>
<!DOCTYPE svg PUBLIC "-//W3C//DTD SVG 1.1//EN" "http://www.w3.org/Graphics/SVG/1.1/DTD/svg11.dtd">
<!-- Creator: CorelDRAW 2020 (64-Bit) -->
<svg xmlns="http://www.w3.org/2000/svg" xml:space="preserve" width="687px" height="975px" version="1.1" style="shape-rendering:geometricPrecision; text-rendering:geometricPrecision; image-rendering:optimizeQuality; fill-rule:evenodd; clip-rule:evenodd"
viewBox="0 0 687 975"
 xmlns:xlink="http://www.w3.org/1999/xlink"
 xmlns:xodm="http://www.corel.com/coreldraw/odm/2003">
 <defs>
  <style type="text/css">
   <![CDATA[
    .str0 {stroke:white;stroke-width:28;stroke-miterlimit:22.9256}
    .fil1 {fill:none;fill-rule:nonzero}
    .fil4 {fill:white}
    .fil0 {fill:#313139;fill-rule:nonzero}
    .fil2 {fill:#8B8B8B;fill-rule:nonzero}
    .fil3 {fill:white;fill-rule:nonzero}
   ]]>
  </style>
 </defs>
 <g id="Слой_x0020_1">
  <metadata id="CorelCorpID_0Corel-Layer"/>
  <g id="_2461177370928">
   <path class="fil0" d="M10.82 0.18l665 0c6.07,0 11,4.93 11,11l0 953c0,6.07 -4.93,11 -11,11l-665 0c-6.07,0 -11,-4.93 -11,-11l0 -953c0,-6.07 4.93,-11 11,-11z"/>
   <path class="fil1 str0" d="M549.32 352.18c0,-113.77 -92.23,-206 -206,-206 -113.77,0 -206,92.23 -206,206 0,113.77 92.23,206 206,206 113.77,0 206,-92.23 206,-206z"/>
   <path class="fil2" d="M260.05 810.82l-9.57 1.05c-0.23,-1.96 -0.84,-3.42 -1.83,-4.35 -0.98,-0.94 -2.25,-1.41 -3.82,-1.41 -2.09,0 -3.86,0.94 -5.3,2.81 -1.44,1.87 -2.34,5.77 -2.71,11.7 2.46,-2.9 5.51,-4.35 9.17,-4.35 4.12,0 7.65,1.57 10.6,4.71 2.94,3.16 4.4,7.21 4.4,12.19 0,5.28 -1.55,9.53 -4.64,12.72 -3.1,3.2 -7.07,4.79 -11.92,4.79 -5.2,0 -9.48,-2.03 -12.83,-6.08 -3.35,-4.06 -5.03,-10.69 -5.03,-19.93 0,-9.47 1.76,-16.3 5.25,-20.49 3.49,-4.19 8.03,-6.27 13.6,-6.27 3.92,0 7.16,1.1 9.73,3.31 2.56,2.19 4.19,5.4 4.9,9.6zm-22.39 21.57c0,3.22 0.75,5.7 2.22,7.46 1.48,1.75 3.16,2.62 5.06,2.62 1.83,0 3.35,-0.72 4.58,-2.14 1.21,-1.44 1.82,-3.8 1.82,-7.06 0,-3.36 -0.66,-5.82 -1.97,-7.39 -1.32,-1.56 -2.95,-2.34 -4.92,-2.34 -1.91,0 -3.5,0.74 -4.82,2.24 -1.31,1.49 -1.97,3.7 -1.97,6.61zm45.7 -34.48c4.99,0 8.89,1.78 11.71,5.36 3.35,4.22 5.03,11.24 5.03,21.04 0,9.78 -1.69,16.81 -5.07,21.08 -2.79,3.53 -6.68,5.29 -11.67,5.29 -5.02,0 -9.06,-1.93 -12.13,-5.79 -3.08,-3.87 -4.61,-10.77 -4.61,-20.68 0,-9.73 1.69,-16.74 5.06,-21.01 2.8,-3.53 6.68,-5.29 11.68,-5.29zm0 8.2c-1.18,0 -2.23,0.39 -3.15,1.16 -0.92,0.75 -1.64,2.12 -2.14,4.1 -0.68,2.56 -1.01,6.88 -1.01,12.94 0,6.07 0.3,10.23 0.9,12.5 0.6,2.27 1.35,3.78 2.27,4.54 0.91,0.75 1.95,1.12 3.13,1.12 1.17,0 2.23,-0.38 3.15,-1.15 0.92,-0.75 1.64,-2.12 2.14,-4.1 0.67,-2.53 1.01,-6.84 1.01,-12.91 0,-6.06 -0.3,-10.23 -0.9,-12.5 -0.6,-2.26 -1.36,-3.79 -2.27,-4.54 -0.91,-0.77 -1.96,-1.16 -3.13,-1.16zm45.54 43.64l0 -51.56 35.42 0 0 8.72 -24.98 0 0 12.24 21.6 0 0 8.71 -21.6 0 0 21.89 -10.44 0zm43.98 0l0 -51.56 16.69 0c6.32,0 10.44,0.26 12.36,0.77 2.95,0.78 5.42,2.46 7.41,5.05 2,2.6 2.99,5.94 2.99,10.05 0,3.17 -0.57,5.82 -1.71,7.98 -1.16,2.16 -2.61,3.85 -4.37,5.09 -1.77,1.22 -3.57,2.04 -5.39,2.43 -2.48,0.49 -6.07,0.75 -10.78,0.75l-6.76 0 0 19.44 -10.44 0zm10.44 -42.84l0 14.68 5.67 0c4.1,0 6.82,-0.27 8.2,-0.81 1.38,-0.54 2.46,-1.38 3.24,-2.55 0.78,-1.15 1.17,-2.48 1.17,-4.02 0,-1.88 -0.55,-3.43 -1.64,-4.65 -1.1,-1.23 -2.48,-1.99 -4.18,-2.31 -1.23,-0.22 -3.72,-0.34 -7.46,-0.34l-5 0zm34.85 26.13l10.15 -1.01c0.61,3.4 1.83,5.88 3.69,7.48 1.86,1.6 4.37,2.39 7.53,2.39 3.33,0 5.85,-0.71 7.54,-2.13 1.7,-1.41 2.55,-3.07 2.55,-4.96 0,-1.23 -0.36,-2.26 -1.07,-3.12 -0.71,-0.86 -1.96,-1.6 -3.73,-2.22 -1.21,-0.44 -3.97,-1.18 -8.29,-2.26 -5.56,-1.39 -9.46,-3.1 -11.7,-5.12 -3.16,-2.85 -4.73,-6.32 -4.73,-10.41 0,-2.63 0.74,-5.1 2.22,-7.39 1.49,-2.29 3.62,-4.03 6.42,-5.23 2.8,-1.2 6.16,-1.8 10.11,-1.8 6.45,0 11.31,1.43 14.56,4.29 3.26,2.87 4.97,6.69 5.14,11.48l-10.44 0.36c-0.45,-2.67 -1.39,-4.58 -2.85,-5.74 -1.45,-1.16 -3.63,-1.75 -6.54,-1.75 -3,0 -5.35,0.62 -7.04,1.87 -1.09,0.8 -1.65,1.87 -1.65,3.22 0,1.22 0.52,2.26 1.55,3.13 1.31,1.11 4.49,2.27 9.54,3.47 5.05,1.18 8.79,2.43 11.2,3.7 2.42,1.29 4.32,3.03 5.69,5.25 1.36,2.22 2.05,4.95 2.05,8.21 0,2.95 -0.82,5.72 -2.46,8.3 -1.65,2.58 -3.96,4.5 -6.96,5.75 -3,1.26 -6.75,1.88 -11.22,1.88 -6.52,0 -11.52,-1.5 -15.01,-4.51 -3.5,-3 -5.57,-7.38 -6.25,-13.13z"/>
   <g>
    <path class="fil3" d="M332.84 376.6c0,7.19 -1.49,13.9 -4.47,20.16 -3.03,6.22 -7.18,11.64 -12.53,16.23 -5.35,4.59 -11.69,8.17 -19.07,10.77 -7.38,2.65 -15.42,3.93 -24.17,3.93 -9.79,0 -18.58,-1.53 -26.29,-4.59 -7.76,-3.02 -14.31,-7.47 -19.66,-13.27 -5.3,-5.81 -9.41,-12.93 -12.23,-21.35 -2.86,-8.41 -4.27,-17.93 -4.27,-28.6 0,-12.55 1.83,-23.95 5.52,-34.17 3.69,-10.22 8.95,-18.94 15.79,-26.21 6.85,-7.26 15.14,-12.89 24.84,-16.86 9.75,-3.96 20.65,-5.97 32.8,-5.97 13.48,0 23.88,1.35 31.35,3.99l0 26.87c-8.84,-4.2 -18.46,-6.29 -28.9,-6.29 -6.47,0 -12.36,1.04 -17.63,3.13 -5.26,2.12 -9.78,5.11 -13.56,8.97 -3.73,3.89 -6.71,8.55 -8.83,14 -2.15,5.46 -3.31,11.58 -3.48,18.29l0.75 0c8.25,-9.6 20.44,-14.36 36.53,-14.36 7.21,0 13.76,1.08 19.57,3.27 5.84,2.15 10.82,5.21 14.97,9.21 4.1,3.96 7.29,8.72 9.57,14.29 2.28,5.59 3.4,11.74 3.4,18.56zm-37.52 2.01c0,-15.67 -7.67,-23.53 -22.97,-23.53 -3.48,0 -6.64,0.56 -9.5,1.64 -2.82,1.07 -5.22,2.6 -7.25,4.58 -2.03,1.98 -3.61,4.31 -4.69,6.99 -1.08,2.68 -1.66,5.63 -1.66,8.9 0,3.61 0.58,6.95 1.7,10.08 1.16,3.13 2.74,5.87 4.81,8.2 2.08,2.33 4.52,4.21 7.34,5.56 2.86,1.36 6.01,2.02 9.5,2.02 3.48,0 6.59,-0.59 9.41,-1.77 2.78,-1.19 5.18,-2.85 7.17,-5.01 1.99,-2.12 3.49,-4.69 4.56,-7.72 1.04,-3.02 1.58,-6.32 1.58,-9.94z"/>
    <path class="fil4" d="M476.24 359.25c1.16,-21.42 -1.55,-42.13 -10.88,-58.13 -2.87,-4.93 -4.28,-5.95 -7.63,-9.75 -7.92,-9.01 -24.26,-13.87 -37.22,-14.56 -45.42,-2.41 -67.57,25.27 -70.11,68.25 -1.27,21.31 1.26,42.67 10.91,58.33 8.32,13.5 22.71,22.72 44.89,24.1 45.7,2.85 67.68,-24.97 70.04,-68.24zm-43.49 -27.3l-9.41 0c1.43,-1.84 2.5,-3.83 3.22,-5.98 0.71,-2.15 1.07,-4.32 1.07,-6.51 0,-1.3 -0.11,-2.42 -0.32,-3.37 -0.22,-0.96 -0.51,-1.76 -0.9,-2.41 -0.38,-0.65 -0.84,-1.12 -1.35,-1.43 -0.52,-0.33 -1.08,-0.48 -1.69,-0.48 -0.83,0 -1.56,0.25 -2.2,0.76 -0.66,0.5 -1.26,1.19 -1.8,2.07 -0.55,0.87 -1.08,1.91 -1.59,3.12 -0.51,1.2 -1.03,2.49 -1.56,3.89 -1.37,3.54 -3.04,6.18 -5.03,7.92 -1.98,1.74 -4.37,2.6 -7.17,2.6 -2.2,0 -4.08,-0.46 -5.66,-1.41 -1.58,-0.95 -2.88,-2.25 -3.9,-3.88 -1.02,-1.64 -1.77,-3.53 -2.25,-5.68 -0.48,-2.15 -0.72,-4.42 -0.72,-6.83 0,-2.37 0.14,-4.46 0.4,-6.28 0.26,-1.82 0.67,-3.5 1.22,-5.05l8.79 0c-0.49,0.77 -0.92,1.59 -1.29,2.49 -0.37,0.89 -0.68,1.82 -0.93,2.77 -0.24,0.94 -0.42,1.89 -0.55,2.83 -0.11,0.94 -0.17,1.83 -0.17,2.67 0,1.16 0.1,2.21 0.3,3.16 0.22,0.95 0.51,1.75 0.88,2.41 0.37,0.65 0.81,1.15 1.33,1.52 0.53,0.36 1.11,0.53 1.75,0.53 0.71,0 1.34,-0.2 1.9,-0.59 0.56,-0.4 1.09,-0.98 1.59,-1.72 0.49,-0.74 0.99,-1.63 1.47,-2.69 0.48,-1.05 0.97,-2.24 1.48,-3.57 0.71,-1.82 1.46,-3.44 2.25,-4.88 0.8,-1.45 1.7,-2.69 2.69,-3.72 1.01,-1.03 2.15,-1.82 3.44,-2.37 1.27,-0.55 2.77,-0.82 4.47,-0.82 2.36,0 4.33,0.47 5.93,1.43 1.6,0.96 2.9,2.26 3.88,3.91 0.99,1.64 1.71,3.55 2.14,5.73 0.43,2.2 0.64,4.5 0.64,6.92 0,2.49 -0.19,4.85 -0.58,7.1 -0.39,2.24 -0.99,4.2 -1.77,5.84zm-12.9 27.48l14.53 0 0 10.23 -42.17 0 0 -16.01c0,-11.44 4.48,-17.15 13.44,-17.15 4.23,0 7.66,1.64 10.28,4.93 2.61,3.28 3.92,7.65 3.92,13.13l0 4.87zm-20.35 0l13.15 0 0 -4.01c0,-5.44 -2.22,-8.16 -6.65,-8.16 -4.34,0 -6.5,2.72 -6.5,8.16l0 4.01zm0.44 17.69l0 16 10.36 0 0 -14.71 7.7 0 0 14.71 16.38 0 0 10.22 -42.17 0 0 -26.22 7.73 0z"/>
   </g>
  </g>
 </g>
</svg>
