<?xml version="1.0" encoding="UTF-8"?>
<!DOCTYPE svg PUBLIC "-//W3C//DTD SVG 1.1//EN" "http://www.w3.org/Graphics/SVG/1.1/DTD/svg11.dtd">
<!-- Creator: CorelDRAW 2020 (64-Bit) -->
<svg xmlns="http://www.w3.org/2000/svg" xml:space="preserve" width="687px" height="975px" version="1.1" style="shape-rendering:geometricPrecision; text-rendering:geometricPrecision; image-rendering:optimizeQuality; fill-rule:evenodd; clip-rule:evenodd"
viewBox="0 0 687 975"
 xmlns:xlink="http://www.w3.org/1999/xlink"
 xmlns:xodm="http://www.corel.com/coreldraw/odm/2003">
 <defs>
  <style type="text/css">
   <![CDATA[
    .str0 {stroke:white;stroke-width:28;stroke-miterlimit:22.9256}
    .fil2 {fill:none;fill-rule:nonzero}
    .fil3 {fill:white}
    .fil0 {fill:#313139;fill-rule:nonzero}
    .fil1 {fill:#8B8B8B;fill-rule:nonzero}
   ]]>
  </style>
 </defs>
 <g id="Слой_x0020_1">
  <metadata id="CorelCorpID_0Corel-Layer"/>
  <g id="_2267092745312">
   <path class="fil0" d="M10.82 0.18l665 0c6.07,0 11,4.93 11,11l0 953c0,6.07 -4.93,11 -11,11l-665 0c-6.07,0 -11,-4.93 -11,-11l0 -953c0,-6.07 4.93,-11 11,-11z"/>
   <path class="fil1" d="M264.94 849.55l-11.24 0 -4.45 -11.73 -20.68 0 -4.28 11.73 -11.04 0 20.01 -51.55 11.03 0 20.65 51.55zm-19.08 -20.45l-7.16 -19.08 -6.96 19.08 14.12 0zm24.64 20.45l0 -51.55 10.44 0 0 20.3 20.3 0 0 -20.3 10.44 0 0 51.55 -10.44 0 0 -22.53 -20.3 0 0 22.53 -10.44 0zm52.14 -51.55l9.72 0 0 34.32 20.88 -34.32 10.37 0 0 51.55 -9.72 0 0 -33.77 -20.88 33.77 -10.37 0 0 -51.55zm51.47 51.55l0 -51.55 15.63 0 9.24 35.16 9.13 -35.16 15.68 0 0 51.55 -9.65 0 -0.04 -40.58 -10.16 40.58 -10.03 0 -10.12 -40.58 -0.04 40.58 -9.64 0zm60.12 0l0 -51.55 38.16 0 0 8.71 -27.72 0 0 11.45 25.77 0 0 8.71 -25.77 0 0 13.97 28.72 0 0 8.71 -39.16 0z"/>
   <path class="fil2 str0" d="M549.82 352.18c0,-113.77 -92.23,-206 -206,-206 -113.77,0 -206,92.23 -206,206 0,113.77 92.23,206 206,206 113.77,0 206,-92.23 206,-206z"/>
   <path class="fil3" d="M417.2 415.6c-0.76,0.17 -2.47,1.17 -3.72,1.61 -1.75,0.59 -1.97,1.31 -3.03,2.44 -0.92,-0.29 -5.18,-2.6 -8.41,-3.74 -3.01,-1.06 -5.93,-2.11 -9.07,-3.01 -3.51,-1.01 -6.69,-2.1 -9.31,0.51 -0.96,0.96 -1.84,2.34 -1.83,4.31 0.01,0.88 0.21,1.74 0.53,2.44 1.54,3.45 5.74,3.62 10.19,5.05 4.21,1.35 9.2,3.1 12.81,5.41 0.55,0.35 1.07,1.02 1.11,1.81 0.03,0.64 -0.53,1.56 -0.8,2.25 -0.62,1.55 -3.19,7.45 -3.95,8.34l-0.22 -0.17c-0.02,-0.02 -0.08,-0.06 -0.11,-0.09l-2.69 -2.89c-2.83,-2.8 -7.4,-6 -10.96,-7.99 -2.63,-1.47 -5.96,-3.74 -9.4,-1.3 -2.47,1.75 -3.71,5.77 -1.22,8.58 1.96,2.23 10.21,5.41 14.56,10.51 0.81,0.95 2.02,2.33 2.26,4.08 0.38,2.72 1.12,1.46 -1.21,4.04 -1.49,1.64 -4.89,4.6 -6.78,5.77 -1.1,-1.46 -1.59,-2.81 -3.66,-5.42 -1.33,-1.67 -6.75,-8 -8.64,-9.56 -4.09,-3.38 -10.49,0.29 -9.48,5.75 0.5,2.66 2.45,3.74 3.79,5.31l3.14 3.56c0.4,0.5 0.64,0.77 1.06,1.36 1.04,1.45 2.69,4.02 3.34,5.8l-6.65 3.68c-1.97,1.11 -4.91,2.58 -7.08,3.52 -3.35,1.44 -11.62,5.48 -15.43,5.63 -4.12,0.15 -17.96,-6.77 -22.52,-8.94 -2.36,-1.13 -4.6,-2.58 -6.81,-3.72 1.95,-4.92 4.96,-7.55 7.62,-10.8 1.21,-1.48 3.33,-2.78 3.93,-5.16 1.27,-5.09 -4.44,-9.64 -9.52,-5.99 -1.04,0.76 -3.63,3.78 -4.56,4.73 -2.1,2.15 -4.34,5.06 -6.15,7.59 -0.67,0.93 -1.11,1.97 -1.77,2.83 -1.06,-0.61 -4.37,-3.33 -5.3,-4.27 -0.28,-0.29 -0.52,-0.6 -0.8,-0.88 -0.32,-0.33 -0.55,-0.47 -0.86,-0.8 -1.63,-1.76 -1.38,-1.19 -0.77,-4.53 0.63,-3.4 7.11,-7.81 9.85,-9.64 4.08,-2.74 4.56,-2.35 6.34,-3.33 0.53,-0.29 1.39,-1.09 1.78,-1.56 1.83,-2.27 1.74,-6.76 -1.96,-8.83 -3.48,-1.94 -7.31,0.52 -9.78,1.92 -2.96,1.68 -5.24,3.35 -7.78,5.22 -1.44,1.06 -3.87,3.33 -5.12,4.73l-1.09 1.33c-0.03,0.04 -0.14,0.16 -0.18,0.2l-0.29 0.3c-0.44,-0.52 -5.02,-9.59 -4.68,-10.66 0.79,-2.46 2.01,-2.84 5.16,-4.32 4.58,-2.17 9.06,-3.41 13.95,-4.81 2.1,-0.6 3.13,-0.62 4.44,-1.89 2.56,-2.48 2.52,-6.09 0.08,-8.66 -2.69,-2.83 -6.15,-1.39 -9.67,-0.37 -4.36,1.25 -11.89,3.76 -16,5.92 -0.68,0.36 -1.39,0.87 -2.02,1.1 -1.38,-1.36 -1.93,-1.91 -4.48,-2.59l-2.68 -1.71c-0.47,-0.23 -0.58,-0.29 -1.01,-0.5 -0.06,-0.36 -1.5,-1.39 -1.84,-1.68 -4.61,-4.08 -7.62,-11.4 -8.57,-17.62 -0.77,-5.05 -0.07,-8.56 2.55,-11.78 4.52,-5.57 4.03,-3.7 5.71,-5.43 0.71,-0.72 1.08,-1.27 1.39,-2.49l146.64 -0.01c1.67,5 3.72,2.92 6.79,7.88 2.4,3.9 3.41,5.74 2.54,11.51 -0.94,6.27 -2.9,11.02 -6.58,15.53 -0.92,1.14 -3.51,3.31 -3.69,3.57 -0.37,0.21 -0.47,0.24 -0.82,0.47 -0.53,0.35 -0.31,0.13 -0.61,0.55zm-66.71 -184.98l-2.13 -2.77c-0.38,-0.38 -0.3,-0.44 -0.81,-0.77 -0.2,-0.74 -2.68,-3.55 -3.34,-4.2 -1.27,-1.25 -3.79,-1.83 -5.85,-1.01 -2.02,0.79 -2.66,2.07 -3.75,3.87l-8.44 14.04c-1.89,3.17 -3.77,6.36 -5.64,9.36 -2.74,-1.2 -5.81,-3.32 -8.52,-4.84l-25.51 -14.63c-2.8,-1.61 -6.09,-3.94 -9.46,-0.93 -3.2,2.85 -2.01,5.95 -1.23,10.5 0.83,4.88 3.42,18.88 3.8,22.73 -5.82,-0.6 -14.38,-2.04 -20.44,-2.94 -3.39,-0.5 -6.82,-0.98 -10.21,-1.47 -1.7,-0.25 -3.52,-0.69 -5.21,-0.22 -1.43,0.39 -2.69,1.35 -3.35,2.4 -2.18,3.49 -0.38,6.07 1.22,8.68l10.89 18.1c0.49,0.86 1.92,2.87 2.11,3.72 -1.04,0.77 -2.93,1.54 -4.21,2.19l-12.49 6.28c-3.52,1.75 -9.22,4.84 -12.6,6.35 -1.18,0.52 -2.65,-0.28 -4.77,0.99 -2.64,1.58 -3.96,5.5 -1.63,8.67 0.77,1.05 2.13,2.1 4.04,2.31 2.8,0.3 1.73,-0.91 5.2,-0.22 6.77,1.35 14.14,2.5 20.8,4.12 -2.38,6.48 -5.45,13.18 -7.95,19.89 -1.49,4 -3.33,7.09 0.32,10.21 3.62,3.09 6.85,0.49 9.83,-1.09 0.63,7.22 -1.67,15.65 2.48,21.11 1.66,2.18 2.22,2.13 4.13,3.74 -0.17,0.24 -0.04,0.07 -0.29,0.32 -0.04,0.04 -0.16,0.14 -0.21,0.18 -5.6,5.05 -7.29,12.74 -6.64,20.32 0.64,7.48 3.78,15.72 7.36,20.34 2.27,2.92 4.07,4.85 6.86,7.07 1.12,0.89 2.77,1.99 4.17,2.71 0.43,0.22 0.81,0.39 1.25,0.6 0.77,0.38 0.55,0 0.78,0.9 0.22,0.87 0.34,1.87 0.55,2.8 2.34,10.36 7.15,20.06 12.97,28.64 0.97,1.43 1.9,2.8 2.94,4.12 4.66,5.93 12.56,10.98 19.48,15.1 7.52,4.49 30.36,16.58 38.8,16.57 6.12,0 19.55,-6.64 25.43,-9.5 4.54,-2.2 8.98,-4.86 13.32,-7.3 4.44,-2.49 8.42,-5.43 12.46,-8.36l3.72 -3.15c2.46,-1.93 4.32,-4.47 6.27,-7.67 5.39,-8.79 10.17,-18.34 12.51,-28.93 0.12,-0.53 0.46,-2.54 0.69,-2.84 0.21,-0.27 7.89,-3.61 13.12,-11.03 3.94,-5.59 6.87,-13.03 7.63,-20.05 0.71,-6.58 -1.15,-14.96 -5.97,-19.7l-0.77 -0.95c0.8,-0.57 1.48,-0.87 2.3,-1.46 6.54,-4.69 5.05,-13.25 4.99,-21.03 3.47,-0.11 6.16,-2.55 6.08,-6.12 -0.04,-1.74 -2.45,-7.17 -3.2,-9.02 -0.97,-2.4 -6.34,-15.21 -6.94,-17.37 1.97,-0.76 23.41,-9.66 24.25,-9.58 2.07,0.2 2.87,1.06 5.36,-0.37 3.1,-1.8 3.92,-6.1 1.38,-9.19 -0.88,-1.06 -2.89,-2.07 -5,-1.85 -2.39,0.24 -0.9,0.69 -4.68,-1.28 -2.99,-1.55 -6.08,-3.1 -9.02,-4.54 -3.4,-1.66 -14.8,-7.18 -18.05,-9.06l2.07 -4.57c2.01,-4.33 12.56,-24.79 13.06,-27.1 0.43,-1.98 -0.18,-4.06 -1.23,-5.12 -1.23,-1.25 -2.68,-2.14 -4.64,-2.12 -1.97,0.03 -13.41,3.63 -15.66,4.3 -3.47,1.05 -6.91,2.06 -10.35,3.03 -3.14,0.88 -7.17,2.35 -10.26,2.94 -0.1,-1.6 -0.63,-3.86 -0.91,-5.55l-2.7 -16.24c-0.53,-3.21 -0.8,-7.93 -2.44,-10.2 -1.83,-2.54 -6.21,-3.21 -8.77,-0.49l-4.04 3.94c-0.26,0.26 -0.36,0.42 -0.72,0.77l-11.08 11.03c-1.54,1.44 -8.18,8.58 -9.45,9.42 -0.91,-0.65 -7.38,-9.24 -8.88,-11.09l-5.18 -6.44zm-38.01 151.5c-4.68,0.6 -8.41,4.84 -7.71,10.1 0.6,4.48 4.82,8.29 10.08,7.58 4.47,-0.61 8.25,-4.8 7.59,-10 -0.57,-4.55 -4.73,-8.35 -9.96,-7.68zm65.27 0.03c-4.55,0.63 -8.42,4.89 -7.54,10.24 0.72,4.39 4.84,8.22 10.21,7.38 4.41,-0.69 8.16,-4.88 7.41,-10.13 -0.65,-4.49 -4.81,-8.22 -10.08,-7.49zm-68.61 -53.54c2.97,-0.32 62.53,-0.09 65.26,-0.09 5.41,0.01 10.35,-0.7 14.49,1.88 3.45,2.15 5.03,5.81 5.03,11.31 -0.01,4.32 0.49,11.93 -0.88,15.48 -3.1,8.08 -11.12,7.01 -17.52,7.01l-57.24 0c-5.38,0 -10.37,0.65 -14.47,-1.88 -3.99,-2.45 -5.04,-6.74 -5.04,-11.31 0.01,-4.49 -0.52,-11.7 0.89,-15.47 1.39,-3.71 4.69,-6.4 9.48,-6.93zm96.67 12.18c0,-4 -0.87,-5.45 -1.59,-8.67 1.9,0.91 4.39,2.45 6.32,3.57 2.18,1.26 4.19,2.44 6.4,3.63 3.29,1.77 9.97,5.95 12.64,7.17l0.01 17.71 -27.08 -0.06c1.93,-4.02 3.3,-6.79 3.3,-12.2l0 -11.15zm-142.71 2.18c1.02,-0.46 2.23,-1.24 3.31,-1.84l19.9 -11.33c1.54,-0.84 1.77,-1.44 3.88,-1.22 -1.76,3.52 -3.4,6.94 -3.31,11.83 0.19,11.12 -1.51,13.83 3.31,23.79l-27.09 0 0 -21.23zm25.87 -98c2.52,1.27 5.17,2.9 7.65,4.31 2.58,1.48 4.9,2.82 7.56,4.33 5.08,2.88 10.09,5.85 15.18,8.62 3.53,1.92 6.74,0.34 8.22,-2.08 2.95,-4.83 5.9,-10.17 8.88,-14.92l4.5 -7.43c0.26,0.17 0.07,0.03 0.31,0.28l14.73 18.34c2.51,3.12 4.5,6.83 8.37,6.78 3.18,-0.05 4.24,-2.15 5.83,-3.55 0.38,-0.34 0.39,-0.31 0.76,-0.73 0.25,-0.28 0.42,-0.5 0.73,-0.76 1.86,-1.61 7.62,-7.84 9.12,-9.09 1.6,-1.33 7.09,-7.3 8.96,-8.94 0.46,1.4 2.45,13.94 2.88,16.46 0.87,5.23 0.67,12.2 6.83,12.53 2.06,0.11 12.67,-3.35 15.29,-4.11 2.54,-0.73 4.91,-1.43 7.49,-2.17 2.28,-0.64 5.12,-1.67 7.26,-2.07 -1.37,3.35 -7.92,16.67 -9.93,20.77 -1.21,2.47 -2.71,4.67 -1.41,7.85 0.61,1.48 1.36,1.98 2.56,2.63l23.7 12.16c-1.91,1.32 -17.31,6.24 -19.22,8.26 -3.62,3.85 0.05,9.27 2.35,15.13 0.61,1.57 1.45,3.32 1.88,4.89l-16.42 -9.29c-2.26,-1.27 -10.34,-6.37 -12.61,-6.53 -1.96,-0.13 -4.32,-0.01 -6.32,-0.01 -10.6,-0.01 -106.62,-0.23 -108.41,0.09 -1.76,0.32 -10.43,5.59 -12.32,6.66l-16.14 9.15c0.96,-2.7 2.22,-5.61 3.35,-8.38 1.33,-3.25 3.1,-6.29 2.28,-9.14 -0.98,-3.45 -3.53,-3.91 -7.21,-4.68 -3.21,-0.66 -6.74,-1.49 -9.95,-1.98 0.7,-0.87 16.83,-8.54 18.26,-9.25 2.3,-1.15 3.86,-1.92 4.67,-4.25 0.99,-2.83 -0.6,-5.1 -1.69,-6.97 -1.21,-2.05 -9.83,-16.17 -10.05,-16.96 5.34,0.64 10.95,1.53 16.36,2.3 2.64,0.38 5.42,0.76 8.15,1.15 2.47,0.34 5.75,1.21 8.03,0.21 2.22,-0.98 3.65,-3.35 3.47,-5.9 -0.32,-4.56 -3.69,-19.66 -3.93,-23.71z"/>
  </g>
 </g>
</svg>
