<?xml version="1.0" encoding="UTF-8"?>
<!DOCTYPE svg PUBLIC "-//W3C//DTD SVG 1.1//EN" "http://www.w3.org/Graphics/SVG/1.1/DTD/svg11.dtd">
<!-- Creator: CorelDRAW 2020 (64-Bit) -->
<svg xmlns="http://www.w3.org/2000/svg" xml:space="preserve" width="687px" height="975px" version="1.1" style="shape-rendering:geometricPrecision; text-rendering:geometricPrecision; image-rendering:optimizeQuality; fill-rule:evenodd; clip-rule:evenodd"
viewBox="0 0 687 975"
 xmlns:xlink="http://www.w3.org/1999/xlink"
 xmlns:xodm="http://www.corel.com/coreldraw/odm/2003">
 <defs>
  <style type="text/css">
   <![CDATA[
    .str0 {stroke:white;stroke-width:28;stroke-miterlimit:22.9256}
    .fil2 {fill:none;fill-rule:nonzero}
    .fil3 {fill:white}
    .fil0 {fill:#313139;fill-rule:nonzero}
    .fil1 {fill:#8B8B8B;fill-rule:nonzero}
   ]]>
  </style>
 </defs>
 <g id="Слой_x0020_1">
  <metadata id="CorelCorpID_0Corel-Layer"/>
  <g id="_2267092665616">
   <path class="fil0" d="M10.82 0.18l665 0c6.07,0 11,4.93 11,11l0 953c0,6.07 -4.93,11 -11,11l-665 0c-6.07,0 -11,-4.93 -11,-11l0 -953c0,-6.07 4.93,-11 11,-11z"/>
   <path class="fil1" d="M73.17 798l35.57 0 0 42.84 4.53 0 0 19.94 -8.71 0 0 -11.23 -32.33 0 0 11.23 -8.71 0 0 -19.94 4.39 0c2.14,-4.4 3.56,-9.52 4.24,-15.32 0.68,-5.82 1.02,-13.18 1.02,-22.07l0 -5.45zm9.94 8.71c0,15.6 -1.44,26.98 -4.32,34.13l19.51 0 0 -34.13 -15.19 0zm35.01 17.38c0,-5.26 0.79,-9.67 2.37,-13.25 1.16,-2.63 2.77,-4.99 4.8,-7.08 2.02,-2.09 4.24,-3.64 6.66,-4.66 3.21,-1.35 6.92,-2.04 11.12,-2.04 7.61,0 13.68,2.37 18.25,7.08 4.56,4.73 6.84,11.3 6.84,19.71 0,8.34 -2.27,14.87 -6.79,19.57 -4.52,4.72 -10.58,7.07 -18.16,7.07 -7.66,0 -13.77,-2.34 -18.3,-7.03 -4.52,-4.68 -6.79,-11.14 -6.79,-19.37zm10.73 -0.35c0,5.84 1.36,10.27 4.06,13.3 2.7,3.01 6.13,4.52 10.28,4.52 4.16,0 7.57,-1.5 10.25,-4.49 2.66,-3 3.99,-7.49 3.99,-13.47 0,-5.92 -1.29,-10.34 -3.9,-13.24 -2.59,-2.92 -6.03,-4.37 -10.34,-4.37 -4.3,0 -7.76,1.48 -10.39,4.42 -2.63,2.95 -3.95,7.39 -3.95,13.33zm47.58 -25.74l10.44 0 0 21.96c2.32,-0.24 3.89,-0.83 4.7,-1.8 0.82,-0.96 2.09,-3.64 3.8,-8.03 2.14,-5.58 4.32,-9.06 6.49,-10.41 2.16,-1.36 5.63,-2.04 10.43,-2.04 0.24,0 0.74,-0.02 1.51,-0.04l0 7.7 -1.48 -0.03c-2.13,0 -3.69,0.26 -4.68,0.79 -0.98,0.53 -1.77,1.33 -2.39,2.41 -0.61,1.08 -1.51,3.3 -2.7,6.66 -0.63,1.79 -1.32,3.28 -2.06,4.48 -0.73,1.2 -2.04,2.33 -3.91,3.38 2.31,0.65 4.22,1.98 5.73,3.97 1.52,2 3.17,4.8 4.97,8.44l7.02 14.11 -12.24 0 -6.18 -13.27c-0.09,-0.19 -0.3,-0.55 -0.6,-1.09 -0.12,-0.18 -0.55,-1 -1.29,-2.43 -1.32,-2.54 -2.4,-4.12 -3.24,-4.76 -0.86,-0.64 -2.14,-0.96 -3.88,-0.98l0 22.53 -10.44 0 0 -51.55zm43.66 51.55l0 -9.86 9.86 0 0 9.86 -9.86 0zm73.12 -19.01l10.08 3.1c-1.54,5.68 -4.12,9.89 -7.72,12.65 -3.6,2.75 -8.16,4.13 -13.7,4.13 -6.85,0 -12.48,-2.34 -16.89,-7.02 -4.41,-4.68 -6.61,-11.08 -6.61,-19.2 0,-8.58 2.22,-15.26 6.64,-20.01 4.43,-4.75 10.26,-7.13 17.49,-7.13 6.31,0 11.43,1.88 15.37,5.61 2.35,2.21 4.1,5.37 5.28,9.51l-10.3 2.45c-0.61,-2.66 -1.88,-4.77 -3.81,-6.32 -1.95,-1.55 -4.3,-2.32 -7.06,-2.32 -3.83,0 -6.93,1.37 -9.31,4.12 -2.39,2.73 -3.58,7.17 -3.58,13.32 0,6.5 1.18,11.15 3.52,13.91 2.35,2.77 5.4,4.15 9.16,4.15 2.77,0 5.16,-0.88 7.15,-2.64 1.99,-1.77 3.43,-4.53 4.29,-8.31zm19.02 19.01l0 -51.55 38.16 0 0 8.71 -27.72 0 0 11.45 25.78 0 0 8.71 -25.78 0 0 13.97 28.73 0 0 8.71 -39.17 0zm48.03 0l0 -51.55 16.69 0c6.32,0 10.44,0.25 12.36,0.77 2.95,0.78 5.42,2.46 7.42,5.05 1.99,2.59 2.98,5.94 2.98,10.04 0,3.17 -0.57,5.82 -1.71,7.98 -1.15,2.16 -2.61,3.86 -4.37,5.09 -1.76,1.23 -3.56,2.04 -5.39,2.44 -2.48,0.49 -6.07,0.74 -10.77,0.74l-6.77 0 0 19.44 -10.44 0zm10.44 -42.84l0 14.69 5.67 0c4.1,0 6.82,-0.28 8.2,-0.82 1.38,-0.54 2.46,-1.38 3.24,-2.54 0.78,-1.15 1.18,-2.48 1.18,-4.02 0,-1.88 -0.56,-3.43 -1.65,-4.66 -1.1,-1.22 -2.48,-1.99 -4.17,-2.3 -1.24,-0.23 -3.72,-0.35 -7.47,-0.35l-5 0zm37.73 -8.71l9.72 0 0 34.32 20.88 -34.32 10.36 0 0 51.55 -9.72 0 0 -33.77 -20.88 33.77 -10.36 0 0 -51.55zm98.05 51.55l-11.25 0 -4.45 -11.73 -20.67 0 -4.29 11.73 -11.04 0 20.02 -51.55 11.03 0 20.65 51.55zm-19.08 -20.45l-7.17 -19.08 -6.96 19.08 14.13 0zm29.22 -31.1l36.11 0 0 51.55 -10.44 0 0 -42.84 -15.48 0 0 22.01c0,6.3 -0.22,10.7 -0.64,13.19 -0.42,2.49 -1.44,4.45 -3.07,5.84 -1.63,1.39 -4.18,2.09 -7.64,2.09 -1.23,0 -3.44,-0.12 -6.65,-0.35l0 -8.07 2.33 0.03c2.17,0 3.64,-0.29 4.39,-0.87 0.75,-0.59 1.13,-2.03 1.13,-4.32l-0.04 -8.86 0 -29.4zm47.1 0l10.44 0 0 20.59 13.91 0c3.64,0 6.79,0.51 9.42,1.5 2.62,1 4.82,2.77 6.59,5.34 1.75,2.57 2.62,5.52 2.62,8.86 0,3.49 -0.91,6.49 -2.73,9.02 -1.84,2.52 -3.87,4.19 -6.11,5.01 -2.23,0.82 -5.51,1.23 -9.82,1.23l-24.32 0 0 -51.55zm10.44 42.84l10.15 0c3.23,0 5.48,-0.16 6.77,-0.47 1.27,-0.31 2.41,-1.03 3.41,-2.15 0.99,-1.11 1.49,-2.47 1.49,-4.08 0,-2.28 -0.82,-3.99 -2.44,-5.13 -1.63,-1.14 -4.57,-1.71 -8.81,-1.71l-10.57 0 0 13.54zm38.52 -42.84l10.44 0 0 51.55 -10.44 0 0 -51.55z"/>
   <path class="fil2 str0" d="M549.82 352.18c0,-113.77 -92.23,-206 -206,-206 -113.77,0 -206,92.23 -206,206 0,113.77 92.23,206 206,206 113.77,0 206,-92.23 206,-206z"/>
   <g>
    <path class="fil3" d="M304.12 274.48l57.8 0 0 23.94 -71.81 0c0.54,-2.31 7.98,-15.49 9.68,-18.34 1.13,-1.9 2.11,-5.6 4.33,-5.6zm-13.98 42.64c-2.69,0.36 -4.44,2.26 -5.22,4.63 -0.46,1.42 -0.32,3.22 -0.32,4.83l0 72.6c0,1.72 -0.13,3.24 0.35,4.79 0.69,2.28 2.69,4.3 5.25,4.56 0.82,0.09 8.38,0.03 9.4,0.03l44.66 0c0.72,0 1.62,0.05 2.32,-0.04 2.61,-0.33 4.49,-2.33 5.2,-4.64 0.44,-1.46 0.32,-3.18 0.32,-4.82l0 -72.6c0,-1.67 0.12,-3.31 -0.35,-4.79 -0.74,-2.3 -2.65,-4.27 -5.26,-4.56 -0.71,-0.08 -8.46,-0.03 -9.39,-0.03l-44.65 0c-0.73,0 -1.61,-0.05 -2.31,0.04zm11.84 71.54l0 -12.5c1.96,1.9 4.08,3.33 6.37,4.28 2.29,0.94 4.59,1.42 6.93,1.42 1.38,0 2.57,-0.15 3.58,-0.43 1.02,-0.29 1.87,-0.68 2.56,-1.19 0.69,-0.51 1.2,-1.11 1.53,-1.79 0.35,-0.69 0.51,-1.44 0.51,-2.25 0,-1.1 -0.27,-2.07 -0.81,-2.92 -0.54,-0.87 -1.27,-1.67 -2.2,-2.39 -0.93,-0.73 -2.04,-1.44 -3.32,-2.1 -1.28,-0.68 -2.66,-1.38 -4.14,-2.08 -3.77,-1.82 -6.58,-4.04 -8.43,-6.68 -1.85,-2.63 -2.77,-5.8 -2.77,-9.52 0,-2.92 0.49,-5.42 1.5,-7.52 1.01,-2.1 2.39,-3.82 4.13,-5.18 1.74,-1.35 3.76,-2.35 6.04,-2.99 2.29,-0.64 4.71,-0.96 7.27,-0.96 2.52,0 4.75,0.19 6.69,0.54 1.93,0.34 3.72,0.89 5.37,1.62l0 11.68c-0.82,-0.65 -1.69,-1.23 -2.65,-1.72 -0.95,-0.49 -1.94,-0.91 -2.95,-1.24 -1,-0.32 -2.01,-0.56 -3.01,-0.72 -1,-0.15 -1.94,-0.23 -2.84,-0.23 -1.24,0 -2.35,0.14 -3.36,0.4 -1.01,0.28 -1.86,0.67 -2.57,1.16 -0.68,0.5 -1.22,1.08 -1.62,1.77 -0.37,0.7 -0.56,1.47 -0.56,2.32 0,0.95 0.21,1.79 0.63,2.52 0.43,0.75 1.04,1.46 1.83,2.12 0.78,0.66 1.74,1.31 2.86,1.95 1.12,0.64 2.39,1.29 3.8,1.97 1.93,0.93 3.66,1.93 5.2,2.99 1.54,1.05 2.86,2.25 3.95,3.57 1.1,1.33 1.94,2.85 2.53,4.56 0.58,1.69 0.87,3.68 0.87,5.94 0,3.14 -0.51,5.75 -1.53,7.88 -1.02,2.12 -2.4,3.84 -4.16,5.15 -1.74,1.32 -3.78,2.26 -6.1,2.84 -2.33,0.57 -4.78,0.85 -7.36,0.85 -2.64,0 -5.16,-0.26 -7.55,-0.77 -2.39,-0.52 -4.47,-1.31 -6.22,-2.35zm42.19 23.14c-5.86,0.05 -11.73,0 -17.59,0l-35.14 0c-1.58,0 -2.58,0.05 -4.01,-0.44 -1.05,-0.35 -2.17,-1.09 -2.84,-1.75 -3.45,-3.42 -2.93,-6.69 -2.93,-11.32l0 -67.94c0,-1.61 -0.04,-3.3 0.01,-4.89 -1.21,0.24 -2.6,1.38 -3.11,2.06 -2.11,2.82 -1.57,5.31 -1.57,9.19l0 71.3c0,1.98 -0.09,3.13 0.61,4.78 0.5,1.2 1.44,2.28 2.35,2.89 1.3,0.86 2.25,1.02 4.01,1.02l49.72 0c1.58,0 3.39,0.09 4.92,-0.01 1.47,-0.1 2.71,-0.73 3.58,-1.54 0.49,-0.47 0.78,-0.78 1.2,-1.45 0.2,-0.3 0.77,-1.42 0.79,-1.9zm-7.66 8.16c-0.66,-0.08 -16.95,-0.02 -17.56,-0.02 -11.76,0 -23.51,0 -35.26,0 -1.53,0 -2.53,0.02 -3.92,-0.47 -2.1,-0.74 -3.74,-2.39 -4.77,-4.46 -1.28,-2.58 -0.95,-5.82 -0.95,-8.71l0 -63.23c0,-3.22 -0.05,-6.49 0.01,-9.7 -0.42,-0.02 -1.4,0.55 -1.72,0.77 -1.53,1.06 -2.66,2.8 -2.91,4.99 -0.1,0.84 -0.04,9.81 -0.04,10.9l0 65.64c0,1.81 -0.11,3.29 0.53,4.82 0.57,1.37 1.32,2.24 2.28,2.96 1.15,0.86 2.31,1.13 3.96,1.13l44.66 0c3.28,0 6.66,0.09 9.93,0 1.53,-0.04 2.76,-0.65 3.68,-1.43 0.68,-0.57 1.79,-1.93 2.08,-3.19zm-75 -121.54c-10.8,0 -29.66,-1.62 -37.18,1.93 -8.84,4.18 -15.36,11.59 -15.36,24.34l0 94.57c0,14.75 10.54,26.27 25.1,26.27l145.36 0c14.3,0 25.69,-10.5 25.69,-24.52l0 -98.07c0,-11.62 -9.61,-22.65 -18.1,-23.35l0 -25.11 30.35 0 0 -25.1 -113.25 0c-15.11,0 -20.49,8.08 -26.27,19.26 -5.17,10.03 -11.06,19.8 -16.34,29.78z"/>
    <path class="fil3" d="M429.05 342.2l0 71.8c0,1.99 20.57,21.45 23.5,24.37 9.07,9.08 4.8,7.16 26.12,7.16l0 -134.85c-24.14,0 -15.62,-3.36 -34.3,15.32 -2.09,2.09 -15.32,14.44 -15.32,16.2z"/>
    <path class="fil3" d="M419.71 251.13l0 20.44c0,4.43 1.5,8.75 5.84,8.75l26.85 0c8.31,0 16.93,-8.2 16.93,-18.68 0,-9.61 -7.88,-18.1 -17.51,-18.1l-26.27 0c-3.79,0 -5.84,3.75 -5.84,7.59z"/>
    <path class="fil3" d="M408.03 415.17l16.93 0c1.35,0 1.75,-0.41 1.75,-1.75l0 -70.64c0,-1.34 -0.4,-1.75 -1.75,-1.75l-16.93 0 0 74.14z"/>
   </g>
  </g>
 </g>
</svg>
