<?xml version="1.0" encoding="UTF-8"?>
<!DOCTYPE svg PUBLIC "-//W3C//DTD SVG 1.1//EN" "http://www.w3.org/Graphics/SVG/1.1/DTD/svg11.dtd">
<!-- Creator: CorelDRAW 2020 (64-Bit) -->
<svg xmlns="http://www.w3.org/2000/svg" xml:space="preserve" width="687px" height="975px" version="1.1" style="shape-rendering:geometricPrecision; text-rendering:geometricPrecision; image-rendering:optimizeQuality; fill-rule:evenodd; clip-rule:evenodd"
viewBox="0 0 687 975"
 xmlns:xlink="http://www.w3.org/1999/xlink"
 xmlns:xodm="http://www.corel.com/coreldraw/odm/2003">
 <defs>
  <style type="text/css">
   <![CDATA[
    .str0 {stroke:white;stroke-width:28;stroke-miterlimit:22.9256}
    .fil2 {fill:none;fill-rule:nonzero}
    .fil3 {fill:white}
    .fil0 {fill:#313139;fill-rule:nonzero}
    .fil1 {fill:#8B8B8B;fill-rule:nonzero}
   ]]>
  </style>
 </defs>
 <g id="Слой_x0020_1">
  <metadata id="CorelCorpID_0Corel-Layer"/>
  <g id="_2267075690688">
   <path class="fil0" d="M10.82 0.18l665 0c6.07,0 11,4.93 11,11l0 953c0,6.07 -4.93,11 -11,11l-665 0c-6.07,0 -11,-4.93 -11,-11l0 -953c0,-6.07 4.93,-11 11,-11z"/>
   <path class="fil1" d="M87.93 798l35.57 0 0 42.84 4.53 0 0 19.94 -8.71 0 0 -11.23 -32.33 0 0 11.23 -8.71 0 0 -19.94 4.39 0c2.14,-4.4 3.56,-9.52 4.24,-15.32 0.68,-5.82 1.02,-13.18 1.02,-22.07l0 -5.45zm9.94 8.71c0,15.6 -1.44,26.98 -4.32,34.13l19.51 0 0 -34.13 -15.19 0zm35.01 17.38c0,-5.26 0.79,-9.67 2.37,-13.25 1.16,-2.63 2.77,-4.99 4.8,-7.08 2.02,-2.09 4.24,-3.64 6.66,-4.66 3.21,-1.35 6.92,-2.04 11.12,-2.04 7.61,0 13.68,2.37 18.25,7.08 4.56,4.73 6.84,11.3 6.84,19.71 0,8.34 -2.27,14.87 -6.79,19.57 -4.52,4.72 -10.58,7.07 -18.16,7.07 -7.66,0 -13.77,-2.34 -18.3,-7.03 -4.52,-4.68 -6.79,-11.14 -6.79,-19.37zm10.73 -0.35c0,5.84 1.36,10.27 4.06,13.3 2.7,3.01 6.13,4.52 10.28,4.52 4.17,0 7.57,-1.5 10.25,-4.49 2.66,-3 4,-7.49 4,-13.47 0,-5.92 -1.3,-10.34 -3.91,-13.24 -2.59,-2.92 -6.03,-4.37 -10.34,-4.37 -4.3,0 -7.76,1.48 -10.39,4.42 -2.63,2.95 -3.95,7.39 -3.95,13.33zm47.58 -25.74l10.44 0 0 21.96c2.32,-0.24 3.89,-0.83 4.7,-1.8 0.82,-0.96 2.09,-3.64 3.8,-8.03 2.14,-5.58 4.32,-9.06 6.49,-10.41 2.16,-1.36 5.63,-2.04 10.43,-2.04 0.24,0 0.74,-0.02 1.51,-0.04l0 7.7 -1.48 -0.03c-2.13,0 -3.69,0.26 -4.68,0.79 -0.98,0.53 -1.77,1.33 -2.39,2.41 -0.61,1.08 -1.51,3.3 -2.7,6.66 -0.63,1.79 -1.32,3.28 -2.06,4.48 -0.73,1.2 -2.04,2.33 -3.91,3.38 2.31,0.65 4.22,1.98 5.73,3.97 1.52,2 3.17,4.8 4.97,8.44l7.02 14.11 -12.24 0 -6.18 -13.27c-0.09,-0.19 -0.3,-0.55 -0.6,-1.09 -0.12,-0.18 -0.55,-1 -1.29,-2.43 -1.32,-2.54 -2.4,-4.12 -3.24,-4.76 -0.86,-0.64 -2.14,-0.96 -3.88,-0.98l0 22.53 -10.44 0 0 -51.55zm43.66 51.55l0 -9.86 9.86 0 0 9.86 -9.86 0zm70.75 -6.05l0 6.05 -10.23 0 0 -6.05c-8.24,-0.3 -14.05,-2.34 -17.44,-6.09 -3.4,-3.77 -5.09,-8.47 -5.09,-14.13 0,-5.95 1.77,-10.71 5.31,-14.31 3.56,-3.6 9.29,-5.56 17.22,-5.86l0 -5.11 10.23 0 0 5.11c8.19,0.3 13.99,2.32 17.41,6.05 3.42,3.72 5.12,8.45 5.12,14.16 0,5.68 -1.7,10.38 -5.1,14.12 -3.4,3.74 -9.21,5.76 -17.43,6.06zm0 -8.71c2.72,0 5.07,-0.45 7.04,-1.37 1.96,-0.91 3.35,-2.13 4.18,-3.68 0.83,-1.54 1.23,-3.79 1.23,-6.77 0,-7.43 -4.15,-11.15 -12.45,-11.15l0 22.97zm-10.23 0l0 -22.97c-4.4,0 -7.57,0.98 -9.52,2.93 -1.96,1.96 -2.93,4.91 -2.93,8.86 0,7.45 4.15,11.18 12.45,11.18zm41.22 -36.79l9.72 0 0 34.32 20.88 -34.32 10.37 0 0 51.55 -9.72 0 0 -33.77 -20.88 33.77 -10.37 0 0 -51.55zm55.32 0l36.11 0 0 51.55 -10.44 0 0 -42.84 -15.48 0 0 22.01c0,6.3 -0.21,10.7 -0.63,13.19 -0.42,2.49 -1.44,4.45 -3.08,5.84 -1.63,1.39 -4.17,2.09 -7.64,2.09 -1.22,0 -3.43,-0.12 -6.65,-0.35l0 -8.07 2.33 0.03c2.17,0 3.65,-0.29 4.39,-0.87 0.76,-0.59 1.13,-2.03 1.13,-4.32l-0.04 -8.86 0 -29.4zm47.03 0l10.44 0 0 20.59 13.91 0c6.55,0 11.29,1.54 14.23,4.61 2.94,3.07 4.41,6.76 4.41,11.05 0,3.52 -0.89,6.51 -2.68,8.97 -1.78,2.47 -3.8,4.14 -6.1,5.01 -2.28,0.88 -5.58,1.32 -9.88,1.32l-24.33 0 0 -51.55zm10.44 42.84l10.12 0c3.27,0 5.55,-0.16 6.81,-0.47 1.26,-0.31 2.4,-1.03 3.4,-2.15 1,-1.11 1.49,-2.48 1.49,-4.11 0,-2.35 -0.85,-4.07 -2.55,-5.16 -1.7,-1.09 -4.59,-1.65 -8.7,-1.65l-10.57 0 0 13.54zm39.17 8.71l0 -51.55 15.64 0 9.24 35.16 9.13 -35.16 15.67 0 0 51.55 -9.65 0 -0.03 -40.58 -10.17 40.58 -10.03 0 -10.12 -40.58 -0.03 40.58 -9.65 0zm60.41 -51.55l10.44 0 0 20.59 13.91 0c3.64,0 6.79,0.51 9.42,1.5 2.62,1 4.82,2.77 6.58,5.34 1.76,2.57 2.63,5.52 2.63,8.86 0,3.49 -0.91,6.49 -2.73,9.02 -1.84,2.52 -3.87,4.19 -6.11,5.01 -2.23,0.82 -5.51,1.23 -9.82,1.23l-24.32 0 0 -51.55zm10.44 42.84l10.15 0c3.23,0 5.48,-0.16 6.77,-0.47 1.27,-0.31 2.41,-1.03 3.41,-2.15 0.99,-1.11 1.48,-2.47 1.48,-4.08 0,-2.28 -0.81,-3.99 -2.43,-5.13 -1.63,-1.14 -4.57,-1.71 -8.81,-1.71l-10.57 0 0 13.54zm38.52 -42.84l10.44 0 0 51.55 -10.44 0 0 -51.55z"/>
   <path class="fil2 str0" d="M549.82 352.18c0,-113.77 -92.23,-206 -206,-206 -113.77,0 -206,92.23 -206,206 0,113.77 92.23,206 206,206 113.77,0 206,-92.23 206,-206z"/>
   <path class="fil3" d="M304.12 274.48l57.8 0 0 23.94 -71.81 0c0.54,-2.31 7.98,-15.49 9.68,-18.34 1.13,-1.9 2.11,-5.6 4.33,-5.6zm-17.05 42.02c-0.51,0.26 -1.51,0.64 -2.19,1 -0.74,0.39 -1.45,0.84 -2.24,1.09 -0.52,0.41 -1.09,0.64 -1.79,1.02l-5.09 3.11c-0.11,0.31 -0.24,0.27 -0.81,0.68 -0.42,0.31 -0.64,0.43 -1.03,0.76l-5.54 4.91c-0.31,0.29 -0.61,0.59 -0.83,0.81l-5.52 6.58c-0.29,0.57 -0.68,1.17 -1.1,1.75 -0.39,0.54 -0.68,1.04 -1.05,1.62 -0.4,0.63 -1.65,3.12 -2.01,3.4 -0.13,0.48 -2.62,5.69 -3.53,8.52 -2.77,8.6 -3.79,17.61 -2.39,26.74 0.28,1.83 0.74,3.57 0.97,5.33l0.61 1.95 1.49 4.78 0.82 2.04c0.02,0.03 0.05,0.04 0.06,0.09 0.01,0.04 0.04,0.06 0.05,0.08l2.05 4.47c5.19,9.33 9.92,13.74 17.95,20.34 0.35,0.21 0.67,0.47 1.04,0.72 0.37,0.25 0.69,0.47 1.08,0.72 1.41,0.9 3.06,1.88 4.56,2.61 0.63,0.31 1.77,0.84 2.23,1.16 0.56,0.21 4.11,1.67 4.33,1.85 2.82,0.66 4.55,1.6 8.63,2.39 1.5,0.29 3.09,0.6 4.65,0.75 0.7,0.06 4.77,0.3 5.04,0.43l53.76 0c0.57,-0.34 1.01,-0.24 1.65,-0.72 0.53,-0.4 0.87,-1.05 1.25,-1.3l0.07 -0.37c0.13,-0.9 0.28,-1.49 0.01,-2.39 -0.08,-0.27 -0.28,-0.69 -0.43,-0.93l-0.55 -0.8c-0.04,-0.01 -0.09,-0.08 -0.1,-0.05l-1.01 -0.47c-1.53,-0.6 -9.8,-0.28 -11.65,-0.29l-41.29 0.01c-10.81,-0.21 -20.46,-3.21 -28.75,-9.06 -12.13,-8.57 -21.85,-23.01 -21.83,-41.6 0.02,-12.12 4.27,-23.75 11.75,-32.57l3.77 -4.14c0.31,-0.3 0.55,-0.48 0.88,-0.77 4.3,-3.73 7.85,-6.41 13.38,-8.87 6.61,-2.94 12.75,-4.31 20.96,-4.52 8.51,-0.03 17.82,2.38 24.87,6.49 11.07,6.46 19.51,16.11 23.48,28.77 4.51,14.36 2.57,30.09 -5.27,42.36 -1.38,2.17 -3.96,5.73 -5.6,7.4 -0.52,0.52 -0.86,0.86 -1.35,1.34l-2.66 2.55c-0.93,0.87 -1.99,1.35 -2.4,2.83 -0.65,2.39 1.07,3.43 1.32,3.92l1.26 0.6c1.24,0.2 1.29,0.09 2.4,-0.14 0.14,-0.24 0.45,-0.33 0.77,-0.37 0.3,-0.58 3.54,-3.35 4.18,-3.93 0.74,-0.66 1.3,-1.42 1.93,-2.1l1.99 -2.09c0.07,-0.32 -0.05,-0.08 0.23,-0.47 0.02,-0.04 0.19,-0.22 0.2,-0.22 0.26,-0.24 -0.06,-0.04 0.22,-0.16 0.28,-0.57 1.24,-1.81 1.66,-2.25l3.06 -4.67c0.12,-0.53 2.1,-4.09 2.2,-4.19l1.91 -4.64c0.16,-0.27 0,-0.08 0.22,-0.28 -0.03,-0.61 0.34,-1.3 0.52,-1.81 0.18,-0.8 0.45,-1.53 0.68,-2.3 0.17,-0.56 0.43,-1.83 0.66,-2.29l0.45 -2.13 0.42 -2.32c0.1,-1.1 0.28,-1.95 0.4,-3.04 0.1,-0.95 0.09,-2.1 0.22,-3.01 0.31,-3.81 -0.09,-8.67 -0.6,-12.1l-0.26 -1.92 -0.56 -2.35 -0.58 -2.23c-0.22,-0.6 -0.49,-1.47 -0.71,-2.29 -0.19,-0.68 -0.61,-1.58 -0.71,-2.28 -0.28,-0.38 -0.64,-1.56 -0.87,-2.09 -0.29,-0.7 -0.65,-1.42 -0.97,-2.15 -0.38,-0.77 -0.76,-1.62 -1.17,-2.48 -0.61,-1.16 -1.24,-2.25 -1.89,-3.3 -0.44,-0.7 -1.89,-2.74 -2.05,-3.26l-0.86 -1c-0.34,-0.46 -0.42,-0.63 -0.76,-1.03 -0.32,-0.37 -0.5,-0.68 -0.76,-1.02l-3.34 -3.83c-1.55,-1.95 -5.57,-4.88 -7.61,-6.58 -0.86,-0.72 -2.03,-1.46 -2.98,-2.09 -2.42,-1.6 -5.87,-3.27 -8.5,-4.47 -1.39,-0.73 -3.49,-1.47 -5,-1.87 -3.1,-0.82 -3.72,-1.2 -7.51,-1.87 -7.68,-1.37 -15.43,-1.26 -22.98,0.49 -5.45,1.26 -5.54,1.79 -9.61,3.01zm21.37 91.07c2.22,0.04 3.87,-0.16 5.72,-0.89 1.67,-0.65 2.77,-1.47 4,-2.64 2.45,-2.33 4.03,-5.7 3.87,-9.31 -0.2,-4.32 -1.64,-6.44 -4.18,-9.09 -2.46,-2.57 -6.34,-3.43 -10.04,-3.19 -6.06,0.65 -11.14,6.12 -11.05,12.76 0.08,6.43 5.38,12.09 11.68,12.36zm-0.19 -49.72c4.26,0.14 7.69,-1.27 9.8,-3.51 1.13,-1.22 2.04,-2.06 2.8,-3.84 1.49,-3.48 1.66,-7.3 -0.09,-10.73 -0.49,-0.97 -1.28,-2.25 -2.01,-2.94 -0.3,-0.29 -0.55,-0.51 -0.85,-0.83 -2.18,-2.28 -5.84,-3.56 -10.07,-3.26 -6.09,0.65 -11.15,5.98 -11.07,12.74 0.07,6.49 5.24,11.95 11.49,12.37zm0.48 9.22c-4.22,1.04 -2.6,7.03 1.39,6.14 1.51,-0.34 2.78,-1.94 2.35,-3.81 -0.34,-1.5 -1.89,-2.78 -3.74,-2.33zm-25.05 15.25c4.26,0.13 7.7,-1.28 9.8,-3.52 1.14,-1.21 2.04,-2.06 2.8,-3.84 1.5,-3.48 1.67,-7.29 -0.08,-10.73 -0.5,-0.97 -1.29,-2.24 -2.01,-2.94 -0.3,-0.28 -0.55,-0.51 -0.86,-0.83 -2.18,-2.27 -5.83,-3.56 -10.07,-3.26 -6.09,0.66 -11.14,5.98 -11.07,12.75 0.08,6.49 5.24,11.94 11.49,12.37zm49.14 0.19c4.26,0.13 7.7,-1.27 9.8,-3.52 1.13,-1.21 2.04,-2.05 2.8,-3.83 1.49,-3.48 1.66,-7.3 -0.09,-10.74 -0.49,-0.96 -1.28,-2.24 -2.01,-2.93 -0.3,-0.29 -0.55,-0.51 -0.85,-0.83 -2.18,-2.28 -5.84,-3.56 -10.07,-3.27 -6.09,0.66 -11.15,5.98 -11.07,12.75 0.07,6.49 5.24,11.95 11.49,12.37zm-71.31 -84.09c-10.8,0 -29.66,-1.62 -37.18,1.93 -8.84,4.18 -15.36,11.59 -15.36,24.34l0 94.57c0,14.75 10.54,26.27 25.1,26.27l145.36 0c14.3,0 25.69,-10.5 25.69,-24.52l0 -98.07c0,-11.62 -9.61,-22.65 -18.1,-23.35l0 -25.11 30.35 0 0 -25.1 -113.25 0c-15.11,0 -20.49,8.08 -26.27,19.26 -5.17,10.03 -11.06,19.8 -16.34,29.78z"/>
   <path class="fil3" d="M429.05 342.2l0 71.8c0,1.99 20.57,21.45 23.5,24.37 9.07,9.08 4.8,7.16 26.12,7.16l0 -134.85c-24.14,0 -15.62,-3.36 -34.3,15.32 -2.09,2.09 -15.32,14.44 -15.32,16.2z"/>
   <path class="fil3" d="M419.71 251.13l0 20.44c0,4.43 1.5,8.75 5.84,8.75l26.85 0c8.31,0 16.93,-8.2 16.93,-18.68 0,-9.61 -7.88,-18.1 -17.51,-18.1l-26.27 0c-3.79,0 -5.84,3.75 -5.84,7.59z"/>
   <path class="fil3" d="M408.03 415.17l16.93 0c1.35,0 1.75,-0.41 1.75,-1.75l0 -70.64c0,-1.34 -0.4,-1.75 -1.75,-1.75l-16.93 0 0 74.14z"/>
  </g>
 </g>
</svg>
