<?xml version="1.0" encoding="UTF-8"?>
<!DOCTYPE svg PUBLIC "-//W3C//DTD SVG 1.1//EN" "http://www.w3.org/Graphics/SVG/1.1/DTD/svg11.dtd">
<!-- Creator: CorelDRAW 2020 (64-Bit) -->
<svg xmlns="http://www.w3.org/2000/svg" xml:space="preserve" width="687px" height="975px" version="1.1" style="shape-rendering:geometricPrecision; text-rendering:geometricPrecision; image-rendering:optimizeQuality; fill-rule:evenodd; clip-rule:evenodd"
viewBox="0 0 687 975"
 xmlns:xlink="http://www.w3.org/1999/xlink"
 xmlns:xodm="http://www.corel.com/coreldraw/odm/2003">
 <defs>
  <style type="text/css">
   <![CDATA[
    .str1 {stroke:white;stroke-width:4;stroke-miterlimit:22.9256}
    .str0 {stroke:white;stroke-width:28;stroke-miterlimit:22.9256}
    .fil2 {fill:none;fill-rule:nonzero}
    .fil3 {fill:white}
    .fil0 {fill:#313139;fill-rule:nonzero}
    .fil1 {fill:#8B8B8B;fill-rule:nonzero}
   ]]>
  </style>
 </defs>
 <g id="Слой_x0020_1">
  <metadata id="CorelCorpID_0Corel-Layer"/>
  <g id="_2267547704528">
   <path class="fil0" d="M10.82 0.18l665 0c6.07,0 11,4.93 11,11l0 953c0,6.07 -4.93,11 -11,11l-665 0c-6.07,0 -11,-4.93 -11,-11l0 -953c0,-6.07 4.93,-11 11,-11z"/>
   <path class="fil1" d="M57.44 849.55l0 -51.55 15.64 0 9.24 35.16 9.13 -35.16 15.67 0 0 51.55 -9.64 0 -0.04 -40.58 -10.16 40.58 -10.04 0 -10.11 -40.58 -0.04 40.58 -9.65 0zm54.83 -51.55l11.73 0 12 26.69 10.27 -26.69 10.86 0 -17.44 39.18c-1.89,4.25 -3.83,7.48 -5.79,9.7 -1.97,2.22 -4.5,3.32 -7.62,3.32 -3.08,0 -5.48,-0.2 -7.2,-0.6l0 -7.75c1.47,0.09 2.8,0.14 3.99,0.14 2.4,0 4.13,-0.44 5.17,-1.32 1.04,-0.89 2.04,-2.79 2.99,-5.71l-18.96 -36.96zm51.04 0l36.11 0 0 51.55 -10.44 0 0 -42.84 -15.48 0 0 22.01c0,6.3 -0.22,10.7 -0.64,13.19 -0.42,2.49 -1.44,4.45 -3.07,5.84 -1.63,1.39 -4.18,2.09 -7.65,2.09 -1.22,0 -3.43,-0.12 -6.64,-0.35l0 -8.07 2.32 0.03c2.18,0 3.65,-0.29 4.4,-0.87 0.75,-0.59 1.12,-2.03 1.12,-4.32l-0.03 -8.86 0 -29.4zm47.03 0l10.44 0 0 20.59 13.9 0c6.56,0 11.3,1.54 14.24,4.61 2.94,3.07 4.4,6.76 4.4,11.05 0,3.52 -0.89,6.51 -2.68,8.97 -1.77,2.47 -3.8,4.14 -6.09,5.01 -2.28,0.88 -5.58,1.32 -9.89,1.32l-24.32 0 0 -51.55zm10.44 42.84l10.11 0c3.28,0 5.56,-0.16 6.82,-0.47 1.26,-0.31 2.4,-1.03 3.39,-2.15 1,-1.11 1.49,-2.48 1.49,-4.11 0,-2.35 -0.85,-4.07 -2.54,-5.16 -1.71,-1.09 -4.6,-1.65 -8.7,-1.65l-10.57 0 0 13.54zm45.42 8.71l0 -42.84 -15.27 0 0 -8.71 40.9 0 0 8.71 -15.19 0 0 42.84 -10.44 0zm60.24 -6.05l0 6.05 -10.23 0 0 -6.05c-8.24,-0.3 -14.05,-2.34 -17.45,-6.09 -3.39,-3.77 -5.08,-8.47 -5.08,-14.13 0,-5.95 1.77,-10.71 5.31,-14.31 3.55,-3.6 9.29,-5.56 17.22,-5.86l0 -5.11 10.23 0 0 5.11c8.19,0.3 13.99,2.32 17.41,6.05 3.42,3.72 5.12,8.45 5.12,14.16 0,5.68 -1.7,10.38 -5.1,14.12 -3.41,3.74 -9.21,5.76 -17.43,6.06zm0 -8.71c2.72,0 5.07,-0.45 7.04,-1.37 1.96,-0.91 3.35,-2.13 4.18,-3.68 0.82,-1.54 1.23,-3.79 1.23,-6.77 0,-7.43 -4.15,-11.15 -12.45,-11.15l0 22.97zm-10.23 0l0 -22.97c-4.4,0 -7.57,0.98 -9.53,2.93 -1.95,1.96 -2.92,4.91 -2.92,8.86 0,7.45 4.15,11.18 12.45,11.18zm41.22 -36.79l9.72 0 0 34.32 20.88 -34.32 10.37 0 0 51.55 -9.72 0 0 -33.77 -20.88 33.77 -10.37 0 0 -51.55zm55.32 0l36.11 0 0 51.55 -10.44 0 0 -42.84 -15.48 0 0 22.01c0,6.3 -0.22,10.7 -0.64,13.19 -0.42,2.49 -1.44,4.45 -3.07,5.84 -1.63,1.39 -4.17,2.09 -7.64,2.09 -1.23,0 -3.43,-0.12 -6.65,-0.35l0 -8.07 2.33 0.03c2.17,0 3.65,-0.29 4.39,-0.87 0.76,-0.59 1.13,-2.03 1.13,-4.32l-0.04 -8.86 0 -29.4zm47.03 0l10.44 0 0 20.59 13.91 0c6.55,0 11.29,1.54 14.23,4.61 2.94,3.07 4.4,6.76 4.4,11.05 0,3.52 -0.88,6.51 -2.67,8.97 -1.78,2.47 -3.81,4.14 -6.1,5.01 -2.28,0.88 -5.58,1.32 -9.89,1.32l-24.32 0 0 -51.55zm10.44 42.84l10.12 0c3.27,0 5.55,-0.16 6.81,-0.47 1.26,-0.31 2.4,-1.03 3.4,-2.15 0.99,-1.11 1.49,-2.48 1.49,-4.11 0,-2.35 -0.86,-4.07 -2.55,-5.16 -1.7,-1.09 -4.59,-1.65 -8.7,-1.65l-10.57 0 0 13.54zm39.17 8.71l0 -51.55 15.63 0 9.24 35.16 9.14 -35.16 15.67 0 0 51.55 -9.65 0 -0.04 -40.58 -10.16 40.58 -10.03 0 -10.12 -40.58 -0.03 40.58 -9.65 0zm60.41 -51.55l10.44 0 0 20.59 13.9 0c3.65,0 6.8,0.51 9.42,1.5 2.63,1 4.83,2.77 6.59,5.34 1.75,2.57 2.63,5.52 2.63,8.86 0,3.49 -0.91,6.49 -2.74,9.02 -1.83,2.52 -3.86,4.19 -6.1,5.01 -2.24,0.82 -5.51,1.23 -9.82,1.23l-24.32 0 0 -51.55zm10.44 42.84l10.15 0c3.23,0 5.48,-0.16 6.77,-0.47 1.27,-0.31 2.41,-1.03 3.4,-2.15 1,-1.11 1.49,-2.47 1.49,-4.08 0,-2.28 -0.81,-3.99 -2.43,-5.13 -1.64,-1.14 -4.58,-1.71 -8.81,-1.71l-10.57 0 0 13.54zm38.52 -42.84l10.44 0 0 51.55 -10.44 0 0 -51.55z"/>
   <path class="fil2 str0" d="M549.82 352.18c0,-113.77 -92.23,-206 -206,-206 -113.77,0 -206,92.23 -206,206 0,113.77 92.23,206 206,206 113.77,0 206,-92.23 206,-206z"/>
   <g>
    <path class="fil3" d="M342.2 411.7c8.21,-0.84 20.91,1.72 23.97,10.43 3.41,9.71 -7.89,16.19 -16.7,17.17 -8.22,0.91 -21.11,-1.71 -24.22,-10.43 -0.86,-2.4 -0.73,-5.15 0.27,-7.4 0.79,-1.76 2.44,-3.85 3.92,-4.92 3.58,-2.6 7.39,-4.3 12.76,-4.85zm19.72 -49.09c4.46,-1.29 7.58,3.46 8.95,6.33 5.57,11.61 2.64,32.94 -6.15,35.32 -13.49,3.65 -17.05,-37.54 -2.8,-41.65zm-35.06 0c4.46,-1.29 7.58,3.46 8.95,6.33 5.56,11.61 2.64,32.94 -6.16,35.32 -13.48,3.65 -17.05,-37.54 -2.79,-41.65zm-30.8 95.51c1.29,1.4 7.84,5.49 9.78,6.62 22.16,12.82 57.27,13.17 78.53,0.62 2.17,-1.28 8,-4.72 9.7,-6.3 0.9,-1.26 4.28,-4.01 6.2,-6.15 6.1,-6.81 10.5,-13.42 13.48,-22.8 1.95,-6.15 3.37,-13.98 -0.25,-19.33 -1.67,-2.45 -3.81,-4.33 -6.79,-5.43 -5.08,-1.87 -7.21,-0.39 -10.08,0.02 6.5,-12.29 14.55,-41.21 11.29,-53.97 -2.21,-8.63 -7.42,-15.44 -14.72,-19.76 -13.62,-8.05 -31.23,-4.46 -40.67,7.68 -2.92,3.75 -6.51,10.23 -6.51,16.48 -0.76,-0.53 -0.4,0.16 -0.79,-2.4l-1.95 -6.58c-3.26,-7.66 -9.08,-13.94 -17.29,-17.17 -9.22,-3.63 -19.3,-3.09 -27.96,2.11 -1.99,1.19 -5,3.43 -6.36,4.95 -9.07,10.13 -10.34,18.56 -7.88,33.3 1.92,11.45 5.04,21.15 9.2,31.36 0.49,1.22 1.31,2.71 1.62,4 -7.73,-2.05 -13.07,0.09 -16.68,5.41 -3.49,5.14 -2.5,12.64 -0.71,18.86 2.54,8.83 9.08,19.71 15.9,25.59 0.98,0.85 2.18,1.92 2.94,2.89z"/>
    <path class="fil3 str1" d="M398.66 468.25c-1.86,1.73 -8.25,5.49 -10.62,6.89 -23.27,13.74 -61.73,13.37 -85.98,-0.68 -2.13,-1.23 -9.31,-5.72 -10.72,-7.24 -1.2,-0.73 -2.15,-1.46 -3.13,-2.26 -16.17,-13.18 -27.36,-30.39 -32.35,-51.42 -2.97,-12.53 -2.98,-27.47 -0.14,-40.01 3.84,-16.98 10.24,-25.33 12.35,-32.52 -13.54,2.85 -23.55,7.85 -38.8,5.53 -28.19,-4.3 -34.72,-34.8 -25.14,-58.96 4.84,-12.2 11.77,-21.02 18.79,-27.96 1.12,-1.11 1.84,-1.46 3,-2.66 5.53,-5.72 18.07,-12.28 25.92,-14.83 26.6,-8.63 53.09,4.58 54.45,33.46 0.32,6.66 -0.62,13.1 -2.52,19.49 -1.7,5.75 -4.32,11.77 -5.81,17.55 1.73,-0.2 17.09,-6.5 21.84,-7.85 8.18,-2.31 16.55,-3.8 25.91,-3.81 25.29,-0.04 42.25,11.04 47.75,11.66 -3.71,-13.25 -9,-21.31 -8.34,-37.05 1.17,-28.05 26.74,-41.83 53.71,-33.69 6.95,2.1 13.68,5.47 19.34,9.36 1.14,0.78 2.48,1.73 3.48,2.55 3.53,2.88 5.98,4.88 9.19,8.16 1.01,1.03 1.62,1.97 2.65,3 0.93,0.94 1.69,2 2.58,3.12 12.03,15.2 19.79,37.03 12.86,56.57 -0.94,2.65 -2.43,5.35 -3.86,7.47 -9.2,13.7 -25.75,17.14 -41.68,14.34 -6.5,-1.14 -12.91,-3.35 -19.26,-4.31 0.97,4.72 8.55,16.46 11.89,32.72 6.33,30.88 -3.75,61.66 -25.15,83.05l-12.21 10.33zm-136.42 -236.09l-5.01 0.67 -4.98 1.12c-1.51,0.74 -3.51,1.24 -5.18,1.73 -1.83,0.54 -3.23,1.28 -4.86,1.87 -1.81,0.75 -3.43,1.52 -5.17,2.44 -1.44,0.76 -3.28,2 -4.78,2.64 -1.1,0.88 -2.45,1.78 -3.72,2.59l-7.14 5.54c-5.79,5.22 -10.2,9.79 -15.12,16.58 -1.47,2.03 -6.06,9.68 -7.05,12.01 -2.52,6 -3.01,7.12 -4.98,13.99 -1.55,5.37 -1.07,6.45 -1.74,9.61 -0.03,0.12 -0.05,0.21 -0.08,0.32 -0.03,0.11 -0.07,0.23 -0.09,0.31l-0.22 0.63 0 9.09c0.33,0.88 0.88,5.81 1.21,7.49 0.47,2.38 1.14,4.55 1.93,6.7 1.63,4.48 3.95,8.09 6.33,11.45 1.88,1.94 3.83,4.12 5.63,5.96 1.58,1.15 2.73,2.17 4.68,3.4 1.58,1 3.81,1.83 5.09,2.72 3.59,1.09 6.17,2.01 10.19,2.94l5.01 0.74 7.34 0.09 2.68 -0.22 5 -0.54 7.25 -1.46c-0.79,2.96 -3.21,7.47 -5.1,14.64 -1.68,6.3 -2.23,10.53 -3.15,17.2l-0.21 4.68 -0.12 5.01 0.18 5.01 0.12 3.94 1 6.07c0.46,3.82 1.53,6.63 2.15,10.32l1.35 4.37c0.66,1.59 1.13,3.41 1.8,5.09 0.62,1.54 1.76,3.83 2.08,5.3l2.47 4.92c0.64,0.97 1.38,2.53 2.1,3.8 0.77,1.34 1.65,2.64 2.45,3.92 1.65,2.64 3.39,4.88 5.11,7.29l2.28 2.69c2.18,2.28 4.05,4.98 7.29,8.06l5.38 4.66c2.8,2.39 4.75,3.56 5.67,4.69 1.37,0.63 3.43,2.2 4.83,3.16 1.08,0.73 4.46,2.46 5.13,3.18 1.65,0.52 3.57,1.66 5.25,2.46 0.87,0.41 1.65,0.89 2.45,1.24 1.04,0.44 1.93,0.75 2.81,1.26l9.88 3.41 4.68 1.25c3.61,0.64 6.73,1.55 10.49,1.93 4.2,0.42 7.6,0.79 11.88,0.82 8.19,0.05 15.02,-0.71 22.7,-2.42l5.18 -1.21c1.47,-0.47 3.44,-0.96 4.76,-1.46 1.32,-0.51 3.41,-1.44 4.62,-1.66 1.51,-0.87 3.62,-1.53 5.17,-2.25 1.86,-0.86 3.33,-1.88 5.26,-2.5 1.4,-0.9 3.29,-1.79 4.81,-2.77 0.84,-0.54 1.61,-1 2.46,-1.56 0.89,-0.58 1.48,-1.15 2.54,-1.46 0.7,-1.04 5.54,-4.22 7.23,-5.79 4.2,-3.89 5.61,-4.3 10.08,-9.65l8.88 -11.09c1.05,-1.72 2.04,-3.28 3.13,-4.94 0.9,-1.37 2.02,-3.75 2.86,-5.06 0.95,-2.93 3.15,-6.54 4.41,-9.96 1.25,-2.61 2.7,-7.47 3.47,-10.52l1.3 -4.91c0,-2.65 1.13,-6.32 1.38,-9.27 0.25,-3.12 0.81,-7.2 0.59,-10.36 -0.39,-7.39 -0.54,-13.61 -1.91,-20.7l-0.82 -3.87c-1.47,-2.99 -1.98,-7.26 -3.32,-10.49l-2.22 -5.86 4.94 0.95 5.34 0.6 5 0.23 4.68 -0.05 5.34 -0.67c3.86,-0.79 6.4,-1.55 10.02,-2.6 1.45,-0.55 3.14,-1.52 4.54,-2.01 1.22,-0.95 3.36,-2.07 4.75,-3.01 1.83,-1.25 3.05,-2.43 4.31,-3.69 1.26,-1.26 2.58,-2.67 3.74,-4.27 1.05,-1.46 2.19,-3.38 3.24,-4.73 1.36,-3.33 2.8,-5.4 3.86,-8.92 0.49,-1.62 0.91,-3.21 1.26,-5.06 0.35,-1.82 0.39,-4.39 1.01,-5.81l0 -9.19c-0.89,-2.25 -0.38,-10.71 -6.39,-23.99l-3.21 -6.8c-0.91,-0.91 -2.69,-3.93 -3.47,-5.21 -1.12,-1.84 -2.32,-3.09 -3.43,-5.01l-11.06 -11.9c-0.99,-0.82 -3.19,-2.47 -4.1,-3.52l-15.19 -9.56 -4.73 -2.18 -9.89 -3.17 -5.31 -1.06 -5.01 -0.54 -5.01 -0.18 -5 0.32 -5.01 0.75 -5.01 1.33c-1.69,0.46 -3.65,1.3 -5.2,2.07 -1.71,0.85 -3.34,1.94 -4.82,2.54 -0.68,0.91 -1.92,1.57 -3,2.33 -2.97,2.11 -4.54,4.29 -6.76,6.6l-1.14 1.16c-1.16,1.89 -2.18,3.2 -3.41,5.32 -0.98,1.69 -1.86,3.76 -2.64,5.73 -1.43,3.6 -2.81,9.64 -3.01,13.92l-0.17 5.34 0.21 4.98c0.56,2.06 0.81,5.64 1.35,7.95 0.61,2.66 1.48,4.85 2.08,7.5 -2.11,-0.31 -3.75,-1.18 -5.76,-1.83 -6.26,-2.02 -11.74,-2.64 -17.81,-3.91l-5.35 -0.49 -4.67 -0.18 -5.01 0.06 -5.01 0.28 -4.61 0.3c-1.7,1.01 -8.67,1.79 -11.08,2.27l-4.31 1.22c-0.86,0.42 -6.02,2.15 -6.93,2.28l1.78 -5.81 0.94 -4.94 0.66 -5.01 0.21 -4.67 -0.16 -5.34 -0.66 -5.34 -1.02 -4.68c-1.12,-3.91 -2.5,-6.19 -3.87,-9.68 -0.42,-0.38 -3.97,-6.05 -7.09,-9.27 -3.39,-3.49 -8.04,-6.11 -8.89,-7.09 -1.68,-0.58 -3.33,-1.65 -5.01,-2.4 -1.56,-0.69 -3.61,-1.16 -5.11,-1.81l-4.61 -1.01 -5.68 -0.67 -4.67 -0.12 -5.01 0.33z"/>
    <path class="fil3" d="M343.45 418.73c-2.56,0.48 -6.73,2.25 -3.92,5.02 1.55,1.54 6,2.03 8.69,1.49 8.74,-1.75 3.66,-8.1 -4.77,-6.51z"/>
   </g>
  </g>
 </g>
</svg>
