<?xml version="1.0" encoding="UTF-8"?>
<!DOCTYPE svg PUBLIC "-//W3C//DTD SVG 1.1//EN" "http://www.w3.org/Graphics/SVG/1.1/DTD/svg11.dtd">
<!-- Creator: CorelDRAW 2020 (64-Bit) -->
<svg xmlns="http://www.w3.org/2000/svg" xml:space="preserve" width="687px" height="975px" version="1.1" style="shape-rendering:geometricPrecision; text-rendering:geometricPrecision; image-rendering:optimizeQuality; fill-rule:evenodd; clip-rule:evenodd"
viewBox="0 0 687 975"
 xmlns:xlink="http://www.w3.org/1999/xlink"
 xmlns:xodm="http://www.corel.com/coreldraw/odm/2003">
 <defs>
  <style type="text/css">
   <![CDATA[
    .str0 {stroke:white;stroke-width:28;stroke-miterlimit:22.9256}
    .fil2 {fill:none;fill-rule:nonzero}
    .fil3 {fill:white}
    .fil0 {fill:#313139;fill-rule:nonzero}
    .fil1 {fill:#8B8B8B;fill-rule:nonzero}
   ]]>
  </style>
 </defs>
 <g id="Слой_x0020_1">
  <metadata id="CorelCorpID_0Corel-Layer"/>
  <g id="_2267442266448">
   <path class="fil0" d="M10.82 0.18l665 0c6.07,0 11,4.93 11,11l0 953c0,6.07 -4.93,11 -11,11l-665 0c-6.07,0 -11,-4.93 -11,-11l0 -953c0,-6.07 4.93,-11 11,-11z"/>
   <path class="fil1" d="M41.31 849.55l0 -51.55 15.64 0 9.24 35.16 9.13 -35.16 15.67 0 0 51.55 -9.65 0 -0.03 -40.58 -10.17 40.58 -10.03 0 -10.12 -40.58 -0.03 40.58 -9.65 0zm54.83 -51.55l11.72 0 12 26.69 10.27 -26.69 10.86 0 -17.43 39.18c-1.9,4.25 -3.83,7.48 -5.8,9.7 -1.97,2.22 -4.5,3.32 -7.62,3.32 -3.07,0 -5.47,-0.2 -7.2,-0.6l0 -7.75c1.48,0.09 2.81,0.14 4,0.14 2.4,0 4.13,-0.44 5.17,-1.32 1.03,-0.89 2.04,-2.79 2.99,-5.71l-18.96 -36.96zm51.03 0l36.11 0 0 51.55 -10.44 0 0 -42.84 -15.48 0 0 22.01c0,6.3 -0.21,10.7 -0.63,13.19 -0.42,2.49 -1.44,4.45 -3.08,5.84 -1.63,1.39 -4.17,2.09 -7.64,2.09 -1.22,0 -3.43,-0.12 -6.65,-0.35l0 -8.07 2.33 0.03c2.17,0 3.65,-0.29 4.39,-0.87 0.76,-0.59 1.13,-2.03 1.13,-4.32l-0.04 -8.86 0 -29.4zm47.03 0l10.44 0 0 20.59 13.91 0c6.55,0 11.29,1.54 14.23,4.61 2.94,3.07 4.41,6.76 4.41,11.05 0,3.52 -0.89,6.51 -2.68,8.97 -1.78,2.47 -3.8,4.14 -6.1,5.01 -2.28,0.88 -5.58,1.32 -9.88,1.32l-24.33 0 0 -51.55zm10.44 42.84l10.12 0c3.27,0 5.55,-0.16 6.81,-0.47 1.26,-0.31 2.4,-1.03 3.4,-2.15 1,-1.11 1.49,-2.48 1.49,-4.11 0,-2.35 -0.85,-4.07 -2.55,-5.16 -1.7,-1.09 -4.59,-1.65 -8.7,-1.65l-10.57 0 0 13.54zm45.42 8.71l0 -42.84 -15.26 0 0 -8.71 40.89 0 0 8.71 -15.19 0 0 42.84 -10.44 0zm65.37 -19.01l10.08 3.1c-1.55,5.68 -4.13,9.89 -7.73,12.65 -3.6,2.75 -8.16,4.13 -13.69,4.13 -6.86,0 -12.48,-2.34 -16.9,-7.02 -4.4,-4.68 -6.61,-11.08 -6.61,-19.2 0,-8.58 2.22,-15.26 6.65,-20.01 4.42,-4.75 10.26,-7.13 17.48,-7.13 6.31,0 11.44,1.88 15.37,5.61 2.35,2.21 4.11,5.37 5.28,9.51l-10.29 2.45c-0.62,-2.66 -1.89,-4.77 -3.82,-6.32 -1.94,-1.55 -4.3,-2.32 -7.06,-2.32 -3.82,0 -6.93,1.37 -9.31,4.12 -2.39,2.73 -3.57,7.17 -3.57,13.32 0,6.5 1.17,11.15 3.51,13.91 2.35,2.77 5.4,4.15 9.16,4.15 2.77,0 5.16,-0.88 7.15,-2.64 1.99,-1.77 3.43,-4.53 4.3,-8.31zm19.02 19.01l0 -51.55 38.16 0 0 8.71 -27.72 0 0 11.45 25.77 0 0 8.71 -25.77 0 0 13.97 28.72 0 0 8.71 -39.16 0zm48.02 0l0 -51.55 16.69 0c6.33,0 10.44,0.25 12.36,0.77 2.95,0.78 5.43,2.46 7.42,5.05 1.99,2.59 2.99,5.94 2.99,10.04 0,3.17 -0.58,5.82 -1.72,7.98 -1.15,2.16 -2.6,3.86 -4.37,5.09 -1.76,1.23 -3.56,2.04 -5.39,2.44 -2.48,0.49 -6.07,0.74 -10.77,0.74l-6.77 0 0 19.44 -10.44 0zm10.44 -42.84l0 14.69 5.68 0c4.09,0 6.81,-0.28 8.19,-0.82 1.38,-0.54 2.46,-1.38 3.24,-2.54 0.78,-1.15 1.18,-2.48 1.18,-4.02 0,-1.88 -0.55,-3.43 -1.65,-4.66 -1.1,-1.22 -2.48,-1.99 -4.17,-2.3 -1.24,-0.23 -3.72,-0.35 -7.47,-0.35l-5 0zm37.73 -8.71l9.72 0 0 34.32 20.88 -34.32 10.37 0 0 51.55 -9.72 0 0 -33.77 -20.88 33.77 -10.37 0 0 -51.55zm98.05 51.55l-11.24 0 -4.46 -11.73 -20.67 0 -4.29 11.73 -11.04 0 20.02 -51.55 11.03 0 20.65 51.55zm-19.08 -20.45l-7.16 -19.08 -6.96 19.08 14.12 0zm29.22 -31.1l36.11 0 0 51.55 -10.44 0 0 -42.84 -15.48 0 0 22.01c0,6.3 -0.22,10.7 -0.64,13.19 -0.42,2.49 -1.44,4.45 -3.07,5.84 -1.63,1.39 -4.18,2.09 -7.64,2.09 -1.23,0 -3.44,-0.12 -6.65,-0.35l0 -8.07 2.33 0.03c2.17,0 3.64,-0.29 4.39,-0.87 0.75,-0.59 1.13,-2.03 1.13,-4.32l-0.04 -8.86 0 -29.4zm47.1 0l10.44 0 0 20.59 13.91 0c3.65,0 6.79,0.51 9.42,1.5 2.63,1 4.82,2.77 6.59,5.34 1.75,2.57 2.62,5.52 2.62,8.86 0,3.49 -0.91,6.49 -2.73,9.02 -1.84,2.52 -3.87,4.19 -6.11,5.01 -2.23,0.82 -5.51,1.23 -9.82,1.23l-24.32 0 0 -51.55zm10.44 42.84l10.15 0c3.23,0 5.49,-0.16 6.77,-0.47 1.27,-0.31 2.41,-1.03 3.41,-2.15 0.99,-1.11 1.49,-2.47 1.49,-4.08 0,-2.28 -0.82,-3.99 -2.44,-5.13 -1.63,-1.14 -4.57,-1.71 -8.81,-1.71l-10.57 0 0 13.54zm38.52 -42.84l10.44 0 0 51.55 -10.44 0 0 -51.55z"/>
   <path class="fil2 str0" d="M549.82 352.18c0,-113.77 -92.23,-206 -206,-206 -113.77,0 -206,92.23 -206,206 0,113.77 92.23,206 206,206 113.77,0 206,-92.23 206,-206z"/>
   <g>
    <path class="fil3" d="M335.42 469.04l16.82 0 0.01 16.58 -16.82 -0.07 -0.01 -16.51zm31.59 14.98l-2.78 0.56 -3.66 0.32 0.01 -15.86 16.6 0 0 12.95c-3.21,0.41 -6.47,1.75 -10.17,2.03zm-47.77 -0.09c-0.73,-0.13 -1.36,-0.25 -2.16,-0.41 -0.08,-0.01 -1.04,-0.23 -1.06,-0.24 -0.73,-0.26 -0.47,-0.06 -0.86,-0.48 -1.61,0.19 -3.34,-0.6 -5.13,-0.84 1.02,-1.7 0.47,-10.11 0.47,-12.92l16.6 0 -0.01 15.96 -7.85 -1.07zm66.36 -14.89l13.59 0c-1.04,2.06 -4.02,4.5 -6.08,5.9 -2.65,1.8 -4.8,2.71 -7.49,4.1l-0.02 -1.26 0 -8.74zm-90.37 6.2c-2.13,-0.97 -5.74,-4.25 -6.75,-6.2l13.6 0 -0.03 10c-2.27,-1.35 -5,-2.14 -6.82,-3.8zm106.48 -19.92c0.45,0.35 0.28,-0.6 0.4,0.77l0.16 4.63 -16.67 0 0 -16.7c2.33,0.38 9.51,1.8 11.37,2.64 3.24,1.47 5.19,5.86 4.74,8.66zm-41.1 -10.83l16.57 -0.22 0 16.45 -16.61 0 0.04 -16.23zm-17.65 1.4c2.06,0.36 7.09,-1.29 9.28,-1.78l0.01 16.51 -12.94 0c-0.71,0.01 -1.61,0.06 -2.29,0.03 -0.35,-0.02 -0.54,-0.03 -0.89,-0.09 -0.71,-0.13 -0.31,-0.01 -0.71,-0.26l-0.03 -16.25 7.57 1.84zm-32.46 -1.57l16.6 0.12 0.08 16.18 -16.68 0 0 -16.3zm-24.61 9.51c0.11,-0.59 0.16,-0.95 0.37,-1.54 0.42,-1.16 0.07,-0.64 0.77,-1.24 0.29,-4.94 10.21,-6.25 15.05,-7.03l0 16.7 -16.74 -0.01 0.55 -6.88zm-25.57 -69.6c0.15,-1.82 0.25,-5.01 1.46,-6.02 -0.12,-3.6 5.08,-9.57 6.87,-11.22 3.48,-3.21 6.6,-4.58 12.06,-6.07 6.41,-0.88 15.58,-0.36 22.34,-0.36 30,0 60,0 89.99,0 12.52,0 23.87,-0.68 31.41,13.31 3.28,6.08 2.94,11.24 2.94,19.42 0,7.94 0.48,13.96 -2.58,20.1 -2.49,5 -6.1,8.61 -11.07,11.28 -5.76,3.09 -12.5,2.65 -20.05,2.65l-101 0c-1.72,0 -9.35,0.53 -10.65,-0.48l-1.33 0.12c-1.58,-0.3 -3.88,-0.59 -4.72,-1.78 -4,-0.18 -13,-8.86 -13.24,-12.92 -1.1,-0.78 -1.47,-2.92 -1.75,-4.4 -1.33,-5.14 -0.68,-17.55 -0.68,-23.63zm68.14 -181.09c-0.16,1.72 -1.03,3 -1.13,5.31l0 3.24c0.17,3.41 2.74,6.92 4.33,8.63 3.07,3.3 5.56,3.8 7.64,5.29l-0.32 3.56c-0.05,0.7 -0.11,1.3 -0.19,1.99 -0.05,0.38 -0.11,0.85 -0.2,1.2 -0.22,0.84 -0.07,0.41 -0.33,0.82 0.37,1.61 -0.22,3.61 -0.25,5.38 -0.07,0.66 -0.12,1.28 -0.2,1.96 -0.04,0.39 -0.1,0.86 -0.19,1.23 -0.22,0.86 -0.08,0.43 -0.33,0.82 0.61,2.97 -2.15,21.28 -2.42,26.09 -2.75,0 -5.21,0.27 -7.87,0.65 -1.83,0.26 -5.79,1.32 -7.07,1.18l-10.08 3.97c-1.25,0.94 -3.51,1.96 -4.97,2.84 -1.52,0.93 -3.3,2.47 -4.67,3.11 -0.68,0.84 -1.98,1.72 -2.95,2.55 -3.98,3.44 -5.29,5.65 -7.81,8.04 -0.87,1.47 -2.23,3.21 -3.28,4.79 -0.83,1.25 -2.04,3.83 -2.93,4.92 -0.64,1.87 -1.5,3.49 -2.24,5.43 -5.58,14.61 -3.85,30.51 -3.85,46l4.8 0.04c-0.86,0.41 -4.84,0.78 -8.67,2.29 -2.6,1.03 -4.62,2.37 -6.89,3.54 -3.07,2.58 -5.35,4.26 -7.8,7.65 -0.74,1.01 -1.31,2.21 -2.14,3.03 -0.85,2.64 -2.17,3.73 -3.41,8.89 -1.6,6.67 -1.48,28.7 0.48,34.49 0.43,1.44 1.4,3.45 1.46,4.66 1.55,1.1 3.33,7.3 10.99,12.66 6.52,4.57 9.76,4.85 16.98,6.24l-5.84 0.1 -0.02 63.42c1.17,0.36 2.8,0.94 3.49,1.78 1.36,0 3.48,1.07 4.87,1.55 1.37,0.48 3.42,1.13 4.98,1.52 16.42,5.57 48.33,6.8 48.34,6.8l10.14 0c1.1,-0.36 13.43,-0.78 15.97,-0.99 8.93,-0.77 20.65,-2.57 29.12,-4.87 4.88,-1.33 9.44,-3.17 12.96,-4.11 0.88,-0.57 2.66,-1.22 3.66,-1.53l0.05 -63.6 -5.21 -0.03c0.94,-0.39 5.37,-1.2 6.49,-1.11 0.63,-0.73 1.25,-0.71 2.23,-1.07 0.75,-0.27 1.24,-0.54 2.08,-0.78 1.38,-1.03 3.67,-1.97 5.33,-3.12 3.7,-2.56 7.33,-6.77 9.69,-10.69 0.4,-0.67 0.84,-1.72 1.32,-2.3l1.99 -4.9c-0.16,-1.47 1.11,-6.44 1.04,-9.34l0.04 -14.57c0.31,-6.67 -1.38,-14.06 -4.77,-19.41l-2.39 -3.44c-0.63,-0.85 -0.38,-0.25 -0.65,-1.17 -1.45,-0.91 -2.05,-1.78 -3.26,-2.99 -0.84,-0.84 -2.63,-1.91 -3.26,-2.93 -0.8,-0.21 -0.04,0.04 -0.7,-0.25l-9.15 -4.16 -5.78 -1.16c-0.06,-0.12 -0.21,-0.05 -0.3,-0.12l5.14 -0.3c0,-13.95 1,-28.47 -2.23,-41.11 -0.6,-1.68 -1.08,-3.42 -1.77,-5.11 -0.54,-1.34 -1.9,-3.94 -2.02,-5.06 -1.18,-0.94 -2.2,-3.51 -3.05,-4.77 -0.9,-1.34 -2.31,-3.16 -2.95,-4.49 -1.04,-0.87 -1.85,-2.16 -2.73,-3.09 -3.49,-3.67 -7.61,-6.96 -8.51,-7.91 -1.28,-0.59 -3.33,-2.23 -4.75,-3.08 -0.96,-0.58 -1.58,-0.88 -2.49,-1.4l-2.16 -1.51c-1.32,-0.08 -3.39,-1.26 -4.87,-1.82 -1.7,-0.64 -3.2,-1.04 -4.9,-1.65 -0.87,-0.22 -1.71,-0.38 -2.59,-0.56l-1.99 -0.78 -10.64 -0.86c-0.37,-3.83 -2.67,-20.83 -2.19,-23.18 -0.28,-0.45 -0.11,-0.02 -0.32,-0.82l-1.01 -9.08c-0.17,-1.7 -0.31,-3.31 -0.49,-5.03l-0.55 -5.08c1.94,-0.67 3.19,-1.95 4.79,-2.52 0.73,-0.76 1.95,-1.82 2.85,-2.68 1.11,-1.08 1.44,-1.88 2.41,-2.76 0.28,-0.87 0.67,-1.34 1.03,-2.18 0.27,-0.62 0.63,-1.82 0.76,-2.14l0.27 -3.77c-0.22,-2.59 -0.77,-4.05 -1.33,-6.15 -0.48,-0.5 -1.57,-2.59 -2.19,-3.39 -4.28,-5.54 -9.4,-5.45 -11.09,-6.32l-3.97 0c-1.2,0.65 -3.22,0.81 -4.5,1.32 -6.04,2.44 -7.71,7.43 -8.91,8.26z"/>
    <path class="fil3" d="M337.25 382.89c0.7,0.79 0.55,0.62 1.11,2.33 0.2,0.64 0.49,1.53 0.62,2.24 0.82,6.82 0.97,8.73 -0.64,15.22 -1.19,3.49 -2.24,5.69 -4.22,8.39 -1.46,1.97 -4.13,5.11 -6.22,6.18l-2.02 1.7 35.99 0c-1.9,-1.97 -3.69,-2.17 -7.58,-6.98 -1.33,-1.66 -4.95,-7.4 -4.83,-9.89l-0.54 -0.94c-0.03,-0.08 -0.2,-0.7 -0.22,-0.78 -0.15,-0.65 -0.23,-1.28 -0.33,-1.89l0.08 -1.81 0.32 -8.03c-0.45,-3.09 3.26,-9.64 4.68,-11.61 4.33,-6 6.74,-6.33 8.35,-8.16l-35.85 0c0.35,0.48 0.11,0.19 0.55,0.6 0.06,0.05 0.13,0.12 0.19,0.17l2.95 2.24c1.17,1 2.04,1.94 3.05,3.13 1.21,1.43 4.54,5.81 4.56,7.89z"/>
    <path class="fil3" d="M276.05 371.44l-3.1 3.07c-1.5,1.49 -1.39,2.52 -2.76,3.51 -0.06,1.23 -0.61,1.99 -0.98,3.44 -0.3,1.15 -0.47,2.37 -0.48,3.73 -0.07,6.48 -0.73,19.31 1.47,24.13 1.64,3.56 4.95,6.88 8.72,8.4 4.81,1.94 10.45,1.02 16.07,1.3l-1.11 -1.03c-5,-3.73 -9.93,-9.18 -11.32,-15.58 -0.58,-1.04 -0.59,-1.95 -0.84,-3.29 -0.43,-3.19 -0.37,-5.13 -0.36,-8.42 0.05,-0.39 0.15,-1.29 0.25,-1.66 0.39,-1.44 -0.05,-0.56 0.56,-1.12 -0.35,-2.93 2.95,-8.93 4.3,-10.59 2.77,-4.9 7.26,-7.04 8.49,-8.41l-9.71 -0.02c-7.36,0.66 -6.92,2.02 -9.2,2.54z"/>
    <path class="fil3" d="M394.2 370.12c12.51,9.03 15.99,25.7 7.96,39.05 -4.33,7.2 -8.21,8.09 -9.44,9.8 8.05,-0.07 15.39,0.89 20.83,-4.53 2.8,-2.78 5.36,-6.65 5.36,-11.11l0 -18.78c0,-5.16 -3.73,-10.52 -7.87,-13.13 -5.52,-3.48 -11.13,-2.27 -18.32,-2.54l1.48 1.24z"/>
    <polygon class="fil3" points="318.84,402.26 318.84,385.62 302.08,385.52 302.08,402.36 "/>
    <polygon class="fil3" points="385.58,402.36 385.58,385.52 368.86,385.53 368.87,402.19 "/>
   </g>
  </g>
 </g>
</svg>
