<?xml version="1.0" encoding="UTF-8"?>
<!DOCTYPE svg PUBLIC "-//W3C//DTD SVG 1.1//EN" "http://www.w3.org/Graphics/SVG/1.1/DTD/svg11.dtd">
<!-- Creator: CorelDRAW 2020 (64-Bit) -->
<svg xmlns="http://www.w3.org/2000/svg" xml:space="preserve" width="687px" height="975px" version="1.1" style="shape-rendering:geometricPrecision; text-rendering:geometricPrecision; image-rendering:optimizeQuality; fill-rule:evenodd; clip-rule:evenodd"
viewBox="0 0 687 975"
 xmlns:xlink="http://www.w3.org/1999/xlink"
 xmlns:xodm="http://www.corel.com/coreldraw/odm/2003">
 <defs>
  <style type="text/css">
   <![CDATA[
    .str0 {stroke:white;stroke-width:28;stroke-miterlimit:22.9256}
    .fil2 {fill:none;fill-rule:nonzero}
    .fil3 {fill:white}
    .fil0 {fill:#313139;fill-rule:nonzero}
    .fil1 {fill:#8B8B8B;fill-rule:nonzero}
   ]]>
  </style>
 </defs>
 <g id="Слой_x0020_1">
  <metadata id="CorelCorpID_0Corel-Layer"/>
  <g id="_2266188446960">
   <path class="fil0" d="M10.82 0.18l665 0c6.07,0 11,4.93 11,11l0 953c0,6.07 -4.93,11 -11,11l-665 0c-6.07,0 -11,-4.93 -11,-11l0 -953c0,-6.07 4.93,-11 11,-11z"/>
   <path class="fil1" d="M215.69 849.55l0 -42.84 -15.26 0 0 -8.71 40.9 0 0 8.71 -15.2 0 0 42.84 -10.44 0zm32.39 -51.55l20.62 0c4.09,0 7.13,0.17 9.13,0.5 2.02,0.35 3.8,1.06 5.39,2.13 1.58,1.08 2.9,2.51 3.96,4.29 1.05,1.79 1.58,3.81 1.58,6.03 0,2.4 -0.65,4.62 -1.94,6.62 -1.3,2.02 -3.06,3.52 -5.28,4.53 3.13,0.92 5.53,2.48 7.22,4.69 1.68,2.21 2.52,4.8 2.52,7.79 0,2.35 -0.54,4.63 -1.63,6.85 -1.09,2.22 -2.58,3.99 -4.48,5.33 -1.88,1.32 -4.21,2.13 -6.98,2.44 -1.73,0.18 -5.92,0.3 -12.55,0.35l-17.56 0 0 -51.55zm10.44 8.57l0 11.88 6.82 0c4.04,0 6.56,-0.06 7.55,-0.18 1.77,-0.21 3.18,-0.82 4.2,-1.84 1.02,-1.02 1.52,-2.35 1.52,-4.01 0,-1.59 -0.44,-2.88 -1.32,-3.87 -0.88,-1 -2.18,-1.6 -3.91,-1.8 -1.03,-0.12 -4,-0.18 -8.88,-0.18l-5.98 0zm0 20.45l0 13.82 9.65 0c3.74,0 6.13,-0.11 7.14,-0.31 1.55,-0.29 2.81,-0.97 3.78,-2.07 0.97,-1.1 1.46,-2.55 1.46,-4.39 0,-1.56 -0.37,-2.87 -1.12,-3.95 -0.75,-1.08 -1.84,-1.87 -3.26,-2.36 -1.41,-0.49 -4.5,-0.74 -9.24,-0.74l-8.41 0zm61.71 -29.02l10.44 0 0 42.84 14.83 0 0 -42.84 10.44 0 0 42.84 15.33 0 0 -42.84 10.37 0 0.07 51.59 -61.48 -0.04 0 -51.55zm70.04 26.09c0,-5.26 0.79,-9.67 2.36,-13.25 1.17,-2.63 2.78,-4.99 4.8,-7.08 2.03,-2.09 4.25,-3.64 6.66,-4.66 3.22,-1.35 6.93,-2.04 11.13,-2.04 7.61,0 13.68,2.37 18.25,7.08 4.56,4.73 6.84,11.3 6.84,19.71 0,8.34 -2.27,14.87 -6.79,19.57 -4.53,4.72 -10.59,7.07 -18.16,7.07 -7.67,0 -13.77,-2.34 -18.3,-7.03 -4.52,-4.68 -6.79,-11.14 -6.79,-19.37zm10.73 -0.35c0,5.84 1.35,10.27 4.05,13.3 2.7,3.01 6.14,4.52 10.29,4.52 4.16,0 7.57,-1.5 10.25,-4.49 2.66,-3 3.99,-7.49 3.99,-13.47 0,-5.92 -1.29,-10.34 -3.9,-13.24 -2.59,-2.92 -6.03,-4.37 -10.34,-4.37 -4.3,0 -7.77,1.48 -10.39,4.42 -2.63,2.95 -3.95,7.39 -3.95,13.33zm40.35 -25.74l11.73 0 12 26.69 10.27 -26.69 10.86 0 -17.44 39.18c-1.89,4.25 -3.82,7.48 -5.79,9.7 -1.97,2.22 -4.5,3.32 -7.62,3.32 -3.07,0 -5.47,-0.2 -7.2,-0.6l0 -7.75c1.47,0.09 2.81,0.14 3.99,0.14 2.4,0 4.13,-0.44 5.18,-1.32 1.03,-0.89 2.04,-2.79 2.98,-5.71l-18.96 -36.96z"/>
   <path class="fil2 str0" d="M549.82 352.18c0,-113.77 -92.23,-206 -206,-206 -113.77,0 -206,92.23 -206,206 0,113.77 92.23,206 206,206 113.77,0 206,-92.23 206,-206z"/>
   <g>
    <path class="fil3" d="M274.02 309.43c-0.29,0.39 -0.21,0.37 -0.71,0.84l-3.62 2.93c-0.61,0.62 -0.68,0.79 -1.25,1.29 -3.2,2.83 -3.1,3.24 -5.23,5.27 -1.46,1.38 -2.14,2.88 -4.98,5.55 -3.33,3.12 -5.79,-1.48 -4.38,-3.71 -0.19,-1.05 0.18,-2.81 0.78,-3.59 0.56,-2.56 2.7,-6.42 3.94,-8.27 1.29,-1.92 2.56,-3.2 4.25,-4.85 3.69,-3.61 15.32,-8.27 19.34,-6.75 1.64,0.34 2.78,1.7 2.14,3.8 -0.35,1.13 -2.13,2.02 -3.21,2.77l-7.07 4.72zm-21.15 -13.19c-0.28,0.57 0.38,0.25 -0.71,0.66 -0.14,0.41 -2.96,3.55 -3.62,4.52 -1.02,1.5 -1.97,3.66 -2.95,5.14 -0.55,2.26 -1.04,3.23 -1.38,5.86l-0.35 1.74c-0.02,-0.04 -0.06,0.15 -0.1,0.22l-0.4 23.51c0.01,18.93 -0.36,41.29 0.34,59.95 0.06,1.8 0.09,3.63 0.48,5.33 0.28,1.25 1.26,3.71 1.24,4.6l0.54 0.72c0.03,0.06 0.07,0.13 0.1,0.2 0.12,0.21 0.32,0.72 0.44,0.96 0.35,0.7 0.73,1.29 1.03,2.09 0.43,0.28 1.46,1.95 1.94,2.61 1.94,2.65 4.54,5.06 7.51,7 4.66,3.03 8.05,4.24 14.68,4.48 12.57,0.46 25.75,0.31 38.36,0.23 25.53,-0.16 51.15,-0.23 76.69,-0.21 4.07,0 5.15,0.4 8.53,-1.02 6.41,-2.69 12.33,-6.58 16.06,-12.64 3.26,-5.29 3.46,-8.51 3.53,-15.79 0.15,-14.53 1.19,-75.08 -0.43,-85.36 -0.23,-1.42 -0.51,-2.62 -0.97,-3.84 -0.41,-1.07 -1.29,-2.18 -1.16,-3.11 -0.92,-0.77 -1.35,-1.65 -1.7,-2.61 -0.98,-0.99 -1.37,-1.94 -2.2,-2.85 -4.39,-4.86 -6.47,-5.12 -7.89,-6.44 -0.9,-0.35 -1.75,-0.66 -2.28,-1.31 -2.47,-0.13 -4.24,-2.26 -7.79,-2.25l-28.98 0c-25.54,0.01 -52.15,-0.35 -77.54,0.11 -11.75,0.2 -15.99,-1.29 -25.31,3.68 -2.4,1.29 -4.77,3.51 -5.71,3.82z"/>
    <path class="fil3" d="M424.12 407.96c-0.48,3.03 -0.82,3.85 -1.88,6.44 -0.34,0.82 -0.48,1.28 -1.12,1.87 -0.25,1.95 -4.4,7.33 -5.62,8.45 -1.41,1.29 -1.8,2.01 -2.9,2.79 -0.77,0.54 -0.81,0.67 -1.54,1.28 -3.37,2.81 -10.24,6.6 -16.01,6.98 -14.46,0.96 -30.57,0.78 -45.17,0.77 -8.57,-0.01 -83.84,0.64 -90.71,-1.21 -11.42,-3.08 -20.33,-11.94 -24.19,-21.84 -2.58,-6.6 -2.24,-12.94 -2.41,-20.59 -0.18,-7.6 -0.09,-15.39 -0.07,-23.01 0.05,-15.33 0.09,-30.67 0.18,-46.01 0.06,-11.31 -0.59,-19.24 5.43,-28.83 1.15,-1.83 3.93,-5.54 5.24,-6.41 0.35,-0.56 0.78,-0.87 1.24,-1.32 2.3,-2.3 7.53,-5.55 10.42,-6.33 4.12,-3.44 26.09,-2.77 32.95,-2.78 12.01,-0.01 24.05,-0.17 36.07,-0.09 7.29,0.05 70.48,-0.36 71.58,0.32 1.17,0.18 1.95,0.49 3.08,0.88 0.53,0.2 1.03,0.33 1.47,0.52 0.77,0.32 0.58,0.16 1.09,0.69 2.64,-0.04 10.77,5.88 11.87,7.09 3.72,4.13 5.31,5.2 8.13,10.92 2.91,5.89 3.33,7.99 3.48,15.4 0.13,6.27 0.37,12.47 0.26,18.74 -0.18,9.93 1.06,67.4 -0.87,75.28zm27.45 -34.96c0.77,0.29 0.41,0.04 0.88,0.67 0.64,0.17 0.11,-0.04 0.68,0.35 3.49,2.39 4.75,5.85 2.94,10.04 -1.81,4.19 -7.49,5.38 -10.47,3.72 -0.75,-0.41 -3.51,-3 -3.95,-3.71 -2.12,-3.43 0.69,-13.28 9.92,-11.07zm3.72 -20.58c0.33,0.21 -0.11,-0.41 0.48,0.5 0.19,0.28 0.25,0.47 0.35,0.75 0.33,0.83 0.39,1.19 0.53,2.02 0.57,3.45 -0.68,5.96 -2.54,7.37 -1.32,0.99 -5.42,3.01 -7.09,1.56 -8.41,-2.33 -6.55,-12.98 -1.94,-14.57 1.27,-0.43 2.47,-0.84 3.93,-0.89 2.42,-0.08 5.47,1.03 6.28,3.26zm-3.36 -26.17c0.74,-0.1 0.45,-0.35 0.49,0.14 1.93,0.65 3.11,2.03 3.75,3.94 0.81,1.29 0.9,4.1 0.2,5.48 -0.94,3.27 -3.09,5.26 -7.09,5.39 -7.7,0.25 -10.45,-8.38 -6.03,-13.43 1.4,-1.59 5.61,-3.4 8.29,-1.82l0.39 0.3zm-141.34 -93.86l2.18 1.91c0.74,0.65 1.3,1.28 2,1.99 1.34,1.35 2.44,2.52 3.79,3.88l7.5 7.87c-1.27,0.91 -3.45,1.41 -5.06,2.09 -1.48,0.64 -3.84,1.82 -5.14,2.12 -0.62,0.79 -3.21,1.94 -4.15,2.5 -1.06,0.63 -3.06,2.12 -4.07,2.32 -0.06,0.06 -0.13,0.13 -0.17,0.17l-0.81 0.7c-0.74,0.48 -0.5,0.33 -1.37,0.59l-0.01 0.26c-9,0.17 -18.01,0.13 -26.98,0.3 -5.66,0.1 -14.63,-0.02 -20.14,0.42 -1.7,0.14 -4.78,0.71 -6.17,0.6 -0.58,0.65 -2.86,1.09 -3.95,1.31 -0.59,0.34 -8.52,3.56 -8.6,3.57 -0.2,0.2 -0.24,0.24 -0.52,0.46l-1.42 0.88c-1.21,0.73 -4.8,3.52 -5.69,3.78 -0.27,0.92 -1.45,1.44 -2.27,2.18 -2.05,1.83 -4.57,4.84 -6.23,7.11 -2.49,3.43 -4.64,7.15 -6.33,11.55 -5.31,13.78 -1.94,28.19 -3.44,32.12l0 70.85c1.98,4.95 -3.63,20.13 8.13,38.29 10.38,16.04 24.7,19.01 26.24,20.44 1.82,-0.05 4.49,1.02 6.51,1.37 2.22,0.38 5.15,0.46 7.29,0.93 4.65,1.02 0.1,8.13 5.1,11.36 2.55,1.65 10.72,2.51 13.9,0.88 4.51,-2.31 4.32,-7.38 4.55,-11.94l117.71 -0.47c0.7,7.06 1.67,8.93 7.41,11.07 2.51,0.28 4.06,0.45 6.62,0.08 3,-0.44 3.39,-1.44 5.15,-2 0.59,-1 1.5,-1.77 2.05,-3.5 0.5,-1.59 0.48,-3.77 0.38,-5.56 8.39,-0.5 14.93,-1.22 22.75,-5.14 0.94,-0.47 1.93,-1.03 2.93,-1.61 0.9,-0.53 2.07,-1.49 3.03,-1.68l0.29 -0.36c0.03,-0.03 0.11,-0.12 0.15,-0.16l2.02 -1.68c6.53,-5.33 10.8,-10.5 14.59,-18.37 2.32,-4.83 3.59,-8.8 3.94,-14.78 0.17,-2.96 0.18,-17.05 0.58,-18.34l0 -79.81c-0.36,-0.87 -0.27,-1.51 -0.29,-2.69l-0.29 -7.39c-0.48,-8.22 -2.51,-13 -6.58,-19.82 -0.64,-1.07 -1.48,-2.16 -1.93,-3.29 -0.54,-0.4 -2.23,-2.78 -2.89,-3.54 -2.31,-2.69 -4.17,-4.28 -6.66,-6.41 -1.21,-1.04 -2.4,-1.72 -3.86,-2.67 -14.64,-9.44 -26.08,-7.86 -43.97,-8.16 -5.5,-0.09 -21.29,-0.04 -25.56,-0.45l-3 -1.83c-0.05,-0.04 -0.13,-0.12 -0.17,-0.15l-0.32 -0.32c-0.8,-0.29 -2.13,-1.26 -3.13,-1.86 -1.1,-0.66 -2.15,-1.21 -3.29,-1.81 -1.28,-0.66 -6.18,-2.77 -6.57,-3.11l-2.91 -1.12c0.26,-1.76 3.24,-4.26 4.28,-5.45l7.05 -7.43c1.21,-1.04 1.52,-1.15 2.47,-2.36 2.4,-3.07 3.28,-2.79 3.05,-6.91l-0.16 -1.55c-1.68,-1.16 -0.78,-2.62 -4.43,-3.81 -4.8,-1.55 -7.42,2.2 -10.53,5.31l-12.31 11.84c-0.86,0.87 -1.17,1.39 -2.07,2.18l-4.12 3.83c-0.42,0.34 -1.81,1.45 -2.27,1.67 -1.38,-0.63 -4.9,-4.12 -6.34,-5.39l-5.96 -5.95c-2.08,-1.98 -4.06,-3.82 -6.08,-5.86 -1.08,-1.1 -1.91,-1.88 -3.04,-2.92l-2.94 -3.02c-1.7,-0.8 -1.84,-2.28 -5.1,-2.06 -4.33,0.3 -6.79,3.09 -6.62,7.44 0.11,2.78 1.94,3.12 2.27,4.51z"/>
   </g>
  </g>
 </g>
</svg>
