<?xml version="1.0" encoding="UTF-8"?>
<!DOCTYPE svg PUBLIC "-//W3C//DTD SVG 1.1//EN" "http://www.w3.org/Graphics/SVG/1.1/DTD/svg11.dtd">
<!-- Creator: CorelDRAW 2020 (64-Bit) -->
<svg xmlns="http://www.w3.org/2000/svg" xml:space="preserve" width="687px" height="975px" version="1.1" style="shape-rendering:geometricPrecision; text-rendering:geometricPrecision; image-rendering:optimizeQuality; fill-rule:evenodd; clip-rule:evenodd"
viewBox="0 0 687 975"
 xmlns:xlink="http://www.w3.org/1999/xlink"
 xmlns:xodm="http://www.corel.com/coreldraw/odm/2003">
 <defs>
  <style type="text/css">
   <![CDATA[
    .str0 {stroke:white;stroke-width:28;stroke-miterlimit:22.9256}
    .fil2 {fill:none;fill-rule:nonzero}
    .fil3 {fill:white}
    .fil0 {fill:#313139;fill-rule:nonzero}
    .fil1 {fill:#8B8B8B;fill-rule:nonzero}
   ]]>
  </style>
 </defs>
 <g id="Слой_x0020_1">
  <metadata id="CorelCorpID_0Corel-Layer"/>
  <g id="_2457931695760">
   <path class="fil0" d="M10.82 0.18l665 0c6.07,0 11,4.93 11,11l0 953c0,6.07 -4.93,11 -11,11l-665 0c-6.07,0 -11,-4.93 -11,-11l0 -953c0,-6.07 4.93,-11 11,-11z"/>
   <path class="fil1" d="M195.79 830.54l10.08 3.1c-1.55,5.68 -4.12,9.89 -7.72,12.65 -3.6,2.75 -8.16,4.13 -13.7,4.13 -6.85,0 -12.48,-2.34 -16.89,-7.02 -4.41,-4.68 -6.61,-11.08 -6.61,-19.2 0,-8.58 2.21,-15.26 6.64,-20.01 4.43,-4.75 10.26,-7.13 17.49,-7.13 6.31,0 11.43,1.88 15.37,5.61 2.35,2.21 4.1,5.37 5.28,9.51l-10.3 2.45c-0.61,-2.66 -1.88,-4.77 -3.81,-6.32 -1.95,-1.55 -4.3,-2.32 -7.06,-2.32 -3.83,0 -6.94,1.37 -9.31,4.12 -2.39,2.73 -3.58,7.17 -3.58,13.32 0,6.5 1.18,11.15 3.52,13.91 2.35,2.77 5.4,4.15 9.15,4.15 2.78,0 5.17,-0.88 7.16,-2.64 1.99,-1.77 3.43,-4.53 4.29,-8.31zm19.02 19.01l0 -51.55 38.16 0 0 8.71 -27.72 0 0 11.45 25.78 0 0 8.71 -25.78 0 0 13.97 28.73 0 0 8.71 -39.17 0zm48.03 0l0 -51.55 16.69 0c6.32,0 10.44,0.25 12.36,0.77 2.95,0.78 5.42,2.46 7.41,5.05 2,2.59 2.99,5.94 2.99,10.04 0,3.17 -0.57,5.82 -1.71,7.98 -1.16,2.16 -2.61,3.86 -4.37,5.09 -1.77,1.23 -3.56,2.04 -5.39,2.44 -2.48,0.49 -6.07,0.74 -10.78,0.74l-6.76 0 0 19.44 -10.44 0zm10.44 -42.84l0 14.69 5.67 0c4.1,0 6.82,-0.28 8.2,-0.82 1.38,-0.54 2.46,-1.38 3.24,-2.54 0.78,-1.15 1.17,-2.48 1.17,-4.02 0,-1.88 -0.55,-3.43 -1.64,-4.66 -1.1,-1.22 -2.48,-1.99 -4.18,-2.3 -1.23,-0.23 -3.71,-0.35 -7.46,-0.35l-5 0zm37.73 -8.71l9.72 0 0 34.32 20.87 -34.32 10.37 0 0 51.55 -9.72 0 0 -33.77 -20.88 33.77 -10.36 0 0 -51.55zm98.05 51.55l-11.25 0 -4.45 -11.73 -20.67 0 -4.29 11.73 -11.04 0 20.02 -51.55 11.02 0 20.66 51.55zm-19.08 -20.45l-7.17 -19.08 -6.96 19.08 14.13 0zm29.22 -31.1l36.1 0 0 51.55 -10.43 0 0 -42.84 -15.48 0 0 22.01c0,6.3 -0.22,10.7 -0.64,13.19 -0.42,2.49 -1.44,4.45 -3.07,5.84 -1.64,1.39 -4.18,2.09 -7.65,2.09 -1.22,0 -3.43,-0.12 -6.64,-0.35l0 -8.07 2.32 0.03c2.17,0 3.65,-0.29 4.4,-0.87 0.75,-0.59 1.12,-2.03 1.12,-4.32l-0.03 -8.86 0 -29.4zm47.1 0l10.44 0 0 20.59 13.9 0c3.65,0 6.8,0.51 9.43,1.5 2.62,1 4.82,2.77 6.58,5.34 1.75,2.57 2.63,5.52 2.63,8.86 0,3.49 -0.91,6.49 -2.73,9.02 -1.84,2.52 -3.87,4.19 -6.11,5.01 -2.23,0.82 -5.51,1.23 -9.82,1.23l-24.32 0 0 -51.55zm10.44 42.84l10.15 0c3.23,0 5.48,-0.16 6.77,-0.47 1.27,-0.31 2.41,-1.03 3.41,-2.15 0.99,-1.11 1.48,-2.47 1.48,-4.08 0,-2.28 -0.81,-3.99 -2.43,-5.13 -1.64,-1.14 -4.57,-1.71 -8.81,-1.71l-10.57 0 0 13.54zm38.52 -42.84l10.44 0 0 51.55 -10.44 0 0 -51.55z"/>
   <path class="fil2 str0" d="M549.82 352.18c0,-113.77 -92.23,-206 -206,-206 -113.77,0 -206,92.23 -206,206 0,113.77 92.23,206 206,206 113.77,0 206,-92.23 206,-206z"/>
   <g>
    <path class="fil3" d="M296.76 229.48c-6.14,0.81 -10.14,5.15 -11.92,10.58 -1.06,3.24 -0.74,7.34 -0.74,11.02l0 165.82c0,3.93 -0.28,7.42 0.8,10.95 1.59,5.2 6.15,9.82 12.01,10.42 1.85,0.19 19.13,0.06 21.47,0.06l101.99 0c1.65,0 3.71,0.12 5.31,-0.08 5.96,-0.77 10.25,-5.33 11.86,-10.62 1.02,-3.33 0.73,-7.26 0.73,-11l0 -165.82c0,-3.81 0.28,-7.57 -0.79,-10.93 -1.68,-5.27 -6.05,-9.77 -12.01,-10.43 -1.64,-0.18 -19.33,-0.07 -21.45,-0.07l-101.99 0c-1.66,0 -3.68,-0.11 -5.27,0.1zm27.05 163.4l0 -28.56c4.46,4.35 9.32,7.61 14.54,9.77 5.22,2.16 10.5,3.26 15.82,3.26 3.15,0 5.88,-0.34 8.19,-0.98 2.34,-0.67 4.28,-1.55 5.85,-2.74 1.58,-1.15 2.73,-2.52 3.49,-4.08 0.79,-1.58 1.16,-3.28 1.16,-5.14 0,-2.5 -0.61,-4.72 -1.84,-6.67 -1.23,-1.98 -2.91,-3.8 -5.04,-5.45 -2.12,-1.67 -4.64,-3.29 -7.58,-4.81 -2.91,-1.55 -6.06,-3.13 -9.45,-4.75 -8.61,-4.14 -15.03,-9.22 -19.26,-15.25 -4.22,-6 -6.32,-13.24 -6.32,-21.74 0,-6.66 1.12,-12.39 3.43,-17.17 2.31,-4.81 5.46,-8.74 9.42,-11.84 3.99,-3.08 8.59,-5.36 13.81,-6.82 5.22,-1.46 10.76,-2.19 16.61,-2.19 5.75,0 10.84,0.42 15.27,1.21 4.41,0.8 8.5,2.04 12.26,3.72l0 26.67c-1.87,-1.49 -3.86,-2.8 -6.04,-3.93 -2.18,-1.13 -4.43,-2.07 -6.74,-2.83 -2.29,-0.73 -4.6,-1.28 -6.88,-1.64 -2.28,-0.34 -4.43,-0.52 -6.48,-0.52 -2.83,0 -5.38,0.3 -7.69,0.91 -2.31,0.64 -4.25,1.52 -5.85,2.65 -1.58,1.13 -2.81,2.47 -3.7,4.05 -0.87,1.58 -1.29,3.35 -1.29,5.3 0,2.16 0.48,4.08 1.45,5.75 0.97,1.71 2.36,3.32 4.17,4.84 1.78,1.49 3.96,2.99 6.53,4.45 2.55,1.46 5.46,2.95 8.69,4.5 4.41,2.13 8.34,4.42 11.86,6.82 3.52,2.41 6.53,5.15 9.03,8.16 2.52,3.05 4.43,6.52 5.77,10.41 1.34,3.87 2,8.41 2,13.58 0,7.16 -1.16,13.12 -3.49,17.99 -2.34,4.85 -5.49,8.77 -9.5,11.76 -3.99,3.01 -8.64,5.17 -13.94,6.48 -5.33,1.31 -10.92,1.95 -16.82,1.95 -6.04,0 -11.78,-0.58 -17.24,-1.77 -5.46,-1.18 -10.21,-2.98 -14.2,-5.35z"/>
    <path class="fil3" d="M420.16 445.72c-13.37,0.12 -26.79,0.01 -40.17,0.01l-80.27 0c-3.59,0 -5.88,0.11 -9.14,-1 -2.4,-0.81 -4.95,-2.49 -6.49,-4 -7.88,-7.8 -6.7,-15.29 -6.7,-25.86l0 -155.18c0,-3.67 -0.1,-7.52 0.01,-11.17 -2.74,0.56 -5.92,3.15 -7.08,4.71 -4.82,6.44 -3.6,12.13 -3.6,21l0 162.85c0,4.52 -0.19,7.14 1.39,10.92 1.14,2.73 3.3,5.21 5.37,6.58 2.97,1.98 5.14,2.35 9.16,2.35l113.58 0c3.59,0 7.74,0.19 11.23,-0.04 3.36,-0.22 6.18,-1.65 8.17,-3.52 1.13,-1.06 1.78,-1.78 2.75,-3.29 0.45,-0.7 1.75,-3.25 1.79,-4.36z"/>
    <path class="fil3" d="M402.66 464.36c-1.49,-0.18 -38.71,-0.03 -40.11,-0.03 -26.84,0 -53.67,0 -80.51,0 -3.51,0 -5.79,0.04 -8.97,-1.08 -4.79,-1.68 -8.54,-5.47 -10.89,-10.2 -2.92,-5.88 -2.16,-13.28 -2.16,-19.88l0 -144.42c0,-7.35 -0.12,-14.82 0,-22.16 -0.96,-0.05 -3.19,1.27 -3.92,1.77 -3.5,2.41 -6.06,6.38 -6.64,11.38 -0.22,1.93 -0.09,22.41 -0.09,24.9l0 149.93c0,4.13 -0.26,7.52 1.21,11.02 1.3,3.12 3,5.1 5.21,6.76 2.62,1.96 5.28,2.57 9.04,2.57l101.99 0c7.5,0 15.23,0.21 22.7,0 3.48,-0.1 6.31,-1.47 8.41,-3.26 1.55,-1.31 4.08,-4.41 4.73,-7.3z"/>
   </g>
  </g>
 </g>
</svg>
