<?xml version="1.0" encoding="UTF-8"?>
<!DOCTYPE svg PUBLIC "-//W3C//DTD SVG 1.1//EN" "http://www.w3.org/Graphics/SVG/1.1/DTD/svg11.dtd">
<!-- Creator: CorelDRAW 2020 (64-Bit) -->
<svg xmlns="http://www.w3.org/2000/svg" xml:space="preserve" width="687px" height="975px" version="1.1" style="shape-rendering:geometricPrecision; text-rendering:geometricPrecision; image-rendering:optimizeQuality; fill-rule:evenodd; clip-rule:evenodd"
viewBox="0 0 687 975"
 xmlns:xlink="http://www.w3.org/1999/xlink"
 xmlns:xodm="http://www.corel.com/coreldraw/odm/2003">
 <defs>
  <style type="text/css">
   <![CDATA[
    .str1 {stroke:white;stroke-width:10.67;stroke-miterlimit:22.9256}
    .str0 {stroke:white;stroke-width:28;stroke-miterlimit:22.9256}
    .fil1 {fill:none;fill-rule:nonzero}
    .fil2 {fill:white}
    .fil0 {fill:#313139;fill-rule:nonzero}
    .fil3 {fill:#8B8B8B;fill-rule:nonzero}
   ]]>
  </style>
 </defs>
 <g id="Слой_x0020_1">
  <metadata id="CorelCorpID_0Corel-Layer"/>
  <g id="_2457931690288">
   <path class="fil0" d="M10.82 0.18l665 0c6.07,0 11,4.93 11,11l0 953c0,6.07 -4.93,11 -11,11l-665 0c-6.07,0 -11,-4.93 -11,-11l0 -953c0,-6.07 4.93,-11 11,-11z"/>
   <path class="fil1 str0" d="M546.82 352.18c0,-113.77 -92.23,-206 -206,-206 -113.77,0 -206,92.23 -206,206 0,113.77 92.23,206 206,206 113.77,0 206,-92.23 206,-206z"/>
   <g>
    <path class="fil2 str1" d="M290.41 231.06c-1.14,0.59 -3.41,1.45 -4.95,2.26 -1.68,0.88 -3.28,1.89 -5.05,2.46 -1.19,0.94 -2.47,1.45 -4.05,2.3l-11.49 7.02c-0.24,0.7 -0.53,0.62 -1.83,1.55 -0.96,0.69 -1.44,0.96 -2.33,1.71l-12.5 11.1c-0.71,0.64 -1.38,1.33 -1.89,1.82l-12.47 14.86c-0.64,1.29 -1.53,2.65 -2.47,3.94 -0.88,1.23 -1.54,2.36 -2.38,3.68 -0.9,1.42 -3.72,7.03 -4.53,7.66 -0.29,1.09 -5.92,12.85 -7.98,19.26 -6.25,19.41 -8.54,39.75 -5.39,60.38 0.63,4.13 1.67,8.05 2.19,12.04l1.37 4.39 3.38 10.79 1.84 4.63c0.05,0.06 0.12,0.08 0.13,0.18 0.02,0.11 0.1,0.16 0.13,0.2l4.62 10.08c11.72,21.07 22.4,31.03 40.53,45.94 0.79,0.48 1.52,1.06 2.36,1.63 0.82,0.57 1.54,1.05 2.44,1.62 3.17,2.03 6.91,4.25 10.28,5.9 1.43,0.7 4.02,1.89 5.05,2.62 1.25,0.47 9.29,3.77 9.77,4.17 6.37,1.49 10.28,3.62 19.5,5.4 3.39,0.65 6.96,1.35 10.49,1.69 1.59,0.15 10.77,0.68 11.38,0.97l121.41 0c1.28,-0.76 2.29,-0.54 3.73,-1.63 1.2,-0.9 1.96,-2.37 2.82,-2.93l0.15 -0.84c0.3,-2.01 0.65,-3.36 0.03,-5.4 -0.18,-0.59 -0.63,-1.56 -0.96,-2.1l-1.25 -1.8c-0.08,-0.03 -0.2,-0.17 -0.24,-0.1l-2.28 -1.07c-3.45,-1.36 -22.13,-0.63 -26.3,-0.65l-93.24 0.02c-24.42,-0.48 -46.2,-7.24 -64.93,-20.47 -27.4,-19.35 -49.33,-51.96 -49.29,-93.94 0.03,-27.36 9.63,-53.63 26.54,-73.54l8.51 -9.36c0.7,-0.69 1.24,-1.08 1.99,-1.73 9.69,-8.42 17.72,-14.47 30.2,-20.03 14.94,-6.66 28.81,-9.75 47.34,-10.21 19.22,-0.07 40.25,5.37 56.17,14.65 25,14.58 44.05,36.39 53.03,64.97 10.17,32.42 5.79,67.94 -11.91,95.67 -3.11,4.88 -8.95,12.94 -12.65,16.7 -1.17,1.18 -1.95,1.94 -3.04,3.02l-6.02 5.77c-2.1,1.97 -4.49,3.05 -5.4,6.38 -1.48,5.4 2.41,7.75 2.97,8.85l2.84 1.36c2.8,0.46 2.92,0.21 5.43,-0.31 0.31,-0.55 1,-0.75 1.72,-0.83 0.69,-1.31 8,-7.58 9.44,-8.88 1.67,-1.5 2.95,-3.22 4.37,-4.74l4.5 -4.73c0.16,-0.71 -0.13,-0.18 0.5,-1.06 0.06,-0.08 0.45,-0.49 0.46,-0.5 0.59,-0.54 -0.13,-0.08 0.5,-0.36 0.63,-1.29 2.81,-4.07 3.75,-5.06l6.92 -10.56c0.26,-1.2 4.73,-9.23 4.96,-9.47l4.31 -10.48c0.37,-0.6 -0.01,-0.18 0.51,-0.63 -0.09,-1.37 0.75,-2.94 1.17,-4.07 0.4,-1.81 1.02,-3.47 1.54,-5.21 0.38,-1.27 0.96,-4.12 1.48,-5.18l1.01 -4.79 0.95 -5.24c0.23,-2.48 0.63,-4.4 0.9,-6.87 0.23,-2.15 0.21,-4.73 0.5,-6.81 0.71,-8.59 -0.2,-19.57 -1.36,-27.31l-0.58 -4.33 -1.27 -5.32 -1.3 -5.03c-0.49,-1.36 -1.1,-3.33 -1.62,-5.17 -0.43,-1.54 -1.37,-3.58 -1.6,-5.16 -0.63,-0.85 -1.45,-3.52 -1.95,-4.72 -0.66,-1.58 -1.48,-3.2 -2.19,-4.85 -0.86,-1.73 -1.72,-3.66 -2.65,-5.61 -1.38,-2.6 -2.79,-5.08 -4.26,-7.43 -1,-1.59 -4.28,-6.19 -4.64,-7.36l-1.94 -2.27c-0.77,-1.03 -0.94,-1.42 -1.71,-2.32 -0.72,-0.84 -1.13,-1.55 -1.71,-2.32l-7.55 -8.65c-3.51,-4.39 -12.58,-11.01 -17.18,-14.84 -1.96,-1.64 -4.58,-3.31 -6.73,-4.73 -5.48,-3.61 -13.26,-7.38 -19.2,-10.1 -3.13,-1.64 -7.88,-3.32 -11.28,-4.21 -7.02,-1.85 -8.42,-2.71 -16.98,-4.23 -17.34,-3.09 -34.84,-2.84 -51.9,1.11 -12.29,2.85 -12.5,4.04 -21.69,6.79z"/>
    <path class="fil2" d="M338.68 436.72c5,0.1 8.72,-0.36 12.91,-2 3.76,-1.48 6.25,-3.33 9.02,-5.97 5.54,-5.27 9.11,-12.86 8.74,-21.03 -0.44,-9.74 -3.7,-14.53 -9.43,-20.51 -5.56,-5.81 -14.33,-7.75 -22.67,-7.21 -13.7,1.47 -25.16,13.82 -24.96,28.81 0.19,14.53 12.14,27.31 26.39,27.91z"/>
    <path class="fil2" d="M338.23 324.45c9.62,0.3 17.39,-2.87 22.13,-7.94 2.57,-2.74 4.61,-4.64 6.33,-8.66 3.38,-7.86 3.76,-16.48 -0.19,-24.24 -1.11,-2.19 -2.91,-5.07 -4.54,-6.63 -0.68,-0.65 -1.24,-1.15 -1.94,-1.88 -4.92,-5.14 -13.17,-8.04 -22.73,-7.37 -13.76,1.49 -25.17,13.5 -25,28.79 0.17,14.65 11.83,26.97 25.94,27.93z"/>
    <path class="fil2" d="M339.32 345.28c-9.52,2.35 -5.86,15.87 3.14,13.84 3.4,-0.77 6.27,-4.37 5.31,-8.58 -0.77,-3.39 -4.27,-6.3 -8.45,-5.26z"/>
    <path class="fil2" d="M282.75 379.7c9.63,0.29 17.39,-2.88 22.14,-7.95 2.56,-2.74 4.6,-4.64 6.33,-8.66 3.37,-7.86 3.76,-16.48 -0.2,-24.24 -1.11,-2.18 -2.91,-5.06 -4.54,-6.63 -0.68,-0.65 -1.24,-1.15 -1.93,-1.87 -4.92,-5.15 -13.18,-8.05 -22.74,-7.38 -13.76,1.49 -25.17,13.51 -25,28.79 0.17,14.66 11.84,26.98 25.94,27.94z"/>
    <path class="fil2" d="M393.72 380.14c9.62,0.29 17.38,-2.88 22.13,-7.95 2.57,-2.74 4.6,-4.64 6.33,-8.66 3.37,-7.86 3.76,-16.48 -0.19,-24.24 -1.12,-2.18 -2.91,-5.06 -4.55,-6.63 -0.67,-0.65 -1.24,-1.15 -1.93,-1.87 -4.92,-5.15 -13.17,-8.05 -22.74,-7.38 -13.75,1.49 -25.17,13.51 -24.99,28.79 0.16,14.66 11.83,26.98 25.94,27.94z"/>
   </g>
   <path class="fil3" d="M208.32 843.61l0 6.05 -10.22 0 0 -6.05c-8.25,-0.3 -14.05,-2.34 -17.45,-6.09 -3.4,-3.77 -5.09,-8.47 -5.09,-14.13 0,-5.95 1.78,-10.71 5.32,-14.31 3.55,-3.6 9.28,-5.56 17.22,-5.86l0 -5.11 10.22 0 0 5.11c8.2,0.3 13.99,2.32 17.41,6.05 3.42,3.72 5.13,8.45 5.13,14.16 0,5.68 -1.71,10.38 -5.1,14.12 -3.41,3.74 -9.22,5.76 -17.44,6.06zm0 -8.71c2.72,0 5.08,-0.45 7.04,-1.37 1.96,-0.91 3.35,-2.13 4.18,-3.68 0.83,-1.54 1.24,-3.79 1.24,-6.77 0,-7.43 -4.16,-11.15 -12.46,-11.15l0 22.97zm-10.22 0l0 -22.97c-4.41,0 -7.57,0.98 -9.53,2.93 -1.96,1.96 -2.93,4.91 -2.93,8.86 0,7.45 4.15,11.18 12.46,11.18zm41.22 -36.79l9.72 0 0 34.32 20.88 -34.32 10.36 0 0 51.55 -9.71 0 0 -33.77 -20.88 33.77 -10.37 0 0 -51.55zm55.32 0l36.1 0 0 51.55 -10.43 0 0 -42.84 -15.49 0 0 22.01c0,6.3 -0.21,10.7 -0.63,13.19 -0.42,2.49 -1.44,4.45 -3.07,5.84 -1.64,1.39 -4.18,2.09 -7.65,2.09 -1.22,0 -3.43,-0.12 -6.65,-0.35l0 -8.07 2.33 0.03c2.17,0 3.65,-0.29 4.39,-0.87 0.76,-0.59 1.13,-2.03 1.13,-4.32l-0.03 -8.86 0 -29.4zm47.03 0l10.44 0 0 20.59 13.9 0c6.55,0 11.3,1.54 14.23,4.61 2.94,3.07 4.41,6.76 4.41,11.05 0,3.52 -0.89,6.51 -2.68,8.97 -1.77,2.47 -3.8,4.14 -6.09,5.01 -2.28,0.88 -5.58,1.32 -9.89,1.32l-24.32 0 0 -51.55zm10.44 42.84l10.11 0c3.28,0 5.56,-0.16 6.82,-0.47 1.26,-0.31 2.4,-1.03 3.39,-2.15 1,-1.11 1.49,-2.48 1.49,-4.11 0,-2.35 -0.85,-4.07 -2.54,-5.16 -1.71,-1.09 -4.6,-1.65 -8.7,-1.65l-10.57 0 0 13.54zm39.16 8.71l0 -51.55 15.64 0 9.24 35.16 9.13 -35.16 15.67 0 0 51.55 -9.64 0 -0.04 -40.58 -10.17 40.58 -10.03 0 -10.11 -40.58 -0.04 40.58 -9.65 0zm60.41 -51.55l10.44 0 0 20.59 13.91 0c3.65,0 6.79,0.51 9.42,1.5 2.63,1 4.82,2.77 6.59,5.34 1.75,2.57 2.62,5.52 2.62,8.86 0,3.49 -0.91,6.49 -2.73,9.02 -1.84,2.52 -3.86,4.19 -6.11,5.01 -2.23,0.82 -5.51,1.23 -9.82,1.23l-24.32 0 0 -51.55zm10.44 42.84l10.15 0c3.23,0 5.49,-0.16 6.77,-0.47 1.27,-0.31 2.41,-1.03 3.41,-2.15 0.99,-1.11 1.49,-2.47 1.49,-4.08 0,-2.28 -0.82,-3.99 -2.44,-5.13 -1.63,-1.14 -4.57,-1.71 -8.81,-1.71l-10.57 0 0 13.54zm38.52 -42.84l10.44 0 0 51.55 -10.44 0 0 -51.55z"/>
  </g>
 </g>
</svg>
