<?xml version="1.0" encoding="UTF-8"?>
<!DOCTYPE svg PUBLIC "-//W3C//DTD SVG 1.1//EN" "http://www.w3.org/Graphics/SVG/1.1/DTD/svg11.dtd">
<!-- Creator: CorelDRAW 2020 (64-Bit) -->
<svg xmlns="http://www.w3.org/2000/svg" xml:space="preserve" width="687px" height="975px" version="1.1" style="shape-rendering:geometricPrecision; text-rendering:geometricPrecision; image-rendering:optimizeQuality; fill-rule:evenodd; clip-rule:evenodd"
viewBox="0 0 687 975"
 xmlns:xlink="http://www.w3.org/1999/xlink"
 xmlns:xodm="http://www.corel.com/coreldraw/odm/2003">
 <defs>
  <style type="text/css">
   <![CDATA[
    .str0 {stroke:white;stroke-width:28;stroke-miterlimit:22.9256}
    .fil1 {fill:none;fill-rule:nonzero}
    .fil0 {fill:#313139;fill-rule:nonzero}
    .fil2 {fill:#8B8B8B;fill-rule:nonzero}
    .fil3 {fill:white;fill-rule:nonzero}
   ]]>
  </style>
 </defs>
 <g id="Слой_x0020_1">
  <metadata id="CorelCorpID_0Corel-Layer"/>
  <g id="_2461177387968">
   <path class="fil0" d="M10.82 0.18l665 0c6.07,0 11,4.93 11,11l0 953c0,6.07 -4.93,11 -11,11l-665 0c-6.07,0 -11,-4.93 -11,-11l0 -953c0,-6.07 4.93,-11 11,-11z"/>
   <path class="fil1 str0" d="M546.82 352.18c0,-113.77 -92.23,-206 -206,-206 -113.77,0 -206,92.23 -206,206 0,113.77 92.23,206 206,206 113.77,0 206,-92.23 206,-206z"/>
   <path class="fil2" d="M167.79 798.19l10.44 0 0 27.94c0,4.44 0.13,7.31 0.39,8.62 0.44,2.11 1.48,3.81 3.14,5.08 1.67,1.29 3.94,1.92 6.82,1.92 2.91,0 5.12,-0.6 6.61,-1.81 1.49,-1.21 2.37,-2.69 2.67,-4.45 0.3,-1.76 0.46,-4.68 0.46,-8.76l0 -28.54 10.44 0 0 27.11c0,6.19 -0.28,10.57 -0.84,13.13 -0.57,2.56 -1.6,4.72 -3.11,6.48 -1.5,1.76 -3.51,3.16 -6.03,4.2 -2.54,1.04 -5.83,1.57 -9.89,1.57 -4.91,0 -8.63,-0.56 -11.16,-1.7 -2.53,-1.14 -4.54,-2.62 -6.01,-4.44 -1.48,-1.83 -2.44,-3.72 -2.91,-5.73 -0.68,-2.95 -1.02,-7.32 -1.02,-13.09l0 -27.53zm52.29 51.56l0 -51.12 10.44 0 0 42.4 25.84 0 0 8.72 -36.28 0zm49.94 0l0 -42.84 -15.26 0 0 -8.72 40.89 0 0 8.72 -15.19 0 0 42.84 -10.44 0zm32.39 0l0 -51.56 21.92 0c5.51,0 9.52,0.47 12.01,1.4 2.51,0.92 4.5,2.56 6,4.93 1.5,2.37 2.26,5.07 2.26,8.12 0,3.88 -1.13,7.07 -3.4,9.59 -2.26,2.52 -5.65,4.1 -10.16,4.76 2.24,1.31 4.09,2.75 5.54,4.32 1.47,1.58 3.43,4.37 5.91,8.38l6.29 10.06 -12.45 0 -7.46 -11.26c-2.68,-4 -4.52,-6.52 -5.51,-7.56 -0.98,-1.03 -2.03,-1.75 -3.13,-2.14 -1.12,-0.38 -2.87,-0.57 -5.27,-0.57l-2.11 0 0 21.53 -10.44 0zm10.44 -29.74l7.7 0c4.99,0 8.1,-0.22 9.35,-0.64 1.23,-0.42 2.22,-1.15 2.91,-2.18 0.71,-1.03 1.06,-2.33 1.06,-3.88 0,-1.74 -0.47,-3.13 -1.39,-4.21 -0.93,-1.07 -2.23,-1.74 -3.91,-2.01 -0.86,-0.12 -3.39,-0.18 -7.6,-0.18l-8.12 0 0 13.1zm87.99 29.74l-11.24 0 -4.45 -11.74 -20.68 0 -4.28 11.74 -11.04 0 20.01 -51.56 11.03 0 20.65 51.56zm-19.08 -20.45l-7.16 -19.08 -6.96 19.08 14.12 0zm41.97 20.45l0 -51.56 10.44 0 0 20.31 20.3 0 0 -20.31 10.44 0 0 51.56 -10.44 0 0 -22.54 -20.3 0 0 22.54 -10.44 0zm51.99 -51.56l18.99 0c4.28,0 7.54,0.33 9.79,0.99 3.01,0.89 5.6,2.47 7.75,4.75 2.16,2.27 3.79,5.05 4.92,8.35 1.12,3.29 1.68,7.36 1.68,12.18 0,4.25 -0.53,7.9 -1.58,10.97 -1.29,3.76 -3.12,6.79 -5.51,9.11 -1.8,1.76 -4.24,3.13 -7.3,4.11 -2.29,0.74 -5.35,1.1 -9.19,1.1l-19.55 0 0 -51.56zm10.44 8.72l0 34.12 7.74 0c2.89,0 4.98,-0.16 6.27,-0.49 1.69,-0.42 3.08,-1.14 4.18,-2.15 1.12,-1 2.02,-2.66 2.72,-4.96 0.7,-2.31 1.05,-5.46 1.05,-9.45 0,-3.98 -0.35,-7.03 -1.05,-9.17 -0.7,-2.13 -1.68,-3.79 -2.94,-4.99 -1.26,-1.19 -2.86,-2 -4.8,-2.42 -1.44,-0.33 -4.29,-0.49 -8.51,-0.49l-4.66 0z"/>
   <path class="fil3" d="M305.35 276.59l0 95.29 18.24 0 0 24.9 -18.24 0 0 30.99 -30.54 0 0 -30.99 -66.27 0 0 -26.05c5.86,-6.55 11.94,-13.67 18.24,-21.45 6.3,-7.77 12.38,-15.76 18.24,-24 5.86,-8.21 11.33,-16.48 16.39,-24.83 5.04,-8.31 9.34,-16.27 12.89,-23.86l31.05 0zm-66.81 95.29l36.27 0 0 -52.83c-2.47,4.57 -5.14,9.22 -8.04,13.89 -2.89,4.68 -5.93,9.29 -9.12,13.82 -3.18,4.54 -6.41,8.93 -9.66,13.17 -3.26,4.25 -6.41,8.25 -9.45,11.95zm234.56 55.89l-43.28 0 -44.3 -65.68c-0.87,-1.26 -2.21,-4.06 -4.06,-8.35l-0.5 0 0 74.03 -34.28 0 0 -151.18 34.28 0 0 71.47 0.5 0c0.87,-1.98 2.29,-4.79 4.28,-8.42l41.98 -63.05 40.82 0 -53.02 72.12 57.58 79.06z"/>
  </g>
 </g>
</svg>
