<?xml version="1.0" encoding="UTF-8"?>
<!DOCTYPE svg PUBLIC "-//W3C//DTD SVG 1.1//EN" "http://www.w3.org/Graphics/SVG/1.1/DTD/svg11.dtd">
<!-- Creator: CorelDRAW 2020 (64-Bit) -->
<svg xmlns="http://www.w3.org/2000/svg" xml:space="preserve" width="687px" height="975px" version="1.1" style="shape-rendering:geometricPrecision; text-rendering:geometricPrecision; image-rendering:optimizeQuality; fill-rule:evenodd; clip-rule:evenodd"
viewBox="0 0 687 975"
 xmlns:xlink="http://www.w3.org/1999/xlink"
 xmlns:xodm="http://www.corel.com/coreldraw/odm/2003">
 <defs>
  <style type="text/css">
   <![CDATA[
    .str0 {stroke:white;stroke-width:28;stroke-miterlimit:22.9256}
    .fil1 {fill:none;fill-rule:nonzero}
    .fil3 {fill:white}
    .fil0 {fill:#313139;fill-rule:nonzero}
    .fil2 {fill:#8B8B8B;fill-rule:nonzero}
   ]]>
  </style>
 </defs>
 <g id="Слой_x0020_1">
  <metadata id="CorelCorpID_0Corel-Layer"/>
  <g id="_2452129487376">
   <path class="fil0" d="M10.82 0.18l665 0c6.07,0 11,4.93 11,11l0 953c0,6.07 -4.93,11 -11,11l-665 0c-6.07,0 -11,-4.93 -11,-11l0 -953c0,-6.07 4.93,-11 11,-11z"/>
   <circle class="fil1 str0" cx="340.82" cy="352.18" r="206"/>
   <path class="fil2" d="M91.45 798.19l18.99 0c4.28,0 7.55,0.33 9.79,0.99 3.01,0.89 5.6,2.47 7.75,4.75 2.16,2.27 3.79,5.05 4.92,8.35 1.12,3.29 1.68,7.36 1.68,12.18 0,4.25 -0.53,7.9 -1.58,10.97 -1.29,3.76 -3.12,6.79 -5.51,9.11 -1.8,1.76 -4.24,3.13 -7.3,4.11 -2.29,0.74 -5.35,1.1 -9.19,1.1l-19.55 0 0 -51.56zm10.44 8.72l0 34.12 7.74 0c2.9,0 4.98,-0.16 6.27,-0.49 1.69,-0.42 3.08,-1.14 4.19,-2.15 1.11,-1 2.01,-2.66 2.71,-4.96 0.71,-2.31 1.05,-5.46 1.05,-9.45 0,-3.98 -0.34,-7.03 -1.05,-9.17 -0.7,-2.13 -1.68,-3.79 -2.94,-4.99 -1.26,-1.19 -2.86,-2 -4.8,-2.42 -1.44,-0.33 -4.29,-0.49 -8.51,-0.49l-4.66 0z"/>
   <path id="1" class="fil2" d="M141.29 824.28c0,-5.25 0.79,-9.67 2.36,-13.25 1.17,-2.62 2.78,-4.99 4.8,-7.08 2.03,-2.08 4.25,-3.63 6.66,-4.65 3.22,-1.36 6.93,-2.04 11.13,-2.04 7.6,0 13.68,2.36 18.25,7.08 4.56,4.73 6.84,11.29 6.84,19.7 0,8.34 -2.27,14.87 -6.79,19.57 -4.53,4.72 -10.59,7.07 -18.16,7.07 -7.67,0 -13.77,-2.34 -18.3,-7.03 -4.52,-4.68 -6.79,-11.14 -6.79,-19.37zm10.73 -0.35c0,5.85 1.35,10.28 4.05,13.3 2.7,3.01 6.14,4.52 10.29,4.52 4.16,0 7.57,-1.5 10.25,-4.48 2.66,-3 3.99,-7.49 3.99,-13.48 0,-5.92 -1.29,-10.33 -3.9,-13.24 -2.59,-2.91 -6.03,-4.36 -10.34,-4.36 -4.3,0 -7.77,1.47 -10.39,4.41 -2.63,2.95 -3.95,7.39 -3.95,13.33z"/>
   <polygon id="2" class="fil2" points="199.74,849.75 199.74,798.63 210.18,798.63 210.18,841.03 236.03,841.03 236.03,849.75 "/>
   <path id="3" class="fil2" d="M243.43 798.19l20.62 0c4.09,0 7.13,0.17 9.13,0.51 2.02,0.35 3.81,1.05 5.39,2.12 1.58,1.08 2.9,2.51 3.96,4.3 1.05,1.79 1.58,3.8 1.58,6.02 0,2.4 -0.65,4.62 -1.94,6.63 -1.3,2.01 -3.06,3.51 -5.28,4.52 3.13,0.92 5.53,2.48 7.22,4.69 1.68,2.21 2.52,4.8 2.52,7.79 0,2.35 -0.54,4.63 -1.63,6.85 -1.09,2.22 -2.58,4 -4.48,5.33 -1.88,1.32 -4.21,2.14 -6.98,2.45 -1.73,0.18 -5.91,0.3 -12.55,0.35l-17.56 0 0 -51.56zm10.44 8.57l0 11.88 6.82 0c4.04,0 6.56,-0.06 7.55,-0.18 1.77,-0.2 3.18,-0.81 4.2,-1.83 1.02,-1.02 1.52,-2.36 1.52,-4.01 0,-1.6 -0.44,-2.88 -1.32,-3.88 -0.88,-0.99 -2.18,-1.59 -3.91,-1.8 -1.03,-0.12 -4,-0.18 -8.88,-0.18l-5.98 0zm0 20.45l0 13.82 9.65 0c3.74,0 6.13,-0.1 7.14,-0.31 1.55,-0.29 2.81,-0.97 3.78,-2.06 0.97,-1.11 1.46,-2.56 1.46,-4.39 0,-1.56 -0.37,-2.87 -1.12,-3.95 -0.75,-1.08 -1.84,-1.87 -3.26,-2.37 -1.41,-0.49 -4.5,-0.74 -9.24,-0.74l-8.41 0z"/>
   <polygon id="4" class="fil2" points="308.97,849.75 308.97,828.05 290.06,798.19 302.27,798.19 314.46,818.61 326.33,798.19 338.3,798.19 319.4,828.12 319.4,849.75 "/>
   <polygon id="5" class="fil2" points="375.35,849.75 356.9,798.19 368.18,798.19 381.28,836.35 393.84,798.19 404.93,798.19 386.59,849.75 "/>
   <polygon id="6" class="fil2" points="409.82,849.75 409.82,798.19 420.27,798.19 420.27,849.75 "/>
   <path id="7" class="fil2" d="M427.45 833.04l10.15 -1.01c0.62,3.4 1.84,5.88 3.7,7.48 1.86,1.6 4.37,2.39 7.52,2.39 3.34,0 5.86,-0.71 7.55,-2.13 1.69,-1.41 2.55,-3.07 2.55,-4.96 0,-1.23 -0.36,-2.26 -1.07,-3.12 -0.71,-0.86 -1.96,-1.6 -3.73,-2.22 -1.22,-0.44 -3.98,-1.18 -8.3,-2.26 -5.55,-1.39 -9.45,-3.1 -11.7,-5.12 -3.15,-2.85 -4.72,-6.32 -4.72,-10.41 0,-2.63 0.74,-5.1 2.22,-7.39 1.48,-2.29 3.62,-4.03 6.42,-5.23 2.79,-1.2 6.15,-1.8 10.11,-1.8 6.45,0 11.31,1.43 14.56,4.29 3.26,2.87 4.97,6.69 5.13,11.48l-10.44 0.36c-0.44,-2.67 -1.39,-4.58 -2.84,-5.74 -1.45,-1.16 -3.64,-1.75 -6.54,-1.75 -3,0 -5.35,0.62 -7.04,1.87 -1.1,0.8 -1.65,1.87 -1.65,3.22 0,1.22 0.52,2.26 1.55,3.13 1.31,1.11 4.49,2.27 9.54,3.47 5.05,1.18 8.78,2.43 11.2,3.7 2.42,1.29 4.32,3.03 5.68,5.25 1.37,2.22 2.06,4.95 2.06,8.21 0,2.95 -0.82,5.72 -2.46,8.3 -1.65,2.58 -3.96,4.5 -6.96,5.75 -3,1.26 -6.75,1.88 -11.22,1.88 -6.52,0 -11.52,-1.5 -15.02,-4.51 -3.49,-3 -5.56,-7.38 -6.25,-13.13z"/>
   <polygon id="8" class="fil2" points="477.85,849.75 477.85,798.19 488.29,798.19 488.29,849.75 "/>
   <path id="9" class="fil2" d="M496.06 824.28c0,-5.25 0.79,-9.67 2.36,-13.25 1.16,-2.62 2.77,-4.99 4.8,-7.08 2.03,-2.08 4.25,-3.63 6.66,-4.65 3.22,-1.36 6.92,-2.04 11.12,-2.04 7.61,0 13.68,2.36 18.26,7.08 4.56,4.73 6.84,11.29 6.84,19.7 0,8.34 -2.27,14.87 -6.8,19.57 -4.52,4.72 -10.58,7.07 -18.15,7.07 -7.67,0 -13.78,-2.34 -18.3,-7.03 -4.53,-4.68 -6.79,-11.14 -6.79,-19.37zm10.72 -0.35c0,5.85 1.36,10.28 4.06,13.3 2.7,3.01 6.13,4.52 10.28,4.52 4.17,0 7.58,-1.5 10.25,-4.48 2.67,-3 4,-7.49 4,-13.48 0,-5.92 -1.3,-10.33 -3.9,-13.24 -2.59,-2.91 -6.04,-4.36 -10.35,-4.36 -4.29,0 -7.76,1.47 -10.39,4.41 -2.63,2.95 -3.95,7.39 -3.95,13.33z"/>
   <polygon id="10" class="fil2" points="554.22,849.75 554.22,798.19 564.32,798.19 585.54,832.74 585.54,798.19 595.19,798.19 595.19,849.75 584.76,849.75 563.87,815.86 563.87,849.75 "/>
   <g>
    <path class="fil3" d="M465.82 417.82c-9.56,0.71 -36.18,0.75 -45.11,-0.43 -63.74,-8.46 -80.2,-86.71 -31.14,-118.5 8.87,-5.74 17.45,-10.27 31.06,-12.05 7.6,-1 37.61,-1.06 45.32,-0.21l-0.13 131.19z"/>
    <path class="fil3" d="M215.69 286.76c5.98,-1.03 34.2,-0.76 41.35,-0.33 11.73,0.7 22.83,4.98 30.45,9.54 59.74,35.81 34.19,121.97 -37.42,122l-34.35 -0.26 -0.03 -130.95z"/>
   </g>
  </g>
 </g>
</svg>
