<?xml version="1.0" encoding="UTF-8"?>
<!DOCTYPE svg PUBLIC "-//W3C//DTD SVG 1.1//EN" "http://www.w3.org/Graphics/SVG/1.1/DTD/svg11.dtd">
<!-- Creator: CorelDRAW 2020 (64-Bit) -->
<svg xmlns="http://www.w3.org/2000/svg" xml:space="preserve" width="687px" height="975px" version="1.1" style="shape-rendering:geometricPrecision; text-rendering:geometricPrecision; image-rendering:optimizeQuality; fill-rule:evenodd; clip-rule:evenodd"
viewBox="0 0 687 975"
 xmlns:xlink="http://www.w3.org/1999/xlink"
 xmlns:xodm="http://www.corel.com/coreldraw/odm/2003">
 <defs>
  <style type="text/css">
   <![CDATA[
    .str0 {stroke:white;stroke-width:28;stroke-miterlimit:22.9256}
    .fil1 {fill:none;fill-rule:nonzero}
    .fil0 {fill:#313139;fill-rule:nonzero}
    .fil2 {fill:#8B8B8B;fill-rule:nonzero}
    .fil3 {fill:white;fill-rule:nonzero}
   ]]>
  </style>
 </defs>
 <g id="Слой_x0020_1">
  <metadata id="CorelCorpID_0Corel-Layer"/>
  <g id="_2465054834192">
   <path class="fil0" d="M10.82 0.18l665 0c6.07,0 11,4.93 11,11l0 953c0,6.07 -4.93,11 -11,11l-665 0c-6.07,0 -11,-4.93 -11,-11l0 -953c0,-6.07 4.93,-11 11,-11z"/>
   <path class="fil1 str0" d="M546.82 352.18c0,-113.77 -92.23,-206 -206,-206 -113.77,0 -206,92.23 -206,206 0,113.77 92.23,206 206,206 113.77,0 206,-92.23 206,-206z"/>
   <path class="fil2" d="M271.49 849.75l0 -51.56 10.44 0 0 20.31 20.31 0 0 -20.31 10.44 0 0 51.56 -10.44 0 0 -22.54 -20.31 0 0 22.54 -10.44 0zm52 -51.56l18.98 0c4.29,0 7.55,0.33 9.8,0.99 3.01,0.89 5.6,2.47 7.75,4.75 2.16,2.27 3.79,5.05 4.92,8.35 1.11,3.29 1.68,7.36 1.68,12.18 0,4.25 -0.53,7.9 -1.59,10.97 -1.28,3.76 -3.12,6.79 -5.5,9.11 -1.8,1.76 -4.24,3.13 -7.3,4.11 -2.29,0.74 -5.35,1.1 -9.19,1.1l-19.55 0 0 -51.56zm10.44 8.72l0 34.12 7.74 0c2.89,0 4.98,-0.16 6.26,-0.49 1.7,-0.42 3.09,-1.14 4.19,-2.15 1.12,-1 2.02,-2.66 2.71,-4.96 0.71,-2.31 1.06,-5.46 1.06,-9.45 0,-3.98 -0.35,-7.03 -1.06,-9.17 -0.69,-2.13 -1.68,-3.79 -2.94,-4.99 -1.26,-1.19 -2.85,-2 -4.8,-2.42 -1.44,-0.33 -4.28,-0.49 -8.5,-0.49l-4.66 0zm41.56 42.84l0 -51.56 21.92 0c5.51,0 9.52,0.47 12.01,1.4 2.51,0.92 4.5,2.56 6,4.93 1.5,2.37 2.26,5.07 2.26,8.12 0,3.88 -1.13,7.07 -3.4,9.59 -2.27,2.52 -5.65,4.1 -10.16,4.76 2.24,1.31 4.09,2.75 5.54,4.32 1.47,1.58 3.43,4.37 5.91,8.38l6.28 10.06 -12.44 0 -7.46 -11.26c-2.68,-4 -4.52,-6.52 -5.51,-7.56 -0.99,-1.03 -2.03,-1.75 -3.13,-2.14 -1.12,-0.38 -2.87,-0.57 -5.27,-0.57l-2.11 0 0 21.53 -10.44 0zm10.44 -29.74l7.7 0c4.99,0 8.1,-0.22 9.35,-0.64 1.23,-0.42 2.22,-1.15 2.91,-2.18 0.71,-1.03 1.06,-2.33 1.06,-3.88 0,-1.74 -0.47,-3.13 -1.39,-4.21 -0.93,-1.07 -2.23,-1.74 -3.91,-2.01 -0.86,-0.12 -3.39,-0.18 -7.6,-0.18l-8.12 0 0 13.1z"/>
   <path class="fil3" d="M288.46 422.1l-21.57 0 0 -50.8 -39.53 0 0 50.8 -21.52 0 0 -124.72 21.52 0 0 49.76 39.53 0 0 -49.76 21.57 0 0 124.72zm21.84 0l0 -124.72 33.83 0c33.9,0 50.85,20.24 50.85,60.8 0,19.42 -4.63,34.91 -13.88,46.52 -9.25,11.61 -21.56,17.4 -36.97,17.4l-33.83 0zm21.51 -101.86l0 79.06 10.66 0c9.32,0 16.61,-3.65 21.93,-10.96 5.29,-7.3 7.95,-17.24 7.95,-29.83 0,-11.88 -2.63,-21.23 -7.88,-28.03 -5.27,-6.83 -12.64,-10.24 -22.13,-10.24l-10.53 0zm159.11 101.86l-24.7 0 -14.84 -32.09c-1.11,-2.44 -2.18,-4.6 -3.2,-6.53 -1.02,-1.9 -2.05,-3.54 -3.09,-4.9 -1.05,-1.37 -2.14,-2.41 -3.27,-3.15 -1.14,-0.71 -2.37,-1.07 -3.68,-1.07l-5.8 0 0 47.74 -21.52 0 0 -124.72 34.09 0c23.17,0 34.76,11.31 34.76,33.9 0,4.37 -0.52,8.37 -1.54,12.06 -1.02,3.68 -2.46,7 -4.32,9.97 -1.86,2.94 -4.11,5.49 -6.75,7.63 -2.66,2.17 -5.59,3.83 -8.84,5.05l0 0.35c1.43,0.6 2.8,1.52 4.14,2.83 1.34,1.3 2.61,2.82 3.86,4.57 1.25,1.75 2.43,3.62 3.57,5.61 1.13,1.99 2.16,3.95 3.09,5.88l18.04 36.87zm-58.58 -103.67l0 34.7 9.32 0c4.61,0 8.31,-1.75 11.11,-5.22 2.84,-3.54 4.27,-7.93 4.27,-13.12 0,-10.93 -5,-16.36 -15,-16.36l-9.7 0z"/>
  </g>
 </g>
</svg>
