<?xml version="1.0" encoding="UTF-8"?>
<!DOCTYPE svg PUBLIC "-//W3C//DTD SVG 1.1//EN" "http://www.w3.org/Graphics/SVG/1.1/DTD/svg11.dtd">
<!-- Creator: CorelDRAW 2020 (64-Bit) -->
<svg xmlns="http://www.w3.org/2000/svg" xml:space="preserve" width="687px" height="975px" version="1.1" style="shape-rendering:geometricPrecision; text-rendering:geometricPrecision; image-rendering:optimizeQuality; fill-rule:evenodd; clip-rule:evenodd"
viewBox="0 0 687 975"
 xmlns:xlink="http://www.w3.org/1999/xlink"
 xmlns:xodm="http://www.corel.com/coreldraw/odm/2003">
 <defs>
  <style type="text/css">
   <![CDATA[
    .str0 {stroke:white;stroke-width:28;stroke-miterlimit:22.9256}
    .fil1 {fill:none;fill-rule:nonzero}
    .fil0 {fill:#313139;fill-rule:nonzero}
    .fil2 {fill:#8B8B8B;fill-rule:nonzero}
    .fil3 {fill:white;fill-rule:nonzero}
   ]]>
  </style>
 </defs>
 <g id="Слой_x0020_1">
  <metadata id="CorelCorpID_0Corel-Layer"/>
  <g id="_2450871912080">
   <path class="fil0" d="M10.82 0.18l665 0c6.07,0 11,4.93 11,11l0 953c0,6.07 -4.93,11 -11,11l-665 0c-6.07,0 -11,-4.93 -11,-11l0 -953c0,-6.07 4.93,-11 11,-11z"/>
   <path class="fil1 str0" d="M546.82 352.18c0,-113.77 -92.23,-206 -206,-206 -113.77,0 -206,92.23 -206,206 0,113.77 92.23,206 206,206 113.77,0 206,-92.23 206,-206z"/>
   <path class="fil2" d="M268.76 833.04l10.15 -1.01c0.61,3.4 1.84,5.88 3.7,7.48 1.86,1.6 4.36,2.39 7.52,2.39 3.34,0 5.86,-0.71 7.55,-2.13 1.69,-1.41 2.54,-3.07 2.54,-4.96 0,-1.23 -0.36,-2.26 -1.07,-3.12 -0.7,-0.86 -1.95,-1.6 -3.73,-2.22 -1.21,-0.44 -3.97,-1.18 -8.29,-2.26 -5.56,-1.39 -9.46,-3.1 -11.7,-5.12 -3.16,-2.85 -4.73,-6.32 -4.73,-10.41 0,-2.63 0.75,-5.1 2.22,-7.39 1.49,-2.29 3.63,-4.03 6.42,-5.23 2.8,-1.2 6.16,-1.8 10.12,-1.8 6.44,0 11.3,1.43 14.55,4.29 3.27,2.87 4.97,6.69 5.14,11.48l-10.44 0.36c-0.44,-2.67 -1.39,-4.58 -2.84,-5.74 -1.46,-1.16 -3.64,-1.75 -6.54,-1.75 -3,0 -5.36,0.62 -7.05,1.87 -1.09,0.8 -1.64,1.87 -1.64,3.22 0,1.22 0.51,2.26 1.55,3.13 1.3,1.11 4.48,2.27 9.54,3.47 5.05,1.18 8.78,2.43 11.19,3.7 2.43,1.29 4.32,3.03 5.69,5.25 1.37,2.22 2.05,4.95 2.05,8.21 0,2.95 -0.81,5.72 -2.46,8.3 -1.64,2.58 -3.96,4.5 -6.96,5.75 -3,1.26 -6.74,1.88 -11.22,1.88 -6.51,0 -11.52,-1.5 -15.01,-4.51 -3.49,-3 -5.57,-7.38 -6.25,-13.13zm50.76 -34.85l18.98 0c4.29,0 7.55,0.33 9.79,0.99 3.02,0.89 5.61,2.47 7.76,4.75 2.16,2.27 3.79,5.05 4.92,8.35 1.11,3.29 1.68,7.36 1.68,12.18 0,4.25 -0.53,7.9 -1.59,10.97 -1.28,3.76 -3.12,6.79 -5.51,9.11 -1.8,1.76 -4.23,3.13 -7.29,4.11 -2.29,0.74 -5.35,1.1 -9.19,1.1l-19.55 0 0 -51.56zm10.44 8.72l0 34.12 7.74 0c2.89,0 4.98,-0.16 6.26,-0.49 1.69,-0.42 3.09,-1.14 4.19,-2.15 1.12,-1 2.02,-2.66 2.71,-4.96 0.71,-2.31 1.06,-5.46 1.06,-9.45 0,-3.98 -0.35,-7.03 -1.06,-9.17 -0.69,-2.13 -1.68,-3.79 -2.94,-4.99 -1.26,-1.19 -2.85,-2 -4.8,-2.42 -1.44,-0.33 -4.28,-0.49 -8.51,-0.49l-4.65 0zm41.55 42.84l0 -51.56 21.93 0c5.51,0 9.51,0.47 12.01,1.4 2.51,0.92 4.5,2.56 6,4.93 1.5,2.37 2.26,5.07 2.26,8.12 0,3.88 -1.13,7.07 -3.4,9.59 -2.27,2.52 -5.65,4.1 -10.16,4.76 2.24,1.31 4.09,2.75 5.54,4.32 1.46,1.58 3.43,4.37 5.9,8.38l6.29 10.06 -12.44 0 -7.47 -11.26c-2.67,-4 -4.51,-6.52 -5.5,-7.56 -0.99,-1.03 -2.03,-1.75 -3.14,-2.14 -1.11,-0.38 -2.86,-0.57 -5.26,-0.57l-2.12 0 0 21.53 -10.44 0zm10.44 -29.74l7.71 0c4.99,0 8.1,-0.22 9.35,-0.64 1.23,-0.42 2.22,-1.15 2.91,-2.18 0.71,-1.03 1.06,-2.33 1.06,-3.88 0,-1.74 -0.47,-3.13 -1.39,-4.21 -0.93,-1.07 -2.24,-1.74 -3.92,-2.01 -0.85,-0.12 -3.38,-0.18 -7.59,-0.18l-8.13 0 0 13.1z"/>
   <path class="fil3" d="M206.26 411.6l0 -26.92c4.2,4.1 8.78,7.18 13.7,9.21 4.93,2.04 9.9,3.07 14.92,3.07 2.97,0 5.55,-0.31 7.72,-0.91 2.21,-0.64 4.04,-1.47 5.52,-2.59 1.49,-1.09 2.57,-2.38 3.29,-3.84 0.74,-1.5 1.09,-3.1 1.09,-4.85 0,-2.36 -0.57,-4.45 -1.73,-6.29 -1.16,-1.87 -2.75,-3.59 -4.75,-5.14 -2.01,-1.58 -4.38,-3.1 -7.15,-4.53 -2.75,-1.47 -5.72,-2.96 -8.91,-4.48 -8.11,-3.91 -14.18,-8.7 -18.16,-14.38 -3.98,-5.66 -5.96,-12.49 -5.96,-20.5 0,-6.29 1.06,-11.68 3.24,-16.19 2.18,-4.53 5.14,-8.24 8.88,-11.17 3.76,-2.9 8.09,-5.05 13.02,-6.43 4.92,-1.37 10.14,-2.06 15.66,-2.06 5.42,0 10.22,0.4 14.4,1.15 4.15,0.74 8.01,1.92 11.55,3.5l0 25.14c-1.75,-1.4 -3.63,-2.64 -5.69,-3.7 -2.05,-1.06 -4.18,-1.95 -6.36,-2.67 -2.15,-0.69 -4.33,-1.2 -6.48,-1.55 -2.15,-0.32 -4.18,-0.49 -6.11,-0.49 -2.67,0 -5.07,0.29 -7.25,0.86 -2.18,0.61 -4.01,1.44 -5.52,2.5 -1.48,1.06 -2.65,2.33 -3.49,3.82 -0.81,1.49 -1.21,3.16 -1.21,4.99 0,2.04 0.45,3.85 1.36,5.43 0.92,1.61 2.23,3.13 3.94,4.56 1.68,1.41 3.73,2.82 6.16,4.19 2.4,1.38 5.14,2.79 8.19,4.25 4.15,2.01 7.86,4.16 11.18,6.43 3.32,2.27 6.16,4.85 8.51,7.7 2.38,2.87 4.18,6.14 5.44,9.81 1.27,3.65 1.88,7.92 1.88,12.81 0,6.74 -1.08,12.37 -3.29,16.96 -2.2,4.56 -5.17,8.27 -8.95,11.08 -3.76,2.84 -8.14,4.88 -13.14,6.11 -5.02,1.24 -10.29,1.84 -15.86,1.84 -5.69,0 -11.11,-0.54 -16.26,-1.66 -5.14,-1.12 -9.62,-2.82 -13.38,-5.06zm87.98 4.63l0 -120.59 36.84 0c36.92,0 55.38,19.57 55.38,58.78 0,18.78 -5.05,33.76 -15.12,44.98 -10.07,11.23 -23.48,16.83 -40.26,16.83l-36.84 0zm23.43 -98.49l0 76.44 11.61 0c10.14,0 18.08,-3.53 23.87,-10.59 5.77,-7.06 8.66,-16.68 8.66,-28.85 0,-11.48 -2.87,-20.52 -8.58,-27.1 -5.74,-6.6 -13.76,-9.9 -24.1,-9.9l-11.46 0zm173.25 98.49l-26.89 0 -16.16 -31.03c-1.21,-2.36 -2.38,-4.45 -3.49,-6.32 -1.11,-1.84 -2.23,-3.42 -3.37,-4.74 -1.13,-1.32 -2.32,-2.32 -3.56,-3.04 -1.24,-0.69 -2.57,-1.03 -4.01,-1.03l-6.31 0 0 46.16 -23.43 0 0 -120.59 37.12 0c25.23,0 37.85,10.93 37.85,32.78 0,4.22 -0.57,8.09 -1.68,11.65 -1.11,3.56 -2.67,6.78 -4.7,9.65 -2.03,2.84 -4.48,5.31 -7.35,7.37 -2.89,2.1 -6.09,3.71 -9.62,4.88l0 0.35c1.55,0.57 3.04,1.46 4.5,2.72 1.46,1.27 2.84,2.73 4.21,4.43 1.36,1.69 2.64,3.5 3.88,5.42 1.24,1.92 2.35,3.82 3.36,5.68l19.65 35.66zm-63.79 -100.24l0 33.55 10.15 0c5.02,0 9.05,-1.69 12.1,-5.05 3.09,-3.41 4.65,-7.66 4.65,-12.69 0,-10.56 -5.44,-15.81 -16.33,-15.81l-10.57 0z"/>
  </g>
 </g>
</svg>
