<svg width="687" height="975" viewBox="0 0 687 975" fill="none" xmlns="http://www.w3.org/2000/svg">
<rect width="687" height="975" rx="11" fill="#313139"/>
<path d="M172.266 849H161.684V806.355H141.188V849H130.641V797.812H172.266V849ZM223.594 824.566C223.594 829.605 222.703 834.023 220.922 837.82C219.141 841.617 216.586 844.547 213.258 846.609C209.953 848.672 206.156 849.703 201.867 849.703C197.625 849.703 193.84 848.684 190.512 846.645C187.184 844.605 184.605 841.699 182.777 837.926C180.949 834.129 180.023 829.77 180 824.848V822.316C180 817.277 180.902 812.848 182.707 809.027C184.535 805.184 187.102 802.242 190.406 800.203C193.734 798.141 197.531 797.109 201.797 797.109C206.062 797.109 209.848 798.141 213.152 800.203C216.48 802.242 219.047 805.184 220.852 809.027C222.68 812.848 223.594 817.266 223.594 822.281V824.566ZM212.906 822.246C212.906 816.879 211.945 812.801 210.023 810.012C208.102 807.223 205.359 805.828 201.797 805.828C198.258 805.828 195.527 807.211 193.605 809.977C191.684 812.719 190.711 816.75 190.688 822.07V824.566C190.688 829.793 191.648 833.848 193.57 836.73C195.492 839.613 198.258 841.055 201.867 841.055C205.406 841.055 208.125 839.672 210.023 836.906C211.922 834.117 212.883 830.062 212.906 824.742V822.246ZM271.441 831.949C271.043 837.457 269.004 841.793 265.324 844.957C261.668 848.121 256.84 849.703 250.84 849.703C244.277 849.703 239.109 847.5 235.336 843.094C231.586 838.664 229.711 832.594 229.711 824.883V821.754C229.711 816.832 230.578 812.496 232.312 808.746C234.047 804.996 236.52 802.125 239.73 800.133C242.965 798.117 246.715 797.109 250.98 797.109C256.887 797.109 261.645 798.691 265.254 801.855C268.863 805.02 270.949 809.461 271.512 815.18H260.965C260.707 811.875 259.781 809.484 258.188 808.008C256.617 806.508 254.215 805.758 250.98 805.758C247.465 805.758 244.828 807.023 243.07 809.555C241.336 812.062 240.445 815.965 240.398 821.262V825.129C240.398 830.66 241.23 834.703 242.895 837.258C244.582 839.812 247.23 841.09 250.84 841.09C254.098 841.09 256.523 840.352 258.117 838.875C259.734 837.375 260.66 835.066 260.895 831.949H271.441ZM319.992 797.812V849H309.41V806.355H295.77L294.926 824.426C294.574 830.52 293.801 835.324 292.605 838.84C291.41 842.332 289.664 844.898 287.367 846.539C285.07 848.156 281.93 848.977 277.945 849H275.203V840.527L276.961 840.352C279.609 840 281.496 838.477 282.621 835.781C283.77 833.062 284.496 828.234 284.801 821.297L285.68 797.812H319.992ZM360 826.816H339.75V840.527H363.516V849H329.203V797.812H363.445V806.355H339.75V818.555H360V826.816ZM417.164 861.586H407.426V849H376.559V861.551H366.574L366.012 840.527H369.879C371.965 838.793 373.57 836.25 374.695 832.898C375.844 829.523 376.617 825.352 377.016 820.383L378.492 797.812H412.031V840.527H418.008L417.164 861.586ZM381.973 840.527H401.484V806.355H388.512L387.633 819.82C386.93 828.844 385.043 835.746 381.973 840.527ZM465.223 849H454.676V827.062H434.109V849H423.562V797.812H434.109V818.555H454.676V797.812H465.223V849ZM505.16 797.812H515.742V849H505.16V815.004L484.664 849H474.117V797.812H484.664V831.879L505.16 797.812ZM555.68 826.816H535.43V840.527H559.195V849H524.883V797.812H559.125V806.355H535.43V818.555H555.68V826.816Z" fill="#8B8B8B"/>
<circle cx="341" cy="352" r="206" stroke="white" stroke-width="28"/>
<rect x="227" y="323" width="228" height="56" rx="13" fill="white"/>
<rect x="375" y="237" width="228" height="68" rx="13" transform="rotate(90 375 237)" fill="white"/>
</svg>
