<svg width="687" height="975" viewBox="0 0 687 975" fill="none" xmlns="http://www.w3.org/2000/svg">
<rect width="687" height="975" rx="11" fill="#313139"/>
<path d="M217.23 849H206.684V827.062H186.117V849H175.57V797.812H186.117V818.555H206.684V797.812H217.23V849ZM268.523 824.566C268.523 829.605 267.633 834.023 265.852 837.82C264.07 841.617 261.516 844.547 258.188 846.609C254.883 848.672 251.086 849.703 246.797 849.703C242.555 849.703 238.77 848.684 235.441 846.645C232.113 844.605 229.535 841.699 227.707 837.926C225.879 834.129 224.953 829.77 224.93 824.848V822.316C224.93 817.277 225.832 812.848 227.637 809.027C229.465 805.184 232.031 802.242 235.336 800.203C238.664 798.141 242.461 797.109 246.727 797.109C250.992 797.109 254.777 798.141 258.082 800.203C261.41 802.242 263.977 805.184 265.781 809.027C267.609 812.848 268.523 817.266 268.523 822.281V824.566ZM257.836 822.246C257.836 816.879 256.875 812.801 254.953 810.012C253.031 807.223 250.289 805.828 246.727 805.828C243.188 805.828 240.457 807.211 238.535 809.977C236.613 812.719 235.641 816.75 235.617 822.07V824.566C235.617 829.793 236.578 833.848 238.5 836.73C240.422 839.613 243.188 841.055 246.797 841.055C250.336 841.055 253.055 839.672 254.953 836.906C256.852 834.117 257.812 830.062 257.836 824.742V822.246ZM276.188 849V797.812H294.117C300.328 797.812 305.039 799.008 308.25 801.398C311.461 803.766 313.066 807.246 313.066 811.84C313.066 814.348 312.422 816.562 311.133 818.484C309.844 820.383 308.051 821.777 305.754 822.668C308.379 823.324 310.441 824.648 311.941 826.641C313.465 828.633 314.227 831.07 314.227 833.953C314.227 838.875 312.656 842.602 309.516 845.133C306.375 847.664 301.898 848.953 296.086 849H276.188ZM286.734 826.711V840.527H295.77C298.254 840.527 300.188 839.941 301.57 838.77C302.977 837.574 303.68 835.934 303.68 833.848C303.68 829.16 301.254 826.781 296.402 826.711H286.734ZM286.734 819.258H294.539C299.859 819.164 302.52 817.043 302.52 812.895C302.52 810.574 301.84 808.91 300.48 807.902C299.145 806.871 297.023 806.355 294.117 806.355H286.734V819.258ZM352.863 797.812H363.445V849H352.863V815.004L332.367 849H321.82V797.812H332.367V831.879L352.863 797.812ZM414.246 849H403.699V827.062H383.133V849H372.586V797.812H383.133V818.555H403.699V797.812H414.246V849ZM440.191 828.082H434.109V849H423.562V797.812H434.109V818.309H438.926L451.441 797.812H464.309L448.523 822.035L465.961 849H453.375L440.191 828.082ZM500.73 797.812H511.312V849H500.73V815.004L480.234 849H469.688V797.812H480.234V831.879L500.73 797.812Z" fill="#8B8B8B"/>
<circle cx="344" cy="352" r="206" stroke="white" stroke-width="28"/>
<g clip-path="url(#clip0)">
<path d="M486.389 368.595L480.94 361.05C476.389 354.823 476.33 346.38 480.76 340.033L486.09 332.429C492.317 323.567 489.383 311.292 479.922 306.142L471.779 301.711C465.013 298.058 461.3 290.454 462.617 282.849L464.174 273.628C465.971 262.97 458.067 253.09 447.289 252.671L438.067 252.252C430.403 251.952 423.816 246.683 421.661 239.258L419.086 230.276C416.092 219.858 404.715 214.469 394.895 218.78L386.393 222.492C379.327 225.546 371.124 223.75 366.034 217.941L359.867 210.996C352.681 202.912 340.107 203.032 333.101 211.175L327.053 218.241C322.024 224.049 313.88 226.025 306.755 223.091L298.192 219.558C288.252 215.427 276.995 220.995 274.121 231.474L271.666 240.456C269.57 248 263.044 253.329 255.439 253.749L246.218 254.288C235.5 254.886 227.715 264.886 229.691 275.484L231.368 284.646C232.745 292.25 229.152 299.915 222.446 303.627L214.363 308.178C204.962 313.447 202.267 325.782 208.614 334.524L214.063 342.069C218.614 348.296 218.674 356.739 214.243 363.086L208.794 370.751C202.567 379.612 205.501 391.888 214.961 397.037L223.105 401.468C229.871 405.121 233.583 412.725 232.266 420.33L230.769 429.431C228.973 440.089 236.877 449.969 247.655 450.388L256.876 450.808C264.54 451.107 271.127 456.376 273.283 463.801L275.857 472.783C278.851 483.202 290.228 488.591 300.048 484.28L308.551 480.567C315.617 477.513 323.82 479.31 328.91 485.058L335.077 492.004C342.262 500.087 354.837 499.968 361.842 491.824L367.89 484.759C372.92 478.95 381.063 476.974 388.189 479.908L396.751 483.441C406.691 487.573 417.948 482.004 420.822 471.525L423.277 462.544C425.313 455.119 431.84 449.79 439.504 449.311L448.726 448.772C459.444 448.173 467.228 438.173 465.252 427.515L463.575 418.354C462.198 410.749 465.791 403.085 472.497 399.372L480.581 394.822C490.042 389.732 492.736 377.337 486.389 368.595ZM347.472 440.628C298.132 440.628 258.134 400.33 258.134 350.631C258.134 300.933 298.132 260.575 347.472 260.575C396.811 260.575 436.81 300.873 436.81 350.572C436.81 400.27 396.811 440.628 347.472 440.628Z" fill="white"/>
<path d="M399.985 327.878L366.573 325.423L353.939 294.166C351.543 288.298 343.28 288.298 340.945 294.166L328.311 325.423L294.899 327.878C288.612 328.357 286.037 336.261 290.887 340.332L316.455 362.068L308.431 394.822C306.934 400.989 313.581 405.899 318.97 402.546L347.412 384.762L375.854 402.546C381.183 405.899 387.889 400.989 386.393 394.822L378.369 362.068L403.937 340.332C408.847 336.261 406.272 328.357 399.985 327.878Z" fill="white"/>
</g>
<defs>
<clipPath id="clip0">
<rect width="293" height="293" fill="white" transform="translate(201 205)"/>
</clipPath>
</defs>
</svg>
