<svg width="687" height="975" viewBox="0 0 687 975" fill="none" xmlns="http://www.w3.org/2000/svg">
<rect width="687" height="975" rx="11" fill="#313139"/>
<path d="M158.266 849H147.684V806.355H127.188V849H116.641V797.812H158.266V849ZM209.594 824.566C209.594 829.605 208.703 834.023 206.922 837.82C205.141 841.617 202.586 844.547 199.258 846.609C195.953 848.672 192.156 849.703 187.867 849.703C183.625 849.703 179.84 848.684 176.512 846.645C173.184 844.605 170.605 841.699 168.777 837.926C166.949 834.129 166.023 829.77 166 824.848V822.316C166 817.277 166.902 812.848 168.707 809.027C170.535 805.184 173.102 802.242 176.406 800.203C179.734 798.141 183.531 797.109 187.797 797.109C192.062 797.109 195.848 798.141 199.152 800.203C202.48 802.242 205.047 805.184 206.852 809.027C208.68 812.848 209.594 817.266 209.594 822.281V824.566ZM198.906 822.246C198.906 816.879 197.945 812.801 196.023 810.012C194.102 807.223 191.359 805.828 187.797 805.828C184.258 805.828 181.527 807.211 179.605 809.977C177.684 812.719 176.711 816.75 176.688 822.07V824.566C176.688 829.793 177.648 833.848 179.57 836.73C181.492 839.613 184.258 841.055 187.867 841.055C191.406 841.055 194.125 839.672 196.023 836.906C197.922 834.117 198.883 830.062 198.906 824.742V822.246ZM258.953 849H248.371V806.355H227.875V849H217.328V797.812H258.953V849ZM287.43 822L296.746 797.812H308.137L290.242 840.035L288.801 842.812C286.152 847.43 282.098 849.738 276.637 849.738L272.945 849.598L272.84 841.125C273.402 841.219 274.316 841.266 275.582 841.266C277.059 841.266 278.242 841.008 279.133 840.492C280.047 839.977 280.809 839.027 281.418 837.645L282.719 834.305L264.754 797.812H276.109L287.43 822ZM353.453 797.812V849H342.871V806.355H329.23L328.387 824.426C328.035 830.52 327.262 835.324 326.066 838.84C324.871 842.332 323.125 844.898 320.828 846.539C318.531 848.156 315.391 848.977 311.406 849H308.664V840.527L310.422 840.352C313.07 840 314.957 838.477 316.082 835.781C317.23 833.062 317.957 828.234 318.262 821.297L319.141 797.812H353.453ZM386.324 849V830.543H377.746L368.5 849H357.109L368.043 827.168C362.77 824.262 360.133 819.75 360.133 813.633C360.133 808.617 361.773 804.738 365.055 801.996C368.336 799.254 372.918 797.859 378.801 797.812H396.906V849H386.324ZM370.68 814.406C370.68 817.266 371.371 819.34 372.754 820.629C374.16 821.918 376.258 822.562 379.047 822.562H386.324V806.355H379.047C373.469 806.355 370.68 809.039 370.68 814.406ZM416.172 830.965V849H405.625V797.812H425.594C429.438 797.812 432.812 798.516 435.719 799.922C438.648 801.328 440.898 803.332 442.469 805.934C444.039 808.512 444.824 811.453 444.824 814.758C444.824 819.773 443.102 823.734 439.656 826.641C436.234 829.523 431.488 830.965 425.418 830.965H416.172ZM416.172 822.422H425.594C428.383 822.422 430.504 821.766 431.957 820.453C433.434 819.141 434.172 817.266 434.172 814.828C434.172 812.32 433.434 810.293 431.957 808.746C430.48 807.199 428.441 806.402 425.84 806.355H416.172V822.422ZM493.762 849H483.215V827.062H462.648V849H452.102V797.812H462.648V818.555H483.215V797.812H493.762V849ZM545.055 824.566C545.055 829.605 544.164 834.023 542.383 837.82C540.602 841.617 538.047 844.547 534.719 846.609C531.414 848.672 527.617 849.703 523.328 849.703C519.086 849.703 515.301 848.684 511.973 846.645C508.645 844.605 506.066 841.699 504.238 837.926C502.41 834.129 501.484 829.77 501.461 824.848V822.316C501.461 817.277 502.363 812.848 504.168 809.027C505.996 805.184 508.562 802.242 511.867 800.203C515.195 798.141 518.992 797.109 523.258 797.109C527.523 797.109 531.309 798.141 534.613 800.203C537.941 802.242 540.508 805.184 542.312 809.027C544.141 812.848 545.055 817.266 545.055 822.281V824.566ZM534.367 822.246C534.367 816.879 533.406 812.801 531.484 810.012C529.562 807.223 526.82 805.828 523.258 805.828C519.719 805.828 516.988 807.211 515.066 809.977C513.145 812.719 512.172 816.75 512.148 822.07V824.566C512.148 829.793 513.109 833.848 515.031 836.73C516.953 839.613 519.719 841.055 523.328 841.055C526.867 841.055 529.586 839.672 531.484 836.906C533.383 834.117 534.344 830.062 534.367 824.742V822.246ZM583.516 826.816H563.266V840.527H587.031V849H552.719V797.812H586.961V806.355H563.266V818.555H583.516V826.816Z" fill="#8B8B8B"/>
<circle cx="344" cy="352" r="206" stroke="white" stroke-width="28"/>
<path d="M378.75 197C299.757 242.432 309.25 370.437 309.25 370.437C309.25 370.437 274.5 358.875 274.5 306.844C233.041 330.841 205 376.965 205 428.25C205 504.88 267.232 567 344 567C420.768 567 483 504.88 483 428.25C482.999 315.516 378.75 292.39 378.75 197V197ZM356.21 519.191C328.278 526.142 299.988 509.176 293.023 481.293C286.059 453.411 303.056 425.171 330.989 418.22C398.425 401.436 406.876 363.583 406.876 363.583C406.876 363.583 440.504 498.211 356.21 519.191Z" fill="white"/>
</svg>
