<svg width="687" height="975" viewBox="0 0 687 975" fill="none" xmlns="http://www.w3.org/2000/svg">
<rect width="687" height="975" rx="11" fill="#313139"/>
<path d="M151.617 824.566C151.617 829.605 150.727 834.023 148.945 837.82C147.164 841.617 144.609 844.547 141.281 846.609C137.977 848.672 134.18 849.703 129.891 849.703C125.648 849.703 121.863 848.684 118.535 846.645C115.207 844.605 112.629 841.699 110.801 837.926C108.973 834.129 108.047 829.77 108.023 824.848V822.316C108.023 817.277 108.926 812.848 110.73 809.027C112.559 805.184 115.125 802.242 118.43 800.203C121.758 798.141 125.555 797.109 129.82 797.109C134.086 797.109 137.871 798.141 141.176 800.203C144.504 802.242 147.07 805.184 148.875 809.027C150.703 812.848 151.617 817.266 151.617 822.281V824.566ZM140.93 822.246C140.93 816.879 139.969 812.801 138.047 810.012C136.125 807.223 133.383 805.828 129.82 805.828C126.281 805.828 123.551 807.211 121.629 809.977C119.707 812.719 118.734 816.75 118.711 822.07V824.566C118.711 829.793 119.672 833.848 121.594 836.73C123.516 839.613 126.281 841.055 129.891 841.055C133.43 841.055 136.148 839.672 138.047 836.906C139.945 834.117 140.906 830.062 140.93 824.742V822.246ZM192.68 806.355H169.828V816.27H178.055C184.078 816.27 188.848 817.734 192.363 820.664C195.902 823.57 197.672 827.496 197.672 832.441C197.672 837.41 195.914 841.406 192.398 844.43C188.906 847.43 184.254 848.953 178.441 849H159.176V797.812H192.68V806.355ZM169.828 824.777V840.527H178.23C180.926 840.527 183.07 839.789 184.664 838.312C186.281 836.836 187.09 834.855 187.09 832.371C187.09 830.051 186.316 828.223 184.77 826.887C183.246 825.527 181.148 824.824 178.477 824.777H169.828ZM246.082 849H235.535V827.062H214.969V849H204.422V797.812H214.969V818.555H235.535V797.812H246.082V849ZM297.375 824.566C297.375 829.605 296.484 834.023 294.703 837.82C292.922 841.617 290.367 844.547 287.039 846.609C283.734 848.672 279.938 849.703 275.648 849.703C271.406 849.703 267.621 848.684 264.293 846.645C260.965 844.605 258.387 841.699 256.559 837.926C254.73 834.129 253.805 829.77 253.781 824.848V822.316C253.781 817.277 254.684 812.848 256.488 809.027C258.316 805.184 260.883 802.242 264.188 800.203C267.516 798.141 271.312 797.109 275.578 797.109C279.844 797.109 283.629 798.141 286.934 800.203C290.262 802.242 292.828 805.184 294.633 809.027C296.461 812.848 297.375 817.266 297.375 822.281V824.566ZM286.688 822.246C286.688 816.879 285.727 812.801 283.805 810.012C281.883 807.223 279.141 805.828 275.578 805.828C272.039 805.828 269.309 807.211 267.387 809.977C265.465 812.719 264.492 816.75 264.469 822.07V824.566C264.469 829.793 265.43 833.848 267.352 836.73C269.273 839.613 272.039 841.055 275.648 841.055C279.188 841.055 281.906 839.672 283.805 836.906C285.703 834.117 286.664 830.062 286.688 824.742V822.246ZM305.039 849V797.812H322.969C329.18 797.812 333.891 799.008 337.102 801.398C340.312 803.766 341.918 807.246 341.918 811.84C341.918 814.348 341.273 816.562 339.984 818.484C338.695 820.383 336.902 821.777 334.605 822.668C337.23 823.324 339.293 824.648 340.793 826.641C342.316 828.633 343.078 831.07 343.078 833.953C343.078 838.875 341.508 842.602 338.367 845.133C335.227 847.664 330.75 848.953 324.938 849H305.039ZM315.586 826.711V840.527H324.621C327.105 840.527 329.039 839.941 330.422 838.77C331.828 837.574 332.531 835.934 332.531 833.848C332.531 829.16 330.105 826.781 325.254 826.711H315.586ZM315.586 819.258H323.391C328.711 819.164 331.371 817.043 331.371 812.895C331.371 810.574 330.691 808.91 329.332 807.902C327.996 806.871 325.875 806.355 322.969 806.355H315.586V819.258ZM392.648 797.812V849H382.066V806.355H368.426L367.582 824.426C367.23 830.52 366.457 835.324 365.262 838.84C364.066 842.332 362.32 844.898 360.023 846.539C357.727 848.156 354.586 848.977 350.602 849H347.859V840.527L349.617 840.352C352.266 840 354.152 838.477 355.277 835.781C356.426 833.062 357.152 828.234 357.457 821.297L358.336 797.812H392.648ZM432.656 826.816H412.406V840.527H436.172V849H401.859V797.812H436.102V806.355H412.406V818.555H432.656V826.816ZM484.02 849H473.473V827.062H452.906V849H442.359V797.812H452.906V818.555H473.473V797.812H484.02V849ZM523.957 797.812H534.539V849H523.957V815.004L503.461 849H492.914V797.812H503.461V831.879L523.957 797.812ZM567.34 849V830.543H558.762L549.516 849H538.125L549.059 827.168C543.785 824.262 541.148 819.75 541.148 813.633C541.148 808.617 542.789 804.738 546.07 801.996C549.352 799.254 553.934 797.859 559.816 797.812H577.922V849H567.34ZM551.695 814.406C551.695 817.266 552.387 819.34 553.77 820.629C555.176 821.918 557.273 822.562 560.062 822.562H567.34V806.355H560.062C554.484 806.355 551.695 809.039 551.695 814.406Z" fill="#8B8B8B"/>
<circle cx="344" cy="352" r="206" stroke="white" stroke-width="28"/>
<path d="M376.663 402.938L427.167 335.688L478 402.938H444.375V419.75C444.375 447.566 421.754 470.188 393.938 470.188H293.062C265.246 470.188 242.625 447.566 242.625 419.75V402.938H276.25V419.75C276.25 429.014 283.799 436.562 293.062 436.562H393.938C403.201 436.562 410.75 429.014 410.75 419.75V402.938H376.663Z" fill="white"/>
<path d="M310.337 302.062L259.833 369.312L209 302.062H242.625V285.25C242.625 257.434 265.246 234.812 293.062 234.812H393.938C421.754 234.812 444.375 257.434 444.375 285.25V302.062H410.75V285.25C410.75 275.986 403.201 268.438 393.938 268.438H293.062C283.799 268.438 276.25 275.986 276.25 285.25V302.062H310.337Z" fill="white"/>
</svg>
