<svg width="687" height="975" viewBox="0 0 687 975" fill="none" xmlns="http://www.w3.org/2000/svg">
<rect width="687" height="975" rx="11" fill="#313139"/>
<path d="M220.754 831.949C220.355 837.457 218.316 841.793 214.637 844.957C210.98 848.121 206.152 849.703 200.152 849.703C193.59 849.703 188.422 847.5 184.648 843.094C180.898 838.664 179.023 832.594 179.023 824.883V821.754C179.023 816.832 179.891 812.496 181.625 808.746C183.359 804.996 185.832 802.125 189.043 800.133C192.277 798.117 196.027 797.109 200.293 797.109C206.199 797.109 210.957 798.691 214.566 801.855C218.176 805.02 220.262 809.461 220.824 815.18H210.277C210.02 811.875 209.094 809.484 207.5 808.008C205.93 806.508 203.527 805.758 200.293 805.758C196.777 805.758 194.141 807.023 192.383 809.555C190.648 812.062 189.758 815.965 189.711 821.262V825.129C189.711 830.66 190.543 834.703 192.207 837.258C193.895 839.812 196.543 841.09 200.152 841.09C203.41 841.09 205.836 840.352 207.43 838.875C209.047 837.375 209.973 835.066 210.207 831.949H220.754ZM241.461 797.812L254.609 834.938L267.688 797.812H281.539V849H270.957V835.008L272.012 810.855L258.195 849H250.953L237.172 810.891L238.227 835.008V849H227.68V797.812H241.461ZM332.797 824.566C332.797 829.605 331.906 834.023 330.125 837.82C328.344 841.617 325.789 844.547 322.461 846.609C319.156 848.672 315.359 849.703 311.07 849.703C306.828 849.703 303.043 848.684 299.715 846.645C296.387 844.605 293.809 841.699 291.98 837.926C290.152 834.129 289.227 829.77 289.203 824.848V822.316C289.203 817.277 290.105 812.848 291.91 809.027C293.738 805.184 296.305 802.242 299.609 800.203C302.938 798.141 306.734 797.109 311 797.109C315.266 797.109 319.051 798.141 322.355 800.203C325.684 802.242 328.25 805.184 330.055 809.027C331.883 812.848 332.797 817.266 332.797 822.281V824.566ZM322.109 822.246C322.109 816.879 321.148 812.801 319.227 810.012C317.305 807.223 314.562 805.828 311 805.828C307.461 805.828 304.73 807.211 302.809 809.977C300.887 812.719 299.914 816.75 299.891 822.07V824.566C299.891 829.793 300.852 833.848 302.773 836.73C304.695 839.613 307.461 841.055 311.07 841.055C314.609 841.055 317.328 839.672 319.227 836.906C321.125 834.117 322.086 830.062 322.109 824.742V822.246ZM375.969 806.355H360.289V849H349.742V806.355H334.273V797.812H375.969V806.355ZM392.562 830.965V849H382.016V797.812H401.984C405.828 797.812 409.203 798.516 412.109 799.922C415.039 801.328 417.289 803.332 418.859 805.934C420.43 808.512 421.215 811.453 421.215 814.758C421.215 819.773 419.492 823.734 416.047 826.641C412.625 829.523 407.879 830.965 401.809 830.965H392.562ZM392.562 822.422H401.984C404.773 822.422 406.895 821.766 408.348 820.453C409.824 819.141 410.562 817.266 410.562 814.828C410.562 812.32 409.824 810.293 408.348 808.746C406.871 807.199 404.832 806.402 402.23 806.355H392.562V822.422ZM452.152 849V830.543H443.574L434.328 849H422.938L433.871 827.168C428.598 824.262 425.961 819.75 425.961 813.633C425.961 808.617 427.602 804.738 430.883 801.996C434.164 799.254 438.746 797.859 444.629 797.812H462.734V849H452.152ZM436.508 814.406C436.508 817.266 437.199 819.34 438.582 820.629C439.988 821.918 442.086 822.562 444.875 822.562H452.152V806.355H444.875C439.297 806.355 436.508 809.039 436.508 814.406ZM509.211 806.355H493.531V849H482.984V806.355H467.516V797.812H509.211V806.355Z" fill="#8B8B8B"/>
<circle cx="344" cy="352" r="206" stroke="white" stroke-width="28"/>
<path d="M342.21 236.737C278.181 236.737 226.158 288.76 226.158 352.789C226.158 416.82 278.181 468.842 342.21 468.842C406.24 468.842 458.263 416.82 458.263 352.789C458.263 288.76 406.24 236.737 342.21 236.737ZM342.21 315.395C324.158 315.395 307.128 333.447 307.128 352.789H262.263C262.263 311.526 298.368 271.553 342.21 271.553V315.395Z" fill="white"/>
</svg>
