<?xml version="1.0" encoding="UTF-8"?>
<!DOCTYPE svg PUBLIC "-//W3C//DTD SVG 1.1//EN" "http://www.w3.org/Graphics/SVG/1.1/DTD/svg11.dtd">
<!-- Creator: CorelDRAW 2020 (64-Bit) -->
<svg xmlns="http://www.w3.org/2000/svg" xml:space="preserve" width="687px" height="975px" version="1.1" style="shape-rendering:geometricPrecision; text-rendering:geometricPrecision; image-rendering:optimizeQuality; fill-rule:evenodd; clip-rule:evenodd"
viewBox="0 0 687 975"
 xmlns:xlink="http://www.w3.org/1999/xlink"
 xmlns:xodm="http://www.corel.com/coreldraw/odm/2003">
 <defs>
  <style type="text/css">
   <![CDATA[
    .str0 {stroke:white;stroke-width:28;stroke-miterlimit:22.9256}
    .fil1 {fill:none;fill-rule:nonzero}
    .fil2 {fill:white}
    .fil0 {fill:#313139;fill-rule:nonzero}
    .fil3 {fill:#8B8B8B;fill-rule:nonzero}
   ]]>
  </style>
 </defs>
 <g id="Слой_x0020_1">
  <metadata id="CorelCorpID_0Corel-Layer"/>
  <g id="_2267558322432">
   <path class="fil0" d="M10.82 0.18l665 0c6.07,0 11,4.93 11,11l0 953c0,6.07 -4.93,11 -11,11l-665 0c-6.07,0 -11,-4.93 -11,-11l0 -953c0,-6.07 4.93,-11 11,-11z"/>
   <path class="fil1 str0" d="M546.82 352.18c0,-113.77 -92.23,-206 -206,-206 -113.77,0 -206,92.23 -206,206 0,113.77 92.23,206 206,206 113.77,0 206,-92.23 206,-206z"/>
   <g>
    <path class="fil2" d="M246.23 276.53l0 190.09c0,4.48 4.28,8.64 11.11,8.64 3.19,0 14.42,-8.66 17.45,-10.93l50.44 -35.97 58.37 41.61c5.66,4.1 6.11,5.29 11.99,5.29 3.85,0 8.64,-4.78 8.64,-8.64l0 -190.71c0,-8.15 -8.6,-17.9 -18.52,-17.9l-120.97 0c-9.52,0 -18.51,8.99 -18.51,18.52zm79 5.81l14.43 46.84 46.96 -0.09 -38.05 28.85 14.6 46.78 -37.94 -29 -37.94 29 14.59 -46.78 -38.04 -28.85 46.96 0.09 14.43 -46.84z"/>
    <path class="fil2" d="M285.73 227.15c0,6.83 4.16,11.11 8.64,11.11l129.61 0 0 188.86c0,4.48 4.28,8.64 11.11,8.64 3.85,0 8.64,-4.78 8.64,-8.64l0 -190.71c0,-8.15 -8.6,-17.9 -18.52,-17.9l-130.84 0c-3.86,0 -8.64,4.79 -8.64,8.64z"/>
   </g>
   <path class="fil3" d="M161.24 811.74l-10.15 -2.38c2.19,-8.4 8.39,-12.6 18.61,-12.6 6.05,0 10.62,1.33 13.71,4 3.08,2.66 4.62,5.79 4.62,9.39 0,2.46 -0.71,4.68 -2.11,6.68 -1.41,1.98 -3.52,3.72 -6.33,5.23 3.41,1.17 5.98,2.83 7.68,4.98 1.71,2.16 2.56,4.8 2.56,7.95 0,4.54 -1.66,8.2 -4.98,11 -3.31,2.79 -8.28,4.2 -14.89,4.2 -5.39,0 -9.65,-0.9 -12.77,-2.7 -3.12,-1.8 -5.46,-5.18 -7.03,-10.12l9.5 -3.1c0.98,3.11 2.3,5.13 3.94,6.04 1.63,0.92 3.64,1.38 6.04,1.38 3.29,0 5.69,-0.71 7.2,-2.14 1.5,-1.42 2.26,-3.06 2.26,-4.9 0,-2.12 -0.85,-3.83 -2.56,-5.13 -1.69,-1.29 -4.26,-1.94 -7.68,-1.94l-2.36 0 0 -7.78 1.19 0c3.18,0 5.61,-0.72 7.29,-2.15 1.7,-1.42 2.54,-3.33 2.54,-5.7 0,-1.88 -0.69,-3.46 -2.06,-4.76 -1.36,-1.28 -3.32,-1.93 -5.86,-1.93 -4.36,0 -7.14,2.16 -8.36,6.48zm84.21 37.51l-11.25 0 -4.45 -11.74 -20.67 0 -4.29 11.74 -11.04 0 20.02 -51.55 11.03 0 20.65 51.55zm-19.08 -20.45l-7.17 -19.08 -6.96 19.08 14.13 0zm24.78 -31.1l10.44 0 0 21.96c2.31,-0.24 3.89,-0.83 4.7,-1.8 0.82,-0.96 2.09,-3.64 3.79,-8.03 2.15,-5.58 4.32,-9.06 6.5,-10.42 2.16,-1.35 5.62,-2.04 10.42,-2.04 0.24,0 0.75,-0.01 1.52,-0.03l0 7.7 -1.48 -0.03c-2.14,0 -3.7,0.26 -4.68,0.79 -0.98,0.53 -1.78,1.33 -2.39,2.41 -0.61,1.08 -1.51,3.3 -2.7,6.66 -0.63,1.79 -1.32,3.28 -2.06,4.48 -0.73,1.2 -2.04,2.32 -3.91,3.38 2.31,0.65 4.22,1.98 5.73,3.97 1.51,1.99 3.17,4.8 4.97,8.44l7.02 14.11 -12.24 0 -6.18 -13.27c-0.1,-0.19 -0.3,-0.55 -0.6,-1.09 -0.12,-0.18 -0.55,-1 -1.3,-2.43 -1.32,-2.54 -2.4,-4.13 -3.24,-4.76 -0.85,-0.64 -2.13,-0.96 -3.87,-0.99l0 22.54 -10.44 0 0 -51.55zm47.51 0l36.1 0 0 51.55 -10.44 0 0 -42.84 -15.48 0 0 22.01c0,6.3 -0.21,10.7 -0.63,13.19 -0.42,2.49 -1.44,4.45 -3.07,5.84 -1.64,1.39 -4.18,2.09 -7.65,2.09 -1.22,0 -3.43,-0.12 -6.65,-0.35l0 -8.08 2.33 0.04c2.17,0 3.65,-0.29 4.39,-0.88 0.76,-0.58 1.13,-2.02 1.13,-4.32l-0.03 -8.85 0 -29.4zm93.25 51.55l-11.25 0 -4.45 -11.74 -20.67 0 -4.29 11.74 -11.04 0 20.02 -51.55 11.03 0 20.65 51.55zm-19.08 -20.45l-7.17 -19.08 -6.96 19.08 14.13 0zm31.49 -31.1l35.56 0 0 42.84 4.54 0 0 19.94 -8.71 0 0 -11.23 -32.33 0 0 11.23 -8.71 0 0 -19.94 4.39 0c2.14,-4.41 3.55,-9.52 4.24,-15.33 0.68,-5.82 1.02,-13.17 1.02,-22.06l0 -5.45zm9.93 8.71c0,15.6 -1.44,26.98 -4.32,34.13l19.51 0 0 -34.13 -15.19 0zm37.32 -8.71l10.44 0 0 21.96c2.32,-0.24 3.89,-0.83 4.71,-1.8 0.81,-0.96 2.08,-3.64 3.79,-8.03 2.15,-5.58 4.32,-9.06 6.49,-10.42 2.16,-1.35 5.63,-2.04 10.43,-2.04 0.24,0 0.74,-0.01 1.51,-0.03l0 7.7 -1.48 -0.03c-2.13,0 -3.69,0.26 -4.68,0.79 -0.98,0.53 -1.77,1.33 -2.38,2.41 -0.62,1.08 -1.52,3.3 -2.7,6.66 -0.64,1.79 -1.32,3.28 -2.07,4.48 -0.73,1.2 -2.04,2.32 -3.91,3.38 2.32,0.65 4.22,1.98 5.74,3.97 1.51,1.99 3.16,4.8 4.96,8.44l7.02 14.11 -12.24 0 -6.18 -13.27c-0.09,-0.19 -0.3,-0.55 -0.6,-1.09 -0.12,-0.18 -0.55,-1 -1.29,-2.43 -1.32,-2.54 -2.4,-4.13 -3.24,-4.76 -0.85,-0.64 -2.14,-0.96 -3.88,-0.99l0 22.54 -10.44 0 0 -51.55zm43.95 0l9.72 0 0 34.32 20.88 -34.32 10.36 0 0 51.55 -9.72 0 0 -33.77 -20.88 33.77 -10.36 0 0 -51.55z"/>
  </g>
 </g>
</svg>
