<svg width="171" height="171" viewBox="0 0 171 171" fill="none" xmlns="http://www.w3.org/2000/svg">
<circle cx="85.5" cy="85.5" r="78" stroke="white" stroke-width="15"/>
<path d="M54.4953 79.3178C54.9443 78.8778 55.4313 78.5064 55.9437 78.1834L90.2229 44.4663C93.5671 41.1784 98.9926 41.1769 102.338 44.4679C105.684 47.7573 105.684 53.0926 102.338 56.3852L72.8168 85.4239L102.491 114.614C105.836 117.904 105.836 123.237 102.491 126.531C100.817 128.179 98.623 129 96.4338 129C94.2445 129 92.0489 128.179 90.3768 126.531L55.9437 92.6583C55.4313 92.3352 54.9411 91.9639 54.4953 91.5238C52.7852 89.8416 51.9602 87.6258 52.0015 85.4208C51.9602 83.2159 52.7852 81.0016 54.4953 79.3178Z" fill="white"/>
</svg>
