<?xml version="1.0" encoding="UTF-8"?>
<!DOCTYPE svg PUBLIC "-//W3C//DTD SVG 1.1//EN" "http://www.w3.org/Graphics/SVG/1.1/DTD/svg11.dtd">
<!-- Creator: CorelDRAW 2020 (64-Bit) -->
<svg xmlns="http://www.w3.org/2000/svg" xml:space="preserve" width="261.683mm" height="51.901mm" version="1.1" style="shape-rendering:geometricPrecision; text-rendering:geometricPrecision; image-rendering:optimizeQuality; fill-rule:evenodd; clip-rule:evenodd"
viewBox="0 0 26168.3 5190.1"
 xmlns:xlink="http://www.w3.org/1999/xlink"
 xmlns:xodm="http://www.corel.com/coreldraw/odm/2003">
 <defs>
  <style type="text/css">
   <![CDATA[
    .fil1 {fill:#FEFEFE}
    .fil0 {fill:#FEFEFE;fill-rule:nonzero}
   ]]>
  </style>
 </defs>
 <g id="Слой_x0020_1">
  <metadata id="CorelCorpID_0Corel-Layer"/>
  <path class="fil0" d="M23773.4 5094.06c-692.59,0 -1256.33,-225.5 -1692.37,-675.32 -436.04,-451 -653.47,-1037.75 -653.47,-1761.41 0,-763.91 220.89,-1381.73 663.83,-1853.43 442.93,-471.71 1028.53,-708.7 1759.1,-708.7 690.28,0 1248.27,226.65 1673.94,677.64 425.69,452.14 638.53,1048.09 638.53,1786.71 0,759.31 -220.89,1372.53 -662.68,1837.33 -440.63,464.78 -1017.03,697.18 -1726.88,697.18zm47.18 -4061.2c-381.98,0 -685.69,142.65 -910.04,430.26 -224.35,286.48 -337.1,665 -337.1,1136.69 0,478.6 112.75,857.1 337.1,1136.68 224.35,278.43 518.86,417.62 882.42,417.62 376.21,0 673.04,-135.75 893.93,-406.11 219.74,-271.52 330.19,-646.58 330.19,-1127.48 0,-501.62 -106.99,-891.63 -319.85,-1170.04 -213.98,-278.43 -506.2,-417.62 -876.65,-417.62z"/>
  <path class="fil1" d="M2589.69 4.25l3232.56 0c1427.29,0 2595.04,1167.75 2595.04,2595.03l0 0.02c0,1427.28 -1167.75,2595.04 -2595.04,2595.04l-3232.56 0c-1427.29,0 -2595.03,-1167.76 -2595.03,-2595.04l0 -0.02c0,-593.09 201.76,-1141.3 539.9,-1579.57l1184.44 3798.3c26.83,94.03 94.02,140.92 187.87,140.92l3418.92 0c-1017.32,-287.84 -1761.19,-1208.81 -1761.19,-2348.65 0,-1139.71 743.49,-2060.5 1760.6,-2348.58l-1760.79 0c-94.02,0 -161.01,40.22 -187.87,140.98l-932.82 3314.9 -932.69 -3314.9c-15.93,-59.81 -46.08,-98.3 -87.59,-119.69 351.14,-178.11 747.49,-278.74 1166.25,-278.74zm3417.46 1103.17c-823.76,0 -1473.89,599.65 -1473.89,1502.86 0,903.14 650.13,1502.78 1473.89,1502.78 823.63,0 1473.9,-599.64 1473.9,-1502.78 0,-903.21 -650.27,-1502.86 -1473.9,-1502.86z"/>
  <polygon class="fil0" points="15179.25,5010.07 14089.74,5010.07 14089.74,176.88 15179.25,176.88 "/>
  <path class="fil0" d="M13628.4 5010.07l-1375.99 0 -1408.19 -2099.63c-27.62,-40.27 -70.18,-130 -128.85,-266.92l-16.12 0 0 2366.55 -1089.51 0 0 -4833.19 1089.51 0 0 2284.88 16.12 0c27.59,-63.28 72.47,-153.02 135.75,-269.23l1334.57 -2015.65 1297.74 0 -1685.46 2305.59 1830.43 2527.6z"/>
  <path class="fil1" d="M18804.32 1897.25l135.48 175.26 -175.32 136.02 -136.12 -175.27 175.96 -136.01zm-777.11 -1001.26l136.37 175.18 -175.95 136.17 -135.75 -175.33 175.33 -136.02zm-517.45 -667.39l135.96 175 -175.27 136.31 -136.08 -175.49 175.39 -135.82zm776.73 1000.93l135.86 175.53 -175.37 135.97 -136.07 -175.21 175.58 -136.29zm258.38 333.6l136.56 175.63 -175.44 136.17 -136.23 -175.74 175.11 -136.06zm-677.69 1060.51l136.02 175.11 -175.32 136.17 -135.95 -175.16 175.25 -136.12zm-258.75 -333.64l135.86 175.26 -175.33 136.22 -136.22 -175.36 175.69 -136.12zm1811.71 2335.91l136.33 175.11 -175.9 136.28 -135.91 -175.33 175.48 -136.06zm-776.43 -1001.08l135.86 175.11 -175.53 135.95 -135.8 -175 175.47 -136.06zm-517.51 -667.6l135.97 175.42 -175.96 136.07 -135.43 -175.44 175.42 -136.05zm776.48 1001.02l135.86 175.42 -175.9 135.93 -135.8 -175.27 175.84 -136.08zm258.91 333.8l135.7 175.7 -175.48 136 -135.8 -175.36 175.58 -136.34zm-776.84 -1001.13l136.17 175.58 -175.26 135.86 -136.5 -175.31 175.59 -136.13zm677.91 -1059.94l135.89 175.02 -175.25 136.28 -135.97 -175.59 175.33 -135.71zm258.91 333.27l136.23 175.55 -175.42 136 -136.34 -175.53 175.53 -136.02zm-1553.18 -2002.05l136.13 175.31 -175.32 135.99 -135.97 -175.42 175.16 -135.88zm-78.39 -410.6l1461.24 1883.89 452.29 583.31 0 309.27 -23.16 -29.79 -175.25 136.02 135.63 175.09 62.78 -48.65 0 1853.56 -402.89 0 -1461.29 -1884.3 -452.46 -583.21 0 -309.26 23.27 29.95 175.48 -135.97 -135.97 -175.53 -62.78 48.76 0 -1761.91 -69.51 -91.23 472.62 0z"/>
  <polygon class="fil0" points="19598.02,151.6 20683.28,151.6 20683.28,5014.3 19598.02,5014.3 "/>
  <polygon class="fil0" points="17291.3,1967.24 17291.3,5014.3 16206.04,5014.3 16206.04,151.6 17221.79,151.6 17291.3,242.83 "/>
  <g id="_1409739718816">
   <path class="fil0" d="M6484.52 2603.02l0 0 -175.7 -304.33 783.34 0c31.6,104.25 48.77,214.73 48.77,329.15 0,262.51 -89.68,504.33 -239.69,696.97l-416.72 -721.79z"/>
   <path class="fil0" d="M7056.84 2199.41l-805.34 0 -28.66 0 -351.41 0 391.6 -678.26c360.86,84.41 656.05,341.01 793.81,678.26z"/>
   <path class="fil0" d="M6004.15 1491.06c52.71,0 104.5,3.9 155.33,10.88l-402.68 697.48 -190.04 329.14 -391.28 -677.73c207.54,-221.2 502.14,-359.77 828.67,-359.77z"/>
   <path class="fil0" d="M5107.05 1930.87l402.39 696.98 6.67 11.55 7.66 13.26 175.7 304.33 -783.34 0c-31.6,-104.25 -48.77,-214.72 -48.77,-329.14 0,-262.52 89.68,-504.33 239.69,-696.98z"/>
   <path class="fil0" d="M4951.45 3056.27l805.35 0 28.65 0 351.41 0 -391.61 678.26c-360.87,-84.41 -656.04,-341.01 -793.8,-678.26z"/>
   <path class="fil0" d="M6004.15 3764.63c-52.72,0 -104.51,-3.91 -155.35,-10.89l402.7 -697.47 190.03 -329.15 391.28 677.74c-207.53,221.19 -502.14,359.77 -828.66,359.77z"/>
  </g>
 </g>
</svg>
