<svg width="149" height="149" viewBox="0 0 149 149" fill="none" xmlns="http://www.w3.org/2000/svg">
<path fill-rule="evenodd" clip-rule="evenodd" d="M74.5 149C115.645 149 149 115.645 149 74.5C149 33.3548 115.645 0 74.5 0C33.3548 0 0 33.3548 0 74.5C0 115.645 33.3548 149 74.5 149ZM35 49.5C35 45.9101 37.9101 43 41.5 43H107.5C111.09 43 114 45.9101 114 49.5C114 53.0899 111.09 56 107.5 56H41.5C37.9101 56 35 53.0899 35 49.5ZM35 74.5C35 70.9101 37.9101 68 41.5 68H107.5C111.09 68 114 70.9101 114 74.5C114 78.0899 111.09 81 107.5 81H41.5C37.9101 81 35 78.0899 35 74.5ZM41.5 93C37.9101 93 35 95.9101 35 99.5C35 103.09 37.9101 106 41.5 106H107.5C111.09 106 114 103.09 114 99.5C114 95.9101 111.09 93 107.5 93H41.5Z" fill="white"/>
</svg>
