<svg width="55" height="55" viewBox="0 0 55 55" fill="none" xmlns="http://www.w3.org/2000/svg">
<g clip-path="url(#clip0)">
<path d="M-2.27759e-06 2.89474L-1.26533e-07 52.1053C-5.66507e-08 53.704 1.34315 55 3 55L14 55C15.6569 55 17 53.704 17 52.1053L17 2.89474C17 1.29602 15.6569 3.13031e-06 14 3.20274e-06L3 3.68356e-06C1.34314 3.75599e-06 -2.34748e-06 1.29602 -2.27759e-06 2.89474Z" fill="white"/>
<path d="M38 2.89474L38 52.1053C38 53.704 39.3431 55 41 55L52 55C53.6569 55 55 53.704 55 52.1053L55 2.89474C55 1.29602 53.6569 3.13031e-06 52 3.20274e-06L41 3.68356e-06C39.3431 3.75599e-06 38 1.29602 38 2.89474Z" fill="white"/>
</g>
<defs>
<clipPath id="clip0">
<rect width="55" height="55" fill="white" transform="translate(0 55) rotate(-90)"/>
</clipPath>
</defs>
</svg>
