<svg width="171" height="171" viewBox="0 0 171 171" fill="none" xmlns="http://www.w3.org/2000/svg">
<path d="M132.649 96.5677L123.365 89.3083C123.653 86.7747 123.653 84.2165 123.365 81.6829L132.657 74.4194C134.398 73.017 134.864 70.5579 133.756 68.6161L124.097 51.9217C122.985 49.9676 120.616 49.1143 118.513 49.9102L107.571 54.3122C105.515 52.8205 103.313 51.5416 100.998 50.4953L99.3188 38.8719C99.016 36.6404 97.1016 34.9818 94.8496 35.0002H75.4914C73.2582 34.9867 71.3591 36.6268 71.0474 38.8381L69.3642 50.4951C67.0564 51.5515 64.8575 52.8313 62.7992 54.3163L51.8279 49.9059C49.7468 49.0855 47.3798 49.9286 46.2856 51.8795L36.619 68.6034C35.481 70.5485 35.9495 73.0346 37.7174 74.432L47.0009 81.6914C46.7103 84.2248 46.7103 86.7834 47.0009 89.3168L37.7089 96.5762C35.9647 97.9766 35.4972 100.437 36.6064 102.38L46.2603 119.078C47.3713 121.034 49.7418 121.888 51.8447 121.09L62.7864 116.688C64.8442 118.18 67.0481 119.46 69.364 120.509L71.0472 132.124C71.3435 134.349 73.2462 136.009 75.4912 136H94.8494C97.0868 136.018 98.992 134.377 99.306 132.162L100.989 120.505C103.297 119.448 105.496 118.168 107.554 116.684L118.538 121.098C120.619 121.917 122.985 121.074 124.08 119.125L133.776 102.333C134.862 100.394 134.385 97.9549 132.649 96.5677ZM85.1704 106.541C73.5495 106.541 64.1288 97.1208 64.1288 85.4998C64.1288 73.8787 73.5493 64.4581 85.1704 64.4581C96.7915 64.4581 106.212 73.8787 106.212 85.4998C106.198 97.1151 96.7856 106.528 85.1704 106.541Z" fill="white"/>
<circle cx="85.5" cy="85.5" r="78" stroke="white" stroke-width="15"/>
</svg>
