<?xml version="1.0" encoding="UTF-8"?>
<svg width="171px" height="171px" viewBox="0 0 171 171" version="1.1" xmlns="http://www.w3.org/2000/svg" xmlns:xlink="http://www.w3.org/1999/xlink">
    <title>player-pip.svg</title>
    <g id="Page-1" stroke="none" stroke-width="1" fill="none" fill-rule="evenodd">
        <g id="player-fullscreen" transform="translate(7.500000, 7.500000)">
            <circle id="Oval" stroke="#FFFFFF" stroke-width="15" transform="translate(78.000000, 78.000000) scale(-1, 1) translate(-78.000000, -78.000000) " cx="78" cy="78" r="78"></circle>
            <rect id="Rectangle" fill="#FFFFFF" x="25.5" y="45.5" width="106" height="65" rx="5"></rect>
            <rect id="Rectangle" fill="#000000" x="92.5" y="85.5" width="33" height="23" rx="5"></rect>
        </g>
        <path id="Line" d="M69.4294253,76.0967923 L69.5317681,76.15311 L79.834,82.621 L82.5805216,78.2478645 C82.8053459,77.889811 83.2572208,77.7609698 83.6318364,77.9308977 L83.7318601,77.9847014 C83.8416574,78.0536438 83.9338951,78.1472031 84.0012687,78.2579699 L84.0012687,78.2579699 L91.1648314,90.0353527 C91.4045132,90.4294058 91.2793705,90.9431495 90.8853174,91.1828313 C90.730938,91.2767321 90.5502671,91.3180283 90.3704231,91.3005214 L90.3704231,91.3005214 L76.6503793,89.9649419 C76.1913277,89.9202555 75.8554184,89.5118951 75.9001048,89.0528435 C75.912666,88.9238059 75.955098,88.799465 76.0240405,88.6896677 L76.0240405,88.6896677 L78.77,84.315 L68.4682319,77.84689 C68.0005074,77.5532026 67.8594226,76.9359563 68.15311,76.4682319 C68.4258198,76.0339163 68.9775165,75.8812441 69.4294253,76.0967923 Z" fill="#000000" fill-rule="nonzero"></path>
    </g>
</svg>