<svg width="361" height="234" viewBox="0 0 361 234" fill="none" xmlns="http://www.w3.org/2000/svg">
<rect x="3" y="3" width="355" height="228" rx="14" stroke="#3AB14D" stroke-width="6"/>
<path d="M228.043 163.852H329.791C330.863 163.852 331.892 163.426 332.65 162.667C333.408 161.909 333.834 160.881 333.834 159.809C333.834 158.736 333.408 157.708 332.65 156.95C331.892 156.192 330.863 155.766 329.791 155.766H228.043C226.971 155.766 225.942 156.192 225.184 156.95C224.426 157.708 224 158.736 224 159.809C224 160.881 224.426 161.909 225.184 162.667C225.942 163.426 226.971 163.852 228.043 163.852Z" fill="#C4C4C4"/>
<path d="M228.043 185.414H329.791C330.863 185.414 331.892 184.988 332.65 184.23C333.408 183.472 333.834 182.443 333.834 181.371C333.834 180.299 333.408 179.27 332.65 178.512C331.892 177.754 330.863 177.328 329.791 177.328H228.043C226.971 177.328 225.942 177.754 225.184 178.512C224.426 179.27 224 180.299 224 181.371C224 182.443 224.426 183.472 225.184 184.23C225.942 184.988 226.971 185.414 228.043 185.414Z" fill="#C4C4C4"/>
<path d="M36.2618 25H33.043C31.9707 25 30.9424 25.426 30.1842 26.1842C29.426 26.9424 29 27.9707 29 29.043C29 30.1152 29.426 31.1436 30.1842 31.9018C30.9424 32.66 31.9707 33.0859 33.043 33.0859H36.2618C37.3341 33.0859 38.3625 32.66 39.1207 31.9018C39.8789 31.1436 40.3048 30.1152 40.3048 29.043C40.3048 27.9707 39.8789 26.9424 39.1207 26.1842C38.3625 25.426 37.3341 25 36.2618 25V25Z" fill="#C4C4C4"/>
<path d="M98.9279 25H50.9668C49.8945 25 48.8662 25.426 48.108 26.1842C47.3498 26.9424 46.9238 27.9707 46.9238 29.043C46.9238 30.1152 47.3498 31.1436 48.108 31.9018C48.8662 32.66 49.8945 33.0859 50.9668 33.0859H98.9279C100 33.0859 101.028 32.66 101.787 31.9018C102.545 31.1436 102.971 30.1152 102.971 29.043C102.971 27.9707 102.545 26.9424 101.787 26.1842C101.028 25.426 100 25 98.9279 25Z" fill="#C4C4C4"/>
<rect x="3" y="110" width="355" height="7" fill="#3AB14D"/>
<path d="M29.8037 72.3662L31.0767 60.5391H43.6772V63.9229H34.3315L33.687 69.5303C34.772 68.9072 35.9966 68.5957 37.3608 68.5957C39.5952 68.5957 41.3301 69.3101 42.5654 70.7388C43.8115 72.1675 44.4346 74.0903 44.4346 76.5073C44.4346 78.8921 43.7471 80.7935 42.3721 82.2114C40.9971 83.6187 39.1118 84.3223 36.7163 84.3223C34.5679 84.3223 32.7847 83.7153 31.3667 82.5015C29.9595 81.2769 29.1968 79.6655 29.0786 77.6675H32.8652C33.0156 78.8062 33.4238 79.6816 34.0898 80.2939C34.7559 80.8955 35.626 81.1963 36.7002 81.1963C37.9033 81.1963 38.8379 80.7666 39.5039 79.9072C40.1807 79.0479 40.519 77.877 40.519 76.3945C40.519 74.9658 40.1484 73.8379 39.4072 73.0107C38.666 72.1729 37.6455 71.7539 36.3457 71.7539C35.6367 71.7539 35.0352 71.8506 34.541 72.0439C34.0469 72.2266 33.5098 72.5918 32.9297 73.1396L29.8037 72.3662ZM52.04 70.481H54.4248C55.6279 70.4702 56.5786 70.1587 57.2769 69.5464C57.9858 68.9341 58.3403 68.0479 58.3403 66.8877C58.3403 65.7705 58.0449 64.9058 57.4541 64.2935C56.874 63.6704 55.9824 63.3589 54.7793 63.3589C53.7266 63.3589 52.8618 63.665 52.1851 64.2773C51.5083 64.8789 51.1699 65.6685 51.1699 66.646H47.2544C47.2544 65.4429 47.5713 64.3472 48.2051 63.3589C48.8496 62.3706 49.7412 61.6025 50.8799 61.0547C52.0293 60.4961 53.313 60.2168 54.731 60.2168C57.0728 60.2168 58.9097 60.8076 60.2417 61.9893C61.5845 63.1602 62.2559 64.793 62.2559 66.8877C62.2559 67.9404 61.9175 68.9341 61.2407 69.8687C60.5747 70.7925 59.71 71.4907 58.6465 71.9634C59.9355 72.4038 60.9131 73.0967 61.5791 74.042C62.2559 74.9873 62.5942 76.1152 62.5942 77.4258C62.5942 79.5312 61.8691 81.207 60.4189 82.4531C58.9795 83.6992 57.0835 84.3223 54.731 84.3223C52.4751 84.3223 50.6274 83.7207 49.188 82.5176C47.7485 81.3145 47.0288 79.7139 47.0288 77.7158H50.9443C50.9443 78.7471 51.2881 79.585 51.9756 80.2295C52.6738 80.874 53.6084 81.1963 54.7793 81.1963C55.9932 81.1963 56.9492 80.874 57.6475 80.2295C58.3457 79.585 58.6948 78.6504 58.6948 77.4258C58.6948 76.1904 58.3296 75.2397 57.5991 74.5737C56.8687 73.9077 55.7837 73.5747 54.3442 73.5747H52.04V70.481ZM81.8818 62.7144L72.5039 84H68.395L77.7568 63.6812H65.6235V60.5391H81.8818V62.7144ZM86.0713 72.3662L87.3442 60.5391H99.9448V63.9229H90.5991L89.9546 69.5303C91.0396 68.9072 92.2642 68.5957 93.6284 68.5957C95.8628 68.5957 97.5977 69.3101 98.833 70.7388C100.079 72.1675 100.702 74.0903 100.702 76.5073C100.702 78.8921 100.015 80.7935 98.6396 82.2114C97.2646 83.6187 95.3794 84.3223 92.9839 84.3223C90.8354 84.3223 89.0522 83.7153 87.6343 82.5015C86.2271 81.2769 85.4644 79.6655 85.3462 77.6675H89.1328C89.2832 78.8062 89.6914 79.6816 90.3574 80.2939C91.0234 80.8955 91.8936 81.1963 92.9678 81.1963C94.1709 81.1963 95.1055 80.7666 95.7715 79.9072C96.4482 79.0479 96.7866 77.877 96.7866 76.3945C96.7866 74.9658 96.416 73.8379 95.6748 73.0107C94.9336 72.1729 93.9131 71.7539 92.6133 71.7539C91.9043 71.7539 91.3027 71.8506 90.8086 72.0439C90.3145 72.2266 89.7773 72.5918 89.1973 73.1396L86.0713 72.3662ZM117.025 75.6372H119.941V78.7793H117.025V84H113.109V78.7793H102.974L102.861 76.3945L112.98 60.5391H117.025V75.6372ZM106.97 75.6372H113.109V65.8403L112.819 66.356L106.97 75.6372ZM133.138 84H129.239V65.1636L123.486 67.1294V63.8262L132.639 60.4585H133.138V84ZM154.537 75.6372H157.453V78.7793H154.537V84H150.621V78.7793H140.486L140.373 76.3945L150.492 60.5391H154.537V75.6372ZM144.482 75.6372H150.621V65.8403L150.331 66.356L144.482 75.6372ZM170.65 84H166.75V65.1636L160.998 67.1294V63.8262L170.15 60.4585H170.65V84ZM194.578 84H178.803V81.3091L186.618 72.7852C187.746 71.5283 188.546 70.481 189.019 69.6431C189.502 68.7944 189.744 67.9458 189.744 67.0972C189.744 65.98 189.427 65.0776 188.793 64.3901C188.17 63.7026 187.327 63.3589 186.264 63.3589C184.996 63.3589 184.013 63.7456 183.315 64.519C182.617 65.2925 182.268 66.3506 182.268 67.6934H178.352C178.352 66.2646 178.674 64.981 179.319 63.8423C179.974 62.6929 180.903 61.8013 182.106 61.1675C183.32 60.5337 184.717 60.2168 186.296 60.2168C188.573 60.2168 190.367 60.7915 191.678 61.9409C192.999 63.0796 193.66 64.6587 193.66 66.6782C193.66 67.8491 193.327 69.0791 192.661 70.3682C192.005 71.6465 190.926 73.1021 189.422 74.7349L183.686 80.874H194.578V84ZM213.334 84H197.559V81.3091L205.374 72.7852C206.502 71.5283 207.302 70.481 207.775 69.6431C208.258 68.7944 208.5 67.9458 208.5 67.0972C208.5 65.98 208.183 65.0776 207.549 64.3901C206.926 63.7026 206.083 63.3589 205.02 63.3589C203.752 63.3589 202.769 63.7456 202.071 64.519C201.373 65.2925 201.023 66.3506 201.023 67.6934H197.108C197.108 66.2646 197.43 64.981 198.075 63.8423C198.73 62.6929 199.659 61.8013 200.862 61.1675C202.076 60.5337 203.473 60.2168 205.052 60.2168C207.329 60.2168 209.123 60.7915 210.434 61.9409C211.755 63.0796 212.416 64.6587 212.416 66.6782C212.416 67.8491 212.083 69.0791 211.417 70.3682C210.761 71.6465 209.682 73.1021 208.178 74.7349L202.441 80.874H213.334V84ZM229.56 75.6372H232.477V78.7793H229.56V84H225.645V78.7793H215.509L215.396 76.3945L225.516 60.5391H229.56V75.6372ZM219.505 75.6372H225.645V65.8403L225.354 66.356L219.505 75.6372ZM247.252 60.4263V63.665H246.769C244.578 63.6973 242.827 64.2988 241.516 65.4697C240.206 66.6406 239.427 68.3003 239.18 70.4487C240.437 69.1274 242.042 68.4668 243.998 68.4668C246.071 68.4668 247.704 69.1973 248.896 70.6582C250.099 72.1191 250.701 74.0044 250.701 76.314C250.701 78.6987 249.997 80.6323 248.59 82.1147C247.193 83.5864 245.356 84.3223 243.079 84.3223C240.737 84.3223 238.836 83.4575 237.375 81.728C235.925 79.9985 235.2 77.7319 235.2 74.9282V73.5908C235.2 69.4766 236.199 66.2539 238.197 63.9229C240.206 61.5918 243.09 60.4263 246.85 60.4263H247.252ZM243.047 71.625C242.188 71.625 241.398 71.8667 240.678 72.3501C239.969 72.8335 239.448 73.478 239.115 74.2837V75.4761C239.115 77.2163 239.48 78.6021 240.211 79.6333C240.941 80.6538 241.887 81.1641 243.047 81.1641C244.207 81.1641 245.125 80.729 245.802 79.8589C246.479 78.9888 246.817 77.8447 246.817 76.4268C246.817 75.0088 246.474 73.854 245.786 72.9624C245.099 72.0708 244.186 71.625 243.047 71.625ZM254.874 72.3662L256.147 60.5391H268.748V63.9229H259.402L258.757 69.5303C259.842 68.9072 261.067 68.5957 262.431 68.5957C264.666 68.5957 266.4 69.3101 267.636 70.7388C268.882 72.1675 269.505 74.0903 269.505 76.5073C269.505 78.8921 268.817 80.7935 267.442 82.2114C266.067 83.6187 264.182 84.3223 261.787 84.3223C259.638 84.3223 257.855 83.7153 256.437 82.5015C255.03 81.2769 254.267 79.6655 254.149 77.6675H257.936C258.086 78.8062 258.494 79.6816 259.16 80.2939C259.826 80.8955 260.696 81.1963 261.771 81.1963C262.974 81.1963 263.908 80.7666 264.574 79.9072C265.251 79.0479 265.589 77.877 265.589 76.3945C265.589 74.9658 265.219 73.8379 264.478 73.0107C263.736 72.1729 262.716 71.7539 261.416 71.7539C260.707 71.7539 260.105 71.8506 259.611 72.0439C259.117 72.2266 258.58 72.5918 258 73.1396L254.874 72.3662ZM287.358 66.7266C287.358 67.876 287.063 68.9019 286.472 69.8042C285.881 70.6958 285.076 71.3994 284.055 71.915C285.28 72.4844 286.22 73.2632 286.875 74.2515C287.541 75.2397 287.874 76.3569 287.874 77.603C287.874 79.6655 287.176 81.3037 285.779 82.5176C284.383 83.7207 282.524 84.3223 280.204 84.3223C277.873 84.3223 276.004 83.7153 274.597 82.5015C273.2 81.2876 272.502 79.6548 272.502 77.603C272.502 76.3462 272.835 75.2183 273.501 74.2192C274.167 73.2202 275.102 72.4521 276.305 71.915C275.295 71.3994 274.495 70.6958 273.904 69.8042C273.324 68.9019 273.034 67.876 273.034 66.7266C273.034 64.7285 273.678 63.144 274.967 61.9731C276.256 60.8022 277.997 60.2168 280.188 60.2168C282.39 60.2168 284.136 60.8022 285.425 61.9731C286.714 63.144 287.358 64.7285 287.358 66.7266ZM283.958 77.4097C283.958 76.2495 283.609 75.3149 282.911 74.606C282.224 73.8862 281.311 73.5264 280.172 73.5264C279.033 73.5264 278.12 73.8809 277.433 74.5898C276.756 75.2988 276.417 76.2388 276.417 77.4097C276.417 78.5591 276.75 79.4775 277.417 80.165C278.093 80.8525 279.022 81.1963 280.204 81.1963C281.386 81.1963 282.304 80.8633 282.959 80.1973C283.625 79.5312 283.958 78.6021 283.958 77.4097ZM283.459 66.8716C283.459 65.8511 283.164 65.0132 282.573 64.3579C281.982 63.6919 281.187 63.3589 280.188 63.3589C279.189 63.3589 278.399 63.6758 277.819 64.3096C277.239 64.9326 276.949 65.7866 276.949 66.8716C276.949 67.9458 277.239 68.7998 277.819 69.4336C278.41 70.0674 279.205 70.3843 280.204 70.3843C281.203 70.3843 281.993 70.0674 282.573 69.4336C283.164 68.7998 283.459 67.9458 283.459 66.8716ZM306.952 62.7144L297.574 84H293.465L302.827 63.6812H290.694V60.5391H306.952V62.7144ZM323.339 75.6372H326.256V78.7793H323.339V84H319.424V78.7793H309.289L309.176 76.3945L319.295 60.5391H323.339V75.6372ZM313.285 75.6372H319.424V65.8403L319.134 66.356L313.285 75.6372Z" fill="#3AB14D"/>
<path d="M65.7207 156.483L60.933 184.579H68.5902L73.3818 156.483H65.7207Z" fill="#C4C4C4"/>
<path d="M54.5127 156.514L47.0131 175.675L46.2135 172.782C44.7344 169.296 40.5356 164.289 35.6061 161.134L42.4637 184.565L50.5659 184.551L62.6248 156.508L54.5127 156.514Z" fill="#C4C4C4"/>
<path d="M43.3065 158.525C42.8614 156.813 41.5714 156.303 39.9703 156.242H28.0985L28 156.802C37.2386 159.043 43.3518 164.443 45.8884 170.936L43.3065 158.525Z" fill="#C4C4C4"/>
<path d="M88.901 161.869C91.4062 161.83 93.222 162.377 94.6321 162.944L95.3234 163.269L96.3593 157.18C94.8428 156.611 92.4657 156 89.4997 156C81.9331 156 76.5999 159.811 76.5585 165.272C76.5093 169.308 80.3576 171.561 83.2645 172.906C86.2482 174.284 87.2487 175.161 87.2349 176.392C87.2112 178.272 84.8558 179.135 82.6559 179.135C79.5895 179.135 77.9608 178.712 75.4458 177.664L74.4591 177.215L73.3818 183.503C75.174 184.289 78.4807 184.965 81.9135 185C89.9626 185 95.1934 181.234 95.2485 175.399C95.282 172.207 93.2397 169.77 88.8144 167.771C86.1359 166.468 84.4974 165.601 84.5131 164.285C84.5131 163.118 85.9035 161.869 88.901 161.869Z" fill="#C4C4C4"/>
<path d="M116.01 156.514H110.094C108.257 156.514 106.89 157.014 106.082 158.846L94.7128 184.594H102.754C102.754 184.594 104.066 181.132 104.363 180.374C105.243 180.374 113.056 180.386 114.169 180.386C114.397 181.366 115.102 184.594 115.102 184.594H122.206L116.01 156.514ZM106.567 174.623C107.197 173.01 109.617 166.771 109.617 166.771C109.576 166.848 110.242 165.146 110.638 164.088L111.154 166.511C111.154 166.511 112.621 173.219 112.928 174.623H106.567Z" fill="#C4C4C4"/>
<path d="M311.029 20.6484V31.4185C311.029 33.2078 310.467 34.6229 309.344 35.6636C308.229 36.7043 306.701 37.2246 304.762 37.2246C302.853 37.2246 301.337 36.7192 300.214 35.7085C299.091 34.6978 298.518 33.3089 298.496 31.542V20.6484H301.865V31.4409C301.865 32.5116 302.119 33.2939 302.628 33.7881C303.145 34.2747 303.856 34.5181 304.762 34.5181C306.656 34.5181 307.618 33.5223 307.648 31.5308V20.6484H311.029Z" fill="#14A3F3"/>
<path d="M323.023 33.6309H317.116L315.993 37H312.41L318.497 20.6484H321.619L327.74 37H324.157L323.023 33.6309ZM318.025 30.9019H322.113L320.058 24.7812L318.025 30.9019Z" fill="#FFB800"/>
</svg>
