<svg width="171" height="171" viewBox="0 0 171 171" fill="none" xmlns="http://www.w3.org/2000/svg">
<circle cx="85.5" cy="85.5" r="78" stroke="white" stroke-width="15"/>
<path d="M37.5417 144.886L39.2665 143.878L37.5417 144.886C40.793 150.446 46.4042 154.5 53.1562 154.5H117.567C124.247 154.5 130.435 150.517 133.728 144.887L133.728 144.886C137.062 139.186 137.12 132.325 133.882 126.569L104.041 73.5185V46.9478C106.831 45.4119 108.729 42.4432 108.729 39.0312C108.729 34.0496 104.679 30 99.6975 30H71.5725C66.5909 30 62.5412 34.0496 62.5412 39.0312C62.5412 42.4432 64.4393 45.4119 67.2287 46.9478V73.5185L37.3881 126.569C34.1504 132.325 34.2081 139.186 37.5417 144.886ZM85.9819 103.611C77.2682 108.12 67.6727 109.201 58.4707 106.808L75.3582 76.7861C75.3583 76.786 75.3584 76.7858 75.3585 76.7857C75.7245 76.1352 75.9162 75.4016 75.9162 74.6562V48.0625H76.26C78.6588 48.0625 80.6037 46.1175 80.6037 43.7188C80.6037 41.32 78.6588 39.375 76.26 39.375H71.5725C71.3847 39.375 71.2287 39.219 71.2287 39.0312C71.2287 38.8435 71.3847 38.6875 71.5725 38.6875H99.6975C99.8853 38.6875 100.041 38.8435 100.041 39.0312C100.041 39.219 99.8853 39.375 99.6975 39.375H95.01C92.6112 39.375 90.6662 41.32 90.6662 43.7188C90.6662 46.1175 92.6112 48.0625 95.01 48.0625H95.3537V74.6562C95.3537 75.4024 95.5458 76.1355 95.9115 76.7856L95.9115 76.7857L107.967 98.218C100.392 98.198 92.9158 100.021 85.9819 103.611ZM45.0411 140.501L45.041 140.501C43.2747 137.48 43.2442 133.878 44.96 130.828L43.2169 129.847L44.96 130.828L54.0928 114.592C58.6269 116 63.2927 116.711 68.0243 116.711C68.8065 116.711 69.5907 116.692 70.3762 116.653C77.2079 116.315 83.8051 114.519 89.9756 111.326L89.976 111.326C97.2325 107.569 105.165 106.185 113.055 107.263L126.31 130.828C126.31 130.828 126.31 130.828 126.31 130.828C128.026 133.878 127.995 137.48 126.229 140.501L126.229 140.501C124.407 143.616 120.961 145.812 117.567 145.812H53.1562C49.8622 145.812 46.9237 143.72 45.0411 140.501Z" fill="white" stroke="white" stroke-width="4"/>
</svg>