<svg width="171" height="171" viewBox="0 0 171 171" fill="none" xmlns="http://www.w3.org/2000/svg">
<circle cx="85.5" cy="85.5" r="78" stroke="white" stroke-width="15"/>
<circle cx="85.5" cy="85.5" r="50" stroke="white" stroke-width="13"/>
<path d="M60.168 87.3753C65.6753 87.3753 70.1399 82.9108 70.1399 77.4034C70.1399 71.8961 65.6753 67.4315 60.168 67.4315C54.6607 67.4315 50.1961 71.8961 50.1961 77.4034C50.1961 82.9108 54.6607 87.3753 60.168 87.3753Z" fill="white"/>
<path d="M110.028 87.3753C115.535 87.3753 120 82.9108 120 77.4034C120 71.8961 115.535 67.4315 110.028 67.4315C104.521 67.4315 100.056 71.8961 100.056 77.4034C100.056 82.9108 104.521 87.3753 110.028 87.3753Z" fill="white"/>
<path d="M104.191 104.226C102.544 102.019 99.4198 101.565 97.2129 103.212C97.1174 103.283 97.0248 103.358 96.9345 103.436C89.8835 108.586 80.3119 108.586 73.2609 103.436C71.1776 101.635 68.0288 101.864 66.2283 103.947C64.4275 106.031 64.6568 109.18 66.7401 110.98C66.8301 111.058 66.923 111.133 67.0185 111.204C77.691 119.361 92.5044 119.361 103.177 111.204C105.384 109.557 105.838 106.432 104.191 104.226Z" fill="white"/>
</svg>