<svg width="171" height="171" viewBox="0 0 171 171" fill="none" xmlns="http://www.w3.org/2000/svg">
<circle cx="85.5" cy="85.5" r="78" stroke="white" stroke-width="15"/>
<path d="M50.7422 85.4844C58.3318 85.4844 64.4844 79.3318 64.4844 71.7422C64.4844 64.1526 58.3318 58 50.7422 58C43.1526 58 37 64.1526 37 71.7422C37 79.3318 43.1526 85.4844 50.7422 85.4844Z" fill="white"/>
<path d="M119.454 85.4844C127.044 85.4844 133.196 79.3318 133.196 71.7422C133.196 64.1526 127.044 58 119.454 58C111.864 58 105.712 64.1526 105.712 71.7422C105.712 79.3318 111.864 85.4844 119.454 85.4844Z" fill="white"/>
<path d="M111.41 108.706C109.14 105.664 104.835 105.039 101.793 107.308C101.662 107.407 101.534 107.509 101.41 107.617C91.6929 114.714 78.5022 114.714 68.7853 107.617C65.9143 105.135 61.575 105.451 59.0938 108.322C56.6121 111.193 56.9281 115.533 59.7991 118.014C59.9231 118.121 60.0512 118.224 60.1828 118.322C74.8905 129.564 95.3047 129.564 110.012 118.322C113.054 116.052 113.68 111.747 111.41 108.706Z" fill="white"/>
</svg>