<?xml version="1.0" encoding="UTF-8"?>
<!DOCTYPE svg PUBLIC "-//W3C//DTD SVG 1.1//EN" "http://www.w3.org/Graphics/SVG/1.1/DTD/svg11.dtd">
<!-- Creator: CorelDRAW 2020 (64-Bit) -->
<svg xmlns="http://www.w3.org/2000/svg" xml:space="preserve" width="41.275mm" height="41.275mm" version="1.1" style="shape-rendering:geometricPrecision; text-rendering:geometricPrecision; image-rendering:optimizeQuality; fill-rule:evenodd; clip-rule:evenodd"
viewBox="0 0 4127.5 4127.5"
 xmlns:xlink="http://www.w3.org/1999/xlink"
 xmlns:xodm="http://www.corel.com/coreldraw/odm/2003">
 <defs>
  <style type="text/css">
   <![CDATA[
    .str0 {stroke:white;stroke-width:396.88;stroke-miterlimit:22.9256}
    .fil1 {fill:none}
    .fil0 {fill:#FEFEFE}
   ]]>
  </style>
 </defs>
 <g id="Слой_x0020_1">
  <metadata id="CorelCorpID_0Corel-Layer"/>
  <g id="_2185682658512">
   <path class="fil0" d="M1292.46 3981.39c-4.94,-32.63 -10.63,-65.54 -15.84,-96.57 -9.43,-55.88 -16.82,-110.41 -26.1,-165.68 -18.11,-108.06 -37.64,-224.27 -51.28,-330.8 -14.31,-111.66 -35.62,-220.4 -51.49,-329.41 -47.82,-328.67 -103.15,-661.08 -153.82,-990.99 -33.77,-220 -69.22,-441.81 -102.56,-661.44 -4.1,-26.96 -27.14,-148.84 -20.55,-166.79 19.55,-53.21 324.42,-100.27 389.6,-95.25 37.65,2.91 48.25,9.33 55.61,43.02l206.77 937.73c26.37,118.37 41.72,194.67 99.22,284.29 169.29,263.85 558.05,264.05 839.32,110.23 89.04,-48.7 143.2,-105.46 211.11,-172.76 78.16,-77.45 144.47,-177.13 204.65,-271.4 19.02,-29.78 4.8,-39.36 -7.17,-70.99 -85.46,-225.78 -182.9,-457.57 -271.71,-686.83l-134.24 -340.23c-13.76,-33.92 -10.15,-45.51 18.28,-61.46 38.6,-21.66 104.85,-33.21 151.98,-41.59 56.85,-10.08 199.83,-52.05 233.05,13.26 45.36,89.21 105.81,231.22 151.12,328.15l362.12 786.19c38.37,84.01 94.25,181.92 158.17,224.92 138.69,93.27 306.7,-8.97 448.11,-55.55 27.98,-9.23 112.28,-37.52 137.91,-52.81 -3.14,124.95 -17.41,247.13 -41.8,365.61 -4.79,3.67 -10.09,7.37 -16.2,11.1 -44.57,27.23 -146.29,65.09 -196.37,78.78 -259.19,70.81 -522.31,89.17 -726.42,-102.02 -16.89,-15.82 -27.49,-29.86 -43.9,-48.92 -10.55,-12.25 -26.41,-37.59 -39,-48.36 -34.31,26.19 -148.54,301.02 -521.76,486.62 -206.18,102.53 -629.46,189.24 -826.39,79.11 -0.13,24.07 62,274.37 72.38,318.82l149.06 638.89c16.61,73.89 33.27,153.34 51.93,229.85 -244.5,-8.79 -478.14,-60.05 -693.79,-146.72z"/>
   <circle class="fil1 str0" cx="2061.63" cy="2065.87" r="2063.75"/>
  </g>
 </g>
</svg>
