<svg xmlns="http://www.w3.org/2000/svg" xmlns:xlink="http://www.w3.org/1999/xlink" xmlns:svgjs="http://svgjs.com/svgjs" version="1.1" width="512" height="512" x="0" y="0" viewBox="0 0 1024 1024" style="enable-background:new 0 0 512 512" xml:space="preserve" class=""><g><path xmlns="http://www.w3.org/2000/svg" d="m1024 512c0 282.7776-229.2224 512-512 512s-512-229.2224-512-512 229.2224-512 512-512 512 229.2224 512 512z" fill="#ffd600" data-original="#ffd600" class=""/><path xmlns="http://www.w3.org/2000/svg" d="m743.0656 652.8-10.3168 61.4272a20.0576 20.0576 0 0 1 -19.6096 15.3728h-402.2784a20.0576 20.0576 0 0 1 -19.6096-15.3728l-10.3168-61.4272zm-231.808-358.3872c6.528-.2688 12.6592 2.624 16.6144 7.6672l129.3184 163.968 105.1264-69.12a20.3904 20.3904 0 0 1 22.592.1792c6.7968 4.6336 10.0096 12.8768 8.192 20.8l-40.7552 183.6928h-480.704l-40.7296-183.68c-1.792-7.68 1.1904-15.6928 7.6032-20.4032a20.352 20.352 0 0 1 21.9904-1.28l124.48 70.1696 110.2592-163.136a20.224 20.224 0 0 1 16.0128-8.8704z" fill="#ffffff" data-original="#ffffff" class=""/></g></svg>