<svg width="990" height="197" viewBox="0 0 990 197" fill="none" xmlns="http://www.w3.org/2000/svg">
<path fill-rule="evenodd" clip-rule="evenodd" d="M97.8781 0.160645H220.054C273.998 0.160645 318.134 44.2961 318.134 98.2405V98.2413C318.134 152.186 273.998 196.322 220.054 196.322H97.8781C43.9333 196.322 -0.201782 152.186 -0.201782 98.2413V98.2405C-0.201782 75.8245 7.42379 55.1048 20.2039 38.5402L64.9701 182.098C65.9842 185.652 68.5236 187.424 72.0707 187.424H201.29C162.84 176.545 134.725 141.737 134.725 98.6563C134.725 55.5806 162.825 20.7791 201.267 9.89104H134.718C131.164 9.89104 128.632 11.4112 127.617 15.2194L92.3611 140.507L57.1098 15.2194C56.5078 12.9589 55.3682 11.5041 53.7993 10.6957C67.0708 3.96398 82.0509 0.160645 97.8781 0.160645V0.160645ZM227.042 41.8553C195.908 41.8553 171.336 64.5192 171.336 98.6563C171.336 132.791 195.908 155.454 227.042 155.454C258.171 155.454 282.748 132.791 282.748 98.6563C282.748 64.5192 258.171 41.8553 227.042 41.8553V41.8553Z" fill="#FEFEFE"/>
<path d="M573.704 189.357H532.526V6.6853H573.704V189.357Z" fill="#FEFEFE"/>
<path d="M515.089 189.357H463.083L409.86 110.001C408.816 108.479 407.208 105.088 404.99 99.9126H404.381V189.357H363.203V6.6853H404.381V93.043H404.99C406.033 90.6513 407.729 87.2595 410.121 82.8674L460.562 6.6853H509.61L445.908 93.8257L515.089 189.357V189.357Z" fill="#FEFEFE"/>
<path fill-rule="evenodd" clip-rule="evenodd" d="M710.715 71.7071L715.835 78.3311L709.209 83.472L704.064 76.8476L710.715 71.7071V71.7071ZM681.343 33.8642L686.498 40.4851L679.848 45.6317L674.717 39.0051L681.343 33.8642V33.8642ZM661.786 8.63997L666.925 15.2541L660.301 20.406L655.157 13.7733L661.786 8.63997V8.63997ZM691.143 46.4704L696.278 53.1046L689.65 58.2436L684.507 51.6215L691.143 46.4704V46.4704ZM700.909 59.0789L706.07 65.7169L699.439 70.8635L694.29 64.2213L700.909 59.0789V59.0789ZM675.295 99.1612L680.436 105.779L673.81 110.926L668.671 104.306L675.295 99.1612V99.1612ZM665.516 86.5511L670.65 93.1752L664.024 98.3236L658.875 91.6958L665.516 86.5511V86.5511ZM733.99 174.838L739.142 181.456L732.494 186.607L727.357 179.98L733.99 174.838V174.838ZM704.644 137.001L709.779 143.62L703.145 148.758L698.012 142.144L704.644 137.001V137.001ZM685.085 111.769L690.224 118.399L683.573 123.542L678.455 116.911L685.085 111.769ZM714.432 149.603L719.567 156.233L712.919 161.371L707.786 154.746L714.432 149.603V149.603ZM724.218 162.219L729.346 168.86L722.714 174L717.582 167.372L724.218 162.219V162.219ZM694.857 124.381L700.003 131.017L693.379 136.152L688.22 129.526L694.857 124.381ZM720.479 84.3205L725.615 90.9354L718.991 96.0861L713.852 89.4497L720.479 84.3205ZM730.264 96.9165L735.413 103.551L728.783 108.692L723.63 102.057L730.264 96.9165ZM671.561 21.2485L676.706 27.8744L670.08 33.0141L664.941 26.3841L671.561 21.2485ZM668.598 5.72974L723.826 76.9319L740.921 98.9782V110.667L740.046 109.541L733.422 114.682L738.548 121.3L740.921 119.461V189.517H725.694L670.464 118.299L653.363 96.2566V84.568L654.242 85.7L660.875 80.561L655.736 73.9268L653.363 75.7697V9.1778L650.736 5.72974H668.598V5.72974Z" fill="#FEFEFE"/>
<path d="M740.713 5.72974H781.73V189.517H740.713V5.72974Z" fill="#FEFEFE"/>
<path d="M653.53 74.3524V189.517H612.512V5.72974H650.902L653.53 9.1778V74.3524Z" fill="#FEFEFE"/>
<path d="M245.084 98.3819L238.444 86.8796H268.05C269.244 90.8198 269.893 94.9954 269.893 99.32C269.893 109.242 266.504 118.381 260.834 125.662L245.084 98.3819V98.3819Z" fill="#FEFEFE"/>
<path d="M266.715 83.1272H236.277H235.194H221.912L236.713 57.4922C250.352 60.6825 261.509 70.3808 266.715 83.1272Z" fill="#FEFEFE"/>
<path d="M226.929 56.355C228.921 56.355 230.878 56.5024 232.799 56.7662L217.58 83.1276L210.397 95.5676L195.609 69.9526C203.453 61.5923 214.587 56.355 226.929 56.355Z" fill="#FEFEFE"/>
<path d="M193.022 72.9777L208.231 99.3202L208.483 99.7567L208.772 100.258L215.413 111.76H185.807C184.612 107.82 183.963 103.645 183.963 99.3202C183.963 89.3982 187.353 80.2589 193.022 72.9777V72.9777Z" fill="#FEFEFE"/>
<path d="M187.141 115.513H217.58H218.663H231.944L217.143 141.148C203.504 137.957 192.348 128.259 187.141 115.513V115.513Z" fill="#FEFEFE"/>
<path d="M226.929 142.285C224.936 142.285 222.979 142.137 221.057 141.874L236.277 115.513L243.459 103.072L258.248 128.688C250.404 137.048 239.269 142.285 226.929 142.285V142.285Z" fill="#FEFEFE"/>
<path d="M988.625 72.4488C986.549 64.658 976.908 60.0583 973.011 53.2449C969.03 46.3165 969.883 35.5934 964.337 29.9587C958.791 24.324 948.154 25.2152 941.3 21.1904C934.56 17.2519 930.009 7.50617 922.302 5.40753C914.851 3.39514 906.091 9.48981 898.014 9.48981C889.937 9.48981 881.177 3.39514 873.726 5.40753C866.019 7.50617 861.468 17.2519 854.728 21.1904C847.874 25.2152 837.266 24.3527 831.691 29.9587C826.117 35.5646 826.999 46.3165 823.017 53.2449C819.121 60.0583 809.479 64.658 807.403 72.4488C805.412 79.9809 811.442 88.8354 811.442 97C811.442 105.165 805.412 114.019 807.403 121.551C809.479 129.342 819.121 133.942 823.017 140.755C826.999 147.683 826.145 158.407 831.691 164.041C837.237 169.676 847.874 168.785 854.728 172.81C861.468 176.748 866.019 186.494 873.726 188.592C881.177 190.605 889.937 184.51 898.014 184.51C906.091 184.51 914.851 190.605 922.302 188.592C930.009 186.494 934.56 176.748 941.3 172.81C948.154 168.785 958.763 169.647 964.337 164.041C969.911 158.435 969.03 147.683 973.011 140.755C976.908 133.942 986.549 129.342 988.625 121.551C990.616 114.019 984.586 105.165 984.586 97C984.586 88.8354 990.616 79.9809 988.625 72.4488ZM938.086 107.867C937.063 111.748 942.125 118.216 940.191 121.609C938.94 123.765 935.271 124.11 932.057 124.742C931.346 124.886 930.664 125.03 930.009 125.231C929.016 125.469 928.097 125.953 927.336 126.64C924.549 129.457 925.772 137.622 922.359 139.634C919.003 141.589 912.604 136.472 908.765 137.507C908.536 137.563 908.316 137.65 908.11 137.765C905.579 138.973 903.361 142.997 900.858 145.039C900.288 145.51 899.63 145.862 898.924 146.074C898.629 146.166 898.323 146.214 898.014 146.217C897.774 146.219 897.536 146.19 897.303 146.131C896.372 145.885 895.52 145.399 894.829 144.722C893.433 143.32 892.113 141.842 890.876 140.295C890.847 140.266 890.847 140.295 890.847 140.295C889.941 139.039 888.697 138.071 887.264 137.507C883.424 136.472 877.025 141.589 873.669 139.634C870.256 137.622 871.451 129.457 868.692 126.64C865.933 123.822 857.828 125.058 855.837 121.609C853.903 118.216 858.965 111.748 857.942 107.867C856.946 104.101 849.324 101.082 849.324 97C849.324 92.9177 856.946 89.8991 857.942 86.1331C858.965 82.2521 853.903 75.7837 855.837 72.3914C857.828 68.9415 865.905 70.149 868.692 67.3604C871.479 64.5718 870.256 56.3785 873.669 54.3661C877.025 52.4112 883.424 57.5284 887.264 56.4935C890.989 55.4873 893.976 47.7827 898.014 47.7827C902.053 47.7827 905.039 55.4873 908.765 56.4935C912.604 57.5284 919.003 52.4112 922.359 54.3661C925.772 56.3785 924.577 64.543 927.336 67.3604C930.095 70.1777 938.2 68.9415 940.191 72.3914C942.125 75.7837 937.063 82.2521 938.086 86.1331C939.082 89.8991 946.704 92.9177 946.704 97C946.704 101.082 939.082 104.101 938.086 107.867Z" fill="#006837"/>
<path d="M895.056 61.3921C887.764 54.021 889.599 40.2131 889.599 40.2131C889.599 40.2131 903.25 38.356 910.551 45.73C917.851 53.1039 916.011 66.9089 916.011 66.9089C916.011 66.9089 902.351 68.7632 895.056 61.3921Z" fill="#009245"/>
<path d="M869.702 21.8804C869.586 21.7634 869.494 21.6245 869.432 21.4716C869.369 21.3188 869.337 21.155 869.338 20.9896C869.338 20.6556 869.469 20.3354 869.703 20.0995C869.937 19.8635 870.254 19.7311 870.584 19.7313C870.915 19.7316 871.232 19.8645 871.465 20.1009L875.865 24.7294L878.049 27.0293L878.066 27.0494L879.67 28.7398L880.759 29.8897L890.463 40.1242L913.193 64.063L889.51 41.0844L880.779 32.6036L878.276 30.183L875.162 27.1845C875.142 27.2018 875.142 27.2018 875.142 27.1673L874.289 26.3307L869.702 21.8804Z" fill="#00602E"/>
<path d="M903.156 18.8589C895.386 17.8699 888.043 25.4164 888.043 25.4164C888.043 25.4164 893.304 34.5641 901.074 35.5531C908.844 36.542 916.185 29.0013 916.185 29.0013C916.185 29.0013 910.926 19.8507 903.156 18.8589Z" fill="#009245"/>
<path d="M874.281 26.3307C874.218 26.1461 874.201 25.9489 874.23 25.7561C874.259 25.5632 874.334 25.3803 874.449 25.223C874.563 25.0658 874.713 24.9387 874.886 24.8528C875.06 24.7668 875.251 24.7245 875.444 24.7294H875.865C880.074 24.7093 884.334 24.7467 888.543 24.9422C896.174 25.135 903.748 26.3195 911.08 28.4667C903.753 26.8774 896.258 26.2255 888.771 26.5262C885.198 26.6056 881.629 26.784 878.066 27.0609L878.049 27.0408C877.221 27.0954 876.411 27.1673 875.583 27.2191C875.442 27.2342 875.299 27.2225 875.162 27.1846C875.142 27.2018 875.142 27.2018 875.142 27.1673L874.281 26.3307Z" fill="#00602E"/>
<path d="M873.774 59.8945C872.637 52.0606 879.94 44.4854 879.94 44.4854C879.94 44.4854 889.095 49.6112 890.238 57.4423C891.382 65.2733 884.078 72.8514 884.078 72.8514C884.078 72.8514 874.918 67.7285 873.774 59.8945Z" fill="#009245"/>
<path d="M883.384 67.3892C881.138 60.1867 879.772 52.7333 879.317 45.1954C878.877 40.1932 878.646 35.1565 878.276 30.1916C878.259 30.1399 878.276 30.0853 878.259 30.0306C878.247 29.8453 878.276 29.6594 878.346 29.4874C878.415 29.3153 878.522 29.1617 878.66 29.0381C878.797 28.9146 878.961 28.8245 879.138 28.7748C879.315 28.7251 879.501 28.7171 879.681 28.7513L880.771 29.9013V30.0076C880.791 30.8701 880.771 31.7527 880.791 32.6237C880.791 36.752 880.737 40.9004 880.825 45.0459C880.763 52.5719 881.623 60.0766 883.384 67.3892Z" fill="#00602E"/>
<path d="M945.925 56.6747C945.925 56.6747 942.227 55.3149 940.749 58.1926C939.27 61.0703 945.379 60.8374 945.925 56.6747Z" fill="#009245"/>
<path d="M944.244 53.1904C944.244 53.1904 940.777 51.9226 939.409 54.6106C938.041 57.2986 943.732 57.0801 944.244 53.1904ZM943.612 51.9571C943.612 51.9571 946.69 53.0841 947.907 50.6979C949.124 48.3118 944.065 48.5016 943.612 51.9571ZM940.865 48.5964C940.865 48.5964 943.994 49.7464 945.225 47.3171C946.456 44.8879 941.323 45.0891 940.865 48.5964ZM942.33 50.1115C942.33 50.1115 939.349 49.0219 938.175 51.3304C937 53.6389 941.889 53.452 942.33 50.1115ZM940.643 47.2223C940.643 47.2223 937.666 46.1327 936.491 48.4412C935.316 50.7497 940.205 50.5628 940.643 47.2223Z" fill="#009245"/>
<path d="M938.476 45.0314C938.476 45.0314 935.828 44.0597 934.779 46.1152C933.729 48.1707 938.086 48.004 938.476 45.0314ZM938.61 45.7444C938.61 45.7444 941.26 46.7132 942.307 44.6606C943.354 42.6079 938.999 42.7718 938.61 45.7444ZM944.798 55.1422C944.798 55.1422 947.807 56.2433 948.993 53.9118C950.179 51.5803 945.239 51.7672 944.798 55.1422Z" fill="#009245"/>
<path d="M948.638 66.8803C948.474 66.8685 948.32 66.7999 948.201 66.6862C948.082 66.5725 948.005 66.4207 947.984 66.2565C946.581 58.1183 942.741 50.6113 936.983 44.7498C936.846 44.6183 936.767 44.4373 936.763 44.2467C936.758 44.0561 936.829 43.8715 936.959 43.7335C937.089 43.5955 937.268 43.5154 937.457 43.5108C937.645 43.5062 937.828 43.5776 937.964 43.7091C943.998 49.7687 947.997 57.5915 949.394 66.0725C949.406 66.1661 949.4 66.2612 949.376 66.3523C949.351 66.4435 949.309 66.5289 949.252 66.6036C949.195 66.6784 949.124 66.741 949.043 66.788C948.962 66.835 948.873 66.8654 948.78 66.8774C948.733 66.8827 948.685 66.8837 948.638 66.8803Z" fill="#00602E"/>
<path d="M961.595 36.5737C961.595 36.5737 960.79 31.9539 957.329 32.2385C953.868 32.5231 957.454 38.5861 961.595 36.5737ZM955.953 43.8787C955.953 43.8787 957.09 48.4267 960.503 47.9035C963.916 47.3803 959.929 41.5673 955.953 43.8787ZM955.313 44.8705C955.313 44.8705 952.81 40.9205 949.73 42.5275C946.65 44.1346 952.27 48.3376 955.313 44.8705Z" fill="#009245"/>
<path d="M958.947 38.9539C958.947 38.9539 957.497 35.1246 954.576 35.9497C951.655 36.7748 955.748 41.3745 958.947 38.9539Z" fill="#009245"/>
<path d="M957.335 41.915C957.335 41.915 955.816 38.2324 952.73 39.0862C949.645 39.94 953.931 44.3213 957.335 41.915ZM953.012 48.2023C953.012 48.2023 950.737 44.9423 947.893 46.4573C945.049 47.9723 950.211 51.3043 953.012 48.2023ZM951.726 50.6689C951.726 50.6689 952.887 53.8744 955.557 53.2563C958.228 52.6382 954.724 48.7428 951.726 50.6689ZM953.982 47.6187C953.982 47.6187 955.165 50.8817 957.884 50.2578C960.603 49.634 957.036 45.6523 953.982 47.6187ZM957.875 40.8312C957.875 40.8312 959.707 44.3644 962.71 43.2432C965.713 42.122 961.061 38.1318 957.875 40.8312Z" fill="#009245"/>
<path d="M960.495 37.8932C960.495 37.8932 962.047 40.8945 964.596 39.94C967.144 38.9856 963.196 35.6019 960.495 37.8932Z" fill="#009245"/>
<path d="M949.392 80.7658C949.239 80.7559 949.095 80.6965 948.979 80.5964C948.863 80.4964 948.782 80.3612 948.749 80.2109C948.686 79.9378 942.776 52.6412 962.338 34.9322C962.478 34.8083 962.662 34.7454 962.848 34.757C963.034 34.7686 963.209 34.8538 963.333 34.9942C963.458 35.1346 963.523 35.3189 963.515 35.5074C963.506 35.6959 963.424 35.8734 963.287 36.0016C944.36 53.1385 950.074 79.6245 950.134 79.8889C950.155 79.9811 950.158 80.0765 950.142 80.1697C950.127 80.263 950.093 80.3522 950.044 80.4323C949.994 80.5124 949.929 80.5819 949.853 80.6366C949.777 80.6914 949.69 80.7304 949.599 80.7514C949.531 80.7661 949.461 80.7709 949.392 80.7658Z" fill="#00602E"/>
<path d="M977.388 105.932C977.388 105.932 979.444 108.097 981.37 106.648C983.295 105.199 979.129 103.307 977.388 105.932Z" fill="#009245"/>
<path d="M977.377 108.847C977.377 108.847 979.297 110.86 981.105 109.514C982.914 108.169 979.001 106.395 977.377 108.847ZM977.397 109.891C977.397 109.891 975.69 108.097 974.083 109.299C972.477 110.5 975.955 112.07 977.397 109.891ZM978.145 113.082C978.145 113.082 976.41 111.259 974.78 112.478C973.151 113.697 976.68 115.296 978.145 113.082ZM977.647 111.57C977.647 111.57 979.297 113.295 980.849 112.145C982.402 110.995 979.049 109.463 977.647 111.57ZM977.84 114.082C977.84 114.082 979.49 115.807 981.043 114.657C982.596 113.507 979.237 111.978 977.84 114.082Z" fill="#009245"/>
<path d="M978.58 116.29C978.58 116.29 980.05 117.837 981.424 116.802C982.798 115.767 979.823 114.416 978.58 116.29ZM978.725 115.764C978.725 115.764 977.257 114.22 975.881 115.255C974.504 116.29 977.485 117.639 978.725 115.764ZM977.647 107.349C977.647 107.349 975.98 105.593 974.41 106.774C972.841 107.956 976.225 109.471 977.647 107.349Z" fill="#009245"/>
<path d="M978.913 98.1299C979.019 98.1932 979.1 98.2915 979.143 98.4082C979.186 98.5249 979.188 98.653 979.149 98.771C977.413 104.733 977.532 111.089 979.49 116.98C979.516 117.047 979.529 117.119 979.528 117.192C979.527 117.264 979.511 117.335 979.482 117.401C979.452 117.467 979.41 117.527 979.358 117.576C979.306 117.625 979.244 117.664 979.177 117.688C979.11 117.713 979.038 117.724 978.967 117.721C978.895 117.717 978.825 117.699 978.761 117.668C978.696 117.636 978.639 117.592 978.592 117.537C978.544 117.483 978.509 117.42 978.486 117.351C976.41 111.234 976.288 104.612 978.136 98.4203C978.159 98.353 978.195 98.291 978.241 98.2377C978.287 98.1844 978.344 98.1408 978.407 98.1096C978.47 98.0784 978.539 98.06 978.609 98.0556C978.679 98.0512 978.749 98.0608 978.816 98.0839C978.849 98.0963 978.882 98.1117 978.913 98.1299Z" fill="#00602E"/>
<path d="M960.202 114.22C960.202 114.22 959.223 117.607 961.646 118.579C964.07 119.55 963.652 114.249 960.202 114.22ZM966.41 111.19C966.41 111.19 967.144 107.74 964.655 106.95C962.167 106.159 962.969 111.412 966.41 111.19ZM967.17 110.736C967.17 110.736 967.556 114.243 970.167 114.186C972.778 114.128 970.363 109.422 967.17 110.736Z" fill="#009245"/>
<path d="M962.77 113.504C962.77 113.504 962.485 116.578 964.729 117.003C966.973 117.429 965.736 112.952 962.77 113.504Z" fill="#009245"/>
<path d="M964.832 112.05C964.832 112.05 964.644 115.045 967.007 115.5C969.371 115.954 967.92 111.573 964.832 112.05ZM969.817 109.261C969.817 109.261 970.281 112.225 972.687 112.156C975.093 112.087 972.73 108.114 969.817 109.261ZM971.498 108.031C971.498 108.031 971.783 105.478 969.766 104.992C967.75 104.506 968.831 108.324 971.498 108.031ZM968.973 109.33C968.973 109.33 969.257 106.743 967.209 106.237C965.162 105.731 966.271 109.629 968.973 109.33ZM964.109 112.602C964.109 112.602 964.041 109.6 961.644 109.347C959.246 109.094 961.075 113.349 964.109 112.602Z" fill="#009245"/>
<path d="M961.376 113.703C961.376 113.703 961.317 111.156 959.283 110.94C957.25 110.724 958.8 114.338 961.376 113.703Z" fill="#009245"/>
<path d="M982.98 88.5105C983.079 88.569 983.156 88.6582 983.201 88.7648C983.247 88.8715 983.257 88.9899 983.23 89.1027C983.181 89.3097 978.185 109.71 959.161 115.08C959.027 115.11 958.886 115.087 958.769 115.016C958.651 114.945 958.565 114.83 958.528 114.696C958.492 114.563 958.507 114.42 958.572 114.297C958.637 114.175 958.746 114.083 958.876 114.039C977.286 108.841 982.149 89.0539 982.197 88.8526C982.231 88.7134 982.318 88.5933 982.439 88.5185C982.56 88.4436 982.705 88.4201 982.843 88.453C982.891 88.4648 982.937 88.4842 982.98 88.5105Z" fill="#00602E"/>
<path d="M870.859 162.791C870.859 162.791 871.445 166.427 874.4 166.33C877.355 166.232 874.428 161.365 870.859 162.791Z" fill="#009245"/>
<path d="M868.837 165.726C868.837 165.726 869.383 169.127 872.142 169.032C874.901 168.937 872.17 164.395 868.837 165.726ZM868.135 166.798C868.135 166.798 867.651 163.78 865.2 163.863C862.748 163.946 865.174 167.98 868.135 166.798ZM866.69 170.55C866.69 170.55 866.195 167.482 863.707 167.569C861.218 167.655 863.681 171.746 866.69 170.55ZM867.239 168.673C867.239 168.673 867.708 171.593 870.083 171.513C872.458 171.432 870.103 167.528 867.239 168.673ZM865.692 171.346C865.692 171.346 866.161 174.264 868.536 174.187C870.91 174.109 868.556 170.202 865.692 171.346Z" fill="#009245"/>
<path d="M864.915 174.101C864.915 174.101 865.333 176.688 867.444 176.625C869.554 176.561 867.463 173.08 864.915 174.101ZM865.424 173.669C865.424 173.669 865.009 171.082 862.899 171.145C860.789 171.208 862.879 174.69 865.424 173.669ZM870.143 164.398C870.143 164.398 869.668 161.448 867.273 161.523C864.878 161.598 867.253 165.554 870.143 164.398Z" fill="#009245"/>
<path d="M877.782 155.98C877.846 156.119 877.861 156.276 877.823 156.424C877.786 156.572 877.699 156.703 877.577 156.794C871.707 161.595 867.438 168.103 865.348 175.437C865.328 175.524 865.291 175.606 865.24 175.678C865.188 175.75 865.123 175.81 865.048 175.857C864.973 175.903 864.89 175.933 864.803 175.946C864.716 175.959 864.627 175.954 864.542 175.932C864.457 175.91 864.377 175.87 864.307 175.816C864.238 175.762 864.179 175.695 864.136 175.617C864.093 175.54 864.065 175.455 864.055 175.367C864.044 175.278 864.052 175.189 864.076 175.104C866.201 167.459 870.647 160.681 876.786 155.727C876.864 155.668 876.954 155.626 877.05 155.607C877.145 155.587 877.244 155.589 877.339 155.614C877.433 155.638 877.521 155.684 877.596 155.747C877.671 155.811 877.73 155.89 877.77 155.98H877.782Z" fill="#00602E"/>
<path d="M847.771 159.048C847.771 159.048 844.444 161.782 846.224 164.473C848.005 167.163 851.235 161.514 847.771 159.048ZM856.136 160.364C856.136 160.364 859.264 157.395 857.29 154.842C855.317 152.289 852.51 158.159 856.136 160.364ZM857.216 160.439C857.216 160.439 855.189 164.26 857.859 166.048C860.53 167.836 861.352 161.365 857.216 160.439Z" fill="#009245"/>
<path d="M850.863 160.137C850.863 160.137 848.457 163.041 850.428 165.053C852.399 167.065 854.239 161.684 850.863 160.137Z" fill="#009245"/>
<path d="M853.949 160.12C853.949 160.12 851.69 163.015 853.764 165.148C855.837 167.281 857.401 161.813 853.949 160.12ZM860.911 160.821C860.911 160.821 859.332 164.142 861.815 165.769C864.298 167.396 864.645 161.71 860.911 160.821ZM863.459 160.758C863.459 160.758 865.495 158.369 863.806 156.466C862.117 154.563 860.572 159.18 863.459 160.758ZM860.009 160.289C860.009 160.289 862.083 157.857 860.362 155.92C858.641 153.982 857.06 158.682 860.009 160.289ZM852.839 160.166C852.839 160.166 854.83 157.084 852.592 155.141C850.354 153.197 849.256 158.783 852.839 160.166Z" fill="#009245"/>
<path d="M849.319 159.353C849.319 159.353 851.025 156.736 849.108 155.086C847.191 153.436 846.275 158.177 849.319 159.353Z" fill="#009245"/>
<path d="M888.529 149.129C888.589 149.258 888.607 149.403 888.579 149.543C888.552 149.683 888.48 149.81 888.376 149.905C888.185 150.078 869.059 167.169 846.128 159.183C846.046 159.154 845.971 159.11 845.906 159.052C845.841 158.995 845.788 158.924 845.751 158.846C845.713 158.768 845.69 158.683 845.685 158.596C845.68 158.509 845.691 158.421 845.719 158.339C845.747 158.256 845.791 158.18 845.848 158.115C845.905 158.049 845.975 157.996 846.052 157.958C846.13 157.919 846.214 157.897 846.3 157.892C846.386 157.886 846.473 157.898 846.554 157.926C868.738 165.654 887.312 149.086 887.508 148.917C887.638 148.8 887.808 148.739 887.982 148.748C888.155 148.757 888.318 148.835 888.435 148.965C888.475 149.015 888.506 149.07 888.529 149.129Z" fill="#00602E"/>
<path d="M924.492 146.62C922.634 148.421 920.412 149.794 917.979 150.644C913.519 152.128 908.808 152.685 904.129 152.283L903.276 152.197C903.276 152.197 903.247 151.852 903.19 151.277C902.906 148.057 902.536 137.075 908.793 130.751C915.192 124.282 926.369 124.828 929.298 125.116C929.753 125.145 930.009 125.173 930.009 125.173C930.009 125.173 931.858 139.145 924.492 146.62Z" fill="#009245"/>
<path d="M927.165 128.048L909.476 146.677L908.85 147.339L904.129 152.283L895.654 161.224L893.236 163.783L890.221 166.974C890.221 167.002 890.221 167.002 890.193 167.002C890.165 167.002 887.946 167.434 887.861 167.204C887.377 167.376 887.747 166.255 887.747 166.255L890.079 164.013L891.786 162.374L892.923 161.253L903.162 151.306L903.19 151.277L905.153 149.38L907.058 147.54L927.165 128.048Z" fill="#00602E"/>
<path d="M898.583 140.439C898.298 142.383 897.61 144.244 896.564 145.901C895.487 147.605 894.186 149.152 892.696 150.501C891.702 151.416 890.647 152.261 889.539 153.031V153.059C888.856 153.519 888.43 153.778 888.43 153.778C888.43 153.778 888.259 153.606 887.975 153.289C886.149 151.294 884.626 149.037 883.453 146.591C883.165 145.986 882.918 145.361 882.713 144.722C881.93 142.684 881.638 140.487 881.86 138.311C882.855 130.377 892.042 124.972 892.042 124.972C892.042 124.972 899.578 132.504 898.583 140.439Z" fill="#009245"/>
<path d="M890.079 164.013L890.25 166.542C890.27 166.687 890.26 166.833 890.221 166.974C890.221 167.002 890.221 167.002 890.193 167.002C890.165 167.002 887.946 167.434 887.861 167.204C887.79 167.04 887.751 166.865 887.747 166.686V166.255C887.747 161.943 887.776 157.573 887.975 153.289C888.06 151.421 888.174 149.552 888.316 147.712C888.344 147.54 888.344 147.367 888.373 147.195C888.826 141.437 889.875 135.742 891.501 130.204C890.223 136.01 889.565 141.937 889.539 147.885V148.373C889.51 149.926 889.51 151.478 889.539 153.031V153.059C889.624 156.739 889.823 160.39 890.079 164.013Z" fill="#00602E"/>
<path d="M935.953 157.86C935.953 157.86 930.834 167.232 922.985 168.382C916.557 169.36 910.3 164.501 908.253 162.719H908.224C907.769 162.316 907.542 162.086 907.542 162.086C907.542 162.086 907.741 161.741 908.082 161.195C910.286 157.585 913.397 154.629 917.098 152.628C918.178 152.102 919.327 151.734 920.51 151.536L921.307 151.45H921.335C928.9 150.903 935.953 157.86 935.953 157.86Z" fill="#009245"/>
<path d="M930.487 158.556C923.272 160.857 915.805 162.256 908.253 162.722C903.241 163.17 898.196 163.406 893.222 163.783C893.168 163.803 893.117 163.783 893.063 163.803C892.878 163.815 892.694 163.786 892.523 163.716C892.352 163.646 892.199 163.538 892.075 163.399C891.951 163.261 891.86 163.096 891.808 162.917C891.757 162.738 891.746 162.549 891.777 162.365L892.915 161.25H893.02C893.893 161.23 894.769 161.25 895.642 161.23C899.777 161.23 903.932 161.284 908.085 161.195C915.631 161.253 923.156 160.367 930.487 158.556Z" fill="#00602E"/>
<path d="M947.159 92.8314C949.568 83.9022 960.904 79.2535 960.904 79.2535C960.904 79.2535 968.333 89.0769 965.924 98.0061C963.515 106.935 952.179 111.584 952.179 111.584C952.179 111.584 944.75 101.758 947.159 92.8314Z" fill="#009245"/>
<path d="M966.12 55.68C966.205 55.4034 966.394 55.171 966.645 55.0319C966.896 54.8928 967.192 54.8577 967.468 54.9341C967.745 55.0105 967.981 55.1924 968.127 55.4414C968.274 55.6905 968.319 55.9873 968.253 56.2693L966.663 61.7315L965.861 64.4511V64.4741L965.275 66.4664L964.889 67.8176L961.356 79.8919L953.109 108.14L960.202 79.5728L962.815 69.0394L963.561 66.0265L964.482 62.272C964.459 62.272 964.459 62.272 964.482 62.2519L964.738 61.2112L966.12 55.68Z" fill="#00602E"/>
<path d="M983.156 80.4122C980.488 73.9208 971.495 71.5232 971.495 71.5232C971.495 71.5232 966.837 79.6475 969.505 86.1389C972.172 92.6303 981.165 95.0279 981.165 95.0279C981.165 95.0279 985.821 86.9036 983.156 80.4122Z" fill="#009245"/>
<path d="M964.744 61.2053C964.857 61.0752 965 60.9747 965.16 60.9125C965.32 60.8502 965.493 60.8281 965.663 60.8478C965.833 60.8676 965.997 60.9287 966.139 61.026C966.281 61.1233 966.397 61.2539 966.478 61.4066L966.663 61.7343C968.549 65.0131 970.357 68.3374 972.084 71.7042C975.295 77.7356 977.727 84.1588 979.319 90.8162C977.305 84.4081 974.502 78.2816 970.975 72.5811C969.341 69.8336 967.634 67.1312 965.856 64.4769V64.4539C965.449 63.8329 965.039 63.235 964.633 62.6111C964.559 62.5075 964.506 62.3903 964.476 62.2661C964.454 62.2661 964.454 62.2661 964.476 62.246L964.744 61.2053Z" fill="#00602E"/>
<path d="M938.928 75.5911C944.4 71.253 953.393 73.6075 953.393 73.6075C953.393 73.6075 953.518 82.9996 948.046 87.3377C942.574 91.6759 933.584 89.3185 933.584 89.3185C933.584 89.3185 933.459 79.9292 938.928 75.5911Z" fill="#009245"/>
<path d="M937.447 86.3775C941.949 81.457 947.03 77.1124 952.577 73.4407C956.197 70.8965 959.937 68.5018 963.561 66.0265C963.592 65.9891 963.64 65.9776 963.674 65.9403C963.809 65.8495 963.963 65.791 964.123 65.7691C964.284 65.7473 964.447 65.7628 964.601 65.8143C964.755 65.8658 964.895 65.9521 965.011 66.0666C965.127 66.1811 965.215 66.3207 965.27 66.475L964.883 67.8262L964.801 67.875C964.144 68.2718 963.472 68.6426 962.81 69.025C959.661 70.8419 956.476 72.6272 953.353 74.5217C947.587 77.7949 942.244 81.7771 937.447 86.3775Z" fill="#00602E"/>
<path d="M837.8 107.062C841.617 113.303 838.156 122.463 838.156 122.463C838.156 122.463 828.5 121.505 824.684 115.275C820.867 109.046 824.325 99.8749 824.325 99.8749C824.325 99.8749 833.981 100.832 837.8 107.062Z" fill="#009245"/>
<path d="M848.858 138.283C848.98 138.483 849.019 138.723 848.965 138.952C848.912 139.18 848.771 139.378 848.573 139.502C848.376 139.625 848.138 139.664 847.912 139.61C847.685 139.556 847.49 139.414 847.368 139.214L845.092 135.325L843.955 133.384L843.127 131.964L842.558 131.004L837.55 122.396L825.801 102.272L838.355 121.879L842.985 129.106L844.313 131.173L845.965 133.743C845.982 133.743 845.982 133.743 845.965 133.743L846.423 134.456L848.858 138.283Z" fill="#00602E"/>
<path d="M825.457 134.893C830.625 136.839 836.856 132.881 836.856 132.881C836.856 132.881 834.714 125.748 829.55 123.799C824.385 121.85 818.151 125.812 818.151 125.812C818.151 125.812 820.292 132.935 825.457 134.893Z" fill="#009245"/>
<path d="M846.435 134.485C846.446 134.621 846.425 134.758 846.373 134.884C846.322 135.01 846.241 135.123 846.138 135.211C846.036 135.3 845.914 135.363 845.782 135.394C845.651 135.426 845.514 135.426 845.382 135.393L845.098 135.324C842.197 134.658 839.312 133.92 836.446 133.111C831.25 131.731 826.25 129.683 821.569 127.016C826.334 129.302 831.365 130.972 836.543 131.987C839.015 132.524 841.495 132.973 843.963 133.37C844.532 133.467 845.101 133.551 845.67 133.657C845.77 133.669 845.867 133.701 845.954 133.752C845.971 133.752 845.971 133.752 845.954 133.752L846.435 134.485Z" fill="#00602E"/>
<path d="M852.14 111.573C851.671 117.127 845.456 121.123 845.456 121.123C845.456 121.123 839.996 116.118 840.471 110.566C840.946 105.015 847.154 101.016 847.154 101.016C847.154 101.016 852.609 106.021 852.14 111.573Z" fill="#009245"/>
<path d="M846.756 104.871C847.144 110.173 846.889 115.502 845.997 120.74C845.499 124.236 844.859 127.726 844.313 131.188C844.313 131.228 844.296 131.262 844.299 131.3C844.277 131.427 844.227 131.548 844.153 131.654C844.078 131.759 843.981 131.847 843.869 131.909C843.757 131.971 843.632 132.008 843.504 132.015C843.376 132.022 843.248 131.999 843.13 131.949L842.561 130.989L842.578 130.917C842.703 130.317 842.863 129.721 842.982 129.121C843.642 126.292 844.341 123.46 844.942 120.605C846.185 115.456 846.794 110.172 846.756 104.871Z" fill="#00602E"/>
<path d="M945.438 129.589L975.466 130.112C975.466 130.112 967.903 133.177 968.131 139.573C968.131 139.573 963.472 132.3 959.266 139.019C959.266 139.019 956.328 131.777 950.768 136.874C950.963 136.035 950.975 135.162 950.803 134.318C950.631 133.474 950.279 132.677 949.772 131.984C949.265 131.291 948.615 130.717 947.866 130.304C947.118 129.89 946.289 129.646 945.438 129.589Z" fill="#009245"/>
<path d="M968.458 120.404C968.014 126.786 975.466 130.112 975.466 130.112L945.438 129.589C946.291 129.562 947.127 129.347 947.889 128.959C948.651 128.572 949.321 128.022 949.851 127.347C950.381 126.671 950.76 125.888 950.961 125.05C951.161 124.212 951.179 123.34 951.013 122.494C956.396 127.784 959.582 120.648 959.582 120.648C963.555 127.508 968.458 120.404 968.458 120.404Z" fill="#00602E"/>
<path d="M872.071 149.897L863.561 118.941C863.561 118.941 868.911 125.774 875.262 123.618C875.262 123.618 869.363 130.584 877.372 132.875C877.372 132.875 870.987 138.07 877.776 142.239C876.875 142.291 875.996 142.542 875.2 142.972C874.405 143.403 873.711 144.003 873.169 144.732C872.626 145.461 872.246 146.301 872.057 147.192C871.867 148.084 871.872 149.007 872.071 149.897Z" fill="#009245"/>
<path d="M855.922 129.052C862.464 127.586 863.561 118.941 863.561 118.941L872.071 149.897C871.787 149.031 871.32 148.238 870.702 147.573C870.085 146.908 869.331 146.386 868.494 146.046C867.657 145.705 866.756 145.552 865.855 145.599C864.953 145.645 864.073 145.89 863.274 146.315C866.971 139.2 858.84 138.082 858.84 138.082C864.531 131.941 855.922 129.052 855.922 129.052Z" fill="#00602E"/>
<path d="M949.852 135.948L929.091 111.613C929.091 111.613 936.812 115.488 941.647 110.799C941.647 110.799 939.25 119.642 947.46 118.274C947.46 118.274 943.877 125.723 951.775 126.568C950.984 127.004 950.296 127.61 949.759 128.342C949.222 129.075 948.85 129.916 948.667 130.808C948.484 131.701 948.495 132.623 948.7 133.51C948.905 134.398 949.298 135.23 949.852 135.948Z" fill="#009245"/>
<path d="M926.454 124.046C931.756 119.904 929.102 111.613 929.102 111.613L949.864 135.948C949.242 135.287 948.484 134.771 947.645 134.435C946.805 134.099 945.904 133.953 945.002 134.005C944.101 134.057 943.222 134.307 942.426 134.738C941.63 135.168 940.936 135.769 940.393 136.497C940.731 128.474 932.913 130.96 932.913 130.96C935.461 122.954 926.454 124.046 926.454 124.046Z" fill="#00602E"/>
<path d="M870.219 79.0266L849.458 54.691C849.458 54.691 857.179 58.5663 862.014 53.8774C862.014 53.8774 859.617 62.7205 867.827 61.352C867.827 61.352 864.244 68.8007 872.142 69.646C871.351 70.0827 870.663 70.6882 870.126 71.4205C869.589 72.1528 869.217 72.9943 869.034 73.8867C868.851 74.7791 868.862 75.701 869.067 76.5885C869.272 77.4761 869.665 78.308 870.219 79.0266Z" fill="#009245"/>
<path d="M846.821 67.1247C852.123 62.9821 849.469 54.691 849.469 54.691L870.231 79.0266C869.609 78.3653 868.851 77.8489 868.012 77.5133C867.173 77.1777 866.271 77.031 865.37 77.0832C864.468 77.1355 863.589 77.3855 862.793 77.8159C861.997 78.2463 861.303 78.8468 860.76 79.5757C861.099 71.552 853.28 74.0387 853.28 74.0387C855.829 66.0323 846.821 67.1247 846.821 67.1247Z" fill="#00602E"/>
<path d="M920.198 68.3436L943.632 62.269C943.632 62.269 938.405 66.2794 939.935 71.1983C939.935 71.1983 934.779 66.5554 932.933 72.6817C932.933 72.6817 929.119 67.691 925.877 72.8513C925.851 72.1572 925.677 71.477 925.365 70.8581C925.053 70.2392 924.611 69.6963 924.07 69.2673C923.53 68.8384 922.904 68.5335 922.235 68.374C921.566 68.2145 920.871 68.2041 920.198 68.3436Z" fill="#009245"/>
<path d="M936.138 56.2375C937.139 61.2944 943.632 62.2747 943.632 62.2747L920.198 68.3435C920.855 68.1396 921.46 67.7933 921.972 67.3287C922.483 66.8642 922.888 66.2926 923.159 65.6536C923.43 65.0147 923.56 64.3238 923.539 63.6291C923.519 62.9343 923.349 62.2524 923.042 61.6308C928.34 64.5746 929.298 58.3448 929.298 58.3448C933.829 62.8152 936.138 56.2375 936.138 56.2375Z" fill="#00602E"/>
<path d="M817.758 141.847L838.858 153.815C838.858 153.815 832.337 153.059 830.081 157.694C830.081 157.694 829.513 150.736 824.004 153.879C824.004 153.879 824.655 147.609 818.785 149.075C819.242 148.555 819.581 147.941 819.779 147.275C819.976 146.61 820.028 145.908 819.93 145.22C819.833 144.532 819.588 143.874 819.213 143.292C818.837 142.709 818.341 142.216 817.758 141.847Z" fill="#009245"/>
<path d="M837.558 144.225C834.828 148.58 838.858 153.815 838.858 153.815L817.758 141.847C818.373 142.157 819.047 142.328 819.734 142.348C820.42 142.368 821.103 142.237 821.734 141.963C822.366 141.69 822.931 141.281 823.39 140.764C823.849 140.248 824.192 139.636 824.393 138.973C826.214 144.8 831.168 140.985 831.168 140.985C831.395 147.37 837.558 144.225 837.558 144.225Z" fill="#00602E"/>
<path d="M954.895 174.621L931.352 168.989C931.352 168.989 937.825 167.891 938.746 162.82C938.746 162.82 941.175 169.351 945.626 164.795C945.626 164.795 946.707 171.007 951.951 167.957C951.654 168.583 951.495 169.267 951.485 169.961C951.476 170.656 951.616 171.344 951.896 171.978C952.176 172.612 952.589 173.177 953.107 173.633C953.625 174.09 954.235 174.427 954.895 174.621Z" fill="#009245"/>
<path d="M935.214 177.835C936.65 172.887 931.352 168.974 931.352 168.974L954.895 174.621C954.22 174.494 953.527 174.517 952.862 174.689C952.198 174.86 951.578 175.176 951.046 175.613C950.513 176.051 950.082 176.6 949.781 177.223C949.479 177.845 949.315 178.527 949.301 179.22C945.962 174.123 942.242 179.186 942.242 179.186C940.282 173.094 935.214 177.835 935.214 177.835Z" fill="#00602E"/>
<path d="M862.748 24.7782L839.455 18.1661C839.455 18.1661 845.968 17.341 847.086 12.3101C847.086 12.3101 849.245 18.9394 853.88 14.5726C853.88 14.5726 854.705 20.8225 860.069 18.0022C859.747 18.6157 859.561 19.2927 859.524 19.9862C859.487 20.6797 859.6 21.3731 859.855 22.018C860.11 22.6629 860.501 23.2439 861 23.7206C861.5 24.1973 862.096 24.5582 862.748 24.7782Z" fill="#009245"/>
<path d="M842.954 27.1788C844.592 22.2915 839.455 18.1661 839.455 18.1661L862.748 24.7783C862.078 24.6234 861.383 24.6178 860.711 24.762C860.039 24.9061 859.406 25.1964 858.856 25.6128C858.306 26.0292 857.852 26.5616 857.526 27.1731C857.201 27.7846 857.01 28.4605 856.969 29.1538C853.841 23.9216 849.919 28.8232 849.919 28.8232C848.209 22.6566 842.954 27.1788 842.954 27.1788Z" fill="#00602E"/>
<path d="M944.756 127.83L955.39 156.222C955.39 156.222 949.775 150.256 943.982 152.835C943.982 152.835 948.939 145.769 941.209 144.308C941.209 144.308 946.778 138.866 940.035 135.532C940.878 135.404 941.685 135.093 942.397 134.619C943.11 134.145 943.712 133.52 944.161 132.787C944.61 132.054 944.896 131.231 944.999 130.375C945.102 129.519 945.019 128.65 944.756 127.83Z" fill="#009245"/>
<path d="M961.72 146.048C955.688 147.994 955.39 156.222 955.39 156.222L944.756 127.83C945.096 128.621 945.603 129.327 946.241 129.899C946.878 130.472 947.632 130.897 948.449 131.146C949.266 131.394 950.126 131.46 950.971 131.338C951.815 131.216 952.624 130.91 953.339 130.44C950.472 137.452 958.211 137.803 958.211 137.803C953.376 144.073 961.72 146.048 961.72 146.048Z" fill="#00602E"/>
<path d="M829.063 51.9338L857.137 62.7174C857.137 62.7174 848.994 63.0049 847.063 69.1053C847.063 69.1053 845.121 60.6676 838.909 65.5462C838.909 65.5462 838.574 57.7238 831.634 60.613C832.099 59.8902 832.403 59.0739 832.524 58.2206C832.646 57.3672 832.582 56.4974 832.337 55.6716C832.093 54.8457 831.673 54.0836 831.108 53.4381C830.542 52.7927 829.845 52.2794 829.063 51.9338Z" fill="#009245"/>
<path d="M853.801 51.1809C851.241 57.037 857.137 62.7177 857.137 62.7177L829.063 51.9341C829.875 52.2004 830.733 52.285 831.58 52.182C832.427 52.0789 833.242 51.7907 833.967 51.3374C834.693 50.8841 835.312 50.2766 835.782 49.557C836.252 48.8375 836.561 48.0231 836.688 47.1705C839.979 53.9925 845.368 48.3693 845.368 48.3693C846.804 56.1774 853.801 51.1809 853.801 51.1809Z" fill="#00602E"/>
<path d="M859.472 33.1958L856.955 63.4449C856.955 63.4449 854.432 55.6167 848.104 55.4183C848.104 55.4183 855.592 51.2038 849.242 46.5063C849.242 46.5063 856.588 44.0253 851.927 38.0773C852.741 38.3298 853.601 38.4002 854.445 38.2835C855.29 38.1668 856.099 37.8658 856.817 37.4014C857.534 36.937 858.144 36.3203 858.602 35.5941C859.061 34.8678 859.357 34.0495 859.472 33.1958Z" fill="#009245"/>
<path d="M867.014 57.0396C860.743 56.1772 856.963 63.4592 856.963 63.4592L859.48 33.2101C859.45 34.0716 859.606 34.9293 859.938 35.7237C860.269 36.518 860.767 37.23 861.398 37.81C862.029 38.39 862.777 38.8241 863.591 39.0823C864.405 39.3404 865.264 39.4163 866.11 39.3047C860.533 44.3817 867.364 48.0701 867.364 48.0701C860.319 51.6062 867.014 57.0396 867.014 57.0396Z" fill="#00602E"/>
<path opacity="0.5" d="M857.629 63.6518C858.571 63.6518 859.335 62.8796 859.335 61.9269C859.335 60.9743 858.571 60.202 857.629 60.202C856.686 60.202 855.922 60.9743 855.922 61.9269C855.922 62.8796 856.686 63.6518 857.629 63.6518Z" fill="white"/>
<path opacity="0.5" d="M851.941 63.0769C852.883 63.0769 853.647 62.3046 853.647 61.352C853.647 60.3993 852.883 59.6271 851.941 59.6271C850.998 59.6271 850.234 60.3993 850.234 61.352C850.234 62.3046 850.998 63.0769 851.941 63.0769Z" fill="white"/>
<path opacity="0.5" d="M855.354 59.0521C856.296 59.0521 857.06 58.2798 857.06 57.3272C857.06 56.3746 856.296 55.6023 855.354 55.6023C854.411 55.6023 853.647 56.3746 853.647 57.3272C853.647 58.2798 854.411 59.0521 855.354 59.0521Z" fill="white"/>
<path d="M950.629 132.484C952.985 132.484 954.895 130.554 954.895 128.172C954.895 125.79 952.985 123.86 950.629 123.86C948.273 123.86 946.363 125.79 946.363 128.172C946.363 130.554 948.273 132.484 950.629 132.484Z" fill="#ED1C24"/>
<path d="M946.078 137.659C948.434 137.659 950.344 135.728 950.344 133.347C950.344 130.965 948.434 129.034 946.078 129.034C943.722 129.034 941.812 130.965 941.812 133.347C941.812 135.728 943.722 137.659 946.078 137.659Z" fill="#C1272D"/>
<path d="M943.803 131.334C946.159 131.334 948.069 129.404 948.069 127.022C948.069 124.64 946.159 122.71 943.803 122.71C941.447 122.71 939.537 124.64 939.537 127.022C939.537 129.404 941.447 131.334 943.803 131.334Z" fill="#FF0000"/>
<path d="M871.565 149.897C873.921 149.897 875.831 147.967 875.831 145.585C875.831 143.203 873.921 141.273 871.565 141.273C869.208 141.273 867.299 143.203 867.299 145.585C867.299 147.967 869.208 149.897 871.565 149.897Z" fill="#FF0000"/>
<path d="M851.656 66.1212C854.012 66.1212 855.922 64.1906 855.922 61.809C855.922 59.4274 854.012 57.4967 851.656 57.4967C849.3 57.4967 847.39 59.4274 847.39 61.809C847.39 64.1906 849.3 66.1212 851.656 66.1212Z" fill="#ED1C24"/>
<path d="M856.48 61.2053C858.836 61.2053 860.746 59.2747 860.746 56.8931C860.746 54.5115 858.836 52.5808 856.48 52.5808C854.124 52.5808 852.214 54.5115 852.214 56.8931C852.214 59.2747 854.124 61.2053 856.48 61.2053Z" fill="#C1272D"/>
<path d="M858.482 67.1017C860.838 67.1017 862.748 65.171 862.748 62.7894C862.748 60.4078 860.838 58.4772 858.482 58.4772C856.126 58.4772 854.216 60.4078 854.216 62.7894C854.216 65.171 856.126 67.1017 858.482 67.1017Z" fill="#FF0000"/>
<path d="M875.546 35.4783C881.672 35.4783 886.638 30.4586 886.638 24.2664C886.638 18.0743 881.672 13.0546 875.546 13.0546C869.42 13.0546 864.454 18.0743 864.454 24.2664C864.454 30.4586 869.42 35.4783 875.546 35.4783Z" fill="#E6E6E6"/>
<path d="M959.73 70.5515C965.855 70.5515 970.821 65.5317 970.821 59.3396C970.821 53.1474 965.855 48.1277 959.73 48.1277C953.604 48.1277 948.638 53.1474 948.638 59.3396C948.638 65.5317 953.604 70.5515 959.73 70.5515Z" fill="#FFE600"/>
<path d="M854.216 132.36C854.248 134.584 853.456 136.738 851.997 138.402C850.538 140.065 848.516 141.117 846.329 141.351C844.141 141.585 841.946 140.985 840.175 139.667C838.403 138.349 837.183 136.41 836.754 134.229C836.639 133.613 836.582 132.987 836.583 132.36C836.583 129.997 837.512 127.73 839.165 126.059C840.819 124.387 843.061 123.448 845.399 123.448C845.627 123.444 845.855 123.453 846.082 123.477C848.295 123.651 850.362 124.662 851.87 126.309C853.378 127.956 854.215 130.117 854.216 132.36Z" fill="#E6E6E6"/>
<path opacity="0.1" d="M854.216 132.361C854.214 134.226 853.633 136.044 852.555 137.558C851.476 139.072 849.955 140.206 848.205 140.8C846.456 141.394 844.566 141.417 842.802 140.868C841.039 140.318 839.49 139.223 838.375 137.737C840.072 139.024 842.173 139.649 844.29 139.497C846.407 139.344 848.398 138.426 849.899 136.909C851.399 135.392 852.308 133.379 852.459 131.239C852.609 129.099 851.991 126.976 850.718 125.26C851.806 126.088 852.688 127.161 853.295 128.393C853.902 129.626 854.217 130.984 854.216 132.361Z" fill="black"/>
<path d="M919.06 183.245C920.316 183.245 921.335 182.216 921.335 180.946C921.335 179.675 920.316 178.646 919.06 178.646C917.803 178.646 916.785 179.675 916.785 180.946C916.785 182.216 917.803 183.245 919.06 183.245Z" fill="#E6E6E6"/>
<path d="M857.06 148.172C858.317 148.172 859.335 147.143 859.335 145.872C859.335 144.602 858.317 143.573 857.06 143.573C855.803 143.573 854.785 144.602 854.785 145.872C854.785 147.143 855.803 148.172 857.06 148.172Z" fill="#E6E6E6"/>
<path d="M981.629 72.8513C982.885 72.8513 983.904 71.8216 983.904 70.5515C983.904 69.2813 982.885 68.2516 981.629 68.2516C980.372 68.2516 979.353 69.2813 979.353 70.5515C979.353 71.8216 980.372 72.8513 981.629 72.8513Z" fill="#E6E6E6"/>
<path d="M936.693 151.047C937.949 151.047 938.968 150.017 938.968 148.747C938.968 147.477 937.949 146.447 936.693 146.447C935.436 146.447 934.418 147.477 934.418 148.747C934.418 150.017 935.436 151.047 936.693 151.047Z" fill="#FFE600"/>
<path d="M892.326 38.9282C893.583 38.9282 894.601 37.8986 894.601 36.6284C894.601 35.3582 893.583 34.3285 892.326 34.3285C891.069 34.3285 890.051 35.3582 890.051 36.6284C890.051 37.8986 891.069 38.9282 892.326 38.9282Z" fill="#FFE600"/>
<path d="M841.133 161.971C842.39 161.971 843.409 160.942 843.409 159.671C843.409 158.401 842.39 157.372 841.133 157.372C839.877 157.372 838.858 158.401 838.858 159.671C838.858 160.942 839.877 161.971 841.133 161.971Z" fill="#FFE600"/>
<path d="M901.427 17.6543C902.683 17.6543 903.702 16.6246 903.702 15.3544C903.702 14.0843 902.683 13.0546 901.427 13.0546C900.17 13.0546 899.152 14.0843 899.152 15.3544C899.152 16.6246 900.17 17.6543 901.427 17.6543Z" fill="#ED1C24"/>
<path d="M947.057 15.8519V15.9094C946.549 21.15 944.898 26.2115 942.222 30.7292C941.237 32.3896 939.753 33.6879 937.986 34.4338C936.219 35.1798 934.262 35.3343 932.401 34.8747H932.387L932.242 34.8345C932.114 34.8086 931.98 34.7712 931.847 34.7339C931.668 34.6821 931.483 34.6218 931.298 34.5643H931.261C931.233 34.5583 931.205 34.5496 931.178 34.5384C930.937 34.455 930.695 34.363 930.445 34.2682C929.863 34.0362 929.293 33.7742 928.738 33.4833C928.579 33.3999 928.42 33.308 928.26 33.2188L928.243 33.2045C928.186 33.1786 928.121 33.1412 928.064 33.1096C927.847 32.428 927.683 31.7301 927.575 31.0225C927.105 28.4561 927.352 25.8083 928.286 23.3754C930.069 19.1465 934.91 15.2654 946.883 15.8577L947.057 15.8519Z" fill="#00602E"/>
<path d="M951.482 43.8154L951.394 43.8413C950.208 44.2265 937.174 48.2685 931.161 42.9788C930.2 42.0885 929.434 41.0035 928.915 39.7944C928.396 38.5854 928.134 37.2794 928.147 35.9613C928.13 35.5445 928.13 35.0989 928.147 34.6475C928.164 34.1962 928.192 33.7477 928.24 33.2705C928.236 33.2448 928.236 33.2186 928.24 33.1929V33.1095C928.24 33.0836 928.272 33.0779 928.343 33.0204C928.663 32.7404 928.997 32.4774 929.344 32.2327C929.896 31.8374 930.469 31.4737 931.062 31.1431C932.727 30.1107 934.629 29.5303 936.581 29.4583C938.534 29.3863 940.472 29.825 942.208 30.732C945.404 32.5029 948.672 36.3322 951.436 43.709L951.482 43.8154Z" fill="#00602E"/>
<path d="M931.07 31.1403C931.038 31.5187 930.985 31.895 930.911 32.2673C930.907 32.313 930.898 32.3582 930.885 32.4024C930.853 32.6146 930.808 32.8248 930.752 33.032C930.663 33.4419 930.557 33.8476 930.433 34.248L930.416 34.317C930.365 34.5125 930.302 34.6994 930.231 34.892C930.218 34.9468 930.201 35.0007 930.18 35.053C929.529 35.4031 928.852 35.702 928.155 35.947L927.302 36.2345C927.089 36.2981 926.875 36.3575 926.659 36.4128C925.121 36.8708 923.506 37.0015 921.916 36.7966C920.325 36.5917 918.794 36.0558 917.419 35.2226C914.131 33.0923 911.182 28.5156 909.985 19.411V19.3075C910.017 19.3099 910.049 19.3099 910.081 19.3075C911.253 19.2155 922.823 18.4249 928.306 23.3811C929.368 24.3406 930.177 25.5524 930.66 26.9071C931.142 28.2618 931.283 29.7167 931.07 31.1403Z" fill="#00602E"/>
<path d="M931.161 42.9731C930.362 44.8857 929.051 46.5352 927.376 47.7367C923.553 50.266 919.163 51.7844 914.609 52.1525C914.594 52.1551 914.579 52.1551 914.563 52.1525V52.1209C914.566 52.1037 914.566 52.0863 914.563 52.0691C914.254 47.782 914.638 43.4726 915.701 39.3106C916.099 37.8776 916.684 36.5048 917.442 35.2283C918.25 33.7505 919.466 32.5422 920.941 31.751C922.417 30.9597 924.088 30.6197 925.752 30.7723C925.849 30.7723 925.948 30.7723 926.056 30.7982C926.577 30.8344 927.095 30.9055 927.606 31.0109C927.891 31.0684 928.175 31.1345 928.479 31.2035C928.502 31.2084 928.524 31.2151 928.545 31.2237C928.704 31.2697 928.869 31.3157 929.014 31.3645C929.047 31.3714 929.079 31.3801 929.111 31.3904C929.301 31.4364 929.492 31.4996 929.68 31.56L930.112 31.7124H930.149L930.245 31.8906C930.291 31.9912 930.368 32.1407 930.45 32.3276C930.521 32.4685 930.595 32.6438 930.672 32.8422C930.704 32.8968 930.729 32.9546 930.749 33.0147C930.8 33.1354 930.857 33.2705 930.908 33.4114L931.099 33.9548L931.284 34.5297C931.303 34.5872 931.315 34.6476 931.335 34.7051C931.38 34.8517 931.426 35.0127 931.463 35.1737L931.534 35.4612C931.559 35.5618 931.596 35.717 931.616 35.8608C931.673 36.0908 931.719 36.3438 931.756 36.5881C932.149 38.7309 931.944 40.9422 931.161 42.9731Z" fill="#00602E"/>
<path d="M929.324 32.3821C929.324 32.3821 934.002 16.6021 950.592 30.0823C950.592 30.0679 935.979 47.0611 929.324 32.3821Z" fill="#ED1C24"/>
<path d="M929.438 32.48C929.438 32.48 945.615 30.4935 940.052 51.2527C940.052 51.2527 918.798 44.5256 929.438 32.48Z" fill="#ED1C24"/>
<path d="M929.805 34.7683C929.805 34.7683 913.608 32.9687 923.71 14.0436C923.71 14.0436 942.887 25.4941 929.805 34.7683Z" fill="#ED1C24"/>
<path d="M931.409 32.4799L931.389 32.6466C931.369 32.7415 931.352 32.8766 931.312 33.0433C931.289 33.2002 931.258 33.3557 931.218 33.5091C931.218 33.5579 931.198 33.6097 931.184 33.6614C931.161 33.7707 931.127 33.8943 931.096 34.015C931.065 34.1358 931.013 34.3198 930.962 34.4808L930.803 34.9695C930.803 35.0155 930.772 35.0643 930.757 35.1103C930.689 35.3116 930.607 35.5157 930.524 35.7227C930.479 35.8262 930.439 35.9297 930.391 36.0303C930.309 36.2244 930.222 36.4162 930.129 36.6053C929.36 38.2482 928.154 39.6419 926.645 40.63C925.173 41.5337 923.481 42.0064 921.759 41.9956C917.938 41.8164 914.222 40.6718 910.952 38.6665L910.909 38.6406V38.6148C912.778 35.5336 915.132 32.7808 917.877 30.4646C918.847 29.6887 919.914 29.0459 921.051 28.5528C922.316 27.9493 923.728 27.731 925.114 27.9245C926.501 28.1179 927.801 28.7148 928.858 29.6424C928.927 29.6928 928.993 29.7486 929.054 29.8091C929.393 30.093 929.712 30.4004 930.009 30.7291C930.183 30.9102 930.348 31.0971 930.513 31.304L930.547 31.35C930.635 31.4593 930.723 31.5685 930.8 31.6778C931.005 31.9221 931.195 32.1866 931.386 32.4626L931.409 32.4799Z" fill="#ED1C24"/>
<g opacity="0.3">
<path d="M929.324 32.3823C929.324 32.3823 934.002 16.6023 950.592 30.0824C950.592 30.068 935.979 47.0612 929.324 32.3823Z" fill="black"/>
<path d="M929.438 32.4801C929.438 32.4801 945.615 30.4936 940.052 51.2528C940.052 51.2528 918.798 44.5257 929.438 32.4801Z" fill="black"/>
<path d="M929.805 34.7683C929.805 34.7683 913.608 32.9687 923.71 14.0436C923.71 14.0436 942.887 25.4941 929.805 34.7683Z" fill="black"/>
<path d="M931.409 32.48L931.389 32.6467C931.369 32.7416 931.352 32.8767 931.312 33.0435C931.289 33.2003 931.258 33.3558 931.218 33.5092C931.218 33.558 931.198 33.6098 931.184 33.6615C931.161 33.7708 931.127 33.8944 931.096 34.0151C931.065 34.1359 931.013 34.3199 930.962 34.4809L930.803 34.9696C930.803 35.0156 930.772 35.0645 930.757 35.1105C930.689 35.3117 930.607 35.5158 930.524 35.7228C930.479 35.8263 930.439 35.9298 930.391 36.0304C930.309 36.2246 930.222 36.4163 930.129 36.6054C929.36 38.2483 928.154 39.642 926.645 40.6302C925.173 41.5338 923.481 42.0065 921.759 41.9957C917.938 41.8165 914.222 40.672 910.952 38.6666L910.909 38.6408V38.6149C912.778 35.5337 915.132 32.7809 917.877 30.4647C918.847 29.6889 919.914 29.046 921.051 28.5529C922.316 27.9495 923.728 27.7311 925.114 27.9246C926.501 28.1181 927.801 28.7149 928.858 29.6425C928.927 29.693 928.993 29.7487 929.054 29.8093C929.393 30.0931 929.712 30.4005 930.009 30.7292C930.183 30.9103 930.348 31.0972 930.513 31.3042L930.547 31.3502C930.635 31.4594 930.723 31.5687 930.8 31.6779C931.005 31.9223 931.195 32.1867 931.386 32.4627L931.409 32.48Z" fill="black"/>
</g>
<path d="M931.332 34.4895L931.312 35.1334H930.911C930.86 35.1306 930.809 35.1306 930.757 35.1334H928.65C926.844 35.1653 925.041 35.2948 923.249 35.5215C923.002 35.5445 922.754 35.5848 922.504 35.6164C918.545 36.1641 914.666 37.1931 910.952 38.681L910.909 38.6551V38.6292C914.619 37.0159 918.509 35.8614 922.493 35.1909L922.678 35.1651C924.394 34.8803 926.125 34.6884 927.862 34.5901C928.131 34.5647 928.4 34.5494 928.67 34.5441H928.69C928.784 34.5364 928.88 34.5364 928.974 34.5441C929.375 34.5182 929.771 34.5038 930.172 34.5038L930.187 34.4996L930.203 34.5038C930.247 34.4981 930.292 34.4981 930.337 34.5038C930.388 34.501 930.439 34.501 930.49 34.5038H930.974L931.332 34.4895ZM923.696 14.0695C924.303 17.7449 925.316 21.3399 926.716 24.7869C927.337 26.3389 928.035 27.8578 928.809 29.3377C929.127 29.9552 929.456 30.5667 929.796 31.1719C929.808 31.1832 929.816 31.1969 929.822 31.2121C929.995 31.514 930.172 31.8245 930.356 32.1206L930.541 32.4282C930.638 32.5949 930.74 32.7646 930.848 32.9313C930.962 33.1239 931.084 33.3165 931.212 33.5063C931.227 33.5331 931.244 33.5582 931.264 33.581L931.397 33.7938L931.471 33.9116L931.995 33.5494C931.904 33.4171 931.815 33.2839 931.727 33.1498C931.693 33.1038 931.662 33.052 931.631 33.0003C931.548 32.8853 931.471 32.7703 931.394 32.6553C931.343 32.5921 931.301 32.5202 931.255 32.4569L930.777 31.7037C930.702 31.5897 930.63 31.4738 930.561 31.3559C930.549 31.3376 930.536 31.3203 930.521 31.3041L930.089 30.5826C929.598 29.7597 929.13 28.9228 928.687 28.0728C928.143 27.049 927.635 26.0057 927.165 24.945C925.619 21.465 924.474 17.8168 923.753 14.0723L923.696 14.0695Z" fill="#7C1824"/>
<path d="M950.583 30.0593C947.003 29.4589 943.368 29.2564 939.745 29.4556H939.363C937.517 29.5676 935.678 29.7806 933.855 30.0938C933.127 30.2109 932.402 30.348 931.682 30.5049C931.275 30.5883 930.868 30.6803 930.464 30.7752L930.598 31.2898L930.624 31.399C930.709 31.3731 930.797 31.3559 930.88 31.3358C931.008 31.2984 931.136 31.2639 931.261 31.238C931.412 31.2006 931.565 31.1604 931.719 31.1288C932.33 30.9735 932.947 30.8413 933.564 30.7177C935.401 30.3374 937.257 30.06 939.125 29.8868C939.561 29.8402 939.998 29.8038 940.436 29.7776C943.801 29.5409 947.182 29.6575 950.523 30.1254L950.583 30.0593Z" fill="#7C1824"/>
<path d="M930.848 29.5964L930.669 30.2145C929.562 29.834 928.46 29.4362 927.364 29.0215C921.06 26.8497 915.172 23.5968 909.959 19.4051V19.3016C909.991 19.3041 910.024 19.3041 910.056 19.3016C914.167 22.4916 918.706 25.075 923.536 26.9746C924.791 27.4949 926.065 27.9923 927.345 28.4494C928.505 28.8595 929.673 29.2419 930.848 29.5964ZM947.057 15.8518V15.9093C942.925 18.9007 939.219 22.4506 936.042 26.46C935.046 27.677 934.082 28.9228 933.149 30.1973C932.538 31.0298 931.948 31.8772 931.377 32.7386L930.894 32.4109L930.843 32.3793L930.92 32.2758C931.316 31.7296 931.723 31.1738 932.142 30.6084C936.19 24.8775 941.176 19.8878 946.886 15.8547L947.057 15.8518Z" fill="#024C27"/>
<path d="M940.074 51.1607C937.751 45.5838 934.473 40.4648 930.391 36.039C929.964 35.5646 929.517 35.0932 929.065 34.6361L928.835 34.3975L928.687 34.5527L928.403 34.8689C928.997 35.4439 929.583 36.0189 930.143 36.5938C934.257 40.8543 937.606 45.8058 940.04 51.2268L940.074 51.1607Z" fill="#7C1824"/>
<path d="M951.482 43.8154L951.394 43.8412C946.956 40.782 942.086 38.4199 936.949 36.8353C934.735 36.0985 932.491 35.4587 930.223 34.9177L929.472 34.751L929.606 34.1185L930.416 34.337L931.249 34.5641H931.286C931.656 34.6877 932.02 34.7912 932.376 34.8746H932.39C939.221 36.6207 945.678 39.6137 951.445 43.7061L951.482 43.8154Z" fill="#024C27"/>
<path d="M940.569 17.9419V17.9793L930.368 32.9658C930.368 32.9658 922.948 21.2825 940.569 17.9419Z" fill="#ED1C24"/>
<path opacity="0.1" d="M940.569 17.9419V17.9793L930.368 32.9658C930.368 32.9658 922.948 21.2825 940.569 17.9419Z" fill="black"/>
<path d="M930.368 32.9657L940.572 17.9906C940.703 18.9307 942.95 36.611 930.368 32.9657Z" fill="#ED1C24"/>
<path d="M930.211 30.4244L929.677 31.56L929.352 32.2269C929.153 32.6352 928.949 33.052 928.732 33.4717C928.516 33.8915 928.34 34.2508 928.135 34.6475C927.862 35.1669 927.578 35.6949 927.282 36.2316C924.242 42.4128 919.901 47.8468 914.564 52.1525V52.1208C914.566 52.1037 914.566 52.0862 914.564 52.0691C919.42 47.9821 923.389 42.9262 926.224 37.2177C926.369 36.9532 926.508 36.6887 926.651 36.4184C927.197 35.3835 927.725 34.3342 928.235 33.2705C928.247 33.2531 928.255 33.2336 928.26 33.213C928.297 33.1543 928.328 33.0916 928.351 33.0261C928.607 32.4914 928.856 31.95 929.097 31.4019C929.281 31.0051 929.452 30.5911 929.626 30.1858L930.211 30.4244Z" fill="#024C27"/>
<path d="M947.406 37.4908L947.372 37.5081L930.024 32.7358C930.024 32.7358 938.459 21.7884 947.406 37.4908Z" fill="#ED1C24"/>
<path opacity="0.1" d="M947.406 37.4908L947.372 37.5081L930.024 32.7358C930.024 32.7358 938.459 21.7884 947.406 37.4908Z" fill="black"/>
<path d="M930.012 32.7358L947.361 37.5081C946.539 37.9422 930.78 45.9544 930.012 32.7358Z" fill="#ED1C24"/>
<path d="M921.48 47.9266V47.8892L930.325 32.0546C930.325 32.0546 938.741 43.0221 921.48 47.9266Z" fill="#ED1C24"/>
<path opacity="0.1" d="M921.48 47.9266V47.8892L930.325 32.0546C930.325 32.0546 938.741 43.0221 921.48 47.9266Z" fill="black"/>
<path d="M930.319 32.0545L921.475 47.8892C921.261 46.9778 917.456 29.5563 930.319 32.0545Z" fill="#ED1C24"/>
<path d="M913.744 26.069H913.779L930.436 32.9255C930.436 32.9255 920.738 42.7546 913.744 26.069Z" fill="#ED1C24"/>
<path opacity="0.1" d="M913.744 26.069H913.779L930.436 32.9255C930.436 32.9255 920.738 42.7546 913.744 26.069Z" fill="black"/>
<path d="M930.436 32.9255L913.779 26.0575C914.66 25.7268 931.264 19.7098 930.436 32.9255Z" fill="#ED1C24"/>
<path d="M930.402 32.1981C930.93 32.1981 931.358 31.7657 931.358 31.2322C931.358 30.6987 930.93 30.2662 930.402 30.2662C929.874 30.2662 929.446 30.6987 929.446 31.2322C929.446 31.7657 929.874 32.1981 930.402 32.1981Z" fill="#FFE600"/>
<path opacity="0.15" d="M930.402 32.1981C930.93 32.1981 931.358 31.7657 931.358 31.2322C931.358 30.6987 930.93 30.2662 930.402 30.2662C929.874 30.2662 929.446 30.6987 929.446 31.2322C929.446 31.7657 929.874 32.1981 930.402 32.1981Z" fill="black"/>
<path d="M930.339 34.2565C930.902 34.2565 931.358 33.7957 931.358 33.2273C931.358 32.6589 930.902 32.1981 930.339 32.1981C929.777 32.1981 929.321 32.6589 929.321 33.2273C929.321 33.7957 929.777 34.2565 930.339 34.2565Z" fill="#FFE600"/>
<path opacity="0.15" d="M930.339 34.2565C930.902 34.2565 931.358 33.7957 931.358 33.2273C931.358 32.6589 930.902 32.1981 930.339 32.1981C929.777 32.1981 929.321 32.6589 929.321 33.2273C929.321 33.7957 929.777 34.2565 930.339 34.2565Z" fill="black"/>
<path d="M931.676 33.098C932.133 33.098 932.504 32.7234 932.504 32.2614C932.504 31.7994 932.133 31.4248 931.676 31.4248C931.219 31.4248 930.848 31.7994 930.848 32.2614C930.848 32.7234 931.219 33.098 931.676 33.098Z" fill="#FFE600"/>
<path opacity="0.1" d="M931.676 33.098C932.133 33.098 932.504 32.7234 932.504 32.2614C932.504 31.7994 932.133 31.4248 931.676 31.4248C931.219 31.4248 930.848 31.7994 930.848 32.2614C930.848 32.7234 931.219 33.098 931.676 33.098Z" fill="black"/>
<path d="M930.371 32.3246C930.669 32.3246 930.911 32.0801 930.911 31.7784C930.911 31.4767 930.669 31.2322 930.371 31.2322C930.072 31.2322 929.83 31.4767 929.83 31.7784C929.83 32.0801 930.072 32.3246 930.371 32.3246Z" fill="#FFE600"/>
<path d="M930.752 33.1612C931.05 33.1612 931.292 32.9166 931.292 32.6149C931.292 32.3133 931.05 32.0687 930.752 32.0687C930.453 32.0687 930.211 32.3133 930.211 32.6149C930.211 32.9166 930.453 33.1612 930.752 33.1612Z" fill="#FFE600"/>
<path opacity="0.2" d="M930.911 32.293C930.911 32.4379 930.854 32.5768 930.753 32.6792C930.651 32.7817 930.514 32.8392 930.371 32.8392C930.333 32.8422 930.295 32.8422 930.257 32.8392C930.224 32.7733 930.209 32.7001 930.211 32.6265C930.211 32.4816 930.268 32.3427 930.37 32.2402C930.471 32.1378 930.608 32.0802 930.752 32.0802C930.791 32.0774 930.83 32.0774 930.868 32.0802C930.899 32.1469 930.913 32.2197 930.911 32.293Z" fill="white"/>
<path d="M929 33.098C929.457 33.098 929.827 32.7234 929.827 32.2614C929.827 31.7994 929.457 31.4248 929 31.4248C928.543 31.4248 928.172 31.7994 928.172 32.2614C928.172 32.7234 928.543 33.098 929 33.098Z" fill="#FFE600"/>
<path opacity="0.1" d="M929 33.098C929.457 33.098 929.827 32.7234 929.827 32.2614C929.827 31.7994 929.457 31.4248 929 31.4248C928.543 31.4248 928.172 31.7994 928.172 32.2614C928.172 32.7234 928.543 33.098 929 33.098Z" fill="black"/>
<path opacity="0.2" d="M930.658 31.5198C930.658 31.592 930.644 31.6636 930.617 31.7304C930.59 31.7972 930.55 31.8579 930.5 31.9089C930.449 31.96 930.389 32.0004 930.323 32.0279C930.257 32.0553 930.186 32.0693 930.115 32.0689C930.035 32.0693 929.957 32.0495 929.887 32.0114C929.848 31.9401 929.829 31.8598 929.83 31.7785C929.83 31.6337 929.887 31.4947 929.989 31.3923C930.09 31.2899 930.227 31.2323 930.371 31.2323C930.41 31.221 930.452 31.2206 930.491 31.231C930.531 31.2415 930.567 31.2624 930.596 31.2917C930.625 31.321 930.646 31.3576 930.656 31.3977C930.667 31.4378 930.669 31.4799 930.658 31.5198Z" fill="white"/>
<path d="M929.799 33.032C930.097 33.032 930.339 32.7875 930.339 32.4858C930.339 32.1841 930.097 31.9396 929.799 31.9396C929.501 31.9396 929.259 32.1841 929.259 32.4858C929.259 32.7875 929.501 33.032 929.799 33.032Z" fill="#FFE600"/>
<path opacity="0.2" d="M929.893 32.1637C929.893 32.2357 929.88 32.307 929.853 32.3736C929.826 32.4402 929.786 32.5007 929.736 32.5518C929.685 32.6028 929.626 32.6433 929.56 32.6709C929.494 32.6986 929.424 32.7128 929.352 32.7128C929.338 32.7171 929.322 32.7171 929.307 32.7128C929.274 32.6448 929.256 32.5701 929.256 32.4943C929.256 32.3494 929.313 32.2105 929.414 32.1081C929.515 32.0056 929.653 31.9481 929.796 31.9481C929.811 31.945 929.827 31.945 929.842 31.9481C929.874 32.0153 929.892 32.0889 929.893 32.1637Z" fill="white"/>
<path d="M848.084 64.3101V64.3676C847.577 69.6082 845.926 74.6699 843.249 79.1874C842.265 80.8481 840.781 82.1466 839.014 82.8926C837.246 83.6386 835.289 83.7929 833.429 83.3329H833.403L833.258 83.2955C833.13 83.2697 832.997 83.2294 832.863 83.192L832.317 83.0253H832.28C832.251 83.0206 832.224 83.0119 832.197 82.9994C831.951 82.9143 831.706 82.8242 831.464 82.7292C830.882 82.4972 830.312 82.2353 829.757 81.9444C829.598 81.861 829.439 81.769 829.279 81.6799H829.262C829.206 81.654 829.14 81.6138 829.083 81.5821C828.866 80.9005 828.702 80.2026 828.594 79.495C828.125 76.9287 828.371 74.2809 829.305 71.8479C831.088 67.619 835.929 63.738 847.902 64.3302L848.084 64.3101Z" fill="#00602E"/>
<path d="M852.51 92.2622L852.421 92.2881C851.235 92.6733 838.201 96.7154 832.189 91.4256C831.231 90.5353 830.47 89.4516 829.953 88.2447C829.436 87.0378 829.175 85.7347 829.188 84.4197C829.171 84.0028 829.171 83.5572 829.188 83.1087C829.206 82.6602 829.234 82.206 829.282 81.7288C829.278 81.7041 829.278 81.6788 829.282 81.6541V81.5678C829.282 81.5419 829.314 81.5362 829.385 81.4787C829.705 81.1999 830.039 80.9379 830.386 80.6939C830.937 80.2971 831.51 79.9333 832.104 79.6043C833.769 78.5718 835.67 77.9915 837.623 77.9195C839.576 77.8475 841.514 78.2862 843.249 79.1932C846.446 80.9641 849.714 84.7934 852.478 92.1702L852.51 92.2622Z" fill="#00602E"/>
<path d="M832.098 79.5987C832.066 79.9771 832.013 80.3533 831.939 80.7256C831.934 80.7714 831.926 80.8166 831.913 80.8607C831.88 81.0739 831.836 81.2851 831.779 81.4932C831.691 81.9031 831.585 82.3088 831.461 82.7093L831.444 82.7811C831.393 82.9737 831.33 83.1606 831.259 83.3561C831.246 83.411 831.229 83.4648 831.208 83.5171C830.557 83.8687 829.88 84.1676 829.183 84.4112L828.33 84.6986C828.116 84.7622 827.902 84.8216 827.687 84.8769C826.149 85.3349 824.534 85.4656 822.943 85.2607C821.353 85.0559 819.822 84.5199 818.447 83.6867C815.159 81.5564 812.21 76.9797 811.012 67.8751V67.7716C811.044 67.774 811.077 67.774 811.109 67.7716C812.281 67.6796 823.85 66.889 829.333 71.8452C830.395 72.8041 831.203 74.015 831.686 75.3686C832.168 76.7222 832.31 78.1759 832.098 79.5987Z" fill="#00602E"/>
<path d="M832.189 91.4316C831.389 93.3441 830.079 94.9936 828.403 96.1952C824.58 98.7204 820.19 100.235 815.637 100.599C815.622 100.602 815.606 100.602 815.591 100.599V100.568C815.593 100.551 815.593 100.533 815.591 100.516C815.281 96.229 815.666 91.9195 816.729 87.7575C817.127 86.3246 817.712 84.9517 818.469 83.6752C819.276 82.2058 820.487 81.0042 821.955 80.2159C823.424 79.4276 825.086 79.0864 826.743 79.2336C826.844 79.2356 826.946 79.2442 827.047 79.2595C827.568 79.2933 828.086 79.3634 828.597 79.4694C828.881 79.5297 829.166 79.593 829.47 79.6648C829.492 79.6686 829.514 79.6743 829.535 79.6821C829.695 79.7281 829.86 79.7741 830.005 79.8258C830.038 79.83 830.07 79.8387 830.101 79.8517C830.292 79.8948 830.482 79.961 830.67 80.0184L831.102 80.1737H831.139L831.236 80.3519C831.282 80.4554 831.358 80.602 831.441 80.7889C831.512 80.9298 831.586 81.1051 831.663 81.3035C831.695 81.3589 831.72 81.4177 831.74 81.4789C831.791 81.5996 831.848 81.7347 831.899 81.8785C831.95 82.0222 832.027 82.2321 832.089 82.4189L832.274 82.9939L832.325 83.1664C832.371 83.313 832.416 83.474 832.453 83.635L832.524 83.9225C832.55 84.0231 832.587 84.1812 832.607 84.3221C832.664 84.5521 832.709 84.8051 832.746 85.0494C833.151 87.1878 832.958 89.398 832.189 91.4316Z" fill="#00602E"/>
<path d="M830.352 80.8406C830.352 80.8406 835.03 65.0635 851.619 78.5407C851.619 78.5263 837.007 95.5224 830.352 80.8406Z" fill="#ED1C24"/>
<path d="M830.465 80.9412C830.465 80.9412 846.642 78.9547 841.079 99.711C841.079 99.711 819.826 92.9753 830.465 80.9412Z" fill="#ED1C24"/>
<path d="M830.832 83.2267C830.832 83.2267 814.636 81.427 824.738 62.502C824.738 62.502 843.915 73.9524 830.832 83.2267Z" fill="#ED1C24"/>
<path d="M832.436 80.9382L832.416 81.105C832.397 81.1998 832.379 81.335 832.34 81.5046C832.317 81.6605 832.285 81.815 832.246 81.9674C832.237 82.0197 832.226 82.0716 832.212 82.1227C832.189 82.2319 832.155 82.3527 832.124 82.4763C832.092 82.5999 832.041 82.7781 831.99 82.9391L831.831 83.4278C831.831 83.4738 831.799 83.5256 831.785 83.5687C831.717 83.77 831.634 83.9741 831.552 84.1811C831.506 84.2846 831.467 84.388 831.418 84.4915C831.336 84.6857 831.249 84.8774 831.157 85.0665C830.387 86.7086 829.181 88.1021 827.673 89.0913C826.201 89.9962 824.509 90.469 822.787 90.4568C818.965 90.2791 815.249 89.1344 811.979 87.1278L811.937 87.1019V87.076C813.806 83.9948 816.159 81.242 818.904 78.9258C819.876 78.151 820.943 77.5074 822.078 77.0112C823.344 76.4077 824.756 76.1894 826.142 76.3828C827.528 76.5763 828.829 77.1732 829.885 78.1008C829.953 78.1529 830.019 78.2086 830.081 78.2675C830.421 78.5513 830.74 78.8587 831.037 79.1875C831.211 79.3686 831.376 79.5554 831.54 79.7624L831.575 79.8084C831.663 79.9177 831.751 80.0269 831.828 80.1362C832.032 80.3805 832.223 80.645 832.414 80.921L832.436 80.9382Z" fill="#ED1C24"/>
<g opacity="0.3">
<path d="M830.352 80.8406C830.352 80.8406 835.03 65.0635 851.619 78.5407C851.619 78.5263 837.007 95.5224 830.352 80.8406Z" fill="black"/>
<path d="M830.465 80.9412C830.465 80.9412 846.642 78.9547 841.079 99.711C841.079 99.711 819.826 92.9753 830.465 80.9412Z" fill="black"/>
<path d="M830.832 83.2268C830.832 83.2268 814.636 81.4272 824.738 62.5021C824.738 62.5021 843.915 73.9526 830.832 83.2268Z" fill="black"/>
<path d="M832.436 80.9382L832.416 81.105C832.397 81.1998 832.379 81.335 832.34 81.5046C832.317 81.6605 832.285 81.815 832.246 81.9674C832.237 82.0197 832.226 82.0716 832.212 82.1227C832.189 82.2319 832.155 82.3527 832.124 82.4763C832.092 82.5999 832.041 82.7781 831.99 82.9391L831.831 83.4278C831.831 83.4738 831.799 83.5256 831.785 83.5687C831.717 83.77 831.634 83.9741 831.552 84.1811C831.506 84.2846 831.467 84.388 831.418 84.4915C831.336 84.6857 831.249 84.8774 831.157 85.0665C830.387 86.7086 829.181 88.1021 827.673 89.0913C826.201 89.9962 824.509 90.469 822.787 90.4568C818.965 90.2791 815.249 89.1344 811.979 87.1278L811.937 87.1019V87.076C813.806 83.9948 816.159 81.242 818.904 78.9258C819.876 78.151 820.943 77.5074 822.078 77.0112C823.344 76.4077 824.756 76.1894 826.142 76.3828C827.528 76.5763 828.829 77.1732 829.885 78.1008C829.953 78.1529 830.019 78.2086 830.081 78.2675C830.421 78.5513 830.74 78.8587 831.037 79.1875C831.211 79.3686 831.376 79.5554 831.54 79.7624L831.575 79.8084C831.663 79.9177 831.751 80.0269 831.828 80.1362C832.032 80.3805 832.223 80.645 832.414 80.921L832.436 80.9382Z" fill="black"/>
</g>
<path d="M832.36 82.9478L832.34 83.5918H831.939C831.888 83.5875 831.836 83.5875 831.785 83.5918H829.678C829.302 83.5918 828.932 83.5918 828.563 83.6263C827.141 83.6838 825.699 83.7987 824.277 83.9799C824.029 84.0057 823.782 84.0431 823.532 84.0747C819.573 84.6238 815.694 85.6527 811.979 87.1393L811.937 87.1134V87.0876C815.647 85.4781 819.537 84.3275 823.52 83.6608C823.583 83.6608 823.64 83.6435 823.705 83.6378C825.422 83.353 827.153 83.1611 828.89 83.0628C829.157 83.0369 829.43 83.0254 829.698 83.0168H829.717C829.812 83.0106 829.907 83.0106 830.002 83.0168C830.403 82.9909 830.798 82.9765 831.199 82.9765L831.215 82.9723L831.23 82.9765C831.275 82.9708 831.32 82.9708 831.364 82.9765C831.415 82.9737 831.467 82.9737 831.518 82.9765H832.001L832.36 82.9478ZM824.723 62.5278C825.33 66.2033 826.343 69.7982 827.744 73.2452C828.364 74.7972 829.063 76.3162 829.837 77.7961C830.156 78.4139 830.485 79.0263 830.824 79.6331C830.835 79.6433 830.844 79.6562 830.849 79.6705C831.023 79.9723 831.199 80.2828 831.384 80.5789L831.569 80.8865C831.666 81.0561 831.768 81.2229 831.876 81.3896C831.99 81.5822 832.112 81.7749 832.24 81.9646C832.254 81.9924 832.271 82.0184 832.291 82.0422L832.425 82.255L832.499 82.3699L833.022 82.0077C832.897 81.8292 832.776 81.648 832.658 81.4644L832.422 81.1165C832.371 81.0533 832.328 80.9814 832.283 80.9182L831.805 80.1649C831.73 80.051 831.658 79.935 831.589 79.8171C831.576 79.7936 831.561 79.7714 831.543 79.751L831.111 79.0294C830.619 78.2069 830.152 77.37 829.709 76.5196C829.165 75.4958 828.657 74.4525 828.187 73.3918C826.641 69.9118 825.496 66.2636 824.775 62.5192L824.723 62.5278Z" fill="#7C1824"/>
<path d="M851.611 78.5178C848.03 77.9187 844.396 77.7163 840.772 77.914H840.391C838.545 78.0274 836.706 78.2405 834.882 78.5523C834.41 78.6299 833.947 78.7132 833.474 78.811C832.811 78.9365 832.15 79.0774 831.492 79.2336L831.626 79.7511L831.651 79.8632C831.737 79.8373 831.825 79.8172 831.907 79.7971C832.035 79.7597 832.163 79.7281 832.288 79.7022C832.439 79.6648 832.593 79.6246 832.746 79.5929C833.358 79.4406 833.975 79.3055 834.592 79.1818C836.429 78.803 838.285 78.5256 840.152 78.351C840.588 78.3044 841.025 78.268 841.463 78.2418C844.829 78.0051 848.209 78.1217 851.551 78.5896L851.611 78.5178Z" fill="#7C1824"/>
<path d="M831.876 78.0547L831.697 78.6728C830.589 78.2932 829.488 77.8965 828.392 77.4826C822.088 75.3087 816.2 72.0548 810.987 67.8634V67.7599C811.019 67.7623 811.051 67.7623 811.083 67.7599C815.194 70.9509 819.733 73.5344 824.564 75.4328C825.818 75.9532 827.092 76.4505 828.372 76.9076C829.533 77.3178 830.701 77.7001 831.876 78.0547ZM848.084 64.3101V64.3676C843.953 67.3589 840.247 70.9089 837.069 74.9182C836.074 76.1372 835.11 77.3829 834.177 78.6555C833.566 79.4881 832.975 80.3354 832.405 81.1969L831.922 80.8692L831.87 80.8375L831.947 80.734C832.343 80.1878 832.751 79.632 833.17 79.0666C837.217 73.3357 842.204 68.346 847.914 64.3129L848.084 64.3101Z" fill="#024C27"/>
<path d="M841.102 99.6218C838.779 94.0446 835.501 88.9256 831.418 84.5002C830.916 83.9377 830.397 83.3902 829.862 82.8586L829.715 83.011L829.43 83.3272C830.025 83.9022 830.61 84.4772 831.171 85.0521C835.285 89.311 838.634 94.2617 841.068 99.6822L841.102 99.6218Z" fill="#7C1824"/>
<path d="M852.51 92.2621L852.421 92.288C847.984 89.2298 843.114 86.8686 837.977 85.2849C836.168 84.684 834.333 84.135 832.493 83.6664C832.078 83.5657 831.666 83.4622 831.25 83.3789L830.5 83.2006L830.633 82.571C830.901 82.64 831.168 82.7119 831.444 82.7895C831.72 82.8671 831.996 82.9361 832.277 83.0138H832.314C832.684 83.1345 833.048 83.238 833.403 83.3214H833.418C840.248 85.0675 846.706 88.0605 852.473 92.1529L852.51 92.2621Z" fill="#024C27"/>
<path d="M841.597 66.4116V66.449L831.395 81.424C831.395 81.424 823.975 69.7407 841.597 66.4116Z" fill="#ED1C24"/>
<path opacity="0.1" d="M841.597 66.4116V66.449L831.395 81.424C831.395 81.424 823.975 69.7407 841.597 66.4116Z" fill="black"/>
<path d="M831.395 81.424L841.6 66.449C841.731 67.389 843.977 85.0693 831.395 81.424Z" fill="#ED1C24"/>
<path d="M831.239 78.8886C830.957 79.4917 830.671 80.0926 830.38 80.6911C830.181 81.0964 829.976 81.5133 829.76 81.933C829.544 82.3528 829.368 82.7121 829.163 83.1117C828.89 83.6311 828.605 84.1591 828.31 84.6957C825.267 90.8744 820.924 96.3054 815.585 100.608V100.576C815.588 100.559 815.588 100.542 815.585 100.525C820.447 96.4391 824.421 91.3831 827.26 85.6732C827.405 85.4087 827.545 85.1442 827.687 84.874C828.233 83.839 828.761 82.7849 829.271 81.7117C829.283 81.6943 829.292 81.6748 829.297 81.6542C829.334 81.5958 829.365 81.5331 829.388 81.4673C829.644 80.9326 829.892 80.3921 830.133 79.8459C830.318 79.4463 830.488 79.0323 830.662 78.627L831.239 78.8886Z" fill="#024C27"/>
<path d="M848.434 85.9519H848.4L831.051 81.1797C831.051 81.1797 839.487 70.2467 848.434 85.9519Z" fill="#ED1C24"/>
<path opacity="0.1" d="M848.434 85.9519H848.4L831.051 81.1797C831.051 81.1797 839.487 70.2467 848.434 85.9519Z" fill="black"/>
<path d="M831.04 81.1884L848.389 85.9606C847.567 86.4004 831.808 94.4126 831.04 81.1884Z" fill="#ED1C24"/>
<path d="M822.508 96.3876V96.3474L831.353 80.5156C831.353 80.5156 839.768 91.4803 822.508 96.3876Z" fill="#ED1C24"/>
<path opacity="0.1" d="M822.508 96.3876V96.3474L831.353 80.5156C831.353 80.5156 839.768 91.4803 822.508 96.3876Z" fill="black"/>
<path d="M831.347 80.5156L822.502 96.3474C822.289 95.4245 818.484 78.026 831.347 80.5156Z" fill="#ED1C24"/>
<path d="M814.772 74.5272H814.806L831.464 81.3837C831.464 81.3837 821.766 91.2128 814.772 74.5272Z" fill="#ED1C24"/>
<path opacity="0.1" d="M814.772 74.5272H814.806L831.464 81.3837C831.464 81.3837 821.766 91.2128 814.772 74.5272Z" fill="black"/>
<path d="M831.464 81.384L814.806 74.516C815.688 74.1854 832.291 68.1712 831.464 81.384Z" fill="#ED1C24"/>
<path d="M831.43 80.6565C831.957 80.6565 832.385 80.224 832.385 79.6906C832.385 79.1571 831.957 78.7246 831.43 78.7246C830.902 78.7246 830.474 79.1571 830.474 79.6906C830.474 80.224 830.902 80.6565 831.43 80.6565Z" fill="#FFE600"/>
<path opacity="0.15" d="M831.43 80.6565C831.957 80.6565 832.385 80.224 832.385 79.6906C832.385 79.1571 831.957 78.7246 831.43 78.7246C830.902 78.7246 830.474 79.1571 830.474 79.6906C830.474 80.224 830.902 80.6565 831.43 80.6565Z" fill="black"/>
<path d="M831.367 82.7148C831.929 82.7148 832.385 82.254 832.385 81.6856C832.385 81.1172 831.929 80.6564 831.367 80.6564C830.805 80.6564 830.349 81.1172 830.349 81.6856C830.349 82.254 830.805 82.7148 831.367 82.7148Z" fill="#FFE600"/>
<path opacity="0.15" d="M831.367 82.7148C831.929 82.7148 832.385 82.254 832.385 81.6856C832.385 81.1172 831.929 80.6564 831.367 80.6564C830.805 80.6564 830.349 81.1172 830.349 81.6856C830.349 82.254 830.805 82.7148 831.367 82.7148Z" fill="black"/>
<path d="M832.704 81.5563C833.161 81.5563 833.531 81.1818 833.531 80.7198C833.531 80.2577 833.161 79.8832 832.704 79.8832C832.247 79.8832 831.876 80.2577 831.876 80.7198C831.876 81.1818 832.247 81.5563 832.704 81.5563Z" fill="#FFE600"/>
<path opacity="0.1" d="M832.704 81.5563C833.161 81.5563 833.531 81.1818 833.531 80.7198C833.531 80.2577 833.161 79.8832 832.704 79.8832C832.247 79.8832 831.876 80.2577 831.876 80.7198C831.876 81.1818 832.247 81.5563 832.704 81.5563Z" fill="black"/>
<path d="M831.398 80.783C831.697 80.783 831.939 80.5384 831.939 80.2368C831.939 79.9351 831.697 79.6906 831.398 79.6906C831.1 79.6906 830.858 79.9351 830.858 80.2368C830.858 80.5384 831.1 80.783 831.398 80.783Z" fill="#FFE600"/>
<path d="M831.779 81.6195C832.078 81.6195 832.32 81.375 832.32 81.0733C832.32 80.7716 832.078 80.5271 831.779 80.5271C831.481 80.5271 831.239 80.7716 831.239 81.0733C831.239 81.375 831.481 81.6195 831.779 81.6195Z" fill="#FFE600"/>
<path opacity="0.2" d="M831.939 80.7515C831.939 80.8235 831.925 80.8948 831.898 80.9614C831.871 81.028 831.832 81.0886 831.781 81.1396C831.731 81.1906 831.671 81.2311 831.606 81.2587C831.54 81.2864 831.469 81.3006 831.398 81.3006C831.36 81.2988 831.322 81.294 831.285 81.2862C831.252 81.2203 831.236 81.1471 831.239 81.0735C831.239 81.0018 831.253 80.9307 831.28 80.8645C831.307 80.7982 831.347 80.738 831.397 80.6873C831.447 80.6365 831.507 80.5963 831.573 80.5688C831.638 80.5414 831.708 80.5273 831.779 80.5273C831.818 80.5244 831.857 80.5244 831.896 80.5273C831.928 80.5974 831.943 80.6744 831.939 80.7515Z" fill="white"/>
<path d="M830.027 81.5563C830.485 81.5563 830.855 81.1818 830.855 80.7198C830.855 80.2577 830.485 79.8832 830.027 79.8832C829.57 79.8832 829.2 80.2577 829.2 80.7198C829.2 81.1818 829.57 81.5563 830.027 81.5563Z" fill="#FFE600"/>
<path opacity="0.1" d="M830.027 81.5563C830.485 81.5563 830.855 81.1818 830.855 80.7198C830.855 80.2577 830.485 79.8832 830.027 79.8832C829.57 79.8832 829.2 80.2577 829.2 80.7198C829.2 81.1818 829.57 81.5563 830.027 81.5563Z" fill="black"/>
<path opacity="0.2" d="M831.686 79.9809C831.686 80.0529 831.671 80.1241 831.644 80.1906C831.617 80.2571 831.577 80.3174 831.526 80.3682C831.476 80.4189 831.416 80.4591 831.35 80.4864C831.284 80.5137 831.214 80.5275 831.142 80.5271C831.063 80.5275 830.985 80.5077 830.915 80.4696C830.876 80.3984 830.856 80.3181 830.858 80.2368C830.858 80.0919 830.915 79.953 831.016 79.8505C831.118 79.7481 831.255 79.6906 831.398 79.6906C831.478 79.6902 831.556 79.71 831.626 79.7481C831.666 79.8189 831.686 79.8993 831.686 79.9809Z" fill="white"/>
<path d="M830.827 81.4903C831.125 81.4903 831.367 81.2457 831.367 80.944C831.367 80.6424 831.125 80.3978 830.827 80.3978C830.528 80.3978 830.286 80.6424 830.286 80.944C830.286 81.2457 830.528 81.4903 830.827 81.4903Z" fill="#FFE600"/>
<path opacity="0.2" d="M830.92 80.6134C830.92 80.7583 830.864 80.8972 830.762 80.9996C830.661 81.1021 830.523 81.1596 830.38 81.1596C830.365 81.1626 830.35 81.1626 830.335 81.1596C830.302 81.0905 830.284 81.015 830.283 80.9383C830.283 80.7934 830.34 80.6545 830.442 80.552C830.543 80.4496 830.68 80.392 830.824 80.392C830.839 80.389 830.854 80.389 830.869 80.392C830.902 80.4611 830.92 80.5367 830.92 80.6134Z" fill="white"/>
<path d="M919.629 157.372C919.523 160.384 918.62 163.313 917.012 165.852C916.614 166.414 916.112 166.893 915.533 167.261C915.306 167.405 915.078 167.52 914.851 167.635C913.657 168.184 912.356 168.451 911.045 168.416C909.734 168.381 908.449 168.045 907.286 167.434L907.342 167.52L908.253 169.561L915.533 186.12L903.645 176.863L898.583 165.421L898.043 164.185L897.616 165.162L897.502 165.421L892.44 176.863L880.58 186.12L887.719 170.021L888.657 167.865L888.856 167.405C888.727 167.469 888.594 167.527 888.458 167.577C887.791 167.851 887.107 168.081 886.41 168.267C877.651 171.717 876.399 160.304 876.399 157.458V157.372C876.477 154.208 877.476 151.138 879.272 148.546C879.725 148.124 880.232 147.766 880.779 147.482C881.611 147.028 882.516 146.726 883.453 146.591C883.534 146.558 883.621 146.539 883.709 146.533C885.273 146.311 886.867 146.53 888.316 147.166C888.344 147.166 888.344 147.195 888.373 147.195C888.783 147.386 889.173 147.617 889.539 147.885C889.681 147.971 898.014 154.842 898.014 154.842C898.014 154.842 906.688 147.712 907.058 147.54C907.618 147.208 908.221 146.956 908.85 146.792C909.052 146.724 909.263 146.685 909.476 146.677C910.716 146.428 911.993 146.438 913.23 146.706C914.241 146.905 915.196 147.332 916.023 147.954C916.85 148.576 917.528 149.377 918.008 150.299C918.86 152.573 919.405 154.951 919.629 157.372Z" fill="#ED1C24"/>
<path d="M902.516 160.028C901.219 158.732 901.706 157.027 903.466 155.96C906.811 153.948 912.672 150.786 914.211 152.712C916.398 155.431 916.398 164.271 912.024 164.271C908.472 163.982 905.121 162.487 902.516 160.028ZM893.279 160.028C894.61 158.732 894.109 157.027 892.306 155.96C888.876 153.948 882.861 150.786 881.285 152.712C879.042 155.431 879.042 164.271 883.527 164.271C887.153 163.991 890.584 162.498 893.279 160.028Z" fill="#C1272D"/>
<path opacity="0.1" d="M902.516 160.028C901.219 158.732 901.706 157.027 903.466 155.96C906.811 153.948 912.672 150.786 914.211 152.712C916.398 155.431 916.398 164.271 912.024 164.271C908.472 163.982 905.121 162.487 902.516 160.028ZM893.279 160.028C894.61 158.732 894.109 157.027 892.306 155.96C888.876 153.948 882.861 150.786 881.285 152.712C879.042 155.431 879.042 164.271 883.527 164.271C887.153 163.991 890.584 162.498 893.279 160.028Z" fill="black"/>
<path d="M915.533 186.12L903.645 176.863L900.176 169.015L898.042 164.185L895.909 169.044L892.44 176.863L880.58 186.12L886.695 172.263L888.657 167.865L888.856 167.405L898.014 162.546L907.342 167.52L909.362 172.12L915.533 186.12Z" fill="#C1272D"/>
<path opacity="0.3" d="M843.977 133.798C842.937 134.552 841.706 134.993 840.427 135.07C839.149 135.146 837.875 134.855 836.754 134.229C836.639 133.613 836.582 132.987 836.583 132.36C836.583 129.997 837.512 127.73 839.165 126.059C840.819 124.387 843.061 123.448 845.399 123.448C845.627 123.444 845.855 123.453 846.082 123.477C847.08 125.15 847.418 127.141 847.028 129.054C846.638 130.967 845.548 132.661 843.977 133.798Z" fill="white"/>
<path d="M840.565 133.223C841.821 133.223 842.84 132.193 842.84 130.923C842.84 129.653 841.821 128.623 840.565 128.623C839.308 128.623 838.289 129.653 838.289 130.923C838.289 132.193 839.308 133.223 840.565 133.223Z" fill="white"/>
<path opacity="0.5" d="M870.711 148.172C871.654 148.172 872.418 147.4 872.418 146.447C872.418 145.495 871.654 144.722 870.711 144.722C869.769 144.722 869.005 145.495 869.005 146.447C869.005 147.4 869.769 148.172 870.711 148.172Z" fill="white"/>
<path opacity="0.5" d="M857.629 63.6518C858.571 63.6518 859.335 62.8796 859.335 61.9269C859.335 60.9743 858.571 60.202 857.629 60.202C856.686 60.202 855.922 60.9743 855.922 61.9269C855.922 62.8796 856.686 63.6518 857.629 63.6518Z" fill="white"/>
<path opacity="0.5" d="M851.941 63.0769C852.883 63.0769 853.647 62.3046 853.647 61.352C853.647 60.3993 852.883 59.6271 851.941 59.6271C850.998 59.6271 850.234 60.3993 850.234 61.352C850.234 62.3046 850.998 63.0769 851.941 63.0769Z" fill="white"/>
<path opacity="0.5" d="M855.354 59.0521C856.296 59.0521 857.06 58.2798 857.06 57.3272C857.06 56.3746 856.296 55.6023 855.354 55.6023C854.411 55.6023 853.647 56.3746 853.647 57.3272C853.647 58.2798 854.411 59.0521 855.354 59.0521Z" fill="white"/>
<path opacity="0.1" d="M970.821 59.3396C970.819 61.6864 970.088 63.9733 968.731 65.878C967.375 67.7826 965.461 69.209 963.261 69.9561C961.06 70.7031 958.682 70.7333 956.463 70.0422C954.245 69.3512 952.296 67.9738 950.893 66.1041C953.029 67.7234 955.671 68.5096 958.335 68.3183C960.998 68.127 963.503 66.971 965.391 65.0626C967.279 63.1542 968.423 60.6215 968.612 57.9294C968.801 55.2373 968.024 52.5666 966.422 50.4075C967.79 51.4495 968.9 52.7989 969.663 54.3491C970.427 55.8993 970.823 57.6079 970.821 59.3396Z" fill="black"/>
<path opacity="0.3" d="M957.941 61.1478C956.63 62.0991 955.079 62.6551 953.468 62.7512C951.857 62.8474 950.252 62.4798 948.84 61.6912C948.7 60.9153 948.633 60.1281 948.638 59.3396C948.638 56.366 949.806 53.5142 951.887 51.4116C953.967 49.3089 956.788 48.1277 959.73 48.1277C960.014 48.1217 960.299 48.1342 960.583 48.165C961.837 50.2688 962.261 52.7726 961.771 55.1783C961.282 57.5839 959.914 59.7151 957.941 61.1478Z" fill="white"/>
<path d="M953.646 60.4233C955.226 60.4233 956.507 59.1285 956.507 57.5313C956.507 55.934 955.226 54.6392 953.646 54.6392C952.066 54.6392 950.785 55.934 950.785 57.5313C950.785 59.1285 952.066 60.4233 953.646 60.4233Z" fill="white"/>
<path opacity="0.1" d="M886.638 24.2665C886.635 26.6133 885.904 28.9002 884.548 30.8048C883.192 32.7095 881.278 34.1358 879.077 34.8829C876.876 35.63 874.499 35.6602 872.28 34.9691C870.061 34.2781 868.113 32.9006 866.71 31.031C868.846 32.6503 871.488 33.4365 874.151 33.2452C876.814 33.0538 879.32 31.8979 881.208 29.9895C883.096 28.0811 884.239 25.5484 884.429 22.8563C884.618 20.1642 883.84 17.4934 882.238 15.3344C883.607 16.3763 884.716 17.7258 885.48 19.276C886.244 20.8262 886.64 22.5347 886.638 24.2665Z" fill="black"/>
<path opacity="0.3" d="M873.757 26.0748C872.446 27.0261 870.896 27.5821 869.285 27.6782C867.674 27.7744 866.069 27.4068 864.656 26.6182C864.517 25.8423 864.449 25.0551 864.454 24.2666C864.454 21.293 865.623 18.4412 867.703 16.3386C869.783 14.2359 872.605 13.0547 875.546 13.0547C875.831 13.0487 876.116 13.0612 876.399 13.092C877.653 15.1958 878.077 17.6996 877.588 20.1053C877.098 22.5109 875.731 24.6421 873.757 26.0748Z" fill="white"/>
<path d="M869.463 25.3503C871.043 25.3503 872.324 24.0555 872.324 22.4583C872.324 20.861 871.043 19.5662 869.463 19.5662C867.883 19.5662 866.602 20.861 866.602 22.4583C866.602 24.0555 867.883 25.3503 869.463 25.3503Z" fill="white"/>
<path d="M980.491 58.1265L957.198 51.5144C957.198 51.5144 963.711 50.6893 964.829 45.6583C964.829 45.6583 966.988 52.2877 971.623 47.9208C971.623 47.9208 972.448 54.1707 977.812 51.3505C977.49 51.964 977.304 52.641 977.267 53.3345C977.23 54.028 977.343 54.7213 977.598 55.3662C977.853 56.0111 978.244 56.5922 978.743 57.0688C979.243 57.5455 979.839 57.9065 980.491 58.1265Z" fill="#009245"/>
<path d="M960.697 60.5269C962.335 55.6397 957.198 51.5143 957.198 51.5143L980.491 58.1264C979.821 57.9716 979.126 57.966 978.454 58.1101C977.782 58.2542 977.149 58.5446 976.599 58.9609C976.049 59.3773 975.595 59.9098 975.269 60.5213C974.943 61.1327 974.753 61.8086 974.712 62.5019C971.584 57.2697 967.662 62.1713 967.662 62.1713C965.952 56.0048 960.697 60.5269 960.697 60.5269Z" fill="#00602E"/>
<path opacity="0.5" d="M944.656 129.773C945.599 129.773 946.363 129.001 946.363 128.048C946.363 127.096 945.599 126.323 944.656 126.323C943.714 126.323 942.95 127.096 942.95 128.048C942.95 129.001 943.714 129.773 944.656 129.773Z" fill="white"/>
<path opacity="0.5" d="M950.344 130.348C951.287 130.348 952.051 129.576 952.051 128.623C952.051 127.671 951.287 126.898 950.344 126.898C949.402 126.898 948.638 127.671 948.638 128.623C948.638 129.576 949.402 130.348 950.344 130.348Z" fill="white"/>
<path opacity="0.5" d="M946.931 134.373C947.874 134.373 948.638 133.601 948.638 132.648C948.638 131.695 947.874 130.923 946.931 130.923C945.989 130.923 945.225 131.695 945.225 132.648C945.225 133.601 945.989 134.373 946.931 134.373Z" fill="white"/>
<path opacity="0.1" d="M909.362 172.12L900.176 169.015L898.043 164.185L895.909 169.044L886.695 172.263L888.657 167.865L888.856 167.405L898.014 162.546L907.343 167.52L909.362 172.12Z" fill="black"/>
<path d="M900.289 155.072C900.289 153.802 899.271 152.772 898.014 152.772C896.757 152.772 895.739 153.802 895.739 155.072V161.396C895.739 162.667 896.757 163.696 898.014 163.696C899.271 163.696 900.289 162.667 900.289 161.396V155.072Z" fill="#C1272D"/>
<path opacity="0.1" d="M895.568 150.242C895.449 150.34 895.314 150.418 895.17 150.472C895.17 150.472 895.312 150.386 895.568 150.242Z" fill="black"/>
</svg>
