<svg width="1060" height="270" viewBox="0 0 1060 270" fill="none" xmlns="http://www.w3.org/2000/svg">
<g clip-path="url(#clip0_0_1)">
<path d="M898.522 265.531C872.346 265.531 851.039 257.009 834.559 240.007C818.078 222.962 809.861 200.785 809.861 173.435C809.861 144.562 818.209 121.212 834.95 103.384C851.691 85.5552 873.824 76.5981 901.436 76.5981C927.525 76.5981 948.615 85.1644 964.703 102.21C980.792 119.298 988.836 141.823 988.836 169.739C988.836 198.437 980.488 221.614 963.79 239.181C947.136 256.748 925.351 265.531 898.522 265.531V265.531ZM900.305 112.037C885.868 112.037 874.389 117.429 865.91 128.299C857.431 139.127 853.169 153.433 853.169 171.261C853.169 189.349 857.431 203.655 865.91 214.222C874.389 224.745 885.521 230.006 899.261 230.006C913.48 230.006 924.699 224.875 933.048 214.657C941.353 204.395 945.527 190.219 945.527 172.043C945.527 153.084 941.484 138.344 933.439 127.821C925.351 117.298 914.307 112.037 900.305 112.037V112.037Z" fill="#FEFEFE"/>
<path fill-rule="evenodd" clip-rule="evenodd" d="M97.878 73.1606H220.054C273.998 73.1606 318.134 117.296 318.134 171.241V171.241C318.134 225.186 273.998 269.322 220.054 269.322H97.878C43.9332 269.322 -0.201843 225.186 -0.201843 171.241V171.241C-0.201843 148.825 7.42373 128.105 20.2038 111.54L64.9701 255.098C65.9841 258.652 68.5236 260.424 72.0707 260.424H201.29C162.84 249.545 134.725 214.737 134.725 171.656C134.725 128.581 162.825 93.7791 201.267 82.891H134.718C131.164 82.891 128.632 84.4111 127.617 88.2194L92.3611 213.507L57.1098 88.2194C56.5077 85.9589 55.3682 84.5041 53.7993 83.6957C67.0707 76.964 82.0509 73.1606 97.878 73.1606V73.1606ZM227.042 114.855C195.908 114.855 171.336 137.519 171.336 171.656C171.336 205.791 195.908 228.454 227.042 228.454C258.171 228.454 282.748 205.791 282.748 171.656C282.748 137.519 258.171 114.855 227.042 114.855V114.855Z" fill="#FEFEFE"/>
<path d="M573.704 262.357H532.526V79.6852H573.704V262.357Z" fill="#FEFEFE"/>
<path d="M515.089 262.357H463.083L409.86 183.001C408.816 181.479 407.208 178.087 404.99 172.913H404.381V262.357H363.203V79.6852H404.381V166.043H404.99C406.033 163.651 407.729 160.259 410.121 155.867L460.562 79.6852H509.61L445.907 166.826L515.089 262.357V262.357Z" fill="#FEFEFE"/>
<path fill-rule="evenodd" clip-rule="evenodd" d="M710.714 144.707L715.835 151.331L709.209 156.472L704.064 149.848L710.714 144.707V144.707ZM681.343 106.864L686.498 113.485L679.847 118.632L674.717 112.005L681.343 106.864V106.864ZM661.786 81.64L666.925 88.2542L660.3 93.406L655.157 86.7734L661.786 81.64V81.64ZM691.143 119.47L696.278 126.105L689.65 131.244L684.507 124.622L691.143 119.47V119.47ZM700.908 132.079L706.07 138.717L699.439 143.864L694.29 137.221L700.908 132.079V132.079ZM675.295 172.161L680.436 178.78L673.81 183.926L668.671 177.306L675.295 172.161V172.161ZM665.515 159.551L670.65 166.175L664.024 171.324L658.875 164.696L665.515 159.551V159.551ZM733.99 247.838L739.142 254.456L732.494 259.607L727.357 252.98L733.99 247.838V247.838ZM704.644 210.001L709.779 216.62L703.145 221.758L698.012 215.144L704.644 210.001V210.001ZM685.085 184.769L690.224 191.399L683.573 196.542L678.455 189.911L685.085 184.769ZM714.432 222.603L719.567 229.233L712.919 234.371L707.786 227.746L714.432 222.603V222.603ZM724.218 235.219L729.346 241.86L722.714 247L717.581 240.372L724.218 235.219V235.219ZM694.857 197.381L700.003 204.017L693.379 209.152L688.22 202.526L694.857 197.381ZM720.478 157.321L725.615 163.935L718.991 169.086L713.852 162.45L720.478 157.321ZM730.264 169.917L735.413 176.551L728.783 181.692L723.63 175.057L730.264 169.917ZM671.561 94.2485L676.706 100.874L670.08 106.014L664.941 99.3841L671.561 94.2485ZM668.598 78.7298L723.826 149.932L740.921 171.978V183.667L740.045 182.541L733.422 187.682L738.548 194.3L740.921 192.461V262.517H725.694L670.464 191.299L653.363 169.257V157.568L654.242 158.7L660.875 153.561L655.736 146.927L653.363 148.77V82.1778L650.736 78.7298H668.598V78.7298Z" fill="#FEFEFE"/>
<path d="M740.713 78.7298H781.73V262.517H740.713V78.7298Z" fill="#FEFEFE"/>
<path d="M653.529 147.352V262.517H612.512V78.7298H650.902L653.529 82.1778V147.352Z" fill="#FEFEFE"/>
<path d="M245.084 171.382L238.444 159.88H268.05C269.244 163.82 269.893 167.995 269.893 172.32C269.893 182.242 266.504 191.381 260.834 198.662L245.084 171.382V171.382Z" fill="#FEFEFE"/>
<path d="M266.715 156.127H236.277H235.194H221.912L236.713 130.492C250.352 133.683 261.509 143.381 266.715 156.127Z" fill="#FEFEFE"/>
<path d="M226.928 129.355C228.921 129.355 230.878 129.502 232.799 129.766L217.58 156.128L210.397 168.568L195.609 142.953C203.453 134.592 214.587 129.355 226.928 129.355Z" fill="#FEFEFE"/>
<path d="M193.022 145.978L208.231 172.32L208.483 172.757L208.772 173.258L215.413 184.76H185.806C184.612 180.82 183.963 176.645 183.963 172.32C183.963 162.398 187.353 153.259 193.022 145.978V145.978Z" fill="#FEFEFE"/>
<path d="M187.141 188.513H217.58H218.663H231.944L217.143 214.148C203.504 210.957 192.348 201.259 187.141 188.513V188.513Z" fill="#FEFEFE"/>
<path d="M226.929 215.285C224.936 215.285 222.979 215.137 221.057 214.874L236.277 188.513L243.459 176.072L258.248 201.688C250.404 210.048 239.269 215.285 226.929 215.285V215.285Z" fill="#FEFEFE"/>
</g>
<path d="M830.937 89.6396C830.937 89.6396 843.973 38.6977 896.123 17.3559C896.123 17.3559 916.664 -12.2761 980.666 5.89681C980.666 5.89681 999.631 18.5403 1002.79 25.6462C1002.79 25.6462 1030.84 30.3915 1030.84 62.7843C1030.84 62.7843 1036.37 71.0826 1034.79 91.6242L1039.14 135.476L1018.2 151.672L1017.01 143.774C1017.01 143.774 996.862 113.35 995.678 103.875C995.678 103.875 990.148 99.5303 990.148 110.197L995.678 126.786L841.996 114.878L830.937 89.6396Z" fill="#E14B4B"/>
<path d="M1003.87 66.3213C999.367 46.3638 992.781 26.8785 984.147 8.28946C988.18 11.1782 994.862 16.2036 999.127 20.7088C1002.02 35.7369 1003.58 51.0051 1003.87 66.3213Z" fill="#D03F3E"/>
<path d="M945.696 22.6054C947.449 22.5093 948.969 23.2215 950.298 24.3578C948.785 23.7417 947.217 23.1735 945.696 22.6054Z" fill="#D03F3E"/>
<path d="M995.622 103.819C995.054 103.435 990.22 100.17 990.172 110.077C988.036 107.236 986.235 104.012 984.195 101.115C978.505 92.9605 970.255 86.9429 962.197 81.0613C946.785 69.8262 930.908 58.3991 912.607 52.9976C921.618 52.5255 930.388 55.7504 938.774 59.0153C955.371 65.465 972.48 72.9071 983.435 86.8949C983.387 77.5083 978.361 68.97 973.48 60.9598C967.078 50.4369 960.676 39.9061 954.275 29.3832C953.186 27.5827 951.858 25.6382 950.29 24.3578C957.404 27.0626 964.277 30.3755 969.631 35.6889C976.745 42.7549 980.298 52.5175 983.427 62.0481C987.94 75.8038 992.021 89.7837 995.622 103.819Z" fill="#D03F3E"/>
<path d="M804.17 142.598C804.17 136.428 804.114 143.51 804.058 140.926C803.834 147.863 803.978 109.637 809.883 105.604C814.109 101.355 817.974 88.4713 821.359 93.4086C824.247 91 826.264 94.5529 827.888 90.3038C829.513 89.4556 830.745 85.6225 832.057 89.7036C833.37 88.7594 834.77 92.4644 836.731 91.3281C838.691 94.2569 841.204 92.4644 844.765 94.889C844.765 97.6658 846.085 91.5521 848.078 94.5049C850.078 97.0496 852.751 95.0331 855.472 93.3926C858.193 90.5439 860.961 88.9354 863.13 91.6241C864.762 93.5367 867.035 94.0168 869.54 91.216C872.036 88.8954 874.765 89.7196 877.278 92.3283C879.798 95.8333 882.111 96.0974 883.8 93.8328C885.488 96.3134 886.536 93.0245 886.536 94.585C886.536 94.697 887.176 96.9696 888.329 94.5129C889.481 93.8808 891.13 95.8013 893.154 94.4009C895.179 97.3217 897.571 93.8808 900.188 94.4089C902.813 91.7522 905.661 89.6076 908.606 94.689C911.551 92.4804 914.584 93.2006 917.577 95.4012C920.57 94.4489 923.514 95.1531 926.283 96.7055C929.044 96.0734 931.629 100.611 933.885 98.7461C936.15 96.5375 938.086 94.593 939.567 101.691C939.567 100.218 940.263 103.723 941.511 102.155C942.76 102.939 944.552 101.395 946.745 103.459C948.937 103.291 951.522 104.46 954.363 105.468C957.196 102.427 960.276 107.484 963.453 108.061C966.63 109.685 969.903 113.598 973.112 111.093C976.329 107.965 979.482 112.622 982.434 114.438C985.387 120.096 988.132 115.719 990.517 117.967C992.901 119.144 994.934 118.359 996.446 121.544C996.446 121.616 997.735 125.753 997.959 125.954C998.375 126.594 998.831 131.459 999.271 131.107C1001.06 135.916 1002.1 157.49 999.119 165.988C999.119 165.964 998.767 164.5 998.047 167.237C997.326 167.733 996.238 166.132 994.782 169.885C993.325 171.926 991.485 170.75 989.268 172.262C987.052 175.999 984.443 174.359 981.45 172.702C978.457 171.03 975.064 169.725 971.271 169.541C971.271 165.756 971.047 168.373 970.615 169.317C970.183 171.302 969.535 167.421 968.687 168.693C967.838 163.86 966.79 169.229 965.558 167.733C964.317 166.413 962.893 167.789 961.285 166.517C959.676 170.478 957.892 164.924 955.939 165.108C953.987 162.259 951.858 160.003 949.577 163.572C947.297 163.964 944.856 159.075 942.271 161.987C939.687 159.387 936.95 164.612 934.077 160.419C931.204 161.579 928.196 158.106 925.067 158.938C921.93 157.738 918.673 159.603 915.296 157.618C911.919 157.858 908.43 158.506 904.837 156.522C901.244 156.098 897.539 153.601 893.746 155.73C889.953 154.161 886.064 155.297 882.095 155.305C878.126 153.905 874.069 154.801 869.94 155.313C862.73 153.497 856.4 154.865 850.855 155.418C845.309 156.042 840.548 154.921 836.459 154.873C832.37 153.889 828.953 153.473 826.096 153.897C823.239 157.298 820.942 152.425 819.102 152.681C817.261 152.153 815.869 149.072 814.821 151.408C813.772 151.304 813.06 148.4 812.58 150.264C812.1 149.704 811.852 150.704 811.724 149.44C811.596 151.08 811.588 153.353 811.588 149.12C811.588 154.145 810.179 150.272 808.555 147.751C806.915 148.088 805.058 150.728 804.17 142.598Z" fill="#DAE5EF"/>
<path d="M1056.81 142.726C1063.86 153.889 1058.56 170.926 1047.4 177.984C1036.23 185.042 1021.46 181.705 1014.4 170.542C1007.35 159.379 1010.68 144.607 1021.85 137.549C1033 130.491 1049.75 131.555 1056.81 142.726Z" fill="#DAE5EF"/>
<path d="M1055.93 168.749C1053.85 172.51 1050.89 175.711 1047.36 177.952C1036.24 185.074 1021.44 181.713 1014.4 170.51C1007.35 159.387 1010.63 144.583 1021.84 137.541C1022.4 137.221 1022.88 136.9 1023.44 136.66C1019.6 143.942 1019.68 153.065 1024.4 160.507C1031.12 171.23 1045.04 174.751 1055.93 168.749Z" fill="#CBD6E0"/>
<path d="M1024.53 137.148C1024.63 136.828 1024.58 136.5 1024.48 136.188C1024.44 136.204 1024.41 136.228 1024.37 136.244L1024.53 137.148Z" fill="#CBD6E0"/>
<defs>
<clipPath id="clip0_0_1">
<rect width="989.038" height="196.161" fill="white" transform="translate(0 73)"/>
</clipPath>
</defs>
</svg>
